<svg xmlns="http://www.w3.org/2000/svg" xmlns:xlink="http://www.w3.org/1999/xlink" fill="none" version="1.1" width="550.46826171875" height="590.286865234375" viewBox="0 0 550.46826171875 590.286865234375"><defs><linearGradient x1="0" y1="0.16720843315124512" x2="1.0571787532775343" y2="0.3145698626213793" id="master_svg0_2_5795"><stop offset="0%" stop-color="#BEE0FB" stop-opacity="1"/><stop offset="100%" stop-color="#94CCFF" stop-opacity="1"/></linearGradient></defs><g><g><path d="M34.615234375,134.28683471679688L34.615234375,446.2868347167969L82.615234375,446.2868347167969C135.634234375,446.2868347167969,178.615234375,403.3058347167969,178.615234375,350.2868347167969L178.615234375,230.28683471679688C178.615234375,177.2675347167969,135.634234375,134.28683471679688,82.615234375,134.28683471679688L34.615234375,134.28683471679688Z" fill="#ED8456" fill-opacity="1"/></g><g><path d="M34.615234375,518.2868347167969C34.615234375,558.0518347167969,66.850734375,590.2868347167969,106.615234375,590.2868347167969C146.380234375,590.2868347167969,178.615234375,558.0518347167969,178.615234375,518.2868347167969L178.615234375,446.2868347167969L106.615234375,446.2868347167969C66.850734375,446.2868347167969,34.615234375,478.5223347167969,34.615234375,518.2868347167969Z" fill="#5BC279" fill-opacity="1"/></g><g><g><path d="M300.615234375,162.28683471679688L425.615234375,162.28683471679688L425.615234375,99.28683471679688C425.615234375,56.760934716796875,391.141134375,22.286834716796875,348.615234375,22.286834716796875L300.615234375,22.286834716796875L300.615234375,162.28683471679688Z" fill="#000000" fill-opacity="1"/></g></g><g><g><path d="M255.840234375,148.20783471679687L322.269234375,38.413134716796876L268.961234375,6.1605347167968745L241.269234375,51.931334716796876L236.767234375,27.672044716796876Q234.801234375,17.073994716796875,227.095234375,9.587534716796876Q220.041234375,2.7352347167968745,210.395234375,0.7321347167968746Q200.748234375,-1.271065283203125,191.550234375,2.2066347167968736Q181.500234375,6.0061347167968755,175.477234375,14.945194716796875L134.132234375,76.30473471679687L134.132234375,41.25673471679687Q134.132234375,29.560894716796874,126.946234375,20.395574716796876Q120.458934375,12.121534716796875,110.397734375,8.979234716796874Q100.336534375,5.837034716796875,90.293434375,8.948534716796875Q79.16863437500001,12.395234716796875,72.512434375,22.012294716796873L-0.0001656250000010573,126.77983471679687L51.230634375,162.23783471679687L71.82733437499999,132.47983471679686L71.82733437499999,169.57083471679687Q71.82733437499999,181.33483471679688,79.087634375,190.52683471679688Q85.635034375,198.81583471679687,95.763634375,201.90983471679687Q105.892034375,205.0038347167969,115.954034375,201.78783471679688Q127.111234375,198.22183471679688,133.685234375,188.46583471679688L188.217234375,107.53553471679687L193.660234375,136.87183471679685Q195.674234375,147.7238347167969,203.668234375,155.27883471679687Q210.957234375,162.16683471679687,220.843234375,163.96983471679687Q230.730234375,165.7718347167969,239.980234375,161.89883471679687Q250.126234375,157.65083471679688,255.840234375,148.20783471679687Z" fill-rule="evenodd" fill="#0061EE" fill-opacity="1"/></g><g transform="matrix(0.5989153385162354,-0.8008123636245728,0.8008123636245728,0.5989153385162354,-53.330811034840735,95.44209298381611)"><g><ellipse cx="91.615234375" cy="123.96163940429688" rx="23" ry="23" fill="#FFFFFF" fill-opacity="1"/></g><g><ellipse cx="103.115234375" cy="118.96163940429688" rx="10.5" ry="11" fill="#000000" fill-opacity="1"/></g></g><g transform="matrix(0.5989153385162354,-0.8008123636245728,0.8008123636245728,0.5989153385162354,-12.780768022883422,102.73018218734796)"><g><ellipse cx="119.166015625" cy="87.12423706054688" rx="23" ry="23" fill="#FFFFFF" fill-opacity="1"/></g><g><ellipse cx="130.666015625" cy="82.12423706054688" rx="10.5" ry="11" fill="#000000" fill-opacity="1"/></g></g></g><g><path d="M178.615234375,206.28683471679688C178.615234375,259.3058347167969,221.595934375,302.2868347167969,274.615234375,302.2868347167969L430.615234375,302.2868347167969C477.007234375,302.2868347167969,514.615234375,264.67883471679687,514.615234375,218.28683471679688C514.615234375,171.89493471679688,477.007234375,134.28683471679688,430.615234375,134.28683471679688L178.615234375,134.28683471679688L178.615234375,206.28683471679688Z" fill="url(#master_svg0_2_5795)" fill-opacity="1"/></g><g transform="matrix(0.7071067690849304,0.7071067690849304,-0.7071067690849304,0.7071067690849304,368.137519789665,63.81107261039688)"><path d="M115.1818821875,479.9929047167969C112.6226821875,479.0108247167969,109.7628621875,481.8732847167969,110.7432621875,484.43311471679687Q114.9289821875,495.36203471679687,114.9289821875,506.2895347167969Q114.9289821875,517.2170347167969,110.7432621875,528.1431347167969C109.7628521875,530.7022347167969,112.6279821875,533.5641347167968,115.1869921875,532.5833347167969Q126.1144921875,528.3950347167969,137.0419921875,528.3950347167969Q147.9694921875,528.3950347167969,158.8969921875,532.5833347167969C161.4565921875,533.5643347167969,164.3183921875,530.7028347167968,163.33689218749998,528.1434347167968Q159.1467921875,517.2177347167968,159.1467921875,506.2902347167969Q159.1467921875,495.36273471679687,163.33689218749998,484.43343471679685C164.3179921875,481.8741847167969,161.4511921875,479.01182471679687,158.8918921875,479.9929047167969Q147.95859218750002,484.18404471679685,137.0310921875,484.18404471679685Q126.1035921875,484.18404471679685,115.1818821875,479.9929047167969Z" fill="#FFFFFF" fill-opacity="1"/></g><g><g><path d="M330.615234375,380.2868347167969Q330.615234375,382.4962347167969,330.507234375,384.7029347167969Q330.398234375,386.90963471679686,330.182234375,389.1083347167969Q329.965234375,391.30683471679686,329.641234375,393.4928347167969Q329.317234375,395.6778347167969,328.88623437499996,397.84483471679687Q328.45523437500003,400.0118347167969,327.918234375,402.15483471679687Q327.38123437499996,404.29783471679684,326.740234375,406.41283471679685Q326.098234375,408.5268347167969,325.35423437500003,410.60683471679687Q324.610234375,412.68683471679685,323.764234375,414.7278347167969Q322.919234375,416.7698347167969,321.97423437500004,418.7668347167969Q321.029234375,420.76383471679685,319.988234375,422.71283471679686Q318.946234375,424.6608347167969,317.811234375,426.5558347167969Q316.675234375,428.45083471679686,315.447234375,430.28783471679685Q314.220234375,432.12483471679684,312.904234375,433.8998347167969Q311.588234375,435.6748347167969,310.186234375,437.3818347167969Q308.784234375,439.0898347167969,307.30123437500004,440.7268347167969Q305.817234375,442.3638347167969,304.255234375,443.92683471679686Q302.692234375,445.4888347167969,301.055234375,446.9728347167969Q299.418234375,448.45583471679686,297.710234375,449.8578347167969Q296.002234375,451.2598347167969,294.228234375,452.57583471679686Q292.45323437499997,453.8918347167969,290.616234375,455.11883471679687Q288.779234375,456.3468347167969,286.884234375,457.4828347167969Q284.989234375,458.6178347167969,283.041234375,459.65983471679687Q281.092234375,460.70083471679686,279.095234375,461.6458347167969Q277.098234375,462.59083471679685,275.05623437500003,463.4358347167969Q273.015234375,464.2818347167969,270.935234375,465.0258347167969Q268.855234375,465.7698347167969,266.741234375,466.4118347167969Q264.62623437499997,467.05283471679684,262.483234375,467.5898347167969Q260.340234375,468.1268347167969,258.173234375,468.55783471679683Q256.006234375,468.9888347167969,253.82123437500002,469.3128347167969Q251.63523437499998,469.6368347167969,249.43673437500001,469.8538347167969Q247.23803437499998,470.0698347167969,245.031334375,470.17883471679687Q242.82463437500002,470.2868347167969,240.615234375,470.2868347167969Q238.40583437499998,470.2868347167969,236.199134375,470.17883471679687Q233.99243437500002,470.0698347167969,231.79373437499999,469.8538347167969Q229.59493437499998,469.6368347167969,227.40953437500002,469.3128347167969Q225.224034375,468.9888347167969,223.057134375,468.55783471679683Q220.890134375,468.1268347167969,218.747034375,467.5898347167969Q216.60383437500002,467.05283471679684,214.489634375,466.4118347167969Q212.375334375,465.7698347167969,210.295134375,465.0258347167969Q208.21493437499998,464.2818347167969,206.173734375,463.4358347167969Q204.132534375,462.59083471679685,202.135234375,461.6458347167969Q200.138034375,460.70083471679686,198.189534375,459.65983471679687Q196.241034375,458.6178347167969,194.345934375,457.4828347167969Q192.450934375,456.3468347167969,190.61393437499999,455.11883471679687Q188.776834375,453.8918347167969,187.002334375,452.57583471679686Q185.227734375,451.2598347167969,183.51983437500002,449.8578347167969Q181.811934375,448.45583471679686,180.174934375,446.9728347167969Q178.537834375,445.4888347167969,176.975634375,443.92683471679686Q175.413334375,442.3638347167969,173.929634375,440.7268347167969Q172.445934375,439.0898347167969,171.044334375,437.3818347167969Q169.642634375,435.6738347167969,168.326534375,433.8998347167969Q167.010434375,432.12483471679684,165.782934375,430.28783471679685Q164.555534375,428.45083471679686,163.419634375,426.5558347167969Q162.283834375,424.6608347167969,161.242334375,422.71283471679686Q160.200824375,420.76383471679685,159.256194375,418.7668347167969Q158.311564375,416.7698347167969,157.466074375,414.7278347167969Q156.620584375,412.68683471679685,155.876264375,410.60683471679687Q155.131954375,408.5268347167969,154.490604375,406.41283471679685Q153.849254375,404.29783471679684,153.312424375,402.15483471679687Q152.775584375,400.0118347167969,152.344554375,397.84483471679687Q151.913534375,395.6778347167969,151.589348375,393.4928347167969Q151.265165375,391.30683471679686,151.048609375,389.1083347167969Q150.832052375,386.90963471679686,150.723643375,384.7029347167969Q150.615234375,382.4962347167969,150.615234375,380.2868347167969Q150.615234375,378.07743471679686,150.723643375,375.87073471679685Q150.832052375,373.6640347167969,151.048609375,371.46533471679686Q151.265165375,369.26653471679685,151.589348375,367.0811347167969Q151.913534375,364.89563471679685,152.344554375,362.7287347167969Q152.775584375,360.5617347167969,153.312424375,358.4186347167969Q153.849254375,356.2754347167969,154.490604375,354.16123471679686Q155.131954375,352.0469347167969,155.876264375,349.96673471679685Q156.620584375,347.88653471679686,157.466074375,345.84533471679686Q158.311564375,343.80413471679685,159.256194375,341.80683471679686Q160.200824375,339.8096347167969,161.242334375,337.86113471679687Q162.283834375,335.9126347167969,163.419634375,334.0175347167969Q164.555534375,332.12253471679685,165.782934375,330.28553471679686Q167.010434375,328.4484347167969,168.326534375,326.67393471679685Q169.642634375,324.8993347167969,171.044334375,323.1914347167969Q172.445934375,321.4835347167969,173.929634375,319.8465347167969Q175.413334375,318.20943471679686,176.975634375,316.6472347167969Q178.537834375,315.08493471679685,180.174934375,313.60123471679685Q181.811934375,312.11753471679685,183.51983437500002,310.7159347167969Q185.227734375,309.3142347167969,187.002334375,307.99813471679687Q188.776834375,306.68203471679686,190.61393437499999,305.4545347167969Q192.450934375,304.22713471679685,194.345934375,303.09123471679686Q196.241034375,301.9554347167969,198.189534375,300.91393471679686Q200.138034375,299.8724247167969,202.135234375,298.9277947167969Q204.132534375,297.98316471679686,206.173734375,297.1376747167969Q208.21493437499998,296.2921847167969,210.295134375,295.5478647167969Q212.375334375,294.8035547167969,214.489634375,294.16220471679685Q216.60383437500002,293.52085471679686,218.747034375,292.98402471679685Q220.890134375,292.44718471679687,223.057134375,292.01615471679685Q225.224034375,291.58513471679686,227.40953437500002,291.26094871679686Q229.59493437499998,290.93676571679686,231.79373437499999,290.7202097167969Q233.99243437500002,290.50365271679686,236.199134375,290.39524371679687Q238.40583437499998,290.2868347167969,240.615234375,290.2868347167969Q242.82463437500002,290.2868347167969,245.031334375,290.39524371679687Q247.23803437499998,290.50365271679686,249.43673437500001,290.7202097167969Q251.63523437499998,290.93676571679686,253.82123437500002,291.26094871679686Q256.006234375,291.58513471679686,258.173234375,292.01615471679685Q260.340234375,292.44718471679687,262.483234375,292.98402471679685Q264.62623437499997,293.52085471679686,266.741234375,294.16220471679685Q268.855234375,294.8035547167969,270.935234375,295.5478647167969Q273.015234375,296.2921847167969,275.05623437500003,297.1376747167969Q277.098234375,297.98316471679686,279.095234375,298.9277947167969Q281.092234375,299.8724247167969,283.041234375,300.91393471679686Q284.989234375,301.9554347167969,286.884234375,303.09123471679686Q288.779234375,304.22713471679685,290.616234375,305.4545347167969Q292.45323437499997,306.68203471679686,294.228234375,307.99813471679687Q296.00323437500003,309.3142347167969,297.710234375,310.7159347167969Q299.418234375,312.11753471679685,301.055234375,313.60123471679685Q302.692234375,315.08493471679685,304.255234375,316.6472347167969Q305.817234375,318.20943471679686,307.30123437500004,319.8465347167969Q308.784234375,321.4835347167969,310.186234375,323.1914347167969Q311.588234375,324.8993347167969,312.904234375,326.67393471679685Q314.220234375,328.4484347167969,315.447234375,330.28553471679686Q316.675234375,332.12253471679685,317.811234375,334.0175347167969Q318.946234375,335.9126347167969,319.988234375,337.86113471679687Q321.029234375,339.8096347167969,321.97423437500004,341.80683471679686Q322.919234375,343.80413471679685,323.764234375,345.84533471679686Q324.610234375,347.88653471679686,325.35423437500003,349.96673471679685Q326.098234375,352.0469347167969,326.740234375,354.16123471679686Q327.38123437499996,356.2754347167969,327.918234375,358.4186347167969Q328.45523437500003,360.5617347167969,328.88623437499996,362.7287347167969Q329.317234375,364.89563471679685,329.641234375,367.0811347167969Q329.965234375,369.26653471679685,330.182234375,371.46533471679686Q330.398234375,373.6640347167969,330.507234375,375.87073471679685Q330.615234375,378.07743471679686,330.615234375,380.2868347167969Z" fill="#FFDD00" fill-opacity="1"/></g><g><path d="M193.619384375,335.8251247167969Q202.189634375,340.7868347167969,211.115234375,340.7868347167969Q220.302934375,340.7868347167969,229.054334375,337.10393471679686Q229.058634375,337.10211471679685,229.063034375,337.1002947167969Q229.807434375,336.7868347167969,230.615234375,336.7868347167969Q230.81173437500001,336.7868347167969,231.007334375,336.80609471679685Q231.202834375,336.8253547167969,231.395634375,336.8636947167969Q231.588334375,336.9020347167969,231.776334375,336.95907471679686Q231.964434375,337.0161147167969,232.145934375,337.0913147167969Q232.327534375,337.1665147167969,232.500834375,337.2591547167969Q232.674134375,337.3517847167969,232.837534375,337.4609547167969Q233.00093437499999,337.5701347167969,233.152834375,337.6947947167969Q233.304734375,337.8194547167969,233.443634375,337.95840471679685Q233.582634375,338.0973547167969,233.70723437499998,338.24926471679686Q233.831934375,338.4011637167969,233.941134375,338.56455371679687Q234.050334375,338.72794371679686,234.142934375,338.9012477167969Q234.235534375,339.07455171679686,234.310734375,339.2561010167969Q234.385934375,339.4376497167969,234.443034375,339.6256957167969Q234.50003437499998,339.81374171679687,234.538334375,340.00647371679685Q234.576734375,340.1992047167969,234.595934375,340.3947647167969Q234.615234375,340.5903247167969,234.615234375,340.7868347167969Q234.615234375,340.93343471679685,234.60453437500001,341.07964471679685Q234.593734375,341.22584471679687,234.572334375,341.3708747167969Q234.550934375,341.51590471679685,234.519034375,341.6589747167969Q234.487034375,341.8020547167969,234.444634375,341.94239471679685Q234.402334375,342.08274471679687,234.349834375,342.2196247167969Q234.297334375,342.3564947167969,234.234934375,342.48915471679686Q234.172534375,342.62181471679685,234.100634375,342.74955471679687Q234.028634375,342.8772947167969,233.947534375,342.99942471679685Q233.86643437499998,343.1215547167969,233.77663437500001,343.2374147167969Q233.686834375,343.35328471679685,233.588834375,343.4622647167969Q233.490734375,343.57124471679685,233.384934375,343.6727547167969Q233.279234375,343.7742647167969,233.166334375,343.8677647167969Q233.053334375,343.9612547167969,232.933934375,344.0462347167969Q232.814434375,344.1312147167969,232.689134375,344.2072247167969Q232.563734375,344.28323471679687,232.433134375,344.34985471679687Q232.302534375,344.4164847167969,232.167434375,344.47337471679685Q221.923034375,348.7868347167969,211.115234375,348.7868347167969Q200.040874375,348.7868347167969,189.611084375,342.74854471679686Q189.384454375,342.61733471679685,189.176864375,342.4576947167969Q188.969274375,342.2980647167969,188.784264375,342.1127247167969Q188.599264375,341.9273847167969,188.440004375,341.71950471679685Q188.280734375,341.51162471679686,188.149934375,341.2847647167969Q188.019134375,341.05789471679685,187.919034375,340.81590471679687Q187.818924375,340.57392471679685,187.751224375,340.32095471679685Q187.683524375,340.0679837167969,187.649374375,339.80834571679685Q187.615234375,339.54870771679686,187.615234375,339.2868347167969Q187.615234375,339.0903277167969,187.634494375,338.8947657167969Q187.653754375,338.6992047167969,187.692094375,338.50647371679685Q187.730434375,338.31374171679687,187.787474375,338.1256947167969Q187.844514375,337.9376547167969,187.919714375,337.75610471679687Q187.994914375,337.57455471679685,188.087554375,337.4012447167969Q188.180184375,337.22794471679686,188.289354375,337.06455471679686Q188.398534375,336.90116471679687,188.523194375,336.74926471679686Q188.647854375,336.5973547167969,188.786804375,336.45840471679685Q188.925754375,336.3194547167969,189.077664375,336.1947947167969Q189.229564375,336.0701347167969,189.392954375,335.9609547167969Q189.556344375,335.8517847167969,189.729644375,335.7591547167969Q189.902954375,335.6665147167969,190.084504375,335.5913147167969Q190.266054375,335.5161147167969,190.454094375,335.45907471679686Q190.642141375,335.4020347167969,190.834873375,335.3636947167969Q191.027604375,335.3253547167969,191.223165375,335.30609471679685Q191.418727375,335.2868347167969,191.615234375,335.2868347167969Q192.143062375,335.2868347167969,192.652824375,335.42375471679685Q193.162584375,335.56066471679685,193.619384375,335.8251247167969Z" fill-rule="evenodd" fill="#000000" fill-opacity="1"/></g><g><path d="M258.619384375,335.8251247167969Q267.189634375,340.7868347167969,276.115234375,340.7868347167969Q285.302934375,340.7868347167969,294.054334375,337.10393471679686Q294.058634375,337.10211471679685,294.06303437500003,337.1002947167969Q294.807434375,336.7868347167969,295.615234375,336.7868347167969Q295.811734375,336.7868347167969,296.007334375,336.80609471679685Q296.202834375,336.8253547167969,296.395634375,336.8636947167969Q296.588334375,336.9020347167969,296.776334375,336.95907471679686Q296.964434375,337.0161147167969,297.145934375,337.0913147167969Q297.327534375,337.1665147167969,297.500834375,337.2591547167969Q297.674134375,337.3517847167969,297.837534375,337.4609547167969Q298.000934375,337.5701347167969,298.152834375,337.6947947167969Q298.304734375,337.8194547167969,298.443634375,337.95840471679685Q298.582634375,338.0973547167969,298.707234375,338.24926471679686Q298.831934375,338.4011637167969,298.941134375,338.56455371679687Q299.050334375,338.72794371679686,299.142934375,338.9012477167969Q299.235534375,339.07455171679686,299.310734375,339.2561010167969Q299.385934375,339.4376497167969,299.443034375,339.6256957167969Q299.500034375,339.81374171679687,299.538334375,340.00647371679685Q299.576734375,340.1992047167969,299.595934375,340.3947647167969Q299.615234375,340.5903247167969,299.615234375,340.7868347167969Q299.615234375,340.93343471679685,299.604534375,341.07964471679685Q299.593734375,341.22584471679687,299.57233437499997,341.3708747167969Q299.550934375,341.51590471679685,299.519034375,341.6589747167969Q299.487034375,341.8020547167969,299.444634375,341.94239471679685Q299.402334375,342.08274471679687,299.349834375,342.2196247167969Q299.297334375,342.3564947167969,299.234934375,342.48915471679686Q299.172534375,342.62181471679685,299.100634375,342.74955471679687Q299.028634375,342.8772947167969,298.947534375,342.99942471679685Q298.866434375,343.1215547167969,298.776634375,343.2374147167969Q298.686834375,343.35328471679685,298.588834375,343.4622647167969Q298.490734375,343.57124471679685,298.384934375,343.6727547167969Q298.279234375,343.7742647167969,298.166334375,343.8677647167969Q298.053334375,343.9612547167969,297.933934375,344.0462347167969Q297.814434375,344.1312147167969,297.689134375,344.2072247167969Q297.563734375,344.28323471679687,297.433134375,344.34985471679687Q297.302534375,344.4164847167969,297.16743437499997,344.47337471679685Q286.923034375,348.7868347167969,276.115234375,348.7868347167969Q265.040874375,348.7868347167969,254.611084375,342.74854471679686Q254.384454375,342.61733471679685,254.176864375,342.4576947167969Q253.969274375,342.2980647167969,253.784264375,342.1127247167969Q253.599264375,341.9273847167969,253.440004375,341.71950471679685Q253.280734375,341.51162471679686,253.149934375,341.2847647167969Q253.019134375,341.05789471679685,252.919034375,340.81590471679687Q252.818924375,340.57392471679685,252.751224375,340.32095471679685Q252.683524375,340.0679837167969,252.649374375,339.80834571679685Q252.615234375,339.54870771679686,252.615234375,339.2868347167969Q252.615234375,339.0903277167969,252.634494375,338.8947657167969Q252.653754375,338.6992047167969,252.692094375,338.50647371679685Q252.730434375,338.31374171679687,252.787474375,338.1256947167969Q252.844514375,337.9376547167969,252.919714375,337.75610471679687Q252.994914375,337.57455471679685,253.087554375,337.4012447167969Q253.180184375,337.22794471679686,253.289354375,337.06455471679686Q253.398534375,336.90116471679687,253.523194375,336.74926471679686Q253.647854375,336.5973547167969,253.786804375,336.45840471679685Q253.925754375,336.3194547167969,254.077664375,336.1947947167969Q254.229564375,336.0701347167969,254.392954375,335.9609547167969Q254.556344375,335.8517847167969,254.729644375,335.7591547167969Q254.902954375,335.6665147167969,255.084504375,335.5913147167969Q255.266054375,335.5161147167969,255.454094375,335.45907471679686Q255.642141375,335.4020347167969,255.834873375,335.3636947167969Q256.027604375,335.3253547167969,256.223165375,335.30609471679685Q256.418727375,335.2868347167969,256.615234375,335.2868347167969Q257.143062375,335.2868347167969,257.652824375,335.42375471679685Q258.162584375,335.56066471679685,258.619384375,335.8251247167969Z" fill-rule="evenodd" fill="#000000" fill-opacity="1"/></g><g transform="matrix(1,0,0,-1,0,756.5736694335938)"><path d="M178.713984375,398.5331347167969L178.713614375,398.53353471679685Q178.451544375,398.80973471679687,178.246294375,399.13043471679686Q178.041034375,399.45103471679687,177.899964375,399.8047347167969Q177.758884375,400.1583347167969,177.687064375,400.5322347167969Q177.615234375,400.9061347167969,177.615234375,401.2868347167969Q177.615234375,401.4833347167969,177.634494375,401.6789347167969Q177.653754375,401.8744347167969,177.692094375,402.06723471679686Q177.730434375,402.25993471679686,177.787474375,402.44793471679685Q177.844514375,402.63603471679687,177.919714375,402.8175347167969Q177.994914375,402.9991347167969,178.087554375,403.1724347167969Q178.180184375,403.34573471679687,178.289354375,403.5091347167969Q178.398534375,403.67253471679686,178.523194375,403.8244347167969Q178.647854375,403.9763347167969,178.786804375,404.11523471679686Q178.925754375,404.2542347167969,179.077664375,404.37883471679686Q179.229564375,404.5035347167969,179.392954375,404.61273471679687Q179.556344375,404.7218347167969,179.729644375,404.81453471679686Q179.902954375,404.90713471679686,180.084504375,404.98233471679686Q180.266054375,405.05753471679685,180.454094375,405.1146347167969Q180.642141375,405.17163471679686,180.834873375,405.20993471679685Q181.027604375,405.2483347167969,181.223165375,405.2675347167969Q181.418727375,405.2868347167969,181.615234375,405.2868347167969Q182.022443375,405.2868347167969,182.421299375,405.20473471679685Q182.820154375,405.12273471679686,183.194294375,404.96193471679686Q183.568424375,404.8012347167969,183.902494375,404.56833471679687Q184.236564375,404.3355347167969,184.516854375,404.0401347167969Q184.518614375,404.03823471679686,184.520374375,404.03643471679686Q184.521144375,404.0356347167969,184.521914375,404.03483471679687Q205.163034375,382.2868347167969,245.057634375,382.2868347167969Q284.908234375,382.2868347167969,304.65723437500003,403.97963471679685Q304.797234375,404.1336347167969,304.95323437499997,404.2722347167969Q305.108234375,404.4108347167969,305.27723437500003,404.5325347167969Q305.446234375,404.65423471679685,305.627234375,404.7578347167969Q305.808234375,404.8613347167969,305.998234375,404.94543471679685Q306.189234375,405.02963471679686,306.387234375,405.0936347167969Q306.585234375,405.1575347167969,306.789234375,405.2005347167969Q306.993234375,405.2435347167969,307.200234375,405.2652347167969Q307.40723437500003,405.2868347167969,307.615234375,405.2868347167969Q307.812234375,405.2868347167969,308.007234375,405.2675347167969Q308.20323437499997,405.2483347167969,308.395234375,405.20993471679685Q308.588234375,405.17163471679686,308.776234375,405.1146347167969Q308.964234375,405.05753471679685,309.146234375,404.98233471679686Q309.327234375,404.90713471679686,309.50123437499997,404.81453471679686Q309.67423437499997,404.7218347167969,309.837234375,404.61273471679687Q310.00123437499997,404.5035347167969,310.153234375,404.37883471679686Q310.30423437499996,404.2542347167969,310.443234375,404.11523471679686Q310.582234375,403.9763347167969,310.707234375,403.8244347167969Q310.832234375,403.67253471679686,310.941234375,403.5091347167969Q311.050234375,403.34573471679687,311.143234375,403.1724347167969Q311.235234375,402.9991347167969,311.311234375,402.8175347167969Q311.38623437499996,402.63603471679687,311.443234375,402.44793471679685Q311.500234375,402.25993471679686,311.538234375,402.06723471679686Q311.576234375,401.8744347167969,311.596234375,401.6789347167969Q311.615234375,401.4833347167969,311.615234375,401.2868347167969Q311.615234375,400.9165347167969,311.547234375,400.5524347167969Q311.47923437500003,400.18843471679685,311.345234375,399.84303471679686Q311.212234375,399.4976347167969,311.017234375,399.1826347167969Q310.822234375,398.86773471679686,310.57323437499997,398.5938347167969Q310.57023437500004,398.59083471679685,310.567234375,398.58763471679686Q288.438234375,374.2868347167969,245.057634375,374.2868347167969Q201.72353437499999,374.28681471679687,178.716494375,398.53053471679686Q178.715244375,398.5318347167969,178.713984375,398.5331347167969Z" fill-rule="evenodd" fill="#000000" fill-opacity="1"/></g></g><g><g><path d="M228.615234375,587.2868347167969L372.326234375,587.2868347167969Q373.038234375,529.7178347167969,409.321234375,486.00883471679685Q445.605234375,442.2988347167969,514.615234375,440.8778347167969L514.615234375,302.2868347167969Q400.07323437499997,302.2868347167969,316.122734375,382.9539347167969Q232.172444375,463.6208347167969,228.615234375,587.2868347167969Z" fill="#536EF1" fill-opacity="1"/></g><g><g><g><ellipse cx="438.615234375" cy="465.2868347167969" rx="33" ry="33" fill="#FFFFFF" fill-opacity="1"/></g><g><ellipse cx="438.615234375" cy="465.2868347167969" rx="13" ry="13" fill="#000000" fill-opacity="1"/></g></g><g><path d="M351.615234375,449.2868347167969Q329.673504375,449.2868347167969,319.029114375,473.79503471679686Q318.824354375,474.2664347167969,318.719794375,474.7696347167969Q318.615234375,475.27283471679686,318.615234375,475.7868347167969Q318.615234375,475.9095347167969,318.621254375,476.03213471679686Q318.627284375,476.1547347167969,318.639314375,476.27693471679686Q318.651344375,476.3990347167969,318.669354375,476.5205347167969Q318.687364375,476.64193471679687,318.711304375,476.76223471679685Q318.735254375,476.8826347167969,318.765074375,477.0017347167969Q318.794904375,477.1208347167969,318.830534375,477.23823471679685Q318.866164375,477.35573471679686,318.907514375,477.47123471679686Q318.948864375,477.5868347167969,318.995834375,477.7002347167969Q319.042804375,477.81363471679686,319.095284375,477.92463471679685Q319.147764375,478.03553471679686,319.205624375,478.14383471679685Q319.263484375,478.25203471679686,319.326594375,478.35733471679686Q319.389694375,478.46263471679686,319.457884375,478.5646347167969Q319.526074375,478.6667347167969,319.599194375,478.7653347167969Q319.672314375,478.86393471679685,319.750184375,478.9588347167969Q319.828054375,479.05363471679686,319.910474375,479.1446347167969Q319.992904375,479.23553471679685,320.079704375,479.3223347167969Q320.166494375,479.40913471679687,320.257444375,479.49163471679685Q320.348384375,479.57403471679686,320.443264375,479.6518347167969Q320.538154375,479.7297347167969,320.636734375,479.8028347167969Q320.735324375,479.8760347167969,320.837384375,479.9441347167969Q320.939444375,480.0123347167969,321.044724375,480.07543471679685Q321.150004375,480.13853471679687,321.258254375,480.1964347167969Q321.366504375,480.25433471679685,321.477454375,480.3067347167969Q321.588414375,480.3592347167969,321.701814375,480.40623471679686Q321.815214375,480.4532347167969,321.930784375,480.49453471679686Q322.046354375,480.5359347167969,322.163814375,480.57153471679686Q322.281264375,480.60713471679685,322.400334375,480.63703471679685Q322.519394375,480.66683471679687,322.639783375,480.6907347167969Q322.760167375,480.7147347167969,322.881582375,480.73273471679687Q323.002996375,480.7507347167969,323.125148375,480.7627347167969Q323.247300375,480.7748347167969,323.369896375,480.7808347167969Q323.492491375,480.7868347167969,323.615234375,480.7868347167969Q323.796729375,480.7868347167969,323.977746375,480.7736347167969Q324.158763375,480.7605347167969,324.338350375,480.7342347167969Q324.517937375,480.7080347167969,324.695144375,480.6688347167969Q324.872364375,480.6296347167969,325.046264375,480.57763471679687Q325.220164375,480.5257347167969,325.389844375,480.4613347167969Q325.559524375,480.39693471679686,325.724084375,480.3203347167969Q325.888644375,480.24383471679687,326.047224375,480.15553471679686Q326.205804375,480.06723471679686,326.357564375,479.9677347167969Q326.509324375,479.8681347167969,326.653474375,479.7578347167969Q326.797614375,479.64763471679686,326.933384375,479.52713471679687Q327.069154375,479.4067347167969,327.195834375,479.27673471679685Q327.322514375,479.14673471679686,327.439434375,479.00793471679685Q327.556354375,478.86913471679685,327.662904375,478.7222347167969Q327.769454375,478.5752347167969,327.865074375,478.4210347167969Q327.960694375,478.26673471679686,328.044874375,478.10593471679687Q328.129054375,477.9451347167969,328.201354375,477.7786347167969L328.201734375,477.77783471679686Q328.202414375,477.77623471679686,328.203094375,477.77463471679687Q336.234434375,459.2868347167969,351.615234375,459.2868347167969Q367.066634375,459.2868347167969,375.568634375,477.8672347167969Q375.642834375,478.0295347167969,375.728534375,478.18613471679686Q375.814134375,478.34263471679685,375.910734375,478.49273471679686Q376.007334375,478.64283471679687,376.114334375,478.7856347167969Q376.22133437499997,478.92843471679686,376.338334375,479.0632347167969Q376.45523437500003,479.1980347167969,376.581534375,479.3241347167969Q376.707734375,479.4503347167969,376.842634375,479.5671347167969Q376.977634375,479.6839347167969,377.120534375,479.7908347167969Q377.263434375,479.89763471679686,377.413534375,479.99413471679685Q377.563734375,480.09053471679687,377.720434375,480.1760347167969Q377.877034375,480.2614347167969,378.039434375,480.3355347167969Q378.201734375,480.40963471679686,378.369034375,480.4720347167969Q378.536234375,480.5343347167969,378.707434375,480.5845347167969Q378.878734375,480.6348347167969,379.053134375,480.67273471679687Q379.22743437500003,480.7106347167969,379.404134375,480.7360347167969Q379.580734375,480.7614347167969,379.758734375,480.7741347167969Q379.936734375,480.7868347167969,380.115234375,480.7868347167969Q380.237934375,480.7868347167969,380.360534375,480.7808347167969Q380.483134375,480.7748347167969,380.605334375,480.7627347167969Q380.72743437500003,480.7507347167969,380.848934375,480.73273471679687Q380.970334375,480.7147347167969,381.090634375,480.6907347167969Q381.211034375,480.66683471679687,381.330134375,480.63703471679685Q381.449234375,480.60713471679685,381.566634375,480.57153471679686Q381.684134375,480.5359347167969,381.799634375,480.49453471679686Q381.915234375,480.4532347167969,382.028634375,480.40623471679686Q382.142034375,480.3592347167969,382.25303437499997,480.3067347167969Q382.363934375,480.25433471679685,382.47223437499997,480.1964347167969Q382.580434375,480.13853471679687,382.685734375,480.07543471679685Q382.791034375,480.0123347167969,382.893034375,479.9441347167969Q382.995134375,479.8760347167969,383.093734375,479.8028347167969Q383.192334375,479.7297347167969,383.287234375,479.6518347167969Q383.382034375,479.57403471679686,383.473034375,479.49163471679685Q383.56393437500003,479.40913471679687,383.650734375,479.3223347167969Q383.737534375,479.23553471679685,383.820034375,479.1446347167969Q383.902434375,479.05363471679686,383.980334375,478.9588347167969Q384.058134375,478.86393471679685,384.131234375,478.7653347167969Q384.20433437500003,478.6667347167969,384.272534375,478.5646347167969Q384.340734375,478.46263471679686,384.403834375,478.35733471679686Q384.466934375,478.25203471679686,384.524834375,478.14383471679685Q384.582734375,478.03553471679686,384.635134375,477.92463471679685Q384.687634375,477.81363471679686,384.734634375,477.7002347167969Q384.781634375,477.5868347167969,384.822934375,477.47123471679686Q384.864334375,477.35573471679686,384.899934375,477.23823471679685Q384.935534375,477.1208347167969,384.965434375,477.0017347167969Q384.995234375,476.8826347167969,385.019134375,476.76223471679685Q385.043134375,476.64193471679687,385.061134375,476.5205347167969Q385.079134375,476.3990347167969,385.091134375,476.27693471679686Q385.103134375,476.1547347167969,385.109234375,476.03213471679686Q385.115234375,475.9095347167969,385.115234375,475.7868347167969Q385.115234375,475.2483347167969,385.00053437500003,474.7222347167969Q384.885934375,474.1960347167969,384.661834375,473.7064347167969Q373.488034375,449.2868347167969,351.615234375,449.2868347167969Z" fill-rule="evenodd" fill="#000000" fill-opacity="1"/></g><g transform="matrix(1,0,0,-1,0,1044.5736694335938)"><path d="M402.057734375,517.2868347167969Q359.007034375,517.2868347167969,336.967464375,531.0454547167968Q336.698644375,531.2132647167969,336.45316437500003,531.4136747167969Q336.207684375,531.6140847167969,335.989474375,531.8438847167969Q335.771264375,532.0736847167968,335.583804375,532.3292347167969Q335.396354375,532.5847347167969,335.242654375,532.8618347167969Q335.088964375,533.1389347167968,334.971484375,533.4333347167968Q334.854004375,533.7276347167968,334.774634375,534.0344347167969Q334.695254375,534.3412347167969,334.655244375,534.6555347167969Q334.615234375,534.9699347167968,334.615234375,535.2868347167969Q334.615234375,535.4095347167969,334.621254375,535.5321347167969Q334.627284375,535.6547347167968,334.639314375,535.7769347167969Q334.651344375,535.8990347167969,334.669354375,536.0205347167969Q334.687364375,536.1419347167969,334.711304375,536.2622347167969Q334.735254375,536.3826347167969,334.765074375,536.5017347167968Q334.794904375,536.6208347167968,334.830534375,536.7382347167969Q334.866164375,536.8557347167969,334.907514375,536.9712347167969Q334.948864375,537.0868347167968,334.995834375,537.2002347167969Q335.042804375,537.3136347167969,335.095284375,537.4246347167968Q335.147764375,537.5355347167969,335.205624375,537.6438347167968Q335.263484375,537.7520347167969,335.326594375,537.8573347167969Q335.389694375,537.9626347167969,335.457884375,538.0646347167968Q335.526074375,538.1667347167969,335.599194375,538.2653347167969Q335.672314375,538.3639347167968,335.750184375,538.4588347167969Q335.828054375,538.5536347167969,335.910474375,538.6446347167969Q335.992904375,538.7355347167969,336.079704375,538.8223347167968Q336.166494375,538.9091347167969,336.257444375,538.9916347167969Q336.348384375,539.0740347167969,336.443264375,539.1518347167969Q336.538154375,539.2297347167969,336.636734375,539.3028347167968Q336.735324375,539.3760347167969,336.837384375,539.4441347167968Q336.939444375,539.5123347167969,337.044724375,539.5754347167968Q337.150004375,539.6385347167969,337.258254375,539.6964347167968Q337.366504375,539.7543347167968,337.477454375,539.8067347167969Q337.588414375,539.8592347167969,337.701814375,539.9062347167969Q337.815214375,539.9532347167968,337.930784375,539.9945347167969Q338.046354375,540.0359347167969,338.163814375,540.0715347167969Q338.281264375,540.1071347167968,338.400334375,540.1370347167968Q338.519394375,540.1668347167969,338.639783375,540.1907347167969Q338.760167375,540.2147347167969,338.881582375,540.2327347167969Q339.002996375,540.2507347167968,339.125148375,540.2627347167969Q339.247300375,540.2748347167969,339.369896375,540.2808347167969Q339.492491375,540.2868347167969,339.615234375,540.2868347167969Q340.317389375,540.2868347167969,340.992384375,540.0934347167969Q341.667384375,539.9000347167969,342.263004375,539.5282347167969L342.263704375,539.5277347167969Q342.268354375,539.5248347167969,342.273014375,539.5219347167969Q361.882334375,527.2868347167969,402.057734375,527.2868347167969Q442.296234375,527.2868347167969,463.05623437500003,539.5823347167968Q463.061234375,539.5853347167969,463.066234375,539.5884347167969Q463.645234375,539.9313347167969,464.294234375,540.1090347167968Q464.942234375,540.2868347167969,465.615234375,540.2868347167969Q465.738234375,540.2868347167969,465.860234375,540.2808347167969Q465.983234375,540.2748347167969,466.105234375,540.2627347167969Q466.22723437499997,540.2507347167968,466.349234375,540.2327347167969Q466.470234375,540.2147347167969,466.590234375,540.1907347167969Q466.711234375,540.1668347167969,466.83023437500003,540.1370347167968Q466.949234375,540.1071347167968,467.066234375,540.0715347167969Q467.184234375,540.0359347167969,467.29923437499997,539.9945347167969Q467.415234375,539.9532347167968,467.528234375,539.9062347167969Q467.642234375,539.8592347167969,467.75323437500003,539.8067347167969Q467.864234375,539.7543347167968,467.97223437499997,539.6964347167968Q468.08023437500003,539.6385347167969,468.185234375,539.5754347167968Q468.291234375,539.5123347167969,468.393234375,539.4441347167968Q468.495234375,539.3760347167969,468.59423437500004,539.3028347167968Q468.692234375,539.2297347167969,468.787234375,539.1518347167969Q468.882234375,539.0740347167969,468.973234375,538.9916347167969Q469.064234375,538.9091347167969,469.151234375,538.8223347167968Q469.237234375,538.7355347167969,469.32023437500004,538.6446347167969Q469.40223437500003,538.5536347167969,469.480234375,538.4588347167969Q469.558234375,538.3639347167968,469.63123437499996,538.2653347167969Q469.704234375,538.1667347167969,469.77223437500004,538.0646347167968Q469.841234375,537.9626347167969,469.904234375,537.8573347167969Q469.967234375,537.7520347167969,470.02523437499997,537.6438347167968Q470.082234375,537.5355347167969,470.135234375,537.4246347167968Q470.187234375,537.3136347167969,470.234234375,537.2002347167969Q470.281234375,537.0868347167968,470.32323437499997,536.9712347167969Q470.364234375,536.8557347167969,470.40023437499997,536.7382347167969Q470.435234375,536.6208347167968,470.465234375,536.5017347167968Q470.495234375,536.3826347167969,470.519234375,536.2623347167969Q470.543234375,536.1419347167969,470.561234375,536.0205347167969Q470.579234375,535.8990347167969,470.591234375,535.7769347167969Q470.603234375,535.6547347167968,470.609234375,535.5321347167969Q470.615234375,535.4095347167969,470.615234375,535.2868347167969Q470.615234375,534.9624347167969,470.57323437499997,534.6408347167969Q470.531234375,534.3192347167969,470.44823437499997,534.0056347167969Q470.365234375,533.6921347167969,470.242234375,533.3920347167968Q470.119234375,533.0918347167968,469.95823437499996,532.8100347167968Q469.798234375,532.5283347167968,469.60223437499997,532.2696647167969Q469.406234375,532.0110147167969,469.17923437499996,531.7798247167968Q468.951234375,531.5486347167969,468.696234375,531.3487747167969Q468.440234375,531.1489247167968,468.161234375,530.9837447167969L468.15223437500003,530.9781647167969Q445.035234375,517.2868347167969,402.057734375,517.2868347167969Z" fill-rule="evenodd" fill="#000000" fill-opacity="1"/></g></g><g transform="matrix(0.7071067690849304,0.7071067690849304,-0.7071067690849304,0.7071067690849304,417.7054555544546,-247.8564919605069)"><path d="M516.1818821875,383.9929047167969C513.6226821875,383.0108247167969,510.7628621875,385.8732847167969,511.7432621875,388.43311471679687Q515.9289821875,399.36203471679687,515.9289821875,410.2895347167969Q515.9289821875,421.2170347167969,511.7432621875,432.14313471679685C510.7628521875,434.70223471679685,513.6279821875,437.56413471679684,516.1869921875,436.58333471679686Q527.1144921875,432.3950347167969,538.0419921875,432.3950347167969Q548.9694921875,432.3950347167969,559.8969921875,436.58333471679686C562.4565921875,437.5643347167969,565.3183921875,434.7028347167969,564.3368921875,432.1434347167969Q560.1467921875,421.2177347167969,560.1467921875,410.2902347167969Q560.1467921875,399.36273471679687,564.3368921875,388.43343471679685C565.3179921875,385.8741847167969,562.4511921875,383.01182471679687,559.8918921875,383.9929047167969Q548.9585921875,388.18404471679685,538.0310921875,388.18404471679685Q527.1035921875,388.18404471679685,516.1818821875,383.9929047167969Z" fill="#FFDD00" fill-opacity="1"/></g></g><g><path d="M120.93573437500001,356.2868347167969Q121.017634375,356.42863471679686,121.089934375,356.57543471679685Q121.162334375,356.7222347167969,121.225034375,356.87343471679685Q121.28763437500001,357.02463471679687,121.340234375,357.1796347167969Q121.39293437500001,357.33463471679687,121.435234375,357.49273471679686Q121.47763437500001,357.65083471679685,121.509534375,357.8114347167969Q121.541534375,357.97193471679685,121.562834375,358.13423471679687Q121.584234375,358.2965347167969,121.59493437500001,358.4598347167969Q121.605634375,358.62313471679687,121.605634375,358.7868347167969Q121.605634375,358.9505347167969,121.59493437500001,359.1138347167969Q121.584234375,359.27713471679687,121.562834375,359.4394347167969Q121.541534375,359.6017347167969,121.509534375,359.7623347167969Q121.47763437500001,359.9228347167969,121.435234375,360.0809347167969Q121.39293437500001,360.2390347167969,121.340234375,360.39403471679685Q121.28763437500001,360.5490347167969,121.225034375,360.7002347167969Q121.162334375,360.85143471679686,121.090034375,360.9982347167969Q121.017634375,361.1450347167969,120.93573437500001,361.2868347167969Q120.853934375,361.42863471679686,120.762934375,361.5646347167969Q120.67203437500001,361.7007347167969,120.572334375,361.83063471679685Q120.472734375,361.9605347167969,120.364834375,362.08353471679686Q120.256934375,362.2066347167969,120.14113437500001,362.3223347167969Q120.025434375,362.43813471679687,119.90233437500001,362.5460347167969Q119.779234375,362.65393471679687,119.649434375,362.75363471679685Q119.519534375,362.85323471679686,119.38343437500001,362.9441347167969Q119.24733437500001,363.03513471679685,119.105634375,363.1169347167969Q118.963834375,363.19883471679685,118.81703437499999,363.27123471679687Q118.670234375,363.3436347167969,118.51903437499999,363.40623471679686Q118.367834375,363.4688347167969,118.212834375,363.52153471679685Q118.057834375,363.5741347167969,117.89973437500001,363.6164347167969Q117.74163437499999,363.6588347167969,117.581034375,363.6907347167969Q117.420534375,363.7227347167969,117.258234375,363.7440347167969Q117.095934375,363.7654347167969,116.93263437499999,363.7761347167969Q116.769334375,363.7868347167969,116.605634375,363.7868347167969L90.624834375,363.7868347167969Q90.461134375,363.7868347167969,90.29783437500001,363.7761347167969Q90.134534375,363.7654347167969,89.972234375,363.7440347167969Q89.809934375,363.7227347167969,89.649434375,363.6907347167969Q89.488834375,363.6588347167969,89.330734375,363.6164347167969Q89.172634375,363.5741347167969,89.017634375,363.52153471679685Q88.862634375,363.4688347167969,88.711434375,363.40623471679686Q88.560214375,363.3436347167969,88.413404375,363.27123471679687Q88.266604375,363.19883471679685,88.124854375,363.1169347167969Q87.983104375,363.03513471679685,87.847004375,362.9441347167969Q87.710904375,362.85323471679686,87.581044375,362.75363471679685Q87.451184375,362.65393471679687,87.328124375,362.5460347167969Q87.205064375,362.43813471679687,87.089314375,362.3223347167969Q86.973574375,362.2066347167969,86.865654375,362.08353471679686Q86.757734375,361.9605347167969,86.658084375,361.83063471679685Q86.558444375,361.7007347167969,86.467504375,361.5646347167969Q86.376564375,361.42863471679686,86.294724375,361.2868347167969Q86.212884375,361.1450347167969,86.140494375,360.9982347167969Q86.068094375,360.85143471679686,86.005454375,360.7002347167969Q85.942814375,360.5490347167969,85.890204375,360.39403471679685Q85.837584375,360.2390347167969,85.795224375,360.0809347167969Q85.752864375,359.9228347167969,85.720924375,359.7623347167969Q85.688994375,359.6017347167969,85.667624375,359.4394347167969Q85.646264375,359.27713471679687,85.635554375,359.1138347167969Q85.624854375,358.9505347167969,85.624854375,358.7868347167969Q85.624854375,358.62313471679687,85.635554375,358.4598347167969Q85.646264375,358.2965347167969,85.667634375,358.13423471679687Q85.688994375,357.97193471679685,85.720924375,357.8114347167969Q85.752864375,357.65083471679685,85.795224375,357.49273471679686Q85.837584375,357.33463471679687,85.890204375,357.1796347167969Q85.942814375,357.02463471679687,86.005454375,356.87343471679685Q86.068094375,356.7222347167969,86.140494375,356.57543471679685Q86.212884375,356.42863471679686,86.294724375,356.2868347167969L99.285134375,333.7868347167969Q99.366934375,333.6450847167969,99.45793437500001,333.5089847167969Q99.548834375,333.3728847167969,99.648434375,333.24302471679687Q99.748134375,333.1131747167969,99.85603437500001,332.99010471679685Q99.96393437500001,332.8670447167969,100.079734375,332.7513047167969Q100.195434375,332.63556471679686,100.318534375,332.52763471679685Q100.441534375,332.4197147167969,100.571434375,332.3200647167969Q100.701334375,332.22042471679686,100.837434375,332.12948471679687Q100.973434375,332.03855471679685,101.115234375,331.9567047167969Q101.257034375,331.8748647167969,101.403834375,331.8024747167969Q101.550634375,331.7300747167969,101.701834375,331.6674347167969Q101.853034375,331.6047947167969,102.008034375,331.5521847167969Q102.163034375,331.4995747167969,102.321134375,331.45720471679687Q102.479234375,331.4148447167969,102.639734375,331.3829047167969Q102.800334375,331.3509747167969,102.962634375,331.32961471679687Q103.124934375,331.3082447167969,103.288234375,331.2975447167969Q103.451534375,331.2868347167969,103.615234375,331.2868347167969Q103.778934375,331.2868347167969,103.942234375,331.2975447167969Q104.105634375,331.3082447167969,104.267834375,331.32961471679687Q104.430134375,331.3509747167969,104.590734375,331.3829047167969Q104.751234375,331.4148447167969,104.909334375,331.45720471679687Q105.067434375,331.4995747167969,105.222434375,331.5521847167969Q105.377434375,331.6047947167969,105.528634375,331.6674347167969Q105.679834375,331.7300747167969,105.826634375,331.8024747167969Q105.973434375,331.8748647167969,106.115234375,331.9567047167969Q106.257034375,332.03855471679685,106.393134375,332.12948471679687Q106.529134375,332.22042471679686,106.659034375,332.3200647167969Q106.788934375,332.4197147167969,106.911934375,332.52763471679685Q107.035034375,332.63556471679686,107.150734375,332.7513047167969Q107.26653437499999,332.8670447167969,107.37443437499999,332.99010471679685Q107.482334375,333.1131747167969,107.582034375,333.24302471679687Q107.681634375,333.3728847167969,107.772634375,333.5089847167969Q107.863534375,333.6450847167969,107.945334375,333.7868347167969L120.93573437500001,356.2868347167969Z" fill="#FFD000" fill-opacity="1"/></g><g><path d="M120.93573437500001,309.2868347167969Q121.017634375,309.42863471679686,121.089934375,309.57543471679685Q121.162334375,309.7222347167969,121.225034375,309.87343471679685Q121.28763437500001,310.02463471679687,121.340234375,310.1796347167969Q121.39293437500001,310.33463471679687,121.435234375,310.49273471679686Q121.47763437500001,310.65083471679685,121.509534375,310.8114347167969Q121.541534375,310.97193471679685,121.562834375,311.13423471679687Q121.584234375,311.2965347167969,121.59493437500001,311.4598347167969Q121.605634375,311.62313471679687,121.605634375,311.7868347167969Q121.605634375,311.9505347167969,121.59493437500001,312.1138347167969Q121.584234375,312.27713471679687,121.562834375,312.4394347167969Q121.541534375,312.6017347167969,121.509534375,312.7623347167969Q121.47763437500001,312.9228347167969,121.435234375,313.0809347167969Q121.39293437500001,313.2390347167969,121.340234375,313.39403471679685Q121.28763437500001,313.5490347167969,121.225034375,313.7002347167969Q121.162334375,313.85143471679686,121.090034375,313.9982347167969Q121.017634375,314.1450347167969,120.93573437500001,314.2868347167969Q120.853934375,314.42863471679686,120.762934375,314.5646347167969Q120.67203437500001,314.7007347167969,120.572334375,314.83063471679685Q120.472734375,314.9605347167969,120.364834375,315.08353471679686Q120.256934375,315.2066347167969,120.14113437500001,315.3223347167969Q120.025434375,315.43813471679687,119.90233437500001,315.5460347167969Q119.779234375,315.65393471679687,119.649434375,315.75363471679685Q119.519534375,315.85323471679686,119.38343437500001,315.9441347167969Q119.24733437500001,316.03513471679685,119.105634375,316.1169347167969Q118.963834375,316.19883471679685,118.81703437499999,316.27123471679687Q118.670234375,316.3436347167969,118.51903437499999,316.40623471679686Q118.367834375,316.4688347167969,118.212834375,316.52153471679685Q118.057834375,316.5741347167969,117.89973437500001,316.6164347167969Q117.74163437499999,316.6588347167969,117.581034375,316.6907347167969Q117.420534375,316.7227347167969,117.258234375,316.7440347167969Q117.095934375,316.7654347167969,116.93263437499999,316.7761347167969Q116.769334375,316.7868347167969,116.605634375,316.7868347167969L90.624834375,316.7868347167969Q90.461134375,316.7868347167969,90.29783437500001,316.7761347167969Q90.134534375,316.7654347167969,89.972234375,316.7440347167969Q89.809934375,316.7227347167969,89.649434375,316.6907347167969Q89.488834375,316.6588347167969,89.330734375,316.6164347167969Q89.172634375,316.5741347167969,89.017634375,316.52153471679685Q88.862634375,316.4688347167969,88.711434375,316.40623471679686Q88.560214375,316.3436347167969,88.413404375,316.27123471679687Q88.266604375,316.19883471679685,88.124854375,316.1169347167969Q87.983104375,316.03513471679685,87.847004375,315.9441347167969Q87.710904375,315.85323471679686,87.581044375,315.75363471679685Q87.451184375,315.65393471679687,87.328124375,315.5460347167969Q87.205064375,315.43813471679687,87.089314375,315.3223347167969Q86.973574375,315.2066347167969,86.865654375,315.08353471679686Q86.757734375,314.9605347167969,86.658084375,314.83063471679685Q86.558444375,314.7007347167969,86.467504375,314.5646347167969Q86.376564375,314.42863471679686,86.294724375,314.2868347167969Q86.212884375,314.1450347167969,86.140494375,313.9982347167969Q86.068094375,313.85143471679686,86.005454375,313.7002347167969Q85.942814375,313.5490347167969,85.890204375,313.39403471679685Q85.837584375,313.2390347167969,85.795224375,313.0809347167969Q85.752864375,312.9228347167969,85.720924375,312.7623347167969Q85.688994375,312.6017347167969,85.667624375,312.4394347167969Q85.646264375,312.27713471679687,85.635554375,312.1138347167969Q85.624854375,311.9505347167969,85.624854375,311.7868347167969Q85.624854375,311.62313471679687,85.635554375,311.4598347167969Q85.646264375,311.2965347167969,85.667634375,311.13423471679687Q85.688994375,310.97193471679685,85.720924375,310.8114347167969Q85.752864375,310.65083471679685,85.795224375,310.49273471679686Q85.837584375,310.33463471679687,85.890204375,310.1796347167969Q85.942814375,310.02463471679687,86.005454375,309.87343471679685Q86.068094375,309.7222347167969,86.140494375,309.57543471679685Q86.212884375,309.42863471679686,86.294724375,309.2868347167969L99.285134375,286.7868347167969Q99.366934375,286.6450847167969,99.45793437500001,286.5089847167969Q99.548834375,286.3728847167969,99.648434375,286.24302471679687Q99.748134375,286.1131747167969,99.85603437500001,285.99010471679685Q99.96393437500001,285.8670447167969,100.079734375,285.7513047167969Q100.195434375,285.63556471679686,100.318534375,285.52763471679685Q100.441534375,285.4197147167969,100.571434375,285.3200647167969Q100.701334375,285.22042471679686,100.837434375,285.12948471679687Q100.973434375,285.03855471679685,101.115234375,284.9567047167969Q101.257034375,284.8748647167969,101.403834375,284.8024747167969Q101.550634375,284.7300747167969,101.701834375,284.6674347167969Q101.853034375,284.6047947167969,102.008034375,284.5521847167969Q102.163034375,284.4995747167969,102.321134375,284.45720471679687Q102.479234375,284.4148447167969,102.639734375,284.3829047167969Q102.800334375,284.3509747167969,102.962634375,284.32961471679687Q103.124934375,284.3082447167969,103.288234375,284.2975447167969Q103.451534375,284.2868347167969,103.615234375,284.2868347167969Q103.778934375,284.2868347167969,103.942234375,284.2975447167969Q104.105634375,284.3082447167969,104.267834375,284.32961471679687Q104.430134375,284.3509747167969,104.590734375,284.3829047167969Q104.751234375,284.4148447167969,104.909334375,284.45720471679687Q105.067434375,284.4995747167969,105.222434375,284.5521847167969Q105.377434375,284.6047947167969,105.528634375,284.6674347167969Q105.679834375,284.7300747167969,105.826634375,284.8024747167969Q105.973434375,284.8748647167969,106.115234375,284.9567047167969Q106.257034375,285.03855471679685,106.393134375,285.12948471679687Q106.529134375,285.22042471679686,106.659034375,285.3200647167969Q106.788934375,285.4197147167969,106.911934375,285.52763471679685Q107.035034375,285.63556471679686,107.150734375,285.7513047167969Q107.26653437499999,285.8670447167969,107.37443437499999,285.99010471679685Q107.482334375,286.1131747167969,107.582034375,286.24302471679687Q107.681634375,286.3728847167969,107.772634375,286.5089847167969Q107.863534375,286.6450847167969,107.945334375,286.7868347167969L120.93573437500001,309.2868347167969Z" fill="#FFFFFF" fill-opacity="1"/></g><g><path d="M120.93573437500001,259.2868347167969Q121.017634375,259.42863471679686,121.089934375,259.57543471679685Q121.162334375,259.7222347167969,121.225034375,259.87343471679685Q121.28763437500001,260.02463471679687,121.340234375,260.1796347167969Q121.39293437500001,260.33463471679687,121.435234375,260.49273471679686Q121.47763437500001,260.65083471679685,121.509534375,260.8114347167969Q121.541534375,260.97193471679685,121.562834375,261.13423471679687Q121.584234375,261.2965347167969,121.59493437500001,261.4598347167969Q121.605634375,261.62313471679687,121.605634375,261.7868347167969Q121.605634375,261.9505347167969,121.59493437500001,262.1138347167969Q121.584234375,262.27713471679687,121.562834375,262.4394347167969Q121.541534375,262.6017347167969,121.509534375,262.7623347167969Q121.47763437500001,262.9228347167969,121.435234375,263.0809347167969Q121.39293437500001,263.2390347167969,121.340234375,263.39403471679685Q121.28763437500001,263.5490347167969,121.225034375,263.7002347167969Q121.162334375,263.85143471679686,121.090034375,263.9982347167969Q121.017634375,264.1450347167969,120.93573437500001,264.2868347167969Q120.853934375,264.42863471679686,120.762934375,264.5646347167969Q120.67203437500001,264.7007347167969,120.572334375,264.83063471679685Q120.472734375,264.9605347167969,120.364834375,265.08353471679686Q120.256934375,265.2066347167969,120.14113437500001,265.3223347167969Q120.025434375,265.43813471679687,119.90233437500001,265.5460347167969Q119.779234375,265.65393471679687,119.649434375,265.75363471679685Q119.519534375,265.85323471679686,119.38343437500001,265.9441347167969Q119.24733437500001,266.03513471679685,119.105634375,266.1169347167969Q118.963834375,266.19883471679685,118.81703437499999,266.27123471679687Q118.670234375,266.3436347167969,118.51903437499999,266.40623471679686Q118.367834375,266.4688347167969,118.212834375,266.52153471679685Q118.057834375,266.5741347167969,117.89973437500001,266.6164347167969Q117.74163437499999,266.6588347167969,117.581034375,266.6907347167969Q117.420534375,266.7227347167969,117.258234375,266.7440347167969Q117.095934375,266.7654347167969,116.93263437499999,266.7761347167969Q116.769334375,266.7868347167969,116.605634375,266.7868347167969L90.624834375,266.7868347167969Q90.461134375,266.7868347167969,90.29783437500001,266.7761347167969Q90.134534375,266.7654347167969,89.972234375,266.7440347167969Q89.809934375,266.7227347167969,89.649434375,266.6907347167969Q89.488834375,266.6588347167969,89.330734375,266.6164347167969Q89.172634375,266.5741347167969,89.017634375,266.52153471679685Q88.862634375,266.4688347167969,88.711434375,266.40623471679686Q88.560214375,266.3436347167969,88.413404375,266.27123471679687Q88.266604375,266.19883471679685,88.124854375,266.1169347167969Q87.983104375,266.03513471679685,87.847004375,265.9441347167969Q87.710904375,265.85323471679686,87.581044375,265.75363471679685Q87.451184375,265.65393471679687,87.328124375,265.5460347167969Q87.205064375,265.43813471679687,87.089314375,265.3223347167969Q86.973574375,265.2066347167969,86.865654375,265.08353471679686Q86.757734375,264.9605347167969,86.658084375,264.83063471679685Q86.558444375,264.7007347167969,86.467504375,264.5646347167969Q86.376564375,264.42863471679686,86.294724375,264.2868347167969Q86.212884375,264.1450347167969,86.140494375,263.9982347167969Q86.068094375,263.85143471679686,86.005454375,263.7002347167969Q85.942814375,263.5490347167969,85.890204375,263.39403471679685Q85.837584375,263.2390347167969,85.795224375,263.0809347167969Q85.752864375,262.9228347167969,85.720924375,262.7623347167969Q85.688994375,262.6017347167969,85.667624375,262.4394347167969Q85.646264375,262.27713471679687,85.635554375,262.1138347167969Q85.624854375,261.9505347167969,85.624854375,261.7868347167969Q85.624854375,261.62313471679687,85.635554375,261.4598347167969Q85.646264375,261.2965347167969,85.667634375,261.13423471679687Q85.688994375,260.97193471679685,85.720924375,260.8114347167969Q85.752864375,260.65083471679685,85.795224375,260.49273471679686Q85.837584375,260.33463471679687,85.890204375,260.1796347167969Q85.942814375,260.02463471679687,86.005454375,259.87343471679685Q86.068094375,259.7222347167969,86.140494375,259.57543471679685Q86.212884375,259.42863471679686,86.294724375,259.2868347167969L99.285134375,236.78683471679688Q99.366934375,236.64508471679687,99.45793437500001,236.50898471679687Q99.548834375,236.37288471679688,99.648434375,236.24302471679687Q99.748134375,236.11317471679686,99.85603437500001,235.99010471679688Q99.96393437500001,235.86704471679687,100.079734375,235.75130471679688Q100.195434375,235.63556471679686,100.318534375,235.52763471679688Q100.441534375,235.41971471679688,100.571434375,235.32006471679688Q100.701334375,235.22042471679688,100.837434375,235.12948471679687Q100.973434375,235.03855471679688,101.115234375,234.95670471679688Q101.257034375,234.87486471679688,101.403834375,234.80247471679687Q101.550634375,234.73007471679688,101.701834375,234.66743471679686Q101.853034375,234.60479471679687,102.008034375,234.5521847167969Q102.163034375,234.49957471679687,102.321134375,234.45720471679687Q102.479234375,234.41484471679686,102.639734375,234.38290471679687Q102.800334375,234.35097471679688,102.962634375,234.32961471679687Q103.124934375,234.30824471679688,103.288234375,234.29754471679686Q103.451534375,234.28683471679688,103.615234375,234.28683471679688Q103.778934375,234.28683471679688,103.942234375,234.29754471679686Q104.105634375,234.30824471679688,104.267834375,234.32961471679687Q104.430134375,234.35097471679688,104.590734375,234.38290471679687Q104.751234375,234.41484471679686,104.909334375,234.45720471679687Q105.067434375,234.49957471679687,105.222434375,234.5521847167969Q105.377434375,234.60479471679687,105.528634375,234.66743471679686Q105.679834375,234.73007471679688,105.826634375,234.80247471679687Q105.973434375,234.87486471679688,106.115234375,234.95670471679688Q106.257034375,235.03855471679688,106.393134375,235.12948471679687Q106.529134375,235.22042471679688,106.659034375,235.32006471679688Q106.788934375,235.41971471679688,106.911934375,235.52763471679688Q107.035034375,235.63556471679686,107.150734375,235.75130471679688Q107.26653437499999,235.86704471679687,107.37443437499999,235.99010471679688Q107.482334375,236.11317471679686,107.582034375,236.24302471679687Q107.681634375,236.37288471679688,107.772634375,236.50898471679687Q107.863534375,236.64508471679687,107.945334375,236.78683471679688L120.93573437500001,259.2868347167969Z" fill="#FFFFFF" fill-opacity="1"/></g><g><path d="M344.265234375,73.58683471679687L330.615234375,109.28683471679688L336.865234375,109.28683471679688L340.115234375,100.33683471679687L355.065234375,100.33683471679687L358.315234375,109.28683471679688L364.565234375,109.28683471679688L350.915234375,73.58683471679687L344.265234375,73.58683471679687ZM341.865234375,95.53683471679688L347.515234375,79.88683471679687L347.715234375,79.88683471679687L353.315234375,95.53683471679688L341.865234375,95.53683471679688ZM379.315234375,82.73683471679688C376.015234375,82.73683471679688,373.415234375,83.28683471679688,371.515234375,84.48683471679688C369.265234375,85.78683471679688,367.865234375,87.88683471679687,367.315234375,90.73683471679688L372.965234375,91.18683471679688C373.265234375,89.83683471679687,374.015234375,88.83683471679687,375.115234375,88.18683471679688C376.065234375,87.58683471679687,377.315234375,87.33683471679687,378.915234375,87.33683471679687C382.615234375,87.33683471679687,384.465234375,88.98683471679688,384.465234375,92.38683471679687L384.465234375,93.38683471679687L378.815234375,93.53683471679688C375.015234375,93.63683471679687,372.065234375,94.43683471679688,369.965234375,95.93683471679688C367.665234375,97.48683471679688,366.565234375,99.73683471679688,366.565234375,102.63683471679687C366.565234375,104.78683471679688,367.365234375,106.53683471679688,368.965234375,107.93683471679688C370.515234375,109.28683471679688,372.615234375,109.98683471679688,375.315234375,109.98683471679688C377.565234375,109.98683471679688,379.515234375,109.58683471679687,381.165234375,108.83683471679687C382.615234375,108.13683471679687,383.865234375,107.18683471679688,384.865234375,105.88683471679687L384.865234375,109.28683471679688L390.165234375,109.28683471679688L390.165234375,92.78683471679688C390.165234375,89.63683471679687,389.365234375,87.23683471679688,387.765234375,85.58683471679687C385.965234375,83.68683471679688,383.115234375,82.73683471679688,379.315234375,82.73683471679688ZM384.465234375,97.48683471679688L384.465234375,98.78683471679688C384.465234375,100.78683471679688,383.665234375,102.43683471679688,382.165234375,103.73683471679688C380.665234375,104.98683471679688,378.815234375,105.63683471679687,376.615234375,105.63683471679687C375.365234375,105.63683471679687,374.365234375,105.28683471679688,373.565234375,104.68683471679688C372.765234375,104.08683471679687,372.415234375,103.33683471679687,372.415234375,102.43683471679688C372.415234375,99.33683471679687,374.665234375,97.73683471679688,379.215234375,97.63683471679687L384.465234375,97.48683471679688Z" fill="#FFFFFF" fill-opacity="1"/></g><g><g><path d="M276.615234375,217.28683471679688Q276.615234375,217.85143471679686,276.587534375,218.41543471679688Q276.559834375,218.97933471679687,276.504434375,219.54123471679688Q276.44913437499997,220.1031347167969,276.366334375,220.66163471679687Q276.283434375,221.22013471679688,276.173334375,221.77393471679687Q276.063134375,222.32763471679687,275.925934375,222.87533471679689Q275.788734375,223.42303471679688,275.624834375,223.96333471679688Q275.460934375,224.50373471679688,275.270734375,225.03533471679688Q275.080534375,225.56693471679688,274.864434375,226.0885347167969Q274.648434375,226.61023471679687,274.407034375,227.12063471679687Q274.165534375,227.63103471679688,273.899434375,228.1289347167969Q273.63323437500003,228.62693471679688,273.343034375,229.11123471679687Q273.052734375,229.5954347167969,272.739034375,230.06493471679687Q272.425334375,230.53443471679688,272.089034375,230.98793471679687Q271.752634375,231.4414347167969,271.394434375,231.87783471679688Q271.036234375,232.31433471679688,270.657134375,232.73273471679687Q270.277934375,233.15103471679686,269.878734375,233.55033471679687Q269.479434375,233.94953471679688,269.061134375,234.32873471679687Q268.64273437500003,234.70783471679687,268.206234375,235.06603471679688Q267.769834375,235.4242347167969,267.316334375,235.76063471679686Q266.862834375,236.09693471679688,266.393334375,236.4106347167969Q265.923834375,236.72433471679688,265.43963437499997,237.01463471679688Q264.955334375,237.30483471679688,264.457334375,237.57103471679687Q263.959434375,237.83713471679687,263.449034375,238.07863471679687Q262.938634375,238.32003471679687,262.416934375,238.53603471679688Q261.895334375,238.7521347167969,261.363734375,238.9423347167969Q260.832134375,239.13253471679687,260.291734375,239.29643471679688Q259.751434375,239.46033471679686,259.203734375,239.59753471679687Q258.656034375,239.73473471679688,258.102334375,239.84493471679687Q257.548534375,239.9550347167969,256.990034375,240.03793471679688Q256.431534375,240.12073471679687,255.869634375,240.1760347167969Q255.307734375,240.23143471679688,254.743834375,240.25913471679686Q254.17983437499998,240.28683471679688,253.615234375,240.28683471679688Q253.05063437500002,240.28683471679688,252.486634375,240.25913471679686Q251.922734375,240.23143471679688,251.360834375,240.1760347167969Q250.798934375,240.12073471679687,250.240434375,240.03793471679688Q249.681934375,239.9550347167969,249.128134375,239.84493471679687Q248.574434375,239.73473471679688,248.026734375,239.59753471679687Q247.479034375,239.46033471679686,246.938734375,239.29643471679688Q246.398334375,239.13253471679687,245.866734375,238.9423347167969Q245.335134375,238.7521347167969,244.813534375,238.53603471679688Q244.291834375,238.32003471679687,243.781434375,238.07863471679687Q243.271034375,237.83713471679687,242.773134375,237.57103471679687Q242.275134375,237.30483471679688,241.790834375,237.01463471679688Q241.306534375,236.72433471679688,240.837134375,236.4106347167969Q240.367654375,236.09693471679688,239.914154375,235.76063471679686Q239.460644375,235.4242347167969,239.024184375,235.06603471679688Q238.587734375,234.70783471679687,238.169374375,234.32873471679687Q237.751024375,233.94953471679688,237.351774375,233.55033471679687Q236.952534375,233.15103471679686,236.573354375,232.73273471679687Q236.194184375,232.31433471679688,235.835994375,231.87783471679688Q235.477804375,231.4414347167969,235.141464375,230.98793471679687Q234.805114375,230.53443471679688,234.491434375,230.06493471679687Q234.177744375,229.5954347167969,233.887474375,229.11123471679687Q233.597204375,228.62693471679688,233.331044375,228.1289347167969Q233.064884375,227.63103471679688,232.823484375,227.12063471679687Q232.582074375,226.61023471679687,232.366004375,226.0885347167969Q232.149934375,225.56693471679688,231.959724375,225.03533471679688Q231.769504375,224.50373471679688,231.605606375,223.96333471679688Q231.441706375,223.42303471679688,231.304515375,222.87533471679689Q231.167324375,222.32763471679687,231.057172375,221.77393471679687Q230.947021375,221.22013471679688,230.864174375,220.66163471679687Q230.781328375,220.1031347167969,230.725985375,219.54123471679688Q230.670643375,218.97933471679687,230.642938875,218.41543471679688Q230.615234375,217.85143471679686,230.615234375,217.28683471679688Q230.615234375,216.7222347167969,230.642938875,216.15823471679687Q230.670643375,215.59433471679688,230.725985375,215.03243471679687Q230.781328375,214.47053471679686,230.864174375,213.91203471679688Q230.947021375,213.35353471679687,231.057172375,212.79973471679688Q231.167324375,212.24603471679688,231.304515375,211.69833471679686Q231.441706375,211.15063471679687,231.605606375,210.61033471679687Q231.769504375,210.06993471679687,231.959724375,209.53833471679687Q232.149934375,209.00673471679687,232.366004375,208.48513471679686Q232.582074375,207.96343471679688,232.823484375,207.45303471679688Q233.064884375,206.94263471679687,233.331044375,206.4447347167969Q233.597204375,205.94673471679687,233.887474375,205.46243471679688Q234.177744375,204.9781347167969,234.491434375,204.50873471679688Q234.805114375,204.03925471679688,235.141464375,203.58575471679688Q235.477804375,203.13224471679686,235.835994375,202.69578471679688Q236.194184375,202.25933471679687,236.573354375,201.84097471679686Q236.952534375,201.42262471679686,237.351774375,201.02337471679687Q237.751024375,200.62413471679687,238.169374375,200.24495471679688Q238.587734375,199.86578471679687,239.024184375,199.5075947167969Q239.460644375,199.14940471679688,239.914154375,198.81306471679687Q240.367654375,198.47671471679686,240.837134375,198.1630347167969Q241.306534375,197.84934471679688,241.790834375,197.55907471679689Q242.275134375,197.26880471679686,242.773134375,197.00264471679688Q243.271034375,196.73648471679687,243.781434375,196.49508471679687Q244.291834375,196.25367471679687,244.813534375,196.03760471679686Q245.335134375,195.82153471679686,245.866734375,195.63132471679688Q246.398334375,195.44110471679687,246.938734375,195.27720671679688Q247.479034375,195.11330671679687,248.026734375,194.97611571679687Q248.574434375,194.83892471679687,249.128134375,194.72877271679687Q249.681934375,194.61862171679687,250.240434375,194.53577471679688Q250.798934375,194.45292871679686,251.360834375,194.39758571679687Q251.922734375,194.34224371679687,252.486634375,194.31453921679687Q253.05063437500002,194.28683471679688,253.615234375,194.28683471679688Q254.17983437499998,194.28683471679688,254.743834375,194.31453921679687Q255.307734375,194.34224371679687,255.869634375,194.39758571679687Q256.431534375,194.45292871679686,256.990034375,194.53577471679688Q257.548534375,194.61862171679687,258.102334375,194.72877271679687Q258.656034375,194.83892471679687,259.203734375,194.97611571679687Q259.751434375,195.11330671679687,260.291734375,195.27720671679688Q260.832134375,195.44110471679687,261.363734375,195.63132471679688Q261.895334375,195.82153471679686,262.416934375,196.03760471679686Q262.938634375,196.25367471679687,263.449034375,196.49508471679687Q263.959434375,196.73648471679687,264.457334375,197.00264471679688Q264.955334375,197.26880471679686,265.43963437499997,197.55907471679689Q265.923834375,197.84934471679688,266.393334375,198.1630347167969Q266.862834375,198.47671471679686,267.316334375,198.81306471679687Q267.769834375,199.14940471679688,268.206234375,199.5075947167969Q268.64273437500003,199.86578471679687,269.061134375,200.24495471679688Q269.479434375,200.62413471679687,269.878734375,201.02337471679687Q270.277934375,201.42262471679686,270.657134375,201.84097471679686Q271.036234375,202.25933471679687,271.394434375,202.69578471679688Q271.752634375,203.13224471679686,272.089034375,203.58575471679688Q272.425334375,204.03925471679688,272.739034375,204.50873471679688Q273.052734375,204.9781347167969,273.343034375,205.46243471679688Q273.63323437500003,205.94673471679687,273.899434375,206.4447347167969Q274.165534375,206.94263471679687,274.407034375,207.45303471679688Q274.648434375,207.96343471679688,274.864434375,208.48513471679686Q275.080534375,209.00673471679687,275.270734375,209.53833471679687Q275.460934375,210.06993471679687,275.624834375,210.61033471679687Q275.788734375,211.15063471679687,275.925934375,211.69833471679686Q276.063134375,212.24603471679688,276.173334375,212.79973471679688Q276.283434375,213.35353471679687,276.366334375,213.91203471679688Q276.44913437499997,214.47053471679686,276.504434375,215.03243471679687Q276.559834375,215.59433471679688,276.587534375,216.15823471679687Q276.615234375,216.7222347167969,276.615234375,217.28683471679688ZM273.615234375,217.28683471679688Q273.615234375,216.7958347167969,273.591134375,216.30543471679687Q273.567034375,215.81513471679688,273.518934375,215.32653471679689Q273.470834375,214.83783471679686,273.398734375,214.3522347167969Q273.326734375,213.86653471679688,273.230934375,213.38503471679687Q273.135134375,212.90353471679688,273.015834375,212.42723471679687Q272.896534375,211.95093471679687,272.754034375,211.48113471679687Q272.611534375,211.01133471679688,272.446134375,210.54903471679688Q272.280734375,210.08673471679688,272.092834375,209.63313471679686Q271.904934375,209.17953471679687,271.695034375,208.73573471679688Q271.48513437500003,208.29193471679687,271.253634375,207.85893471679688Q271.022234375,207.42593471679686,270.769834375,207.00473471679686Q270.517434375,206.58363471679687,270.244634375,206.17543471679687Q269.971834375,205.76723471679688,269.679434375,205.3728347167969Q269.386934375,204.97853471679687,269.075434375,204.59893471679686Q268.763934375,204.2194447167969,268.434234375,203.85565471679686Q268.104534375,203.49186471679687,267.757334375,203.14469471679686Q267.410234375,202.7975247167969,267.046434375,202.46781471679688Q266.682634375,202.13809471679687,266.303134375,201.82662471679689Q265.92353437500003,201.51515471679687,265.529234375,201.22268471679686Q265.13483437499997,200.93021471679688,264.726634375,200.65744471679687Q264.318434375,200.38467471679687,263.897334375,200.13226471679687Q263.476134375,199.87985471679687,263.043134375,199.64840471679688Q262.61013437500003,199.41696471679688,262.166334375,199.20704471679687Q261.722534375,198.99713471679686,261.268934375,198.80924471679688Q260.815334375,198.62135471679687,260.353034375,198.45595471679687Q259.890734375,198.29055471679686,259.420934375,198.14802471679687Q258.951134375,198.00550471679688,258.474834375,197.88620471679687Q257.998534375,197.76691471679686,257.517034375,197.67112471679687Q257.035534375,197.57534471679688,256.549834375,197.50330471679686Q256.064134375,197.43126471679687,255.575534375,197.38314471679686Q255.086934375,197.33501471679688,254.596634375,197.31092471679688Q254.10623437499999,197.28683471679688,253.615234375,197.28683471679688Q253.12423437500001,197.28683471679688,252.633834375,197.31092471679688Q252.143534375,197.33501471679688,251.654934375,197.38314471679686Q251.166234375,197.43126471679687,250.680634375,197.50330471679686Q250.194934375,197.57534471679688,249.713434375,197.67112471679687Q249.231934375,197.76691471679686,248.755634375,197.88621471679687Q248.279334375,198.00550471679688,247.809534375,198.14802471679687Q247.339734375,198.29055471679686,246.877434375,198.45595471679687Q246.415134375,198.62135471679687,245.96153437499999,198.80924471679688Q245.507934375,198.99713471679686,245.064134375,199.20704471679687Q244.620334375,199.41696471679688,244.187334375,199.64840471679688Q243.75433437499998,199.87985471679687,243.333134375,200.13226471679687Q242.912034375,200.38467471679687,242.503834375,200.65744471679687Q242.095634375,200.93021471679688,241.701234375,201.22268471679686Q241.306934375,201.51515471679687,240.927334375,201.82662471679689Q240.547844375,202.13809471679687,240.184054375,202.46781471679688Q239.820264375,202.7975247167969,239.473094375,203.14469471679686Q239.125924375,203.49186471679687,238.796214375,203.85565471679686Q238.466494375,204.2194447167969,238.155024375,204.59893471679686Q237.843554375,204.97853471679687,237.551084375,205.3728347167969Q237.258614375,205.76723471679688,236.985844375,206.17543471679687Q236.713074375,206.58363471679687,236.460664375,207.00473471679686Q236.208254375,207.42593471679686,235.976804375,207.85893471679688Q235.745364375,208.29193471679687,235.535444375,208.73573471679688Q235.325534375,209.17953471679687,235.137644375,209.63313471679686Q234.949754375,210.08673471679688,234.784354375,210.54903471679688Q234.618954375,211.01133471679688,234.476424375,211.48113471679687Q234.333904375,211.95093471679687,234.214604375,212.42723471679687Q234.095314375,212.90343471679688,233.999524375,213.38503471679687Q233.903744375,213.86653471679688,233.831704375,214.3522347167969Q233.759664375,214.83783471679686,233.711544375,215.32653471679689Q233.663414375,215.81513471679688,233.639324375,216.30543471679687Q233.615234375,216.7958347167969,233.615234375,217.28683471679688Q233.615234375,217.77783471679686,233.639324375,218.26823471679688Q233.663414375,218.75853471679687,233.711544375,219.24713471679686Q233.759664375,219.73573471679688,233.831704375,220.22143471679686Q233.903744375,220.70713471679687,233.999524375,221.18863471679688Q234.095314375,221.67013471679687,234.214604375,222.14643471679688Q234.333904375,222.62273471679688,234.476424375,223.09253471679688Q234.618954375,223.56233471679687,234.784354375,224.02463471679687Q234.949754375,224.48693471679687,235.137644375,224.9405347167969Q235.325534375,225.39413471679688,235.535444375,225.83793471679687Q235.745364375,226.28173471679688,235.976804375,226.71473471679687Q236.208254375,227.1477347167969,236.460664375,227.5689347167969Q236.713074375,227.99003471679688,236.985844375,228.39823471679688Q237.258614375,228.80643471679687,237.551084375,229.20083471679686Q237.843554375,229.59513471679688,238.155024375,229.9747347167969Q238.466494375,230.35423471679687,238.796214375,230.71803471679686Q239.125924375,231.0818347167969,239.473094375,231.42893471679687Q239.820264375,231.7761347167969,240.184054375,232.1058347167969Q240.547844375,232.43553471679687,240.927334375,232.74703471679686Q241.306934375,233.05853471679688,241.701234375,233.35103471679687Q242.095634375,233.6434347167969,242.503834375,233.91623471679688Q242.912034375,234.18903471679687,243.333134375,234.4414347167969Q243.75433437499998,234.69383471679686,244.187334375,234.92523471679687Q244.620334375,235.15673471679688,245.064134375,235.36663471679688Q245.507934375,235.57653471679689,245.96153437499999,235.76443471679687Q246.415134375,235.95233471679688,246.877434375,236.11773471679686Q247.339734375,236.28313471679687,247.809534375,236.42563471679688Q248.279334375,236.56813471679686,248.755634375,236.68743471679687Q249.231834375,236.80673471679688,249.713434375,236.90253471679688Q250.194934375,236.99833471679688,250.680634375,237.07033471679688Q251.166234375,237.14243471679688,251.654934375,237.1905347167969Q252.143534375,237.23863471679687,252.633834375,237.26273471679687Q253.12423437500001,237.28683471679688,253.615234375,237.28683471679688Q254.10623437499999,237.28683471679688,254.596634375,237.26273471679687Q255.086934375,237.23863471679687,255.575534375,237.1905347167969Q256.064134375,237.14243471679688,256.549834375,237.07033471679688Q257.035534375,236.99833471679688,257.517034375,236.90253471679688Q257.998534375,236.80673471679688,258.474834375,236.68743471679687Q258.951134375,236.56813471679686,259.420934375,236.42563471679688Q259.890734375,236.28313471679687,260.353034375,236.11773471679686Q260.815334375,235.95233471679688,261.268934375,235.76443471679687Q261.722534375,235.57653471679689,262.166334375,235.36663471679688Q262.61013437500003,235.15673471679688,263.043134375,234.92523471679687Q263.476134375,234.69383471679686,263.897334375,234.4414347167969Q264.318434375,234.18903471679687,264.726634375,233.91623471679688Q265.13483437499997,233.6434347167969,265.529234375,233.35103471679687Q265.92353437500003,233.05853471679688,266.303134375,232.74703471679686Q266.682634375,232.43553471679687,267.046434375,232.1058347167969Q267.410234375,231.7761347167969,267.757334375,231.42893471679687Q268.104534375,231.0818347167969,268.434234375,230.71803471679686Q268.763934375,230.35423471679687,269.075434375,229.9747347167969Q269.386934375,229.59513471679688,269.679434375,229.20083471679686Q269.971834375,228.80643471679687,270.244634375,228.39823471679688Q270.517434375,227.99003471679688,270.769834375,227.5689347167969Q271.022234375,227.1477347167969,271.253634375,226.71473471679687Q271.48513437500003,226.28173471679688,271.695034375,225.83793471679687Q271.904934375,225.39413471679688,272.092834375,224.9405347167969Q272.280734375,224.48693471679687,272.446134375,224.02463471679687Q272.611534375,223.56233471679687,272.754034375,223.09253471679688Q272.896534375,222.62273471679688,273.015834375,222.14643471679688Q273.135134375,221.67013471679687,273.230934375,221.18863471679688Q273.326734375,220.70713471679687,273.398734375,220.22143471679686Q273.470834375,219.73573471679688,273.518934375,219.24713471679686Q273.567034375,218.75853471679687,273.591134375,218.26823471679688Q273.615234375,217.77783471679686,273.615234375,217.28683471679688Z" fill="#000000" fill-opacity="1"/></g><g transform="matrix(0.9196659326553345,-0.39270156621932983,0.39270156621932983,0.9196659326553345,-64.94407364578547,104.36521763829296)"><path d="M305.615234375,205.91755202148437L300.615234375,205.91757202148438Q285.032134375,205.91757202148438,273.046234375,211.36574002148438Q263.911834375,215.5177220214844,257.517834375,220.90693202148438Q252.464234375,225.16637202148436,246.919334375,232.00247202148438Q234.505634375,218.09674202148437,224.395214375,214.24513202148438L219.722754375,212.46513202148438L216.162794375,221.8100720214844L220.835254375,223.58997202148439Q230.097564375,227.11847202148437,243.255534375,243.09607202148436L247.323834375,248.03607202148436L251.133034375,242.89367202148438Q258.087634375,233.50497202148438,263.962634375,228.5531720214844Q269.303534375,224.0515720214844,277.184234375,220.46940202148437Q287.198334375,215.91757202148438,300.615234375,215.91757202148438L305.615234375,215.91759202148438L305.615234375,205.91755202148437Z" fill-rule="evenodd" fill="#0061EE" fill-opacity="1"/></g></g><g><path d="M315.875234375,214.06683471679688L315.095234375,215.20683471679686C316.675234375,215.88683471679687,318.215234375,216.80683471679689,319.735234375,217.98683471679686L320.495234375,216.78683471679688C319.095234375,215.70683471679686,317.555234375,214.80683471679689,315.875234375,214.06683471679688ZM310.535234375,218.80683471679689L310.535234375,220.1468347167969L322.895234375,220.1468347167969C321.575234375,222.7068347167969,319.195234375,224.66683471679687,315.795234375,226.06683471679688L316.755234375,227.30683471679689C320.675234375,225.62683471679688,323.275234375,223.1468347167969,324.575234375,219.90683471679688L324.575234375,218.80683471679689L310.535234375,218.80683471679689ZM317.115234375,208.96683471679688C314.795234375,211.62683471679688,311.875234375,213.84683471679688,308.375234375,215.60683471679687L309.135234375,216.96683471679688C312.655234375,215.0868347167969,315.475234375,212.88683471679687,317.635234375,210.32683471679687C319.975234375,213.04683471679687,322.815234375,215.26683471679686,326.135234375,216.94683471679687L326.895234375,215.60683471679687C323.575234375,213.98683471679686,320.675234375,211.76683471679686,318.155234375,208.96683471679688L317.115234375,208.96683471679688ZM329.195234375,216.02683471679688L329.195234375,217.40683471679688L336.155234375,217.40683471679688C335.815234375,218.72683471679687,335.395234375,219.82683471679687,334.875234375,220.70683471679686C333.615234375,222.82683471679687,331.495234375,224.6468347167969,328.515234375,226.16683471679687L329.415234375,227.34683471679688C332.615234375,225.6468347167969,334.875234375,223.60683471679687,336.235234375,221.24683471679688C336.755234375,220.32683471679687,337.175234375,219.16683471679687,337.515234375,217.80683471679689C338.935234375,221.92683471679686,341.695234375,225.10683471679687,345.815234375,227.34683471679688L346.715234375,226.18683471679688C342.795234375,224.1468347167969,340.135234375,221.20683471679686,338.735234375,217.40683471679688L346.095234375,217.40683471679688L346.095234375,216.02683471679688L337.895234375,216.02683471679688C338.135234375,214.66683471679687,338.295234375,213.1468347167969,338.415234375,211.42683471679686L345.515234375,211.42683471679686L345.515234375,210.02683471679688L329.715234375,210.02683471679688L329.715234375,211.42683471679686L336.955234375,211.42683471679686C336.855234375,213.12683471679688,336.695234375,214.66683471679687,336.455234375,216.02683471679688L329.195234375,216.02683471679688ZM350.935234375,216.18683471679688L350.935234375,227.28683471679688L352.375234375,227.28683471679688L352.375234375,213.96683471679688C353.175234375,212.56683471679688,353.835234375,211.06683471679688,354.355234375,209.48683471679686L353.015234375,208.84683471679688C352.035234375,212.00683471679687,350.45523437500003,214.82683471679687,348.295234375,217.26683471679686L348.755234375,218.78683471679688C349.535234375,217.96683471679688,350.255234375,217.10683471679687,350.935234375,216.18683471679688ZM363.815234375,216.90683471679688L362.535234375,217.32683471679687C363.515234375,219.56683471679688,364.415234375,222.16683471679687,365.215234375,225.0868347167969L366.475234375,224.52683471679688C365.715234375,221.80683471679689,364.835234375,219.26683471679686,363.815234375,216.90683471679688ZM356.935234375,212.78683471679688L364.515234375,212.78683471679688C364.215234375,213.82683471679687,363.835234375,214.74683471679688,363.375234375,215.5868347167969L364.755234375,215.98683471679686C365.255234375,214.78683471679688,365.655234375,213.56683471679688,365.975234375,212.32683471679687L365.975234375,211.38683471679687L357.45523437500003,211.38683471679687C357.695234375,210.68683471679688,357.935234375,209.94683471679687,358.135234375,209.16683471679687L356.77523437499997,208.88683471679687C356.095234375,211.5868347167969,354.995234375,214.04683471679687,353.475234375,216.26683471679686L354.715234375,217.02683471679688C355.555234375,215.74683471679688,356.295234375,214.34683471679688,356.935234375,212.78683471679688ZM359.435234375,227.1468347167969C360.535234375,227.1468347167969,361.095234375,226.5868347167969,361.095234375,225.46683471679688L361.095234375,214.46683471679688L359.695234375,214.46683471679688L359.695234375,225.10683471679687C359.695234375,225.62683471679688,359.435234375,225.88683471679687,358.935234375,225.88683471679687C358.175234375,225.88683471679687,357.355234375,225.84683471679688,356.515234375,225.78683471679688L356.815234375,227.1468347167969L359.435234375,227.1468347167969ZM356.435234375,217.06683471679688C355.615234375,219.98683471679686,354.655234375,222.38683471679687,353.575234375,224.26683471679686L354.915234375,224.74683471679688C356.075234375,222.6468347167969,357.015234375,220.20683471679686,357.735234375,217.42683471679686L356.435234375,217.06683471679688ZM371.555234375,211.94683471679687L373.27523437499997,211.94683471679687C373.675234375,212.66683471679687,374.055234375,213.42683471679686,374.375234375,214.22683471679687L375.675234375,213.74683471679688C375.435234375,213.18683471679688,375.115234375,212.5868347167969,374.735234375,211.94683471679687L377.555234375,211.94683471679687L377.555234375,210.62683471679688L372.175234375,210.62683471679688C372.375234375,210.10683471679687,372.575234375,209.5868347167969,372.755234375,209.04683471679687L371.375234375,208.74683471679688C370.815234375,210.56683471679688,369.895234375,212.22683471679687,368.635234375,213.74683471679688L369.855234375,214.52683471679688C370.495234375,213.74683471679688,371.055234375,212.88683471679687,371.555234375,211.94683471679687ZM379.815234375,211.94683471679687L381.735234375,211.94683471679687C382.255234375,212.76683471679686,382.715234375,213.62683471679688,383.115234375,214.52683471679688L384.415234375,214.06683471679688C384.115234375,213.42683471679686,383.715234375,212.70683471679686,383.235234375,211.94683471679687L386.475234375,211.94683471679687L386.475234375,210.62683471679688L380.475234375,210.62683471679688C380.675234375,210.1468347167969,380.875234375,209.62683471679688,381.055234375,209.06683471679688L379.675234375,208.76683471679686C379.215234375,210.30683471679689,378.475234375,211.70683471679686,377.435234375,212.96683471679688L378.635234375,213.70683471679686C379.055234375,213.1468347167969,379.45523437500003,212.56683471679688,379.815234375,211.94683471679687ZM383.595234375,220.94683471679687L371.635234375,220.94683471679687L371.635234375,227.26683471679686L373.015234375,227.26683471679686L373.015234375,226.36683471679686L382.215234375,226.36683471679686L382.215234375,227.26683471679686L383.595234375,227.26683471679686L383.595234375,220.94683471679687ZM373.015234375,225.04683471679687L373.015234375,222.26683471679686L382.215234375,222.26683471679686L382.215234375,225.04683471679687L373.015234375,225.04683471679687ZM373.015234375,218.18683471679688L373.015234375,219.0868347167969L382.255234375,219.0868347167969L382.255234375,218.18683471679688C383.435234375,218.82683471679687,384.715234375,219.42683471679686,386.075234375,219.94683471679687L386.77523437499997,218.70683471679686C383.495234375,217.52683471679688,380.595234375,215.92683471679686,378.075234375,213.88683471679687L377.115234375,213.88683471679687C374.835234375,215.78683471679688,371.995234375,217.38683471679687,368.575234375,218.66683471679687L369.255234375,219.92683471679686C370.595234375,219.38683471679687,371.855234375,218.80683471679689,373.015234375,218.18683471679688ZM381.475234375,217.74683471679688L373.795234375,217.74683471679688C375.235234375,216.90683471679688,376.495234375,215.98683471679686,377.595234375,215.00683471679687C378.755234375,216.00683471679687,380.055234375,216.92683471679686,381.475234375,217.74683471679688ZM402.315234375,225.60683471679687C398.215234375,225.60683471679687,395.595234375,225.42683471679686,394.435234375,225.06683471679688C394.355234375,225.02683471679688,394.255234375,224.98683471679686,394.135234375,224.94683471679687L394.135234375,222.76683471679686L396.875234375,222.76683471679686L396.875234375,221.48683471679686L394.135234375,221.48683471679686L394.135234375,219.3668347167969L397.375234375,219.3668347167969L397.375234375,218.04683471679687L388.895234375,218.04683471679687L388.895234375,219.3668347167969L392.855234375,219.3668347167969L392.855234375,224.22683471679687C392.235234375,223.76683471679686,391.655234375,223.12683471679688,391.135234375,222.30683471679689C391.235234375,221.70683471679686,391.295234375,221.0868347167969,391.335234375,220.40683471679688L390.055234375,220.24683471679688C389.95523437500003,222.52683471679688,389.375234375,224.56683471679688,388.295234375,226.38683471679687L389.335234375,227.30683471679689C389.975234375,226.22683471679687,390.475234375,225.04683471679687,390.835234375,223.76683471679686C391.655234375,224.92683471679686,392.595234375,225.74683471679688,393.655234375,226.18683471679688C394.855234375,226.7068347167969,397.835234375,226.96683471679688,402.635234375,226.96683471679688L406.575234375,226.96683471679688L406.815234375,225.52683471679688C405.815234375,225.56683471679688,404.315234375,225.60683471679687,402.315234375,225.60683471679687ZM389.795234375,209.72683471679687L389.795234375,216.70683471679686L396.615234375,216.70683471679686L396.615234375,209.72683471679687L389.795234375,209.72683471679687ZM395.215234375,215.50683471679687L391.195234375,215.50683471679687L391.195234375,213.80683471679689L395.215234375,213.80683471679689L395.215234375,215.50683471679687ZM391.195234375,212.68683471679688L391.195234375,210.92683471679686L395.215234375,210.92683471679686L395.215234375,212.68683471679688L391.195234375,212.68683471679688ZM397.655234375,209.74683471679688L397.655234375,211.06683471679688L401.395234375,211.06683471679688C401.335234375,211.60683471679687,401.255234375,212.1468347167969,401.135234375,212.66683471679687L398.27523437499997,212.66683471679687L398.27523437499997,220.74683471679688L399.555234375,220.74683471679688L399.555234375,213.90683471679688L404.395234375,213.90683471679688L404.395234375,220.74683471679688L405.735234375,220.74683471679688L405.735234375,212.66683471679687L402.435234375,212.66683471679687C402.555234375,212.1468347167969,402.635234375,211.62683471679688,402.695234375,211.06683471679688L406.295234375,211.06683471679688L406.295234375,209.74683471679688L397.655234375,209.74683471679688ZM403.415234375,220.80683471679689L402.45523437500003,221.72683471679687C403.755234375,222.76683471679686,404.77523437499997,223.76683471679686,405.515234375,224.68683471679688L406.535234375,223.68683471679688C405.695234375,222.72683471679687,404.655234375,221.76683471679686,403.415234375,220.80683471679689ZM401.315234375,214.84683471679688L401.315234375,217.66683471679687C401.27523437499997,219.16683471679687,400.975234375,220.38683471679687,400.45523437500003,221.32683471679687C399.875234375,222.22683471679687,398.875234375,222.94683471679687,397.435234375,223.46683471679688L398.215234375,224.7068347167969C399.735234375,224.10683471679687,400.855234375,223.28683471679688,401.535234375,222.22683471679687C402.215234375,221.0868347167969,402.595234375,219.56683471679688,402.635234375,217.66683471679687L402.635234375,214.84683471679688L401.315234375,214.84683471679688ZM417.195234375,215.60683471679687L417.195234375,225.00683471679687C417.195234375,225.50683471679687,416.915234375,225.76683471679686,416.375234375,225.76683471679686C415.255234375,225.76683471679686,414.195234375,225.72683471679687,413.215234375,225.6468347167969L413.615234375,227.04683471679687C414.515234375,227.0868347167969,415.575234375,227.12683471679688,416.77523437499997,227.12683471679688C418.015234375,227.12683471679688,418.655234375,226.50683471679687,418.655234375,225.26683471679686L418.655234375,216.32683471679687C420.995234375,214.80683471679689,423.095234375,213.20683471679686,424.95523437500003,211.52683471679688L424.95523437500003,210.12683471679688L409.835234375,210.12683471679688L409.835234375,211.52683471679688L422.995234375,211.52683471679688C421.155234375,213.0868347167969,419.235234375,214.44683471679687,417.195234375,215.60683471679687ZM434.555234375,210.62683471679688L429.27523437499997,210.62683471679688L429.27523437499997,225.38683471679687L430.635234375,225.38683471679687L430.635234375,223.88683471679687L433.215234375,223.88683471679687L433.215234375,224.96683471679688L434.555234375,224.96683471679688L434.555234375,210.62683471679688ZM430.635234375,222.52683471679688L430.635234375,211.94683471679687L433.215234375,211.94683471679687L433.215234375,222.52683471679688L430.635234375,222.52683471679688ZM437.77523437499997,212.54683471679687L436.595234375,219.0868347167969L444.715234375,219.0868347167969C444.715234375,222.20683471679686,444.53523437499996,224.0868347167969,444.175234375,224.74683471679688C443.815234375,225.38683471679687,442.77523437499997,225.7068347167969,441.015234375,225.7068347167969C440.675234375,225.7068347167969,440.07523437500004,225.6468347167969,439.19523437500004,225.54683471679687L439.65523437499996,227.02683471679688C440.255234375,227.06683471679688,440.815234375,227.10683471679687,441.375234375,227.10683471679687C443.335234375,227.10683471679687,444.615234375,226.72683471679687,445.215234375,226.00683471679687C445.815234375,225.26683471679686,446.115234375,222.50683471679687,446.115234375,217.72683471679687L443.795234375,217.72683471679687L445.055234375,209.80683471679689L436.07523437500004,209.80683471679689L436.07523437500004,211.20683471679686L443.415234375,211.20683471679686L442.355234375,217.72683471679687L438.175234375,217.72683471679687L439.19523437500004,212.62683471679688L437.77523437499997,212.54683471679687ZM435.415234375,221.56683471679688L435.415234375,222.92683471679686L443.15523437499996,222.92683471679686L443.15523437499996,221.56683471679688L435.415234375,221.56683471679688ZM452.795234375,210.72683471679687C451.355234375,210.72683471679687,450.235234375,211.16683471679687,449.435234375,212.04683471679687C448.635234375,212.88683471679687,448.255234375,214.00683471679687,448.255234375,215.40683471679688L449.835234375,215.40683471679688C449.835234375,214.42683471679686,450.055234375,213.66683471679687,450.495234375,213.10683471679687C450.975234375,212.44683471679687,451.715234375,212.12683471679688,452.715234375,212.12683471679688C453.555234375,212.12683471679688,454.215234375,212.34683471679688,454.675234375,212.82683471679687C455.115234375,213.26683471679686,455.355234375,213.88683471679687,455.355234375,214.68683471679688C455.355234375,215.24683471679688,455.15523437499996,215.76683471679686,454.755234375,216.26683471679686C454.635234375,216.42683471679686,454.395234375,216.66683471679687,454.07523437500004,216.98683471679686C452.995234375,217.94683471679687,452.335234375,218.70683471679686,452.055234375,219.30683471679689C451.815234375,219.80683471679689,451.69523437500004,220.38683471679687,451.69523437500004,221.04683471679687L451.69523437500004,221.50683471679687L453.295234375,221.50683471679687L453.295234375,221.04683471679687C453.295234375,220.50683471679687,453.415234375,220.02683471679688,453.675234375,219.5868347167969C453.875234375,219.22683471679687,454.175234375,218.8668347167969,454.615234375,218.48683471679686C455.495234375,217.70683471679686,456.03523437499996,217.18683471679688,456.235234375,216.94683471679687C456.735234375,216.28683471679688,456.995234375,215.50683471679687,456.995234375,214.60683471679687C456.995234375,213.40683471679688,456.615234375,212.46683471679688,455.875234375,211.78683471679688C455.095234375,211.06683471679688,454.07523437500004,210.72683471679687,452.795234375,210.72683471679687ZM452.495234375,222.90683471679688C452.15523437499996,222.90683471679688,451.875234375,223.00683471679687,451.635234375,223.24683471679688C451.395234375,223.46683471679688,451.295234375,223.74683471679688,451.295234375,224.0868347167969C451.295234375,224.42683471679686,451.395234375,224.7068347167969,451.635234375,224.94683471679687C451.875234375,225.16683471679687,452.15523437499996,225.28683471679688,452.495234375,225.28683471679688C452.835234375,225.28683471679688,453.115234375,225.16683471679687,453.355234375,224.94683471679687C453.595234375,224.72683471679687,453.715234375,224.44683471679687,453.715234375,224.0868347167969C453.715234375,223.74683471679688,453.595234375,223.46683471679688,453.375234375,223.24683471679688C453.135234375,223.00683471679687,452.835234375,222.90683471679688,452.495234375,222.90683471679688Z" fill="#111111" fill-opacity="1"/></g></g></svg>