<svg xmlns="http://www.w3.org/2000/svg" xmlns:xlink="http://www.w3.org/1999/xlink" fill="none" version="1.1" width="480" height="34" viewBox="0 0 480 34"><g><path d="M4.008,28.184C5.4,28.184,6.096,27.392,6.096,25.856L6.096,19.184C6.96,18.8,7.824,18.416,8.664,17.984L8.664,16.256C7.824,16.688,6.96,17.096,6.096,17.48L6.096,12.656L8.136,12.656L8.136,11L6.096,11L6.096,6.464L4.392,6.464L4.392,11L1.32,11L1.32,12.656L4.392,12.656L4.392,18.152C3.24,18.56,2.088,18.896,0.888,19.184L1.32,20.912C2.352,20.6,3.384,20.264,4.392,19.88L4.392,25.448C4.392,26.24,4.056,26.648,3.408,26.648C2.784,26.648,2.16,26.6,1.488,26.528L1.848,28.184L4.008,28.184ZM12.672,16.616C11.328,18.344,9.768,19.736,7.992,20.768L8.904,22.328C10.32,21.32,11.568,20.12,12.648,18.68C12.456,22.64,11.04,25.544,8.424,27.368L9.72,28.52C12.648,26.288,14.16,22.76,14.232,17.96L14.232,6.464L12.672,6.464L12.672,16.616ZM20.928,9.152C20.184,11.12,19.272,12.824,18.192,14.216L19.56,15.176C20.64,13.688,21.6,11.936,22.416,9.896L20.928,9.152ZM17.928,17.84C19.224,18.824,20.52,20.072,21.792,21.56L22.752,20.072C21.288,18.536,19.68,17.216,17.928,16.112L17.928,6.44L16.296,6.44L16.296,25.736C16.296,27.224,16.944,27.992,18.24,27.992L20.112,27.992C20.928,27.992,21.552,27.776,21.936,27.344C22.368,26.816,22.656,25.376,22.824,23.024L21.264,22.544C21.168,24.464,21.024,25.616,20.784,26C20.592,26.312,20.256,26.48,19.8,26.48L18.72,26.48C18.192,26.48,17.928,26.12,17.928,25.4L17.928,17.84ZM10.08,9.728L8.64,10.424C9.456,11.984,10.2,13.76,10.92,15.776L12.264,15.08C11.568,13.136,10.848,11.36,10.08,9.728ZM29.136,6.488L29.136,16.688L25.968,16.688L25.968,27.512L27.624,27.512L27.624,25.736L34.536,25.736L34.536,16.688L30.816,16.688L30.816,12.224L35.616,12.224L35.616,10.64L30.816,10.64L30.816,6.488L29.136,6.488ZM27.624,24.152L27.624,18.272L32.88,18.272L32.88,24.152L27.624,24.152ZM46.248,11.744L39.816,12.92C39.672,11.048,39.6,8.888,39.6,6.464L37.92,6.464C37.92,8.96,37.992,11.192,38.136,13.208L34.704,13.832L34.968,15.416L38.28,14.816C38.424,16.52,38.664,18.008,38.976,19.304C39.216,20.384,39.48,21.392,39.792,22.304C38.064,24.08,36.12,25.424,33.936,26.36L34.92,27.68C36.864,26.888,38.712,25.64,40.44,23.96C40.752,24.68,41.112,25.328,41.496,25.88C42.504,27.32,43.44,28.04,44.352,28.04C45.432,28.04,46.272,26.408,46.848,23.144L45.432,22.376C45.048,24.872,44.592,26.12,44.064,26.144C43.656,26.144,43.104,25.568,42.432,24.416C42.144,23.936,41.88,23.36,41.616,22.712C43.128,20.96,44.544,18.824,45.84,16.304L44.496,15.392C43.488,17.48,42.336,19.328,41.04,20.912C40.848,20.288,40.68,19.592,40.536,18.848C40.296,17.696,40.08,16.232,39.936,14.504L46.488,13.328L46.248,11.744ZM42.288,6.944L41.064,7.712C42.24,8.984,43.152,10.136,43.824,11.192L45.096,10.304C44.424,9.344,43.488,8.24,42.288,6.944ZM51.984,15.08L51.984,28.4L53.712,28.4L53.712,12.416C54.672,10.736,55.464,8.936,56.088,7.04L54.48,6.272C53.304,10.064,51.408,13.448,48.816,16.376L49.368,18.2C50.304,17.216,51.168,16.184,51.984,15.08ZM67.44,15.944L65.904,16.448C67.08,19.136,68.16,22.256,69.12,25.76L70.632,25.088C69.72,21.824,68.664,18.776,67.44,15.944ZM59.184,11L68.28,11C67.92,12.248,67.464,13.352,66.912,14.36L68.568,14.84C69.168,13.4,69.648,11.936,70.032,10.448L70.032,9.32L59.808,9.32C60.096,8.48,60.384,7.592,60.624,6.656L58.992,6.32C58.176,9.56,56.856,12.512,55.032,15.176L56.52,16.088C57.528,14.552,58.416,12.872,59.184,11ZM62.184,28.232C63.504,28.232,64.176,27.56,64.176,26.216L64.176,13.016L62.496,13.016L62.496,25.784C62.496,26.408,62.184,26.72,61.584,26.72C60.672,26.72,59.688,26.672,58.68,26.6L59.04,28.232L62.184,28.232ZM58.584,16.136C57.6,19.64,56.448,22.52,55.152,24.776L56.76,25.352C58.152,22.832,59.28,19.904,60.144,16.568L58.584,16.136ZM81.696,10.544L77.832,10.544C78.312,9.344,78.672,8.024,78.96,6.608L77.232,6.368C77.016,7.808,76.68,9.2,76.2,10.544L73.968,10.544L73.968,27.608L75.648,27.608L75.648,25.544L80.016,25.544L80.016,26.912L81.696,26.912L81.696,10.544ZM75.648,23.936L75.648,18.68L80.016,18.68L80.016,23.936L75.648,23.936ZM75.648,17.12L75.648,12.176L80.016,12.176L80.016,17.12L75.648,17.12ZM85.872,16.112L84.48,16.976C86.136,18.944,87.456,20.72,88.44,22.304L89.808,21.344C88.896,19.856,87.6,18.104,85.872,16.112ZM94.104,10.568L86.448,10.568C86.88,9.32,87.216,7.976,87.504,6.56L85.8,6.344C85.176,9.752,84.048,12.632,82.368,14.984L83.4,16.352C84.336,15.128,85.128,13.76,85.8,12.248L92.4,12.248C92.352,19.16,92.256,23.312,92.112,24.656C91.92,25.88,91.272,26.504,90.144,26.504C89.4,26.504,88.536,26.48,87.528,26.432L87.936,28.016C89.088,28.064,89.904,28.112,90.384,28.112C92.4,28.112,93.504,27.176,93.744,25.352C93.984,23.48,94.104,18.536,94.104,10.568ZM108.048,6.08L106.248,6.392C106.68,7.136,107.088,7.952,107.424,8.864L98.64,8.864L98.64,10.52L103.032,10.52L104.04,14.168L99.12,14.168L99.12,19.376C99.072,22.712,98.328,25.328,96.936,27.2L98.256,28.376C99.912,26.12,100.776,23.12,100.872,19.376L100.872,15.824L118.104,15.824L118.104,14.168L112.248,14.168C112.752,13.016,113.136,11.792,113.424,10.52L117.6,10.52L117.6,8.864L109.176,8.864C108.816,7.832,108.432,6.896,108.048,6.08ZM105.744,14.168L104.736,10.52L111.768,10.52C111.528,11.792,111.12,13.016,110.592,14.168L105.744,14.168ZM125.376,7.4L125.376,15.248L138.6,15.248L138.6,7.4L125.376,7.4ZM136.872,13.616L127.104,13.616L127.104,9.032L136.872,9.032L136.872,13.616ZM130.632,17.624L122.184,17.624L122.184,28.04L123.888,28.04L123.888,26.816L128.952,26.816L128.952,28.04L130.632,28.04L130.632,17.624ZM123.888,25.184L123.888,19.28L128.952,19.28L128.952,25.184L123.888,25.184ZM141.792,17.624L133.104,17.624L133.104,28.04L134.808,28.04L134.808,26.816L140.064,26.816L140.064,28.04L141.792,28.04L141.792,17.624ZM134.808,25.184L134.808,19.28L140.064,19.28L140.064,25.184L134.808,25.184ZM147.864,6.848L146.664,7.976C148.296,9.248,149.568,10.448,150.504,11.6L151.68,10.4C150.648,9.224,149.376,8.048,147.864,6.848ZM145.08,13.784L145.08,15.44L148.416,15.44L148.416,24.944C148.416,25.328,148.224,25.688,147.888,26.024L148.56,27.56C150.24,26.456,151.848,25.208,153.36,23.792L152.88,21.968C151.896,22.904,150.96,23.72,150.096,24.44L150.096,13.784L145.08,13.784ZM153.6,16.592L153.6,18.272L154.92,18.272C155.592,20.36,156.816,22.232,158.64,23.912C156.84,25.184,154.608,26.216,151.944,27.008L152.904,28.472C155.712,27.608,158.088,26.48,160.008,25.04C161.688,26.336,163.8,27.464,166.296,28.472L167.232,26.984C164.88,26.12,162.888,25.136,161.256,24.008C163.008,22.376,164.256,20.432,165.024,18.176L165.024,16.592L153.6,16.592ZM156.552,18.272L163.32,18.272C162.552,20.048,161.4,21.584,159.864,22.928C158.28,21.56,157.176,20,156.552,18.272ZM155.448,7.328L155.448,9.992C155.448,11.888,154.392,13.352,152.304,14.384L153.456,15.704C155.904,14.312,157.152,12.344,157.152,9.8L157.152,8.96L161.808,8.96L161.808,12.872C161.808,14.288,162.528,15.008,164.016,15.008L166.656,15.008L166.656,13.424L164.448,13.424C163.824,13.424,163.512,13.112,163.512,12.512L163.512,7.328L155.448,7.328ZM176.592,13.592L176.592,15.32L183.096,15.32L183.096,28.448L184.872,28.448L184.872,15.32L191.04,15.32L191.04,13.592L184.872,13.592L184.872,6.368L183.096,6.368L183.096,13.592L176.592,13.592ZM171.888,6.632L170.688,7.808C172.416,9.104,173.808,10.352,174.816,11.528L175.992,10.328C174.888,9.08,173.52,7.856,171.888,6.632ZM169.08,13.736L169.08,15.392L172.608,15.392L172.608,24.968C172.608,25.352,172.416,25.688,172.056,25.976L172.728,27.536C174.432,26.408,176.04,25.136,177.528,23.696L177.096,21.92C176.088,22.88,175.128,23.696,174.264,24.416L174.264,13.736L169.08,13.736ZM197.88,19.256L203.208,19.256L203.208,22.016L197.88,22.016L197.88,19.256ZM203.208,23.6L203.208,28.472L204.936,28.472L204.936,23.6L210.336,23.6L210.336,24.944L212.016,24.944L212.016,13.376L204.936,13.376L204.936,10.976L203.208,10.976L203.208,13.376L196.2,13.376L196.2,25.016L197.88,25.016L197.88,23.6L203.208,23.6ZM204.936,22.016L204.936,19.256L210.336,19.256L210.336,22.016L204.936,22.016ZM210.336,17.72L204.936,17.72L204.936,14.96L210.336,14.96L210.336,17.72ZM203.208,14.96L203.208,17.72L197.88,17.72L197.88,14.96L203.208,14.96ZM213.96,8.216L204.864,8.216C204.624,7.448,204.408,6.776,204.168,6.176L202.344,6.488C202.608,7.016,202.848,7.592,203.088,8.216L193.944,8.216L193.944,12.536L195.624,12.536L195.624,9.776L212.28,9.776L212.28,12.416L213.96,12.416L213.96,8.216ZM218.304,8.816L218.304,10.4L227.112,10.4L227.112,12.68L219.648,12.68L219.648,14.216L227.112,14.216L227.112,16.544L217.512,16.544L217.512,18.128L238.488,18.128L238.488,16.544L228.888,16.544L228.888,14.216L236.424,14.216L236.424,12.68L228.888,12.68L228.888,10.4L237.696,10.4L237.696,8.816L232.368,8.816C232.776,8.072,233.088,7.304,233.328,6.488L231.48,6.248C231.288,7.112,230.976,7.976,230.568,8.816L225.552,8.816C225.192,7.88,224.832,7.04,224.448,6.296L222.624,6.584C223.056,7.256,223.44,8,223.776,8.816L218.304,8.816ZM227.28,18.752C227.184,19.424,227.016,20.072,226.8,20.696L218.064,20.696L218.064,22.328L226.008,22.328C225.6,22.976,225.096,23.552,224.472,24.056C222.936,25.28,220.44,26.216,216.96,26.864L217.68,28.544C221.592,27.728,224.328,26.624,225.888,25.208C226.704,24.44,227.4,23.576,227.928,22.568C229.512,25.448,232.944,27.416,238.224,28.472L239.136,26.84C234.408,26.048,231.216,24.536,229.56,22.328L237.96,22.328L237.96,20.696L228.672,20.696C228.84,20.168,228.96,19.568,229.056,18.944L227.28,18.752ZM244.464,23.144C243.984,23.144,243.624,23.264,243.336,23.552C243.048,23.816,242.904,24.176,242.904,24.632C242.904,25.04,243.048,25.4,243.336,25.688C243.624,25.976,243.96,26.12,244.368,26.12C244.608,26.12,244.8,26.072,244.896,26.024C244.896,26.6,244.728,27.128,244.368,27.632C243.984,28.112,243.48,28.472,242.856,28.688L242.856,29.864C243.864,29.6,244.704,29.072,245.328,28.304C245.952,27.488,246.264,26.552,246.264,25.496C246.264,24.8,246.096,24.248,245.784,23.816C245.448,23.36,244.992,23.144,244.464,23.144ZM267.96,28.184C269.328,28.184,270.024,27.488,270.024,26.144L270.024,19.064C270.72,18.728,271.416,18.392,272.088,18.032L272.088,16.28C271.416,16.664,270.72,17,270.024,17.336L270.024,12.656L272.448,12.656L272.448,11L270.024,11L270.024,6.464L268.248,6.464L268.248,11L265.344,11L265.344,12.656L268.248,12.656L268.248,18.08C267.192,18.488,266.136,18.824,265.056,19.088L265.464,20.816C266.4,20.528,267.336,20.192,268.248,19.832L268.248,25.688C268.248,26.288,267.936,26.6,267.36,26.6C266.736,26.6,266.112,26.552,265.44,26.504L265.8,28.184L267.96,28.184ZM274.32,7.232L274.32,15.56L284.784,15.56L284.784,7.232L274.32,7.232ZM283.104,14.144L276,14.144L276,12.08L283.104,12.08L283.104,14.144ZM276,10.736L276,8.648L283.104,8.648L283.104,10.736L276,10.736ZM272.64,17.24L272.64,18.776L278.712,18.776L278.712,25.784C278.496,25.712,278.304,25.64,278.136,25.568C277.128,25.112,276.24,24.08,275.472,22.472C275.664,21.656,275.784,20.84,275.832,19.976L274.296,19.808C274.104,22.544,273.096,25.04,271.272,27.248L272.544,28.352C273.576,27.104,274.368,25.736,274.944,24.248C275.664,25.592,276.504,26.504,277.416,26.984C278.568,27.56,280.728,27.872,283.896,27.896C284.664,27.896,285.552,27.92,286.512,27.92L286.992,26.24C286.104,26.312,285.024,26.36,283.776,26.36C282.456,26.36,281.328,26.288,280.368,26.144L280.368,23.048L285.384,23.048L285.384,21.488L280.368,21.488L280.368,18.776L286.368,18.776L286.368,17.24L272.64,17.24ZM300.456,6.536C297.6,7.808,294.048,8.648,289.824,9.056L290.376,10.616C292.008,10.472,293.616,10.256,295.152,9.92L295.152,15.512L289.32,15.512L289.32,17.192L295.128,17.192C294.888,21.752,293.064,25.112,289.656,27.272L290.952,28.4C294.648,26,296.616,22.28,296.904,17.192L303.36,17.192L303.36,28.376L305.112,28.376L305.112,17.192L310.656,17.192L310.656,15.512L305.112,15.512L305.112,6.632L303.36,6.632L303.36,15.512L296.928,15.512L296.928,9.488C298.416,9.08,299.88,8.576,301.272,7.952L300.456,6.536ZM315.984,15.08L315.984,28.4L317.712,28.4L317.712,12.416C318.672,10.736,319.464,8.936,320.088,7.04L318.48,6.272C317.304,10.064,315.408,13.448,312.816,16.376L313.368,18.2C314.304,17.216,315.168,16.184,315.984,15.08ZM331.44,15.944L329.904,16.448C331.08,19.136,332.16,22.256,333.12,25.76L334.632,25.088C333.72,21.824,332.664,18.776,331.44,15.944ZM323.184,11L332.28,11C331.92,12.248,331.464,13.352,330.912,14.36L332.568,14.84C333.168,13.4,333.648,11.936,334.032,10.448L334.032,9.32L323.808,9.32C324.096,8.48,324.384,7.592,324.624,6.656L322.992,6.32C322.176,9.56,320.856,12.512,319.032,15.176L320.52,16.088C321.528,14.552,322.416,12.872,323.184,11ZM326.184,28.232C327.504,28.232,328.176,27.56,328.176,26.216L328.176,13.016L326.496,13.016L326.496,25.784C326.496,26.408,326.184,26.72,325.584,26.72C324.672,26.72,323.688,26.672,322.68,26.6L323.04,28.232L326.184,28.232ZM322.584,16.136C321.6,19.64,320.448,22.52,319.152,24.776L320.76,25.352C322.152,22.832,323.28,19.904,324.144,16.568L322.584,16.136ZM345.696,10.544L341.832,10.544C342.312,9.344,342.672,8.024,342.96,6.608L341.232,6.368C341.016,7.808,340.68,9.2,340.2,10.544L337.968,10.544L337.968,27.608L339.648,27.608L339.648,25.544L344.016,25.544L344.016,26.912L345.696,26.912L345.696,10.544ZM339.648,23.936L339.648,18.68L344.016,18.68L344.016,23.936L339.648,23.936ZM339.648,17.12L339.648,12.176L344.016,12.176L344.016,17.12L339.648,17.12ZM349.872,16.112L348.48,16.976C350.136,18.944,351.456,20.72,352.44,22.304L353.808,21.344C352.896,19.856,351.6,18.104,349.872,16.112ZM358.104,10.568L350.448,10.568C350.88,9.32,351.216,7.976,351.504,6.56L349.8,6.344C349.176,9.752,348.048,12.632,346.368,14.984L347.4,16.352C348.336,15.128,349.128,13.76,349.8,12.248L356.4,12.248C356.352,19.16,356.256,23.312,356.112,24.656C355.92,25.88,355.272,26.504,354.144,26.504C353.4,26.504,352.536,26.48,351.528,26.432L351.936,28.016C353.088,28.064,353.904,28.112,354.384,28.112C356.4,28.112,357.504,27.176,357.744,25.352C357.984,23.48,358.104,18.536,358.104,10.568ZM361.224,13.712L361.224,15.392L367.608,15.392C367.104,17.048,366.552,18.632,365.976,20.168L377.832,20.168C376.56,21.752,374.808,23.288,372.6,24.728C370.944,24.152,369.216,23.6,367.416,23.12L366.504,24.464C370.32,25.496,374.04,26.888,377.64,28.664L378.6,27.152C377.28,26.528,375.888,25.928,374.448,25.4C376.92,23.624,378.72,21.824,379.872,20.048L379.872,18.56L368.448,18.56C368.784,17.576,369.144,16.52,369.48,15.392L382.776,15.392L382.776,13.712L369.936,13.712C370.176,12.776,370.416,11.792,370.656,10.736L381.36,10.736L381.36,9.128L371.016,9.128C371.208,8.264,371.376,7.328,371.568,6.368L369.792,6.224C369.6,7.184,369.408,8.144,369.192,9.128L362.856,9.128L362.856,10.736L368.832,10.736C368.592,11.744,368.352,12.728,368.088,13.712L361.224,13.712ZM392.52,6.632L392.52,25.712L385.368,25.712L385.368,27.392L406.632,27.392L406.632,25.712L399.432,25.712L399.432,6.632L397.68,6.632L397.68,25.712L394.272,25.712L394.272,6.632L392.52,6.632ZM404.448,11C403.416,15.392,402.192,19.016,400.8,21.848L402.36,22.4C403.824,19.256,405.024,15.608,405.984,11.432L404.448,11ZM387.432,10.952L385.968,11.432C387.264,14.984,388.344,18.68,389.208,22.52L390.792,22.112C389.808,17.912,388.68,14.192,387.432,10.952ZM412.584,18.44L412.584,28.4L414.288,28.4L414.288,18.248C415.152,18.92,416.04,19.736,416.904,20.696L417.888,19.208C416.832,18.176,415.632,17.24,414.312,16.424C415.608,14.72,416.568,12.992,417.192,11.24L417.192,9.776L414.192,9.776L414.888,9.512C414.552,8.504,414.096,7.376,413.52,6.176L411.864,6.656C412.416,7.664,412.896,8.696,413.304,9.776L409.56,9.776L409.56,11.432L415.464,11.432C414.384,14.072,412.224,16.76,409.008,19.52L409.536,21.32C410.64,20.36,411.672,19.4,412.584,18.44ZM429.168,7.352L418.968,7.352L418.968,20.624L420.672,20.624L420.672,9.008L427.416,9.008L427.416,20.624L429.168,20.624L429.168,7.352ZM428.664,28.016C429.408,28.016,429.96,27.824,430.32,27.464C430.704,27.032,430.968,25.808,431.112,23.84L429.504,23.336C429.432,24.824,429.288,25.736,429.096,26.048C428.952,26.288,428.712,26.432,428.352,26.432L426.864,26.432C426.336,26.432,426.072,26.144,426.072,25.568L426.072,20.576L424.392,20.576L424.392,25.928C424.392,27.32,425.04,28.016,426.36,28.016L428.664,28.016ZM423.168,10.712L423.168,15.296C423.12,18.32,422.616,20.792,421.704,22.664C420.72,24.488,418.968,25.928,416.448,27.032L417.384,28.544C419.976,27.44,421.824,25.88,422.976,23.888C424.128,21.752,424.752,18.896,424.848,15.296L424.848,10.712L423.168,10.712ZM433.944,7.352L433.944,17.816L437.664,17.816L437.664,20.624L433.632,20.624L433.632,22.256L437.664,22.256L437.664,25.712C436.224,25.856,434.712,26,433.128,26.144L433.344,27.824C437.28,27.464,440.784,27.008,443.856,26.432L443.856,24.824C442.464,25.064,440.976,25.304,439.344,25.52L439.344,22.256L443.544,22.256L443.544,20.624L439.344,20.624L439.344,17.816L443.16,17.816L443.16,7.352L433.944,7.352ZM441.576,16.256L439.32,16.256L439.32,13.376L441.576,13.376L441.576,16.256ZM437.76,16.256L435.552,16.256L435.552,13.376L437.76,13.376L437.76,16.256ZM435.552,11.888L435.552,8.912L437.76,8.912L437.76,11.888L435.552,11.888ZM439.32,8.912L441.576,8.912L441.576,11.888L439.32,11.888L439.32,8.912ZM447.312,10.088L445.848,11C447.072,12.32,448.104,13.568,448.968,14.744L444.216,14.744L444.216,16.424L448.344,16.424L448.344,25.736C448.344,26.36,448.032,26.696,447.432,26.696C446.544,26.696,445.608,26.648,444.6,26.576L444.96,28.208L448.032,28.208C449.352,28.208,450.024,27.512,450.024,26.144L450.024,16.424L452.76,16.424C452.184,17.744,451.536,18.872,450.816,19.832L452.112,20.864C453.024,19.568,453.864,18.008,454.632,16.16L454.632,14.744L450.96,14.744C450.744,14.408,450.504,14.048,450.24,13.688C451.68,12.296,453,10.616,454.2,8.648L454.2,7.256L444.432,7.256L444.432,8.888L452.208,8.888C451.32,10.232,450.36,11.408,449.304,12.464C448.728,11.72,448.056,10.928,447.312,10.088ZM460.896,8.864L461.256,21.392L462.744,21.392L463.128,8.864L460.896,8.864ZM462,23.144C461.592,23.144,461.256,23.264,460.968,23.552C460.68,23.816,460.56,24.152,460.56,24.56C460.56,24.968,460.68,25.304,460.968,25.592C461.256,25.856,461.592,26,462,26C462.408,26,462.768,25.856,463.056,25.592C463.32,25.328,463.464,24.992,463.464,24.56C463.464,24.152,463.32,23.816,463.056,23.552C462.768,23.264,462.408,23.144,462,23.144Z" fill="#555555" fill-opacity="1"/></g></svg>