<svg xmlns="http://www.w3.org/2000/svg" xmlns:xlink="http://www.w3.org/1999/xlink" fill="none" version="1.1" width="573.775390625" height="591.2769775390625" viewBox="0 0 573.775390625 591.2769775390625"><defs><filter id="master_svg0_2_12842" filterUnits="objectBoundingBox" color-interpolation-filters="sRGB" x="-0.10285714285714286" y="-0.30612244897959184" width="1.2057142857142857" height="1.7346938775510203"><feFlood flood-opacity="0" result="BackgroundImageFix"/><feColorMatrix in="SourceAlpha" type="matrix" values="0 0 0 0 0 0 0 0 0 0 0 0 0 0 0 0 0 0 127 0"/><feOffset dy="6" dx="0"/><feGaussianBlur stdDeviation="9"/><feColorMatrix type="matrix" values="0 0 0 0 0 0 0 0 0 0 0 0 0 0 0 0 0 0 0.07999999821186066 0"/><feBlend mode="normal" in2="BackgroundImageFix" result="effect1_dropShadow"/><feBlend mode="normal" in="SourceGraphic" in2="effect1_dropShadow" result="shape"/></filter><filter id="master_svg1_2_12852" filterUnits="objectBoundingBox" color-interpolation-filters="sRGB" x="-0.10285714285714286" y="-0.30612244897959184" width="1.2057142857142857" height="1.7346938775510203"><feFlood flood-opacity="0" result="BackgroundImageFix"/><feColorMatrix in="SourceAlpha" type="matrix" values="0 0 0 0 0 0 0 0 0 0 0 0 0 0 0 0 0 0 127 0"/><feOffset dy="6" dx="0"/><feGaussianBlur stdDeviation="9"/><feColorMatrix type="matrix" values="0 0 0 0 0 0 0 0 0 0 0 0 0 0 0 0 0 0 0.07999999821186066 0"/><feBlend mode="normal" in2="BackgroundImageFix" result="effect1_dropShadow"/><feBlend mode="normal" in="SourceGraphic" in2="effect1_dropShadow" result="shape"/></filter></defs><g><g><rect x="111.775390625" y="64" width="362" height="464" rx="0" fill="#FFFFFF" fill-opacity="1"/><rect x="112.275390625" y="64.5" width="361" height="463" rx="0" fill-opacity="0" stroke-opacity="1" stroke="#000000" fill="none" stroke-width="1"/></g><g transform="matrix(0.9787132143974304,0.20523276925086975,-0.20523276925086975,0.9787132143974304,28.90265770148835,-38.65959268207371)"><path d="M367.69991796875,357.372Q338.37591796875,387.906,291.17881796874997,428.07L253.10001796875,460.474L317.90891796875,536.631L355.98691796875,504.227Q440.56391796875,432.253,476.95691796875,383.525Q531.74291796875,310.171,496.48491796875,260.382Q478.86591796875,235.502,447.60291796875003,231.06900000000002Q428.91191796875,228.418,405.97291796875004,234.27800000000002Q384.89791796875,239.662,340.05891796875,260.155Q321.05691796875,268.84000000000003,307.81391796875,274.243Q313.28191796875,263.36400000000003,320.86491796875,249.275Q344.14491796875,206.0248,351.34391796875,185.6114Q372.06591796875,126.85287,337.03191796875,94.2303Q317.73191796875,76.2587,292.78031796875,71.5453Q269.63801796875,67.1737,244.84351796875,75.0548Q208.15292796875,86.7171,166.09261796875,127.31245L130.11601796875,162.0357L199.56286796875,233.989L232.78841796875,201.92000000000002Q220.43261796875,224.876,214.79601796875,236.397Q204.42993796875,257.58500000000004,199.40542796875,273.6Q191.39415796875,299.13599999999997,194.20520796875,319.94399999999996Q196.39770796875,336.173,204.79803796875,349.40700000000004Q214.02681796875,363.945,229.31761796875,372.78499999999997Q263.73511796875,392.682,315.45091796875,377.665Q333.92491796875004,372.301,367.69991796875,357.372Z" fill-rule="evenodd" fill="#F4F3EF" fill-opacity="1"/></g><g><g><path d="M278.775390625,60Q278.775390625,61.4729,278.703390625,62.9441Q278.630390625,64.4152,278.486390625,65.881Q278.342390625,67.3468,278.126390625,68.8038Q277.909390625,70.2608,277.622390625,71.7054Q277.335390625,73.15,276.977390625,74.5788Q276.619390625,76.0076,276.191390625,77.4171Q275.76439062500003,78.8266,275.268390625,80.2134Q274.771390625,81.6002,274.208390625,82.961Q273.644390625,84.3218,273.01439062500003,85.6533Q272.385390625,86.9848,271.690390625,88.2838Q270.996390625,89.5828,270.239390625,90.8461Q269.481390625,92.1095,268.66339062500003,93.3342Q267.845390625,94.5589,266.967390625,95.742Q266.090390625,96.925,265.156390625,98.0636Q264.221390625,99.2022,263.232390625,100.294Q262.243390625,101.385,261.201390625,102.426Q260.160390625,103.468,259.069390625,104.457Q257.977590625,105.446,256.838990625,106.381Q255.700390625,107.315,254.51739062500002,108.192Q253.334290625,109.07,252.109590625,109.888Q250.884890625,110.706,249.621590625,111.464Q248.35819062500002,112.221,247.05919062499999,112.915Q245.760190625,113.61,244.428690625,114.239Q243.097190625,114.869,241.736390625,115.433Q240.375590625,115.996,238.98879062499998,116.493Q237.60199062499998,116.989,236.192490625,117.416Q234.782990625,117.844,233.354190625,118.202Q231.925390625,118.56,230.480790625,118.847Q229.03619062500002,119.134,227.579190625,119.351Q226.122190625,119.567,224.656390625,119.711Q223.190590625,119.855,221.719490625,119.928Q220.248290625,120,218.775390625,120Q217.302490625,120,215.831290625,119.928Q214.360190625,119.855,212.894390625,119.711Q211.428490625,119.567,209.971590625,119.351Q208.51459062499998,119.134,207.069990625,118.847Q205.625390625,118.56,204.196590625,118.202Q202.767790625,117.844,201.358290625,117.416Q199.94879062500002,116.989,198.561990625,116.493Q197.175190625,115.996,195.814390625,115.433Q194.453590625,114.869,193.122090625,114.239Q191.790590625,113.61,190.49159062500001,112.915Q189.192590625,112.221,187.929190625,111.464Q186.665890625,110.706,185.441190625,109.888Q184.216490625,109.07,183.033390625,108.192Q181.850390625,107.315,180.711790625,106.381Q179.573190625,105.446,178.481890625,104.457Q177.390490625,103.468,176.348990625,102.426Q175.307490625,101.385,174.318290625,100.294Q173.329190625,99.2022,172.394790625,98.0636Q171.460390625,96.925,170.582890625,95.742Q169.705490625,94.5589,168.887190625,93.3342Q168.068900625,92.1095,167.311670625,90.8462Q166.554440625,89.5828,165.860110625,88.2838Q165.165780625,86.9848,164.536030625,85.6533Q163.906280625,84.3218,163.342620625,82.961Q162.778960625,81.6002,162.282750625,80.2134Q161.786530625,78.8266,161.358970625,77.4171Q160.931400625,76.0076,160.573510625,74.5788Q160.215620625,73.15,159.928270625,71.7054Q159.640921625,70.2608,159.424799625,68.8038Q159.208677625,67.3468,159.064306625,65.881Q158.919935625,64.4152,158.847663225,62.9441Q158.775390625,61.4729,158.775390625,60Q158.775390625,58.5271,158.847663225,57.0559Q158.919935625,55.5848,159.064306625,54.119Q159.208677625,52.6531,159.424799625,51.1962Q159.640921625,49.7392,159.928270625,48.2946Q160.215620625,46.85,160.573510625,45.4212Q160.931400625,43.9924,161.358970625,42.5829Q161.786530625,41.1734,162.282750625,39.7866Q162.778960625,38.3998,163.342620625,37.039Q163.906280625,35.6782,164.536030625,34.3467Q165.165780625,33.0152,165.860110625,31.7162Q166.554440625,30.4172,167.311670625,29.1538Q168.068900625,27.8905,168.887190625,26.6658Q169.705490625,25.4411,170.582890625,24.258Q171.460390625,23.075,172.394790625,21.9364Q173.329190625,20.7978,174.318290625,19.7065Q175.307490625,18.6151,176.348990625,17.5736Q177.390490625,16.5321,178.481890625,15.5429Q179.573190625,14.5538,180.711790625,13.6194Q181.850390625,12.685,183.033390625,11.8075Q184.216490625,10.9301,185.441190625,10.1118Q186.665890625,9.29351,187.929190625,8.53628Q189.192590625,7.77905,190.49159062500001,7.08472Q191.790590625,6.39039,193.122090625,5.76064Q194.453590625,5.13089,195.814390625,4.56723Q197.175190625,4.00357,198.561990625,3.50736Q199.94879062500002,3.01114,201.358290625,2.58358Q202.767790625,2.15601,204.196590625,1.79812Q205.625390625,1.44023,207.069990625,1.15288Q208.51459062499998,0.865531,209.971590625,0.649409Q211.428490625,0.433287,212.894390625,0.288916Q214.360190625,0.144545,215.831290625,0.0722726Q217.302490625,0,218.775390625,0Q220.248290625,0,221.719490625,0.0722726Q223.190590625,0.144545,224.656390625,0.288916Q226.122190625,0.433287,227.579190625,0.649409Q229.03619062500002,0.865531,230.480790625,1.15288Q231.925390625,1.44023,233.354190625,1.79812Q234.782990625,2.15601,236.192490625,2.58358Q237.60199062499998,3.01114,238.98879062499998,3.50736Q240.375590625,4.00357,241.736390625,4.56723Q243.097190625,5.13089,244.428690625,5.76064Q245.760190625,6.39039,247.05919062499999,7.08472Q248.35819062500002,7.77905,249.621490625,8.53628Q250.884890625,9.29351,252.109590625,10.1118Q253.334290625,10.9301,254.51739062500002,11.8075Q255.700390625,12.685,256.838990625,13.6194Q257.977590625,14.5538,259.069390625,15.5429Q260.160390625,16.5321,261.201390625,17.5736Q262.243390625,18.6151,263.232390625,19.7065Q264.221390625,20.7978,265.156390625,21.9364Q266.090390625,23.075,266.967390625,24.258Q267.845390625,25.4411,268.66339062500003,26.6658Q269.481390625,27.8905,270.239390625,29.1538Q270.996390625,30.4172,271.690390625,31.7162Q272.385390625,33.0152,273.01439062500003,34.3467Q273.644390625,35.6782,274.208390625,37.039Q274.771390625,38.3998,275.268390625,39.7866Q275.76439062500003,41.1734,276.191390625,42.5829Q276.619390625,43.9924,276.977390625,45.4212Q277.335390625,46.85,277.622390625,48.2946Q277.909390625,49.7392,278.126390625,51.1962Q278.342390625,52.6531,278.486390625,54.119Q278.630390625,55.5848,278.703390625,57.0559Q278.775390625,58.5271,278.775390625,60Z" fill="#FFDD00" fill-opacity="1"/></g><g><g><path d="M187.44398554779053,30.36030793823242L187.44482554779051,30.35886793823242Q193.15830554779052,33.66666793823242,199.10872554779053,33.66666793823242Q205.23692554779052,33.66666793823242,211.07392554779054,31.208977938232422L211.07452554779053,31.21050793823242Q211.57052554779054,31.001667938232423,212.10872554779053,31.001667938232423Q212.23962554779052,31.001667938232423,212.36992554779053,31.014497938232424Q212.50022554779054,31.02733793823242,212.62862554779053,31.05287793823242Q212.75702554779053,31.078417938232423,212.88232554779051,31.116417938232424Q213.00762554779052,31.154427938232423,213.12852554779053,31.20452793823242Q213.24952554779054,31.25462793823242,213.36502554779054,31.316347938232422Q213.48042554779053,31.378067938232423,213.58932554779054,31.450797938232423Q213.6982255477905,31.523537938232423,213.79942554779052,31.606597938232422Q213.90062554779053,31.689651938232423,213.99312554779053,31.78222793823242Q214.08572554779053,31.874804938232423,214.16882554779053,31.976009938232423Q214.25182554779053,32.07721493823242,214.32462554779053,32.18607293823242Q214.39732554779053,32.29493193823242,214.45902554779053,32.41039593823242Q214.52072554779053,32.52585993823242,214.57082554779052,32.64681663823242Q214.62092554779053,32.76777393823242,214.65892554779052,32.89305893823242Q214.69702554779053,33.018344938232424,214.72252554779053,33.14675193823242Q214.74802554779052,33.27515993823242,214.76092554779052,33.405451938232424Q214.77372554779052,33.53574493823242,214.77372554779052,33.66666793823242Q214.77372554779052,33.862277938232424,214.74512554779054,34.05578793823242Q214.71662554779053,34.249297938232424,214.66012554779053,34.43655793823242Q214.60362554779053,34.623827938232424,214.52032554779052,34.80083793823242Q214.43712554779052,34.97784793823242,214.32892554779053,35.14080793823242Q214.22072554779052,35.30375793823242,214.08982554779053,35.449177938232424Q213.95902554779053,35.59458793823242,213.80832554779053,35.71933793823242Q213.65772554779053,35.84408793823242,213.49042554779052,35.945507938232424Q213.32312554779054,36.046917938232426,213.14292554779053,36.12282793823242L213.14352554779052,36.12435793823242Q206.31392554779052,38.999997938232426,199.10872554779053,38.999997938232426Q191.72581554779052,38.999997938232426,184.77262554779054,34.97446793823242L184.77346554779052,34.97302793823242Q184.62246554779054,34.885607938232425,184.48416554779052,34.77925793823242Q184.34585554779053,34.672897938232424,184.22259554779052,34.54941793823242Q184.09933554779053,34.42593793823242,183.99322554779053,34.28743793823242Q183.88711554779053,34.14893793823242,183.79997554779052,33.99778793823242Q183.71282554779052,33.84663793823242,183.64612554779052,33.68541793823242Q183.57943554779052,33.52419193823242,183.53432554779053,33.355649938232425Q183.48922554779054,33.18710893823242,183.46647554779054,33.01412493823242Q183.44372554779054,32.84114093823242,183.44372554779054,32.66666793823242Q183.44372554779054,32.53574493823242,183.45655554779051,32.405451938232424Q183.46939554779053,32.27515993823242,183.49493554779053,32.14675193823242Q183.52047554779054,32.018344938232424,183.55847554779052,31.89305893823242Q183.59648554779054,31.767773938232423,183.64658554779052,31.646817938232424Q183.69668554779054,31.52585793823242,183.75840554779052,31.41039793823242Q183.82012554779052,31.294927938232423,183.89285554779053,31.186077938232422Q183.9655955477905,31.077217938232423,184.04865554779053,30.97600793823242Q184.13170554779052,30.874807938232422,184.22428554779052,30.78222793823242Q184.3168655477905,30.689647938232422,184.41806554779052,30.606597938232422Q184.51927554779053,30.523537938232423,184.62813554779052,30.450797938232423Q184.73698554779054,30.378067938232423,184.85245554779053,30.316347938232422Q184.96791554779054,30.25462793823242,185.08887554779054,30.20452793823242Q185.20983154779051,30.154427938232423,185.33511654779053,30.116417938232424Q185.46040254779052,30.078417938232423,185.58880954779053,30.05287793823242Q185.71721754779054,30.02733793823242,185.84750954779054,30.014497938232424Q185.97780254779053,30.001667938232423,186.10872554779053,30.001667938232423Q186.46039054779052,30.001667938232423,186.80001854779053,30.092887938232423Q187.13964554779054,30.184107938232422,187.44398554779053,30.36030793823242Z" fill-rule="evenodd" fill="#000000" fill-opacity="1"/></g><g><path d="M230.77731856323243,30.36030793823242L230.7781585632324,30.35886793823242Q236.4916385632324,33.66666793823242,242.44205856323242,33.66666793823242Q248.57025856323241,33.66666793823242,254.40725856323243,31.208977938232422L254.40785856323242,31.21050793823242Q254.90385856323243,31.001667938232423,255.44205856323242,31.001667938232423Q255.57295856323242,31.001667938232423,255.70325856323242,31.014497938232424Q255.83355856323243,31.02733793823242,255.96195856323243,31.05287793823242Q256.0903585632324,31.078417938232423,256.2156585632324,31.116417938232424Q256.34095856323245,31.154427938232423,256.4618585632324,31.20452793823242Q256.58285856323243,31.25462793823242,256.69835856323243,31.316347938232422Q256.8137585632324,31.378067938232423,256.9226585632324,31.450797938232423Q257.0315585632324,31.523537938232423,257.1327585632324,31.606597938232422Q257.2339585632324,31.689651938232423,257.32645856323245,31.78222793823242Q257.4190585632324,31.874804938232423,257.5021585632324,31.976009938232423Q257.5851585632324,32.07721493823242,257.6579585632324,32.18607293823242Q257.7306585632324,32.29493193823242,257.7923585632324,32.41039593823242Q257.8540585632324,32.52585993823242,257.90415856323244,32.64681663823242Q257.95425856323243,32.76777393823242,257.99225856323244,32.89305893823242Q258.0303585632324,33.018344938232424,258.05585856323245,33.14675193823242Q258.0813585632324,33.27515993823242,258.0942585632324,33.405451938232424Q258.10705856323244,33.53574493823242,258.10705856323244,33.66666793823242Q258.10705856323244,33.862277938232424,258.0784585632324,34.05578793823242Q258.0499585632324,34.249297938232424,257.9934585632324,34.43655793823242Q257.93695856323245,34.623827938232424,257.85365856323244,34.80083793823242Q257.7704585632324,34.97784793823242,257.6622585632324,35.14080793823242Q257.55405856323245,35.30375793823242,257.42315856323245,35.449177938232424Q257.2923585632324,35.59458793823242,257.1416585632324,35.71933793823242Q256.9910585632324,35.84408793823242,256.82375856323245,35.945507938232424Q256.65645856323243,36.046917938232426,256.4762585632324,36.12282793823242L256.47685856323244,36.12435793823242Q249.6472585632324,38.999997938232426,242.44205856323242,38.999997938232426Q235.0591485632324,38.999997938232426,228.10595856323243,34.97446793823242L228.10679856323242,34.97302793823242Q227.95579856323243,34.885607938232425,227.81749856323242,34.77925793823242Q227.67918856323243,34.672897938232424,227.5559285632324,34.54941793823242Q227.43266856323243,34.42593793823242,227.32655856323242,34.28743793823242Q227.22044856323242,34.14893793823242,227.13330856323242,33.99778793823242Q227.0461585632324,33.84663793823242,226.9794585632324,33.68541793823242Q226.91276856323242,33.52419193823242,226.86765856323242,33.355649938232425Q226.82255856323243,33.18710893823242,226.79980856323243,33.01412493823242Q226.77705856323243,32.84114093823242,226.77705856323243,32.66666793823242Q226.77705856323243,32.53574493823242,226.7898885632324,32.405451938232424Q226.80272856323242,32.27515993823242,226.82826856323243,32.14675193823242Q226.85380856323243,32.018344938232424,226.89180856323242,31.89305893823242Q226.92981856323243,31.767773938232423,226.97991856323242,31.646817938232424Q227.03001856323243,31.52585793823242,227.0917385632324,31.41039793823242Q227.15345856323242,31.294927938232423,227.22618856323243,31.186077938232422Q227.2989285632324,31.077217938232423,227.38198856323243,30.97600793823242Q227.4650385632324,30.874807938232422,227.5576185632324,30.78222793823242Q227.6501985632324,30.689647938232422,227.7513985632324,30.606597938232422Q227.85260856323242,30.523537938232423,227.96146856323242,30.450797938232423Q228.07031856323243,30.378067938232423,228.18578856323242,30.316347938232422Q228.30124856323243,30.25462793823242,228.42220856323243,30.20452793823242Q228.5431645632324,30.154427938232423,228.66844956323243,30.116417938232424Q228.79373556323242,30.078417938232423,228.92214256323243,30.05287793823242Q229.05055056323243,30.02733793823242,229.18084256323243,30.014497938232424Q229.31113556323243,30.001667938232423,229.44205856323242,30.001667938232423Q229.79372356323242,30.001667938232423,230.13335156323242,30.092887938232423Q230.47297856323243,30.184107938232422,230.77731856323243,30.36030793823242Z" fill-rule="evenodd" fill="#000000" fill-opacity="1"/></g><g transform="matrix(1,0,0,-1,0,117.33333587646484)"><path d="M221.7369585632324,55.999997938232426Q192.84575856323244,55.999997938232426,177.5076485632324,72.16446793823242L177.50885856323242,72.16566793823242Q177.33424856323242,72.34966793823241,177.19749856323241,72.56326793823243Q177.0607485632324,72.77686793823243,176.96675856323242,73.01256793823242Q176.87276856323243,73.24816793823243,176.8249085632324,73.49726793823243Q176.77705856323243,73.74636793823242,176.77705856323243,73.99996793823242Q176.77705856323243,74.13096793823242,176.7898885632324,74.26126793823242Q176.80272856323242,74.39146793823242,176.82826856323243,74.51986793823242Q176.85380856323243,74.64836793823243,176.89180856323242,74.77356793823242Q176.92981856323243,74.89886793823243,176.97991856323242,75.01986793823242Q177.03001856323243,75.14076793823241,177.0917385632324,75.25626793823243Q177.15345856323242,75.37176793823242,177.22618856323243,75.48056793823243Q177.2989285632324,75.58946793823242,177.38198856323243,75.69066793823242Q177.4650385632324,75.79186793823243,177.5576185632324,75.88446793823242Q177.6501985632324,75.97696793823242,177.7513985632324,76.06006793823242Q177.85260856323242,76.14316793823242,177.96146856323242,76.21586793823242Q178.07031856323243,76.28856793823242,178.18578856323242,76.35036793823242Q178.30124856323243,76.41206793823243,178.42220856323243,76.46216793823243Q178.5431645632324,76.51226793823243,178.66844956323243,76.55026793823242Q178.79373556323242,76.58826793823242,178.92214256323243,76.61376793823243Q179.05055056323243,76.63936793823243,179.18084256323243,76.65216793823242Q179.31113556323243,76.66496793823242,179.44205856323242,76.66496793823242Q179.7133615632324,76.66496793823242,179.9790995632324,76.61036793823243Q180.2448375632324,76.55566793823242,180.49410856323243,76.44856793823243Q180.74337856323243,76.34146793823243,180.96594856323242,76.18636793823242Q181.18851856323244,76.03116793823241,181.37526856323242,75.83436793823242L181.37646856323244,75.83556793823243Q195.13725856323242,61.33333793823242,221.7369585632324,61.33333793823242Q248.30385856323244,61.33333793823242,261.4701585632324,75.79526793823243L261.47145856323243,75.79406793823242Q261.6587585632324,75.99986793823243,261.8845585632324,76.16246793823242Q262.1103585632324,76.32506793823242,262.3648585632324,76.43756793823242Q262.6193585632324,76.55006793823242,262.8915585632324,76.60756793823242Q263.16385856323245,76.66496793823242,263.4420585632324,76.66496793823242Q263.5729585632324,76.66496793823242,263.70325856323245,76.65216793823242Q263.83355856323243,76.63936793823243,263.96195856323243,76.61376793823243Q264.0903585632324,76.58826793823242,264.2156585632324,76.55026793823242Q264.34095856323245,76.51226793823243,264.46185856323245,76.46216793823243Q264.58285856323243,76.41206793823243,264.69835856323243,76.35036793823242Q264.81375856323245,76.28856793823242,264.9226585632324,76.21586793823242Q265.03145856323243,76.14316793823242,265.1327585632324,76.06006793823242Q265.2339585632324,75.97706793823242,265.32645856323245,75.88446793823242Q265.4190585632324,75.79186793823243,265.50215856323246,75.69066793823242Q265.5851585632324,75.58946793823242,265.65795856323246,75.48056793823243Q265.7306585632324,75.37176793823242,265.7923585632324,75.25626793823243Q265.85405856323246,75.14076793823241,265.90415856323244,75.01986793823242Q265.95425856323243,74.89886793823243,265.99225856323244,74.77356793823242Q266.0303585632324,74.64836793823243,266.0558585632324,74.51986793823242Q266.0813585632324,74.39146793823242,266.0942585632324,74.26126793823242Q266.10705856323244,74.13096793823242,266.10705856323244,73.99996793823242Q266.10705856323244,73.75326793823243,266.0617585632324,73.51076793823242Q266.0164585632324,73.26816793823242,265.92745856323245,73.03806793823242Q265.8383585632324,72.80806793823243,265.70855856323243,72.59816793823242Q265.57875856323244,72.38836793823242,265.4126585632324,72.20586793823242L265.4139585632324,72.20476793823242Q250.6608585632324,55.999997938232426,221.7369585632324,55.999997938232426Z" fill-rule="evenodd" fill="#000000" fill-opacity="1"/></g></g></g><g><g transform="matrix(0.9939413070678711,-0.10991235077381134,0.10991235077381134,0.9939413070678711,-14.282598802099528,19.835150627681287)" filter="url(#master_svg0_2_12842)"><rect x="172.775390625" y="139.46923828125" width="350" height="98" rx="49" fill="#FFFFFF" fill-opacity="1"/></g><g transform="matrix(0.9938436150550842,-0.11079147458076477,0.11079147458076477,0.9938436150550842,-16.322015826124698,25.44252758991206)"><rect x="220.775390625" y="159.58984375" width="240" height="10" rx="5" fill="#EBEBEB" fill-opacity="1"/></g><g transform="matrix(0.9938436150550842,-0.11079147458076477,0.11079147458076477,0.9938436150550842,-17.94298583619093,36.42369024413347)"><rect x="318.775390625" y="179.666259765625" width="141.40330505371094" height="10" rx="5" fill="#EBEBEB" fill-opacity="1"/></g><g><ellipse cx="516.775390625" cy="169" rx="25" ry="25" fill="#5BC279" fill-opacity="1"/></g><g><g><path d="M526.9753906965256,163.60000009536742C526.9753906965256,163.89754009536742,526.8648906965255,164.18446009536743,526.6651906965255,164.40510009536743L515.2652306965256,177.00510009536742C514.8205906965255,177.49650009536742,514.0617406965256,177.53450009536743,513.5702906965256,177.08980009536742C513.5554706965256,177.07640009536743,513.5409906965256,177.06270009536743,513.5268606965255,177.04850009536744L506.9273126965256,170.44898009536743L506.9273126965256,170.44898009536743C506.70181869652555,170.22348009536742,506.5753906965256,169.91826009536743,506.5753906965256,169.60000009536742C506.5753906965256,168.93726009536744,507.1126486965256,168.40000009536743,507.77539069652556,168.40000009536743C508.0936506965256,168.40000009536743,508.3988706965256,168.52643009536743,508.6239206965256,168.75147009536744L508.6239206965256,168.75147009536744L514.3319006965256,174.45950009536745L524.8855906965256,162.79490409536743C525.1130906965255,162.54345909536744,525.4362906965256,162.40000009536743,525.7753906965256,162.40000009536743C526.4380906965256,162.40000009536743,526.9753906965256,162.93725809536744,526.9753906965256,163.60000009536742Z" fill-rule="evenodd" fill="#FFFFFF" fill-opacity="1"/></g></g></g><g transform="matrix(0.9716477394104004,0.23643307387828827,-0.23643307387828827,0.9716477394104004,54.4416242307052,-9.996129295992432)"><g transform="matrix(0.9939413070678711,-0.10991235077381134,0.10991235077381134,0.9939413070678711,-28.211361776737476,9.151108237667358)" filter="url(#master_svg1_2_12852)"><rect x="68.900390625" y="260.4694366455078" width="350" height="98" rx="49" fill="#FFFFFF" fill-opacity="1"/></g><g transform="matrix(0.9938436150550842,-0.11079147458076477,0.11079147458076477,0.9938436150550842,-29.79545542535834,22.20006108236157)"><rect x="184.8623046875" y="279.2050476074219" width="186.203125" height="9.996073722839355" rx="4.998036861419678" fill="#EBEBEB" fill-opacity="1"/></g><g transform="matrix(0.9938436150550842,-0.11079147458076477,0.11079147458076477,0.9938436150550842,-32.85167140038493,22.778172432169413)"><rect x="188.5361328125" y="306.99449157714844" width="100.18231201171875" height="10.002099990844727" rx="5" fill="#EBEBEB" fill-opacity="1"/></g></g><g><g><path d="M399.738390625,410Q398.683690625,410,397.630290625,410.0517508Q396.576890625,410.103502,395.527290625,410.206878Q394.477690625,410.310255,393.434390625,410.465009Q392.391090625,410.619763,391.356690625,410.825521Q390.322290625,411.03128,389.299190625,411.28755Q388.276090625,411.54381,387.266890625,411.84997Q386.257590625,412.15613,385.264590625,412.51144Q384.271490625,412.86675,383.297090625,413.27036Q382.322690625,413.67397,381.369290625,414.1249Q380.415890625,414.57584,379.485790625,415.07301Q378.555590625,415.57019,377.650990625,416.1124Q376.746390625,416.65461,375.869390625,417.24056Q374.992490625,417.82651,374.145390625,418.45479Q373.298190625,419.08306,372.482890625,419.75214Q371.667690625,420.4212,370.886190625,421.1295Q370.104690625,421.8378,369.358990625,422.5836Q368.613190625,423.3293,367.904890625,424.1108Q367.196590625,424.8923,366.527530625,425.7075Q365.858450625,426.5228,365.230180625,427.37Q364.601900625,428.2171,364.015950625,429.094Q363.430000625,429.971,362.887790625,430.8756Q362.345580625,431.7802,361.848400625,432.7104Q361.351230625,433.6405,360.900290625,434.5939Q360.449360625,435.5473,360.045750625,436.5217Q359.642140625,437.4961,359.286830625,438.4892Q358.931520625,439.4822,358.625360625,440.4915Q358.319200625,441.5007,358.062940625,442.5238Q357.806670625,443.5469,357.600911625,444.5813Q357.395153625,445.6157,357.240399625,446.659Q357.085645625,447.7023,356.982268625,448.7519Q356.878892625,449.8015,356.827141425,450.8549Q356.775390625,451.9083,356.775390625,452.963Q356.775390625,454.1556,356.841553825,455.3464Q356.907716625,456.5372,357.039839625,457.72249999999997Q357.171962625,458.9078,357.369637625,460.08389999999997Q357.567312625,461.2601,357.829930625,462.4234Q358.092550625,463.5868,358.419300625,464.7338Q358.746060625,465.8808,359.135940625,467.0079Q359.525820625,468.135,359.977630625,469.23879999999997Q360.429440625,470.3425,360.941790625,471.41949999999997Q361.454130625,472.4964,362.025430625,473.5433Q362.596740625,474.5902,363.225240625,475.6038Q363.853740625,476.6174,364.537500625,477.5946Q365.221270625,478.5717,365.958190625,479.5095Q366.695110625,480.4472,367.482890625,481.3426Q368.270690625,482.238,369.106990625,483.0883Q369.943290625,483.9386,370.825390625,484.7412Q371.707590625,485.54380000000003,372.632890625,486.2963Q371.707590625,487.0487,370.825390625,487.8513Q369.943290625,488.6539,369.106990625,489.5043Q368.270690625,490.3546,367.482890625,491.25Q366.695110625,492.1454,365.958190625,493.0831Q365.221270625,494.0208,364.537510625,494.998Q363.853740625,495.9752,363.225240625,496.9887Q362.596740625,498.0023,362.025430625,499.0492Q361.454130625,500.0961,360.941790625,501.1731Q360.429440625,502.2501,359.977630625,503.3538Q359.525820625,504.4576,359.135940625,505.5847Q358.746060625,506.7118,358.419300625,507.8588Q358.092550625,509.0058,357.829930625,510.169Q357.567312625,511.33299999999997,357.369637625,512.509Q357.171962625,513.685,357.039839625,514.87Q356.907716625,516.0550000000001,356.841553825,517.246Q356.775390625,518.437,356.775390625,519.63Q356.775390625,520.684,356.827141425,521.738Q356.878892625,522.7909999999999,356.982268625,523.841Q357.085645625,524.89,357.240399625,525.934Q357.395153625,526.977,357.600911625,528.011Q357.806670625,529.046,358.062940625,530.069Q358.319200625,531.092,358.625360625,532.101Q358.931520625,533.11,359.286830625,534.103Q359.642140625,535.096,360.045750625,536.071Q360.449360625,537.045,360.900290625,537.999Q361.351230625,538.952,361.848400625,539.8820000000001Q362.345580625,540.812,362.887790625,541.717Q363.430000625,542.6220000000001,364.015950625,543.499Q364.601900625,544.375,365.230180625,545.223Q365.858450625,546.0699999999999,366.527530625,546.885Q367.196590625,547.7,367.904890625,548.482Q368.613190625,549.263,369.358990625,550.009Q370.104690625,550.755,370.886190625,551.463Q371.667690625,552.171,372.482890625,552.84Q373.298190625,553.509,374.145390625,554.138Q374.992490625,554.766,375.869390625,555.352Q376.746390625,555.938,377.650990625,556.48Q378.555590625,557.0219999999999,379.485790625,557.52Q380.415890625,558.017,381.369290625,558.468Q382.322690625,558.919,383.297090625,559.322Q384.271490625,559.726,385.264590625,560.081Q386.257590625,560.436,387.266890625,560.7429999999999Q388.276090625,561.049,389.299190625,561.3050000000001Q390.322290625,561.561,391.356690625,561.767Q392.391090625,561.973,393.434390625,562.1279999999999Q394.477690625,562.282,395.527290625,562.386Q396.576890625,562.489,397.630290625,562.5409999999999Q398.683690625,562.593,399.738390625,562.593L473.81239062500003,562.593Q474.867390625,562.593,475.920390625,562.5409999999999Q476.974390625,562.489,478.023390625,562.386Q479.073390625,562.282,480.116390625,562.1279999999999Q481.159390625,561.973,482.194390625,561.767Q483.228390625,561.561,484.251390625,561.3050000000001Q485.274390625,561.049,486.284390625,560.7429999999999Q487.29339062500003,560.436,488.28639062499997,560.081Q489.279390625,559.726,490.253390625,559.322Q491.228390625,558.919,492.181390625,558.468Q493.13439062500004,558.017,494.06539062499996,557.52Q494.995390625,557.0219999999999,495.899390625,556.48Q496.804390625,555.938,497.681390625,555.352Q498.558390625,554.766,499.405390625,554.138Q500.252390625,553.509,501.06739062500003,552.84Q501.883390625,552.171,502.664390625,551.463Q503.446390625,550.755,504.191390625,550.009Q504.93739062500003,549.263,505.645390625,548.482Q506.354390625,547.7,507.023390625,546.885Q507.69239062500003,546.0699999999999,508.32039062499996,545.223Q508.948390625,544.375,509.534390625,543.499Q510.120390625,542.6220000000001,510.66339062500003,541.717Q511.205390625,540.812,511.702390625,539.8820000000001Q512.199390625,538.952,512.650390625,537.999Q513.101390625,537.045,513.505390625,536.071Q513.908390625,535.096,514.264390625,534.103Q514.619390625,533.11,514.925390625,532.101Q515.231390625,531.092,515.487390625,530.069Q515.744390625,529.046,515.949390625,528.011Q516.155390625,526.977,516.310390625,525.934Q516.465390625,524.89,516.568390625,523.841Q516.671390625,522.7909999999999,516.723390625,521.738Q516.775390625,520.684,516.775390625,519.63Q516.775390625,518.437,516.709390625,517.246Q516.6433906249999,516.0550000000001,516.511390625,514.87Q516.3783906250001,513.685,516.181390625,512.509Q515.983390625,511.33299999999997,515.7203906249999,510.169Q515.458390625,509.0058,515.131390625,507.8588Q514.804390625,506.7118,514.414390625,505.5847Q514.025390625,504.4576,513.573390625,503.3538Q513.121390625,502.2501,512.6093906250001,501.1731Q512.096390625,500.0961,511.525390625,499.0492Q510.954390625,498.0023,510.325390625,496.9887Q509.697390625,495.9752,509.013390625,494.998Q508.329390625,494.0208,507.592390625,493.0831Q506.85539062500004,492.1454,506.06739062500003,491.25Q505.280390625,490.3546,504.443390625,489.5043Q503.607390625,488.6539,502.725390625,487.8513Q501.843390625,487.0487,500.91839062500003,486.2963Q501.843390625,485.54380000000003,502.725390625,484.7412Q503.607390625,483.9386,504.443390625,483.0883Q505.280390625,482.238,506.06739062500003,481.3426Q506.85539062500004,480.4472,507.592390625,479.5095Q508.329390625,478.5717,509.013390625,477.5946Q509.697390625,476.6174,510.325390625,475.6038Q510.954390625,474.5902,511.525390625,473.5433Q512.096390625,472.4964,512.6093906250001,471.41949999999997Q513.121390625,470.3425,513.573390625,469.23879999999997Q514.025390625,468.135,514.414390625,467.0079Q514.804390625,465.8808,515.131390625,464.7338Q515.458390625,463.5868,515.7203906249999,462.4234Q515.983390625,461.2601,516.181390625,460.08389999999997Q516.3783906250001,458.9078,516.511390625,457.72249999999997Q516.6433906249999,456.5372,516.709390625,455.3464Q516.775390625,454.1556,516.775390625,452.963Q516.775390625,451.9083,516.723390625,450.8549Q516.671390625,449.8015,516.568390625,448.7519Q516.465390625,447.7023,516.310390625,446.659Q516.155390625,445.6157,515.949390625,444.5813Q515.744390625,443.5469,515.487390625,442.5238Q515.231390625,441.5007,514.925390625,440.4915Q514.619390625,439.4822,514.264390625,438.4892Q513.908390625,437.4961,513.505390625,436.5217Q513.101390625,435.5473,512.650390625,434.5939Q512.199390625,433.6405,511.702390625,432.7104Q511.205390625,431.7802,510.66339062500003,430.8756Q510.120390625,429.971,509.534390625,429.094Q508.948390625,428.2171,508.32039062499996,427.37Q507.69239062500003,426.5228,507.023390625,425.7075Q506.354390625,424.8923,505.645390625,424.1108Q504.93739062500003,423.3293,504.191390625,422.5836Q503.446390625,421.8378,502.664390625,421.1295Q501.883390625,420.4212,501.06739062500003,419.75214Q500.252390625,419.08306,499.405390625,418.45479Q498.558390625,417.82651,497.681390625,417.24056Q496.804390625,416.65461,495.899390625,416.1124Q494.995390625,415.57019,494.06539062499996,415.07301Q493.13439062500004,414.57584,492.181390625,414.1249Q491.228390625,413.67397,490.253390625,413.27036Q489.279390625,412.86675,488.28639062499997,412.51144Q487.29339062500003,412.15613,486.284390625,411.84997Q485.274390625,411.54381,484.251390625,411.28755Q483.228390625,411.03128,482.194390625,410.825521Q481.159390625,410.619763,480.116390625,410.465009Q479.073390625,410.310255,478.023390625,410.206878Q476.974390625,410.103502,475.920390625,410.0517508Q474.867390625,410,473.81239062500003,410L399.738390625,410Z" fill-rule="evenodd" fill="#FEA1CD" fill-opacity="1"/></g><g><g><g><ellipse cx="457.29591369628906" cy="457.62762451171875" rx="16.516517639160156" ry="16.516515731811523" fill="#FFFFFF" fill-opacity="1"/></g><g><ellipse cx="457.2959132194519" cy="457.62762355804443" rx="6.506506443023682" ry="6.506505966186523" fill="#000000" fill-opacity="1"/></g></g><g><path d="M402.07662372924807,463.78151990356446Q402.00888372924805,463.95771990356445,401.915483729248,464.12191990356445Q401.8220737292481,464.28601990356447,401.70512372924804,464.4343199035645Q401.58817372924807,464.58251990356445,401.450313729248,464.71161990356444Q401.31245372924803,464.84061990356446,401.15680372924805,464.94761990356443Q401.0011537292481,465.0545199035644,400.831233729248,465.13691990356443Q400.66131172924804,465.21931990356444,400.48095972924807,465.2753199035645Q400.30060772924804,465.33121990356443,400.11390072924803,465.35951990356443Q399.9271947292481,465.38791990356447,399.73835372924805,465.38791990356447Q399.61529072924804,465.38791990356447,399.492820729248,465.37581990356443Q399.37035072924806,465.36371990356446,399.24965272924806,465.33971990356446Q399.12895472924805,465.31571990356446,399.011190729248,465.28001990356444Q398.89342672924806,465.2443199035645,398.77973172924806,465.1972199035645Q398.66603372924806,465.1501199035645,398.557503729248,465.0921199035645Q398.44897372924805,465.03411990356443,398.34665372924803,464.96571990356443Q398.24432372924804,464.89731990356444,398.14919372924805,464.81931990356446Q398.05407372924805,464.74121990356446,397.96705372924805,464.65421990356447Q397.88003372924805,464.56711990356445,397.80196372924803,464.47201990356444Q397.72389372924806,464.37691990356444,397.65552372924805,464.2746199035644Q397.58715372924803,464.17221990356444,397.52914372924806,464.06371990356445Q397.47113372924804,463.95521990356445,397.42403372924804,463.84151990356446Q397.37694372924807,463.72781990356447,397.34121372924807,463.6100199035645Q397.30549372924804,463.49231990356446,397.28148372924807,463.37161990356446Q397.25747372924803,463.25091990356447,397.24541372924807,463.12841990356446Q397.23335372924805,463.00591990356446,397.23335372924805,462.88291990356447Q397.23335372924805,462.30151990356444,397.48938372924806,461.77962990356446Q402.8182237292481,449.61961990356446,413.75235372924806,449.61961990356446Q424.65245372924807,449.61961990356446,430.24385372924803,461.73630990356446Q430.38075372924806,462.00227990356444,430.45115372924806,462.29301990356447Q430.52165372924804,462.58371990356443,430.52165372924804,462.88291990356447Q430.52165372924804,463.00591990356446,430.50955372924807,463.12841990356446Q430.49755372924807,463.25091990356447,430.47345372924804,463.37161990356446Q430.44945372924803,463.49231990356446,430.41375372924807,463.6100199035645Q430.37805372924805,463.72781990356447,430.33095372924805,463.84151990356446Q430.28385372924805,463.95521990356445,430.22585372924806,464.06371990356445Q430.16785372924807,464.17221990356444,430.09945372924807,464.2746199035644Q430.0310537292481,464.37691990356444,429.95305372924804,464.47201990356444Q429.87495372924803,464.56711990356445,429.78795372924804,464.65421990356447Q429.70095372924806,464.74121990356446,429.605753729248,464.81931990356446Q429.510653729248,464.89731990356444,429.40835372924806,464.96571990356443Q429.30605372924805,465.03411990356443,429.197453729248,465.0921199035645Q429.08895372924803,465.1501199035645,428.97525372924804,465.1972199035645Q428.86155372924804,465.2443199035645,428.74375372924806,465.28001990356444Q428.62605372924804,465.31571990356446,428.50535372924804,465.33971990356446Q428.38465372924804,465.36371990356446,428.26215372924804,465.37581990356443Q428.13965372924804,465.38791990356447,428.01665372924805,465.38791990356447Q427.830853729248,465.38791990356447,427.64705372924806,465.36041990356443Q427.46335372924807,465.33301990356443,427.28565372924805,465.27881990356445Q427.10795372924804,465.2246199035645,426.94015372924804,465.14481990356444Q426.77235372924804,465.06491990356443,426.61825372924807,464.9612199035644Q426.46405372924806,464.8575199035645,426.32695372924803,464.73221990356444Q426.189753729248,464.6068199035644,426.07255372924806,464.4626199035645Q425.95545372924806,464.31851990356444,425.860753729248,464.15861990356444Q425.76615372924806,463.99871990356445,425.69615372924807,463.82661990356445Q421.44515372924803,454.62461990356445,413.75235372924806,454.62461990356445Q406.09442372924804,454.62461990356445,402.07662372924807,463.78151990356446Z" fill-rule="evenodd" fill="#000000" fill-opacity="1"/></g><g transform="matrix(1,0,0,-1,0,972.3125495910645)"><path d="M409.16195622924806,494.7293147955322Q408.84928622924804,494.9435247955322,408.48723222924804,495.05565479553223Q408.125182229248,495.1677847955322,407.74616622924805,495.1677847955322Q407.62310322924804,495.1677847955322,407.500633229248,495.1557147955322Q407.37816322924806,495.1436547955322,407.25746522924806,495.1196447955322Q407.13676722924805,495.09563479553225,407.019003229248,495.0599147955322Q406.90123922924806,495.02419479553225,406.78754422924806,494.97709479553225Q406.67384622924806,494.9300047955322,406.565316229248,494.8719947955322Q406.45678622924805,494.81398479553224,406.35446622924803,494.7456147955322Q406.25213622924804,494.6772447955322,406.15700622924805,494.5991647955322Q406.06188622924805,494.5211047955322,405.97486622924805,494.4340847955322Q405.88784622924805,494.3470647955322,405.80977622924803,494.25193479553224Q405.73170622924806,494.15680479553225,405.66333622924805,494.05448479553223Q405.59496622924803,493.9521647955322,405.53695622924806,493.8436247955322Q405.47894622924804,493.73509479553223,405.43184622924804,493.6214047955322Q405.38475622924807,493.5077047955322,405.34902622924807,493.38994479553224Q405.31330622924804,493.27217479553224,405.28929622924807,493.1514847955322Q405.26528622924803,493.0307847955322,405.25322622924807,492.90831479553225Q405.24116622924805,492.7858447955322,405.24116622924805,492.6627847955322Q405.24116622924805,492.4966747955322,405.26309622924805,492.3320247955322Q405.28502622924805,492.1673747955322,405.32850622924803,492.00706479553224Q405.371986229248,491.8467547955322,405.43625622924804,491.6935847955322Q405.50052622924807,491.54041479553223,405.58444622924804,491.3970747955322Q405.66837622924805,491.25373479553224,405.77049622924807,491.12272479553224Q405.872616229248,490.9917247955322,405.99113622924807,490.87535479553225Q406.10965622924806,490.75897479553225,406.24251622924805,490.6592747955322Q406.3753662292481,490.55956479553225,406.52021622924804,490.47827479553223Q417.54848622924806,483.65377479553223,438.99866622924804,483.65377479553223Q460.42136622924806,483.65377479553223,471.98476622924807,490.45071479553224Q472.13456622924804,490.5303547955322,472.27236622924806,490.6294847955322Q472.41016622924803,490.7286147955322,472.53326622924806,490.84541479553224Q472.6563662292481,490.96221479553225,472.762566229248,491.09455479553225Q472.86886622924806,491.22689479553225,472.95626622924806,491.3723547955322Q473.04366622924806,491.5178147955322,473.11066622924807,491.67374479553223Q473.17776622924805,491.8296647955322,473.22306622924805,491.9932047955322Q473.268466229248,492.15674479553223,473.29136622924807,492.32490479553223Q473.31426622924806,492.49306479553223,473.31426622924806,492.6627847955322Q473.31426622924806,492.7858447955322,473.30216622924803,492.90831479553225Q473.29006622924805,493.0307847955322,473.26606622924805,493.1514847955322Q473.24206622924805,493.27217479553224,473.20636622924803,493.38994479553224Q473.170666229248,493.5077047955322,473.123566229248,493.6214047955322Q473.076466229248,493.73509479553223,473.018466229248,493.8436247955322Q472.960466229248,493.9521647955322,472.89206622924803,494.05448479553223Q472.82366622924803,494.15680479553225,472.74566622924806,494.25193479553224Q472.66756622924805,494.3470647955322,472.58056622924806,494.4340847955322Q472.493566229248,494.5211047955322,472.39836622924804,494.59917479553224Q472.30326622924804,494.6772447955322,472.200966229248,494.7456147955322Q472.09856622924804,494.81398479553224,471.99006622924804,494.8719947955322Q471.88156622924805,494.9300047955322,471.76786622924806,494.97709479553225Q471.65416622924806,495.02419479553225,471.5363662292481,495.0599147955322Q471.41866622924806,495.09563479553225,471.29796622924806,495.1196447955322Q471.17726622924806,495.1436547955322,471.05476622924806,495.1557147955322Q470.93226622924806,495.1677847955322,470.80926622924807,495.1677847955322Q470.4448662292481,495.1677847955322,470.095666229248,495.06398479553224Q469.74636622924805,494.96019479553223,469.44116622924804,494.76120479553225Q459.05346622924804,488.6587747955322,438.99866622924804,488.6587747955322Q418.978366229248,488.6587747955322,409.16195622924806,494.7293147955322Z" fill-rule="evenodd" fill="#000000" fill-opacity="1"/></g></g></g><g><g transform="matrix(0.4999999701976776,0.866025447845459,-0.866025447845459,0.4999999701976776,256.7898304143455,-210.7730183787644)"><rect x="310.9296875" y="117" width="175.69219970703125" height="175.69219970703125" rx="23.999996185302734" fill="#ED8456" fill-opacity="1"/></g><g><g><ellipse cx="270.37486267089844" cy="206.99947357177734" rx="29.999465942382812" ry="29.999465942382812" fill="#FFFFFF" fill-opacity="1"/></g><g><ellipse cx="285.37459564208984" cy="200.47785091400146" rx="13.695409774780273" ry="14.347570419311523" fill="#000000" fill-opacity="1"/></g></g><g><g><ellipse cx="330.37486267089844" cy="206.99947357177734" rx="29.999465942382812" ry="29.999465942382812" fill="#FFFFFF" fill-opacity="1"/></g><g><ellipse cx="345.37459564208984" cy="200.47785091400146" rx="13.695409774780273" ry="14.347570419311523" fill="#000000" fill-opacity="1"/></g></g></g><g><rect x="158.775390625" y="410" width="198" height="153" rx="30" fill="#5BC279" fill-opacity="1"/></g><g><path d="M199.775390625,487C199.775390625,503.0163,212.759090625,516,228.775390625,516L228.275390625,527L257.775390625,516L283.775390625,516C301.448390625,516,315.775390625,501.6731,315.775390625,484C315.775390625,466.3269,301.448390625,452,283.775390625,452L231.775390625,452C214.102290625,452,199.775390625,466.3269,199.775390625,484L199.775390625,487Z" fill="#FFFFFF" fill-opacity="1"/></g><g><path d="M277.927190625,499.7193610351562Q289.004090625,495.84246103515625,295.810890625,489.03556103515626L299.346490625,485.50006103515625L292.275390625,478.42896103515625L288.739890625,481.96456103515624Q283.622490625,487.08186103515624,274.883490625,490.18906103515627Q274.389390625,488.6534610351562,273.819590625,484.67586103515623Q272.205290625,473.40724103515623,267.823990625,470.03694103515625Q262.438990625,465.89470103515623,255.279790625,471.35620103515623Q252.46599062500002,473.50270103515624,246.897590625,479.62168103515626Q243.475290625,483.38226103515626,241.729690625,485.00436103515625Q241.738290625,483.9734610351563,241.799790625,482.55986103515625Q242.038590625,477.07758103515624,241.513490625,474.36774103515626Q240.333190625,468.2760110351563,235.389790625,465.96913103515624Q227.989490625,462.51570103515627,221.548230625,470.9698590351563Q217.063675625,476.85584103515623,212.551610625,489.8611610351563L210.912710625,494.58496103515625L220.36032062499999,497.86276103515627L221.999170625,493.1389610351562Q225.987100625,481.64436103515624,229.502590625,477.03029103515627Q230.584990625,475.60954103515627,231.321990625,475.16264103515624Q232.072690625,476.0761010351562,231.809290625,482.12486103515624Q231.603090625,486.85916103515626,231.984790625,489.03376103515626Q232.973890625,494.67006103515627,237.694290625,496.24346103515626Q242.190290625,497.74216103515624,247.551590625,493.20686103515624Q249.740990625,491.35476103515623,254.293490625,486.35226103515623Q259.251890625,480.90366103515623,261.344990625,479.30686103515626Q261.853890625,478.91865103515624,262.237890625,478.67830103515627Q263.11519062499997,480.47146103515627,263.920590625,486.09396103515627Q264.897090625,492.91036103515626,266.346390625,495.59306103515627Q270.062590625,502.47196103515626,277.927190625,499.7193610351562Z" fill-rule="evenodd" fill="#FFDD00" fill-opacity="1"/></g><g><g><rect x="101.775390625" y="54" width="20" height="20" rx="0" fill="#FFFFFF" fill-opacity="1"/><rect x="102.275390625" y="54.5" width="19" height="19" rx="0" fill-opacity="0" stroke-opacity="1" stroke="#000000" fill="none" stroke-width="1"/></g><g><rect x="463.775390625" y="54" width="20" height="20" rx="0" fill="#FFFFFF" fill-opacity="1"/><rect x="464.275390625" y="54.5" width="19" height="19" rx="0" fill-opacity="0" stroke-opacity="1" stroke="#000000" fill="none" stroke-width="1"/></g></g><g><g><rect x="101.775390625" y="518" width="20" height="20" rx="0" fill="#FFFFFF" fill-opacity="1"/><rect x="102.275390625" y="518.5" width="19" height="19" rx="0" fill-opacity="0" stroke-opacity="1" stroke="#000000" fill="none" stroke-width="1"/></g></g><g><rect x="423.775390625" y="290" width="150" height="84" rx="0" fill="#FFDD00" fill-opacity="1"/><rect x="424.775390625" y="291" width="148" height="82" rx="0" fill-opacity="0" stroke-opacity="1" stroke="#000000" fill="none" stroke-width="2"/></g><g><path d="M424.775390625,250L425.173828625,274.5L431.775390625,265.5L443.275390625,265.5L424.775390625,250Z" fill="#FFDD00" fill-opacity="1"/><path d="M444.275390625,265.5Q444.275390625,265.3904,444.251690625,265.28340000000003Q444.227890625,265.1764,444.181590625,265.077Q444.135190625,264.9777,444.068390625,264.8908Q444.001590625,264.8039,443.917590625,264.7335L425.417610625,249.233479Q425.342114625,249.170226,425.255729625,249.122917Q425.169344625,249.075608,425.075389625,249.046061Q424.981434625,249.016513,424.883520625,249.005863Q424.785607025,248.99521,424.687496825,249.00387Q424.589386625,249.012527,424.494850625,249.040158Q424.400314625,249.067789,424.312984625,249.113332Q424.225655625,249.158875,424.148889625,249.22058Q424.072123625,249.282284,424.008869625,249.35778Q423.893058625,249.496007,423.832824625,249.665981Q423.772590625,249.835954,423.775522625,250.0162606L424.173960625,274.5163Q424.175561625,274.61469999999997,424.196344625,274.711Q424.217127625,274.8073,424.256293625,274.8977Q424.295458625,274.988,424.351502625,275.069Q424.407545625,275.15,424.478312625,275.2185Q424.549079625,275.287,424.631851625,275.3404Q424.714623125,275.3938,424.806218125,275.43Q424.897813625,275.4662,424.994711625,275.4838Q425.091610625,275.5015,425.190088625,275.4999Q425.305794625,275.498,425.418013625,275.4697Q425.530232625,275.4415,425.633031625,275.3883Q425.735830625,275.3352,425.823780625,275.26Q425.911720625,275.1848,425.980170625,275.0915L432.282060625,266.5L443.275390625,266.5Q443.373890625,266.5,443.470490625,266.4808Q443.567090625,266.4616,443.658090625,266.4239Q443.749090625,266.3862,443.830990625,266.3315Q443.912890625,266.2767,443.982490625,266.2071Q444.052090625,266.1375,444.106890625,266.0556Q444.161590625,265.9737,444.199290625,265.8827Q444.236990625,265.7917,444.256190625,265.6951Q444.275390625,265.5985,444.275390625,265.5ZM440.524790625,264.5L431.775390625,264.5Q431.657610625,264.5,431.543050625,264.5274Q431.428490625,264.5547,431.323420625,264.608Q431.218360625,264.6612,431.128540625,264.7374Q431.038710625,264.8136,430.969050625,264.9085L426.125370625,271.512L425.810850625,252.17214L440.524790625,264.5Z" fill-rule="evenodd" fill="#000000" fill-opacity="1"/></g><g><path d="M481.425390625,314.3L467.775390625,350L474.025390625,350L477.275390625,341.05L492.225390625,341.05L495.475390625,350L501.725390625,350L488.075390625,314.3L481.425390625,314.3ZM479.025390625,336.25L484.675390625,320.6L484.875390625,320.6L490.475390625,336.25L479.025390625,336.25ZM516.475390625,323.45C513.175390625,323.45,510.575390625,324,508.675390625,325.2C506.425390625,326.5,505.025390625,328.6,504.475390625,331.45L510.125390625,331.9C510.425390625,330.55,511.175390625,329.55,512.275390625,328.9C513.225390625,328.3,514.475390625,328.05,516.075390625,328.05C519.775390625,328.05,521.625390625,329.7,521.625390625,333.1L521.625390625,334.1L515.975390625,334.25C512.175390625,334.35,509.225390625,335.15,507.125390625,336.65C504.825390625,338.2,503.725390625,340.45,503.725390625,343.35C503.725390625,345.5,504.525390625,347.25,506.125390625,348.65C507.675390625,350,509.775390625,350.7,512.475390625,350.7C514.725390625,350.7,516.675390625,350.3,518.325390625,349.55C519.775390625,348.85,521.025390625,347.9,522.025390625,346.6L522.025390625,350L527.325390625,350L527.325390625,333.5C527.325390625,330.35,526.525390625,327.95,524.925390625,326.3C523.125390625,324.4,520.275390625,323.45,516.475390625,323.45ZM521.625390625,338.2L521.625390625,339.5C521.625390625,341.5,520.825390625,343.15,519.325390625,344.45C517.825390625,345.7,515.975390625,346.35,513.775390625,346.35C512.525390625,346.35,511.525390625,346,510.725390625,345.4C509.925390625,344.8,509.575390625,344.05,509.575390625,343.15C509.575390625,340.05,511.825390625,338.45,516.375390625,338.35L521.625390625,338.2Z" fill="#000000" fill-opacity="1"/></g><g><ellipse cx="103.775390625" cy="314" rx="30" ry="30" fill="#536EF1" fill-opacity="1"/></g><g transform="matrix(0.574764609336853,0.818318784236908,-0.818318784236908,0.574764609336853,287.62682744528865,38.49376736333943)"><path d="M110.28269234375,297.59847C109.17400234375,297.17214,107.94570234375,298.40158,108.37131234375,299.51055Q110.19260234375,304.25618,110.19260234375,309.0012Q110.19260234375,313.7462,108.37131234375,318.4906C107.94570234375,319.5992,109.17629234375,320.8284,110.28490234375,320.4026Q115.02990234375,318.5802,119.77490234375,318.5802Q124.51990234375,318.5802,129.26490234375,320.4026C130.37380234375001,320.8285,131.60290234375,319.5995,131.17680234375,318.4907Q129.35370234375,313.7465,129.35370234375,309.0015Q129.35370234375,304.25648,131.17680234375,299.51069C131.60280234375,298.40197,130.37140234375,297.17258,129.26270234375,297.59847Q124.51520234375,299.42213,119.77020234375,299.42213Q115.02518234375,299.42213,110.28269234375,297.59847Z" fill="#FFFFFF" fill-opacity="1"/></g></g></svg>