<svg xmlns="http://www.w3.org/2000/svg" xmlns:xlink="http://www.w3.org/1999/xlink" fill="none" version="1.1" width="774" height="100" viewBox="0 0 774 100"><g><g><g><path d="M120,50.2163L134.9535,59.6125L134.9535,79C134.9535,85.6274,140.3261,91,146.9535,91L762,91C768.627,91,774,85.6274,774,79L774,22C774,15.37258,768.627,10,762,10L146.9531,10C140.3255,10,134.9529,15.37275,134.9531,22.0003L134.9535,40.8203L120,50.2163Z" fill="#FFFFFF" fill-opacity="1"/><path d="M120.939781,49.6258L134.9535,40.8203L134.9531,22.0003C134.9529,15.37275,140.3255,10,146.9531,10L762,10C768.627,10,774,15.37258,774,22L774,79C774,85.6274,768.627,91,762,91L146.9535,91C140.3261,91,134.9535,85.6274,134.9535,79L134.9535,59.6125L120.939778,50.8069L120,50.2163L120.939781,49.6258ZM135.9535,59.0598L121.87956,50.2164L135.9535,41.373000000000005L135.9531,22.0002Q135.953,17.44383,139.1748,14.221910000000001Q142.3966,11,146.9531,11L762,11Q766.556,11,769.778,14.22183Q773,17.443640000000002,773,22L773,79Q773,83.5564,769.778,86.7782Q766.557,90,762,90L146.9535,90Q142.3971,90,139.1753,86.7782Q135.9535,83.5564,135.9535,79L135.9535,59.0598Z" fill-rule="evenodd" fill="#C2C2C2" fill-opacity="1"/></g><g><path d="M167.81,49.926L167.81,52.17L172.54,52.17L172.54,57.318L167.018,57.318L167.018,59.562L180.856,59.562L180.856,57.318L174.872,57.318L174.872,52.17L179.91,52.17L179.91,49.926L174.872,49.926L174.872,46.141999999999996L172.54,46.141999999999996L172.54,49.926L167.81,49.926ZM163.96,52.126000000000005L163.96,60.354L166.226,60.354L166.226,49.596000000000004C167.37,48.144,168.36,46.582,169.196,44.91L180.856,44.91L180.856,42.666L170.208,42.666C170.538,41.786,170.846,40.906,171.11,39.982L168.734,39.696C168.426,40.708,168.074,41.698,167.656,42.666L161.43,42.666L161.43,44.91L166.556,44.91C165.082,47.506,163.102,49.838,160.638,51.884L162.112,53.798C162.75,53.248000000000005,163.366,52.698,163.96,52.126000000000005ZM183.65,43.391999999999996C184.508,43.304,185.344,43.216,186.18,43.106L186.18,45.702L183.078,45.702L183.078,47.924L185.916,47.924C185.212,50.036,184.112,51.906,182.61599999999999,53.578L183.606,56.086C184.64,54.634,185.498,53.072,186.18,51.356L186.18,60.2L188.424,60.2L188.424,50.872C188.90800000000002,51.488,189.502,52.302,190.184,53.269999999999996L190.558,52.698L191.9,54.656C194.012,54.084,195.772,53.292,197.202,52.324L200.678,52.324C200.018,53.468,199.028,54.480000000000004,197.708,55.36C197.136,54.766,196.542,54.216,195.882,53.71L194.276,54.854L195.816,56.394C194.254,57.098,192.362,57.67,190.14,58.11L191.35,60.288C197.906,58.66,201.844,55.976,203.208,52.192L203.208,50.278L199.446,50.278C199.71,49.926,199.974,49.574,200.19400000000002,49.2L198.10399999999998,48.298C196.74,50.234,194.254,51.641999999999996,190.69,52.522L191.46,51.356C190.448,50.41,189.436,49.552,188.424,48.782L188.424,47.924L191.086,47.924L191.086,45.702L188.424,45.702L188.424,42.732C189.348,42.556,190.228,42.336,191.064,42.094L190.25,39.938C188.182,40.598,185.828,41.016,183.188,41.236L183.65,43.391999999999996ZM197.928,40.334L195.662,39.828C194.254,41.698,192.626,43.128,190.778,44.14L192.34,46.01C193.572,45.306,194.672,44.448,195.64,43.458L199.38,43.458C198.676,44.558,197.752,45.504,196.608,46.318C196.322,45.79,195.904,45.218,195.376,44.624L193.77,45.79C194.122,46.12,194.54,46.626,194.98,47.286C193.836,47.858000000000004,192.494,48.342,190.954,48.738L192.12,50.432C197.268,49.024,200.458,46.67,201.712,43.326L201.712,41.434L197.268,41.434C197.488,41.082,197.708,40.730000000000004,197.928,40.334ZM205.826,41.236L205.826,43.414L214.098,43.414L214.098,41.236L205.826,41.236ZM205.012,47.153999999999996L205.012,49.397999999999996L207.74,49.397999999999996C206.79399999999998,52.962,206.024,55.162,205.452,55.998000000000005C205.364,56.064,205.21,56.129999999999995,204.99,56.196L205.518,58.352000000000004C208.15800000000002,57.867999999999995,210.644,57.251999999999995,212.954,56.46C213.13,56.878,213.30599999999998,57.318,213.482,57.802L215.374,56.834C214.89,57.604,214.34,58.308,213.702,58.924L215.44,60.442C218.43200000000002,57.516,219.95,52.896,220.016,46.582L220.016,46.406L222.524,46.406C222.48,52.236000000000004,222.414,55.646,222.28199999999998,56.635999999999996C222.106,57.604,221.578,58.088,220.654,58.088C220.082,58.088,219.422,58.044,218.652,58L219.18,60.001999999999995C220.06,60.068,220.654,60.111999999999995,221.006,60.111999999999995C223.03,60.111999999999995,224.174,59.298,224.438,57.67C224.636,55.954,224.74599999999998,51.466,224.74599999999998,44.206L220.016,44.206L220.016,39.982L217.728,39.982L217.728,44.206L215.022,44.206L215.022,46.406L217.728,46.406L217.728,46.582C217.684,50.762,216.936,54.15,215.462,56.702C214.538,54.501999999999995,213.57,52.5,212.602,50.696L210.688,51.620000000000005C211.172,52.544,211.656,53.512,212.14,54.568C210.798,55.052,209.434,55.47,208.048,55.778C208.598,54.370000000000005,209.236,52.257999999999996,209.962,49.397999999999996L214.89,49.397999999999996L214.89,47.153999999999996L205.012,47.153999999999996ZM226.858,43.37L226.858,45.525999999999996L233.986,45.525999999999996L233.986,43.37L231.632,43.37C231.368,42.182,231.10399999999998,41.126,230.84,40.202L228.55200000000002,40.576C228.882,41.434,229.19,42.358,229.454,43.37L226.858,43.37ZM229.19,46.428L227.298,47.044C227.69400000000002,49.728,228.046,52.5,228.31,55.403999999999996L230.136,54.964C229.85,51.751999999999995,229.542,48.891999999999996,229.19,46.428ZM233.876,54.986000000000004L232.446,55.448C232.886,52.72,233.238,49.75,233.48000000000002,46.538L231.434,46.252C231.236,49.684,230.928,52.918,230.53199999999998,55.998000000000005C229.3,56.306,228.046,56.57,226.76999999999998,56.768L227.364,59.012C229.674,58.506,231.852,57.89,233.876,57.186L233.876,54.986000000000004ZM243.886,43.942L241.686,43.942L241.686,39.982L239.442,39.982L239.442,43.942L237.308,43.942L237.308,40.84L235.108,40.84L235.108,45.944L246.064,45.944L246.064,40.84L243.886,40.84L243.886,43.942ZM234.404,47.198L234.404,49.31L239.156,49.31C239.046,49.816,238.914,50.322,238.738,50.828L234.822,50.828L234.822,60.2L236.89,60.2L236.89,52.852000000000004L238.166,52.852000000000004L238.166,59.826L240.058,59.826L240.058,52.852000000000004L241.224,52.852000000000004L241.224,59.804L243.11599999999999,59.804L243.11599999999999,52.852000000000004L244.458,52.852000000000004L244.458,57.867999999999995C244.458,58.11,244.348,58.242000000000004,244.172,58.242000000000004L243.292,58.176L243.84199999999998,60.2L244.832,60.2C245.93200000000002,60.2,246.482,59.562,246.482,58.286L246.482,50.828L240.982,50.828C241.15800000000002,50.344,241.29000000000002,49.838,241.422,49.31L246.922,49.31L246.922,47.198L234.404,47.198ZM251.784,40.224000000000004L250.22199999999998,41.72C251.74,42.864,252.928,43.964,253.786,44.976L255.348,43.391999999999996C254.38,42.336,253.192,41.28,251.784,40.224000000000004ZM248.858,46.472L248.858,48.672L251.696,48.672L251.696,56.394C251.696,56.878,251.498,57.296,251.124,57.626000000000005L252.00400000000002,59.694C253.632,58.638000000000005,255.172,57.472,256.624,56.152L255.986,53.732C255.26,54.414,254.578,55.03,253.94,55.602000000000004L253.94,46.472L248.858,46.472ZM256.734,49.112L256.734,51.312L257.988,51.312C258.516,53.028,259.506,54.568,260.914,55.976C259.33,56.988,257.416,57.824,255.15,58.484L256.426,60.42C258.93399999999997,59.694,261.024,58.726,262.74,57.516C264.192,58.594,266.01800000000003,59.562,268.174,60.442L269.406,58.462C267.448,57.78,265.798,57.010000000000005,264.43399999999997,56.129999999999995C265.842,54.744,266.854,53.094,267.47,51.202L267.47,49.112L256.734,49.112ZM260.144,51.312L265.15999999999997,51.312C264.544,52.588,263.68600000000004,53.71,262.56399999999996,54.722C261.42,53.71,260.628,52.566,260.144,51.312ZM258.23,40.598L258.23,43.59C258.23,45.019999999999996,257.284,46.12,255.436,46.89L256.976,48.65C259.308,47.418,260.496,45.635999999999996,260.496,43.348L260.496,42.754L263.884,42.754L263.884,45.68C263.884,47.22,264.698,47.99,266.348,47.99L268.856,47.99L268.856,45.9L266.964,45.9C266.414,45.9,266.15,45.635999999999996,266.15,45.152L266.15,40.598L258.23,40.598ZM277.788,46.274L277.788,48.562L283.464,48.562L283.464,60.354L285.84000000000003,60.354L285.84000000000003,48.562L291.23,48.562L291.23,46.274L285.84000000000003,46.274L285.84000000000003,39.894L283.464,39.894L283.464,46.274L277.788,46.274ZM273.916,40.07L272.288,41.653999999999996C273.85,42.798,275.06,43.876,275.896,44.888L277.48,43.282C276.49,42.226,275.302,41.147999999999996,273.916,40.07ZM270.858,46.428L270.858,48.628L273.872,48.628L273.872,56.438C273.872,56.9,273.674,57.296,273.278,57.626000000000005L274.158,59.694C275.786,58.638000000000005,277.304,57.45,278.734,56.129999999999995L278.14,53.775999999999996C277.414,54.458,276.73199999999997,55.074,276.094,55.623999999999995L276.094,46.428L270.858,46.428ZM301.812,39.828L301.812,43.59L294.024,43.59L294.024,54.326L296.334,54.326L296.334,53.116L301.812,53.116L301.812,60.464L304.188,60.464L304.188,53.116L309.688,53.116L309.688,54.326L311.998,54.326L311.998,43.59L304.188,43.59L304.188,39.828L301.812,39.828ZM296.334,50.872L296.334,45.834L301.812,45.834L301.812,50.872L296.334,50.872ZM304.188,50.872L304.188,45.834L309.688,45.834L309.688,50.872L304.188,50.872ZM318.26800000000003,54.678C317.71799999999996,54.678,317.278,54.832,316.948,55.162C316.596,55.47,316.41999999999996,55.888000000000005,316.41999999999996,56.416C316.41999999999996,56.9,316.574,57.318,316.904,57.647999999999996C317.23400000000004,57.978,317.63,58.153999999999996,318.11400000000003,58.153999999999996C318.356,58.153999999999996,318.53200000000004,58.11,318.664,58.066C318.664,58.594,318.488,59.1,318.092,59.628C317.674,60.111999999999995,317.168,60.464,316.574,60.684L316.574,62.135999999999996C317.71799999999996,61.806,318.642,61.212,319.324,60.354C319.98400000000004,59.474000000000004,320.336,58.462,320.336,57.296C320.336,56.525999999999996,320.13800000000003,55.888000000000005,319.764,55.403999999999996C319.368,54.92,318.86199999999997,54.678,318.26800000000003,54.678ZM343.19399999999996,40.025999999999996L341.082,41.038C341.852,41.984,342.578,43.062,343.28200000000004,44.25L338.706,44.25L338.706,46.494L345.834,46.494L345.834,47.022C345.78999999999996,48.034,345.68,49.002,345.504,49.882L337.452,49.882L337.452,52.126000000000005L344.844,52.126000000000005C344.58000000000004,52.786,344.25,53.402,343.876,53.974000000000004C342.688,55.623999999999995,340.422,57.010000000000005,337.034,58.11L338.288,60.111999999999995C341.676,59.056,344.118,57.538,345.61400000000003,55.558C346.142,54.81,346.60400000000004,53.952,347,53.028C348.298,56.042,351.202,58.484,355.73400000000004,60.332L357.098,58.153999999999996C352.74199999999996,56.658,350.014,54.656,348.95799999999997,52.126000000000005L356.548,52.126000000000005L356.548,49.882L347.858,49.882C348.012,49.002,348.122,48.034,348.166,47.022L348.166,46.494L355.272,46.494L355.272,44.25L351.202,44.25C351.884,43.128,352.456,41.874,352.94,40.488L350.696,39.872C350.102,41.544,349.41999999999996,43.018,348.628,44.25L344.294,44.25L345.57,43.612C344.8,42.314,344.00800000000004,41.126,343.19399999999996,40.025999999999996ZM360.552,40.62L360.552,42.864L368.03200000000004,42.864L368.03200000000004,47.968L359.188,47.968L359.188,50.256L368.03200000000004,50.256L368.03200000000004,57.054C368.03200000000004,57.647999999999996,367.702,57.956,367.04200000000003,57.956C366.03,57.956,364.952,57.912,363.83000000000004,57.824L364.31399999999996,60.046L367.834,60.046C369.506,60.046,370.342,59.232,370.342,57.647999999999996L370.342,50.256L378.812,50.256L378.812,47.968L370.342,47.968L370.342,42.864L377.294,42.864L377.294,40.62L360.552,40.62ZM400.526,42.204L395.53200000000004,42.204C395.26800000000003,41.28,395.004,40.444,394.74,39.696L392.38599999999997,40.092C392.69399999999996,40.730000000000004,392.98,41.434,393.222,42.204L388.49199999999996,42.204L388.49199999999996,46.956L390.66999999999996,46.956L390.66999999999996,44.294L398.326,44.294L398.326,46.868L400.526,46.868L400.526,42.204ZM392.32,45.306C392.05600000000004,46.406,391.77,47.506,391.44,48.562L388.074,48.562L388.074,50.74L390.66999999999996,50.74C390.23,51.884,389.724,52.984,389.196,54.04C390.51599999999996,54.744,391.77,55.448,392.93600000000004,56.108000000000004C391.506,57.010000000000005,389.57,57.736000000000004,387.106,58.286L388.03,60.464C391.198,59.694,393.574,58.682,395.158,57.406C396.962,58.506,398.48,59.495999999999995,399.69,60.376000000000005L401.252,58.572C400.06399999999996,57.736000000000004,398.546,56.812,396.654,55.8C397.666,54.414,398.348,52.72,398.7,50.74L401.12,50.74L401.12,48.562L393.772,48.562C394.036,47.638,394.322,46.626,394.586,45.525999999999996L392.32,45.306ZM396.5,50.74C396.148,52.324,395.51,53.644,394.608,54.7C393.772,54.238,392.848,53.775999999999996,391.88,53.292C392.276,52.566,392.65,51.708,393.024,50.74L396.5,50.74ZM383.52,60.09C384.994,60.09,385.74199999999996,59.342,385.74199999999996,57.846000000000004L385.74199999999996,51.861999999999995C386.31399999999996,51.598,386.908,51.312,387.48,51.025999999999996L387.48,48.694C386.908,49.002,386.31399999999996,49.31,385.74199999999996,49.574L385.74199999999996,46.12L387.568,46.12L387.568,43.897999999999996L385.74199999999996,43.897999999999996L385.74199999999996,40.004L383.40999999999997,40.004L383.40999999999997,43.897999999999996L381.078,43.897999999999996L381.078,46.12L383.40999999999997,46.12L383.40999999999997,50.519999999999996C382.486,50.828,381.562,51.07,380.616,51.29L381.21000000000004,53.6C381.93600000000004,53.358000000000004,382.66200000000003,53.094,383.40999999999997,52.83L383.40999999999997,57.251999999999995C383.40999999999997,57.736000000000004,383.168,58,382.728,58C382.222,58,381.69399999999996,57.956,381.144,57.867999999999995L381.65,60.09L383.52,60.09ZM419.886,42.82L419.622,48.65L416.3,48.65L416.828,42.82L419.886,42.82ZM414.05600000000004,48.65L411.592,48.65L411.592,50.872L413.858,50.872L413.286,57.494L411.152,57.494L410.822,55.844C410.052,56.35,409.26,56.768,408.46799999999996,57.120000000000005L408.46799999999996,52.873999999999995L411.24,52.873999999999995L411.24,50.762L408.46799999999996,50.762L408.46799999999996,48.694L410.49199999999996,48.694L410.49199999999996,46.647999999999996L405.432,46.647999999999996C405.784,45.944,406.13599999999997,45.174,406.466,44.338L410.866,44.338L410.866,42.204L407.214,42.204C407.39,41.632,407.544,41.06,407.698,40.444L405.498,39.982C404.948,42.49,404.002,44.866,402.63800000000003,47.088L404.50800000000004,48.254C404.728,47.902,404.948,47.528,405.168,47.132L405.168,48.694L406.224,48.694L406.224,50.762L403.452,50.762L403.452,52.873999999999995L406.224,52.873999999999995L406.224,56.856C406.224,57.296,405.938,57.626000000000005,405.38800000000003,57.867999999999995L406.334,59.826C408.006,59.342,409.502,58.769999999999996,410.822,58.066L410.822,59.716L423.23,59.716L423.23,57.494L421.492,57.494L422.24,40.664L412.054,40.664L412.054,42.82L414.584,42.82L414.05600000000004,48.65ZM415.50800000000004,57.494L416.102,50.872L419.512,50.872L419.204,57.494L415.50800000000004,57.494ZM433.174,43.502L429.83,43.502C430.226,42.49,430.556,41.368,430.798,40.18L428.488,39.872C428.312,41.126,428.026,42.336,427.63,43.502L425.518,43.502L425.518,59.562L427.718,59.562L427.718,57.824L430.974,57.824L430.974,58.924L433.174,58.924L433.174,43.502ZM427.718,55.712L427.718,51.554L430.974,51.554L430.974,55.712L427.718,55.712ZM427.718,49.507999999999996L427.718,45.658L430.974,45.658L430.974,49.507999999999996L427.718,49.507999999999996ZM437.178,48.848L435.308,50.013999999999996C436.672,51.774,437.772,53.379999999999995,438.586,54.832L440.434,53.556C439.664,52.192,438.586,50.63,437.178,48.848ZM444.504,43.502L437.816,43.502C438.146,42.446,438.432,41.324,438.652,40.136L436.386,39.85C435.858,42.864,434.89,45.416,433.438,47.484L434.824,49.31C435.638,48.254,436.342,47.066,436.936,45.746L442.26,45.746C442.216,51.972,442.15,55.602000000000004,442.018,56.658C441.886,57.516,441.424,57.956,440.632,57.956C439.906,57.956,439.048,57.912,438.08,57.846000000000004L438.63,59.936C439.774,60.024,440.566,60.068,441.006,60.068C442.898,60.068,443.954,59.298,444.174,57.757999999999996C444.394,55.954,444.504,51.202,444.504,43.502ZM447.254,45.46L447.254,47.704L455.196,47.704C454.008,52.742000000000004,451.192,56.35,446.748,58.506L448.222,60.442C452.622,58.132000000000005,455.57,54.524,457.066,49.618C458.738,54.15,461.664,57.692,465.8,60.244L467.252,58.352000000000004C462.962,55.844,460.036,52.302,458.452,47.704L466.746,47.704L466.746,45.46L457.924,45.46C458.078,44.184,458.166,42.82,458.166,41.39L458.166,39.938L455.834,39.938L455.834,41.918C455.812,43.15,455.724,44.316,455.592,45.46L447.254,45.46ZM477.724,60.046C479.594,60.046,480.54,59.056,480.54,57.120000000000005L480.54,40.268L478.142,40.268L478.142,56.504000000000005C478.142,57.384,477.702,57.824,476.844,57.824C475.964,57.824,475.018,57.757999999999996,474.006,57.647999999999996L474.556,60.046L477.724,60.046ZM472.202,45.372C471.432,49.134,470.222,52.147999999999996,468.572,54.414L470.596,56.196C472.224,53.908,473.522,50.586,474.512,46.274L472.202,45.372ZM485.776,44.8L483.664,46.12C485.16,49.86,486.348,53.269999999999996,487.228,56.328L489.318,54.876000000000005C488.482,52.016,487.294,48.65,485.776,44.8ZM494.268,54.678C493.718,54.678,493.278,54.832,492.948,55.162C492.596,55.47,492.42,55.888000000000005,492.42,56.416C492.42,56.9,492.574,57.318,492.904,57.647999999999996C493.234,57.978,493.63,58.153999999999996,494.114,58.153999999999996C494.356,58.153999999999996,494.532,58.11,494.664,58.066C494.664,58.594,494.488,59.1,494.092,59.628C493.674,60.111999999999995,493.168,60.464,492.574,60.684L492.574,62.135999999999996C493.718,61.806,494.642,61.212,495.324,60.354C495.984,59.474000000000004,496.336,58.462,496.336,57.296C496.336,56.525999999999996,496.138,55.888000000000005,495.764,55.403999999999996C495.368,54.92,494.862,54.678,494.268,54.678ZM520.7339999999999,42.182L518.798,43.391999999999996C520.602,45.68,522.0319999999999,47.769999999999996,523.088,49.64L525.046,48.298C524.034,46.56,522.604,44.513999999999996,520.7339999999999,42.182ZM527.928,53.754000000000005C529.402,55.866,530.5899999999999,57.89,531.492,59.804L533.296,58.022C532.086,55.866,530.634,53.688,528.962,51.532C529.05,51.268,529.116,51.025999999999996,529.204,50.762C530.1279999999999,47.836,530.5899999999999,44.272,530.5899999999999,40.092L528.2139999999999,40.092C528.1700000000001,44.272,527.73,47.66,526.8720000000001,50.3C525.7719999999999,53.402,523.396,56.019999999999996,519.744,58.176L521.306,60.068C524.298,58.286,526.52,56.174,527.928,53.754000000000005ZM514.6179999999999,58.153999999999996C517.302,57.186,519.81,56.042,522.164,54.722L521.504,52.478C519.986,53.402,518.4680000000001,54.172,516.928,54.81L516.928,40.312L514.552,40.312L514.552,54.304C514.552,55.007999999999996,514.31,55.58,513.848,55.976L514.6179999999999,58.153999999999996ZM535.1220000000001,40.884L535.1220000000001,43.128L543.262,43.128L543.262,60.288L545.572,60.288L545.572,48.275999999999996C547.376,49.2,549.62,50.542,552.326,52.257999999999996L553.712,50.19C550.962,48.562,548.256,47.088,545.572,45.812L545.572,43.128L554.856,43.128L554.856,40.884L535.1220000000001,40.884ZM562.754,41.588L557.4739999999999,41.588L557.4739999999999,58.506L559.498,58.506L559.498,56.702L562.754,56.702L562.754,41.588ZM559.498,54.766L559.498,43.568L560.774,43.568L560.774,54.766L559.498,54.766ZM563.4359999999999,45.68L563.4359999999999,47.704L564.646,47.704C564.624,48.76,564.5799999999999,49.75,564.514,50.696L563.392,50.696L563.392,52.72L564.2719999999999,52.72C563.876,55.25,563.1279999999999,57.251999999999995,562.072,58.704L563.678,60.09C564.954,58.33,565.79,55.866,566.23,52.72L567.836,52.72C567.8140000000001,54.436,567.7919999999999,55.58,567.77,56.129999999999995C567.682,57.406,567.44,58.044,567,58.044C566.56,58.044,566.054,58,565.46,57.956L565.944,59.914C566.604,60.001999999999995,567.088,60.046,567.374,60.046C568.716,60.046,569.4639999999999,59.012,569.64,56.966C569.7719999999999,54.942,569.86,49.53,569.86,40.730000000000004L563.414,40.730000000000004L563.414,42.754L564.646,42.754L564.646,45.68L563.4359999999999,45.68ZM567.858,50.696L566.428,50.696C566.494,49.75,566.538,48.76,566.56,47.704L567.858,47.704L567.858,50.696ZM567.858,45.68L566.56,45.68L566.56,42.754L567.88,42.754C567.858,43.766,567.858,44.756,567.858,45.68ZM570.828,40.708L570.828,60.244L572.852,60.244L572.852,42.644L574.81,42.644C574.524,44.403999999999996,574.106,46.384,573.534,48.584C574.546,50.476,575.052,52.192,575.052,53.732C575.052,54.348,575.008,54.788,574.9639999999999,55.052C574.898,55.272,574.788,55.403999999999996,574.656,55.47C574.238,55.47,573.732,55.426,573.116,55.36L573.8199999999999,57.472C575.096,57.45,576.02,57.098,576.548,56.416C576.9,55.888000000000005,577.076,55.007999999999996,577.076,53.732C576.988,52.192,576.46,50.388,575.5360000000001,48.275999999999996C576.02,46.208,576.46,44.25,576.812,42.358L576.812,40.708L570.828,40.708ZM591.97,40.004L591.97,43.656L587.8340000000001,43.656L587.8340000000001,54.04L590.034,54.04L590.034,53.116L591.97,53.116L591.97,60.31L594.28,60.31L594.28,53.116L596.2819999999999,53.116L596.2819999999999,54.04L598.5260000000001,54.04L598.5260000000001,43.656L594.28,43.656L594.28,40.004L591.97,40.004ZM590.034,51.004000000000005L590.034,45.812L591.97,45.812L591.97,51.004000000000005L590.034,51.004000000000005ZM594.28,51.004000000000005L594.28,45.812L596.2819999999999,45.812L596.2819999999999,51.004000000000005L594.28,51.004000000000005ZM579.606,43.391999999999996C580.486,43.304,581.344,43.194,582.1800000000001,43.084L582.1800000000001,45.702L579.034,45.702L579.034,47.924L581.9159999999999,47.924C581.212,50.058,580.0899999999999,51.972,578.594,53.666L579.562,56.086C580.6179999999999,54.611999999999995,581.476,53.006,582.1800000000001,51.245999999999995L582.1800000000001,60.288L584.424,60.288L584.424,50.828C584.9300000000001,51.576,585.524,52.5,586.2280000000001,53.622L587.5260000000001,51.664C586.47,50.586,585.4359999999999,49.596000000000004,584.424,48.716L584.424,47.924L587.02,47.924L587.02,45.702L584.424,45.702L584.424,42.71C585.348,42.534,586.2280000000001,42.314,587.0640000000001,42.094L586.25,39.982C584.1600000000001,40.642,581.784,41.06,579.144,41.28L579.606,43.391999999999996ZM614.476,48.87C614.784,50.982,615.312,52.918,616.082,54.678C615.202,56.306,614.058,57.626000000000005,612.606,58.594L613.948,60.354C615.2239999999999,59.43,616.3240000000001,58.286,617.226,56.9C617.9300000000001,58.088,618.788,59.188,619.8,60.2L621.384,58.682C620.174,57.538,619.162,56.239999999999995,618.348,54.766C619.448,52.214,620.0419999999999,49.024,620.13,45.24L620.988,45.24L620.988,43.106L616.456,43.106C616.6320000000001,42.314,616.764,41.478,616.896,40.598L614.762,40.224000000000004C614.366,43.656,613.5740000000001,46.406,612.408,48.452L613.75,50.08C613.992,49.706,614.2339999999999,49.31,614.476,48.87ZM617.1379999999999,52.082C616.434,50.102000000000004,616.0160000000001,47.858000000000004,615.884,45.394L615.928,45.24L618.1279999999999,45.24C618.0840000000001,47.836,617.754,50.102000000000004,617.1379999999999,52.082ZM604.8620000000001,40.004C603.938,43.282,602.508,46.12,600.594,48.54L601.364,51.004000000000005C601.9359999999999,50.344,602.4639999999999,49.662,602.992,48.958L602.992,60.376000000000005L605.2139999999999,60.376000000000005L605.2139999999999,45.328C605.918,43.964,606.49,42.512,606.9300000000001,40.972L604.8620000000001,40.004ZM613.024,49.86L610.736,49.86L610.736,46.186L613.354,46.186L613.354,44.096000000000004L610.736,44.096000000000004L610.736,40.246L608.558,40.246L608.558,44.096000000000004L605.962,44.096000000000004L605.962,46.186L608.558,46.186L608.558,49.86L606.3140000000001,49.86L606.3140000000001,59.166L608.47,59.166L608.47,57.912L613.024,57.912L613.024,49.86ZM608.47,55.91L608.47,51.906L610.8679999999999,51.906L610.8679999999999,55.91L608.47,55.91ZM634.452,39.982L634.452,43.238L629.48,43.238L629.48,45.46L634.452,45.46L634.452,48.87L628.424,48.87L628.424,51.114000000000004L633.1759999999999,51.114000000000004C631.6800000000001,54.634,630.448,56.79,629.524,57.626000000000005C629.414,57.692,629.26,57.757999999999996,629.04,57.824L629.546,59.826C633.374,59.452,636.9159999999999,58.946,640.194,58.286C640.4580000000001,58.946,640.744,59.65,641.03,60.397999999999996L643.2080000000001,59.43C642.24,56.922,641.1179999999999,54.59,639.842,52.39L637.62,53.138000000000005C638.192,54.106,638.742,55.14,639.2919999999999,56.284C637.0260000000001,56.745999999999995,634.738,57.120000000000005,632.45,57.384C633.374,56.019999999999996,634.452,53.93,635.64,51.114000000000004L642.768,51.114000000000004L642.768,48.87L636.784,48.87L636.784,45.46L642.196,45.46L642.196,43.238L636.784,43.238L636.784,39.982L634.452,39.982ZM625.0799999999999,40.114L623.4300000000001,41.698C624.992,42.886,626.202,43.986000000000004,627.038,45.019999999999996L628.6659999999999,43.37C627.6759999999999,42.292,626.488,41.214,625.0799999999999,40.114ZM624.53,45.262L622.902,46.846000000000004C624.332,48.056,625.432,49.178,626.202,50.19L627.852,48.562C626.928,47.462,625.828,46.362,624.53,45.262ZM626.51,51.488C625.5640000000001,54.084,624.442,56.635999999999996,623.144,59.1L625.454,60.111999999999995C626.598,57.692,627.654,55.096000000000004,628.6,52.346000000000004L626.51,51.488ZM645.4300000000001,40.62L645.4300000000001,42.775999999999996L653.856,42.775999999999996L653.856,44.118L647.2339999999999,44.118L647.2339999999999,53.314L653.46,53.314C653.284,54.084,652.998,54.766,652.624,55.338C651.546,54.788,650.556,54.172,649.6759999999999,53.489999999999995L647.9159999999999,54.7C648.8620000000001,55.492000000000004,649.896,56.196,651.018,56.812C649.61,57.626000000000005,647.5419999999999,58.11,644.8140000000001,58.242000000000004L645.826,60.354C649.2139999999999,59.980000000000004,651.722,59.188,653.306,57.956C656.54,59.364000000000004,660.346,60.178,664.7239999999999,60.376000000000005L665.318,58.153999999999996C661.27,58.022,657.7719999999999,57.406,654.78,56.262C655.242,55.47,655.594,54.480000000000004,655.8140000000001,53.314L662.81,53.314L662.81,44.118L656.144,44.118L656.144,42.775999999999996L664.592,42.775999999999996L664.592,40.62L645.4300000000001,40.62ZM660.544,51.312L656.078,51.312L656.144,50.058L656.144,49.64L660.544,49.64L660.544,51.312ZM653.79,51.312L649.5219999999999,51.312L649.5219999999999,49.64L653.856,49.64L653.856,50.058C653.856,50.476,653.8340000000001,50.894,653.79,51.312ZM649.5219999999999,47.769999999999996L649.5219999999999,46.098L653.856,46.098L653.856,47.769999999999996L649.5219999999999,47.769999999999996ZM656.144,46.098L660.544,46.098L660.544,47.769999999999996L656.144,47.769999999999996L656.144,46.098ZM670.356,40.422L668.6179999999999,41.676C669.806,42.908,670.774,44.052,671.5,45.064L673.304,43.832C672.6,42.842,671.6320000000001,41.698,670.356,40.422ZM678.32,49.662L676.472,50.828C677.836,52.5,678.936,54.018,679.75,55.382000000000005L681.774,53.974000000000004C680.96,52.742000000000004,679.816,51.312,678.32,49.662ZM674.69,39.916L674.69,43.238C674.668,43.876,674.624,44.513999999999996,674.58,45.152L667.76,45.152L667.76,47.396L674.338,47.396C674.052,49.376,673.59,51.092,672.974,52.566C671.94,54.81,669.96,56.68,667.012,58.176L668.31,60.222C671.28,58.836,673.414,56.856,674.712,54.304C675.636,52.456,676.274,50.146,676.648,47.396L683.468,47.396C683.468,49.992000000000004,683.402,52.412,683.27,54.611999999999995C683.138,56.812,682.61,57.956,681.708,58.044C680.674,58.044,679.53,57.956,678.298,57.824L678.914,60.046C679.706,60.134,680.674,60.178,681.818,60.178C683.314,60.178,684.37,59.275999999999996,684.964,57.516C685.536,55.756,685.822,51.620000000000005,685.822,45.152L676.868,45.152C676.912,44.536,676.934,43.897999999999996,676.956,43.238L676.956,39.916L674.69,39.916ZM698.164,39.872C695.612,42.775999999999996,692.422,45.218,688.572,47.176L689.804,49.42C690.992,48.76,692.114,48.056,693.17,47.33L693.17,48.87L704.83,48.87L704.83,47.352000000000004C705.842,48.078,706.942,48.76,708.108,49.376L709.362,47.153999999999996C705.754,45.394,702.586,42.952,699.836,39.872L698.164,39.872ZM694.116,46.647999999999996C695.986,45.24,697.614,43.678,699,41.962C700.43,43.7,702.058,45.262,703.862,46.647999999999996L694.116,46.647999999999996ZM706.26,51.025999999999996L691.74,51.025999999999996L691.74,60.266L693.962,60.266L693.962,59.144L704.038,59.144L704.038,60.266L706.26,60.266L706.26,51.025999999999996ZM693.962,56.966L693.962,53.182L704.038,53.182L704.038,56.966L693.962,56.966ZM713.08,40.092L711.496,41.61C713.08,42.886,714.312,44.074,715.192,45.174L716.776,43.59C715.764,42.424,714.532,41.258,713.08,40.092ZM725.598,59.826L730.68,59.826L731.186,57.757999999999996C730.57,57.802,729.712,57.824,728.612,57.846000000000004C727.49,57.867999999999995,726.39,57.89,725.29,57.89C723.574,57.89,722.078,57.867999999999995,720.802,57.846000000000004C719.504,57.802,718.536,57.604,717.898,57.274C717.37,56.988,716.864,56.548,716.358,55.932L716.116,55.69L716.116,47.33L711.078,47.33L711.078,49.442L713.982,49.442L713.982,55.47C713.102,55.954,712.134,57.076,711.034,58.836L712.728,60.42C713.828,58.44,714.576,57.45,715.016,57.45C715.258,57.45,715.522,57.626000000000005,715.83,57.978C716.49,58.682,717.26,59.166,718.14,59.43C719.064,59.65,720.23,59.760000000000005,721.66,59.782C723.068,59.804,724.388,59.826,725.598,59.826ZM717.436,45.724000000000004L717.436,47.814L722.914,47.814L722.914,49.903999999999996L718.734,49.903999999999996L718.734,56.635999999999996L729.294,56.635999999999996L729.294,49.903999999999996L725.114,49.903999999999996L725.114,47.814L730.636,47.814L730.636,45.724000000000004L725.114,45.724000000000004L725.114,43.106C726.918,42.798,728.524,42.336,729.932,41.742L728.876,39.938C725.752,41.038,721.924,41.61,717.392,41.61L718.052,43.656C719.768,43.656,721.396,43.568,722.914,43.414L722.914,45.724000000000004L717.436,45.724000000000004ZM727.138,54.656L720.868,54.656L720.868,51.884L727.138,51.884L727.138,54.656ZM737.742,41.984C736.114,41.984,734.838,42.446,733.892,43.37C732.924,44.294,732.462,45.57,732.462,47.198L734.97,47.198C734.97,46.274,735.146,45.548,735.52,45.042C735.938,44.426,736.62,44.14,737.588,44.14C738.336,44.14,738.93,44.338,739.348,44.756C739.744,45.174,739.964,45.746,739.964,46.472C739.964,47.022,739.766,47.55,739.37,48.034L739.106,48.342C737.676,49.618,736.818,50.542,736.532,51.135999999999996C736.224,51.730000000000004,736.092,52.456,736.092,53.292L736.092,53.6L738.622,53.6L738.622,53.292C738.622,52.763999999999996,738.732,52.302,738.952,51.861999999999995C739.15,51.466,739.436,51.092,739.832,50.762C740.888,49.838,741.526,49.244,741.724,49.024C742.252,48.32,742.538,47.418,742.538,46.318C742.538,44.976,742.098,43.92,741.218,43.15C740.338,42.358,739.172,41.984,737.742,41.984ZM737.346,54.678C736.862,54.678,736.466,54.832,736.136,55.14C735.806,55.448,735.652,55.844,735.652,56.328C735.652,56.812,735.806,57.208,736.136,57.516C736.466,57.824,736.862,58,737.346,58C737.83,58,738.226,57.846000000000004,738.556,57.538C738.886,57.230000000000004,739.062,56.812,739.062,56.328C739.062,55.844,738.886,55.448,738.578,55.14C738.248,54.832,737.83,54.678,737.346,54.678Z" fill="#111111" fill-opacity="1"/></g></g><g><g transform="matrix(0.4999999701976776,0.866025447845459,-0.866025447845459,0.4999999701976776,31.698728543444076,-54.903807893413614)"><rect x="63.39745330810547" y="0" width="73.205078125" height="73.205078125" rx="9.999998092651367" fill="#ED8456" fill-opacity="1"/></g><g><g><ellipse cx="46.49977684020996" cy="37.49977684020996" rx="12.499776840209961" ry="12.499776840209961" fill="#FFFFFF" fill-opacity="1"/></g><g><ellipse cx="52.74966526031494" cy="34.7824342250824" rx="5.706419944763184" ry="5.978154182434082" fill="#000000" fill-opacity="1"/></g></g><g><g><ellipse cx="71.49977684020996" cy="37.49977684020996" rx="12.499776840209961" ry="12.499776840209961" fill="#FFFFFF" fill-opacity="1"/></g><g><ellipse cx="77.74966526031494" cy="34.7824342250824" rx="5.706419944763184" ry="5.978154182434082" fill="#000000" fill-opacity="1"/></g></g></g></g></svg>