<svg xmlns="http://www.w3.org/2000/svg" xmlns:xlink="http://www.w3.org/1999/xlink" fill="none" version="1.1" width="872" height="100" viewBox="0 0 872 100"><g><g><g><path d="M120,49L130,58.454L130,64C130,75.0457,138.9543,84,150,84L852,84C863.046,84,872,75.0457,872,64L872,34C872,22.9543,863.046,14,852,14L150,14C138.9543,14,130,22.95431,130,34L130,39.546L120,49Z" fill="#FFFFFF" fill-opacity="1"/><path d="M120.727811,48.3119L130,39.546L130,34C130,22.95431,138.9543,14,150,14L852,14C863.046,14,872,22.9543,872,34L872,64C872,75.0457,863.046,84,852,84L150,84C138.9543,84,130,75.0457,130,64L130,58.454L120.727813,49.6881L120,49L120.727811,48.3119ZM131,58.0233L121.45562,49L131,39.9767L131,34Q131,26.1299,136.565,20.56497Q142.1299,15,150,15L852,14.999997Q859.87,15,865.435,20.56497Q871,26.1299,871,34L871,64Q871,71.87010000000001,865.435,77.435Q859.87,83,852,83L150,83Q142.1299,83,136.565,77.435Q131,71.87,131,64L131,58.0233Z" fill-rule="evenodd" fill="#C2C2C2" fill-opacity="1"/></g><g><path d="M175.136,48.926L175.136,51.17L179.86599999999999,51.17L179.86599999999999,56.318L174.344,56.318L174.344,58.562L188.182,58.562L188.182,56.318L182.198,56.318L182.198,51.17L187.236,51.17L187.236,48.926L182.198,48.926L182.198,45.141999999999996L179.86599999999999,45.141999999999996L179.86599999999999,48.926L175.136,48.926ZM171.286,51.126000000000005L171.286,59.354L173.552,59.354L173.552,48.596000000000004C174.696,47.144,175.686,45.582,176.522,43.91L188.182,43.91L188.182,41.666L177.534,41.666C177.864,40.786,178.172,39.906,178.436,38.982L176.06,38.696C175.752,39.708,175.4,40.698,174.982,41.666L168.756,41.666L168.756,43.91L173.882,43.91C172.408,46.506,170.428,48.838,167.964,50.884L169.438,52.798C170.076,52.248000000000005,170.692,51.698,171.286,51.126000000000005ZM199.578,47.166L199.578,50.4L195.156,50.4L195.156,47.166L199.578,47.166ZM201.888,50.4L201.888,47.166L206.31,47.166L206.31,50.4L201.888,50.4ZM204.022,45.01C204.68200000000002,44.284,205.32,43.448,205.958,42.480000000000004L205.958,40.764L198.258,40.764C198.61,40.28,198.94,39.796,199.292,39.312L196.938,38.784C195.002,41.468,192.714,43.558,190.096,45.01L191.636,46.902L192.824,46.11L192.824,56.692C192.824,58.188,193.594,58.936,195.13400000000001,58.936L206.948,58.936C208.334,58.891999999999996,209.214,58.342,209.61,57.33C209.852,56.714,210.072,55.702,210.248,54.272L207.982,53.568C207.80599999999998,54.998000000000005,207.63,55.834,207.454,56.098C207.234,56.472,206.816,56.67,206.178,56.714L196.124,56.714C195.464,56.714,195.156,56.384,195.156,55.768L195.156,52.578L208.62,52.578L208.62,45.01L204.022,45.01ZM196.542,42.832L202.966,42.832C202.30599999999998,43.668,201.64600000000002,44.394,201.008,45.01L194.232,45.01C195.024,44.35,195.79399999999998,43.624,196.542,42.832ZM222.942,39.07C219.994,39.818,216.43,40.214,212.20600000000002,40.214L212.888,42.238C217.53,42.238,221.248,41.798,224.042,40.94L222.942,39.07ZM221.82,42.106C221.38,43.866,220.852,45.318,220.28,46.462L222.084,47.122C222.744,45.824,223.29399999999998,44.328,223.712,42.612L221.82,42.106ZM229.498,38.762C228.09,40.653999999999996,226.286,42.172,224.086,43.338L225.076,45.428C227.40800000000002,44.108000000000004,229.388,42.458,231.01600000000002,40.478L229.498,38.762ZM230.466,44.658C228.926,46.726,226.924,48.397999999999996,224.45999999999998,49.674L225.45,51.763999999999996C228.002,50.334,230.18,48.53,231.962,46.374L230.466,44.658ZM231.082,50.620000000000005C229.212,53.260000000000005,226.792,55.416,223.822,57.044L224.856,59.244C227.914,57.418,230.51,55.129999999999995,232.644,52.358000000000004L231.082,50.620000000000005ZM212.91,48.728L212.91,50.928L216.936,50.928C215.77,52.82,214.164,54.448,212.14,55.834L213.504,57.836C215,56.626000000000005,216.32,55.129999999999995,217.464,53.370000000000005L217.464,59.288L219.752,59.288L219.752,53.986000000000004C220.478,54.58,221.358,55.372,222.37,56.34L223.734,54.294C222.392,53.370000000000005,221.072,52.556,219.752,51.83L219.752,50.928L223.844,50.928L223.844,48.728L219.752,48.728L219.752,46.858000000000004L217.464,46.858000000000004L217.464,48.728L212.91,48.728ZM218.498,42.414L216.562,42.964C217.046,44.042,217.442,45.141999999999996,217.772,46.263999999999996L219.686,45.538C219.4,44.592,219.004,43.558,218.498,42.414ZM214.516,42.854L212.712,43.448C213.328,44.635999999999996,213.856,45.868,214.296,47.166L216.122,46.704C215.66,45.252,215.132,43.954,214.516,42.854ZM237,59.134C238.49599999999998,59.134,239.26600000000002,58.298,239.26600000000002,56.647999999999996L239.26600000000002,50.620000000000005C239.75,50.4,240.23399999999998,50.18,240.71800000000002,49.938L241.29000000000002,50.861999999999995C242.17000000000002,50.422,242.98399999999998,49.938,243.75400000000002,49.366L243.75400000000002,50.18L250.97,50.18L250.97,49.344C251.71800000000002,49.85,252.53199999999998,50.334,253.45600000000002,50.796L254.688,48.948C251.674,47.496,249.54000000000002,45.78,248.308,43.844L246.372,43.844C245.074,45.757999999999996,243.26999999999998,47.364000000000004,240.95999999999998,48.64L240.95999999999998,47.628C240.41,47.914,239.838,48.178,239.26600000000002,48.442L239.26600000000002,44.944L241.026,44.944L241.026,42.722L239.26600000000002,42.722L239.26600000000002,39.07L237.022,39.07L237.022,42.722L234.426,42.722L234.426,44.944L237.022,44.944L237.022,49.322C236.03199999999998,49.652,235.01999999999998,49.916,234.00799999999998,50.135999999999996L234.57999999999998,52.336C235.394,52.072,236.208,51.808,237.022,51.522L237.022,56.076C237.022,56.757999999999996,236.736,57.11,236.208,57.11C235.68,57.11,235.108,57.044,234.514,56.956L234.998,59.134L237,59.134ZM241.07,40.478L241.07,42.59L243.6,42.59L243.6,44.196L245.822,44.196L245.822,42.59L248.748,42.59L248.748,44.108000000000004L250.99200000000002,44.108000000000004L250.99200000000002,42.59L253.74200000000002,42.59L253.74200000000002,40.478L250.99200000000002,40.478L250.99200000000002,39.004L248.748,39.004L248.748,40.478L245.822,40.478L245.822,39.004L243.6,39.004L243.6,40.478L241.07,40.478ZM249.606,48.288L245.05200000000002,48.288C245.888,47.54,246.636,46.704,247.34,45.757999999999996C247.934,46.638,248.68200000000002,47.496,249.606,48.288ZM252.268,51.522L242.30200000000002,51.522L242.30200000000002,59.2L244.524,59.2L244.524,58.232L250.09,58.232L250.09,59.2L252.268,59.2L252.268,51.522ZM244.524,56.164L244.524,53.568L250.09,53.568L250.09,56.164L244.524,56.164ZM276.468,53.370000000000005L274.18,52.644C274.13599999999997,54.25,274.048,55.35,273.938,55.944C273.828,56.516,273.56399999999996,56.824,273.124,56.824L269.89,56.824C269.604,56.78,269.472,56.428,269.472,55.768L269.472,49.146L275.258,49.146L275.258,39.642L267.074,39.642L267.074,41.798L273.058,41.798L273.058,46.946L267.228,46.946L267.228,56.692C267.228,58.188,267.778,58.958,268.878,58.958L273.498,58.958C274.62,58.958,275.346,58.606,275.676,57.924C276.006,57.22,276.27,55.702,276.468,53.370000000000005ZM256.294,39.62L256.294,41.775999999999996L259.022,41.775999999999996L259.022,43.69L256.734,43.69L256.734,59.2L258.758,59.2L258.758,58.21L264.236,58.21L264.236,59.2L266.26,59.2L266.26,43.69L263.95,43.69L263.95,41.775999999999996L266.524,41.775999999999996L266.524,39.62L256.294,39.62ZM258.758,56.054L258.758,54.47L264.236,54.47L264.236,56.054L258.758,56.054ZM259.528,45.757999999999996L259.528,46.88C259.506,48.464,259.242,49.718,258.758,50.598L258.758,45.757999999999996L259.528,45.757999999999996ZM258.758,51.236000000000004L259.682,52.05C260.54,50.95,260.98,49.234,261.002,46.88L261.002,45.757999999999996L261.926,45.757999999999996L261.926,49.432C261.926,50.532,262.454,51.082,263.532,51.082L264.236,51.082L264.236,52.402L258.758,52.402L258.758,51.236000000000004ZM260.95799999999997,43.69L260.95799999999997,41.775999999999996L262.014,41.775999999999996L262.014,43.69L260.95799999999997,43.69ZM264.236,49.344L263.994,49.344C263.598,49.344,263.422,49.212,263.422,48.948L263.422,45.757999999999996L264.236,45.757999999999996L264.236,49.344ZM287.13800000000003,38.828L287.13800000000003,42.59L279.35,42.59L279.35,53.326L281.65999999999997,53.326L281.65999999999997,52.116L287.13800000000003,52.116L287.13800000000003,59.464L289.514,59.464L289.514,52.116L295.014,52.116L295.014,53.326L297.324,53.326L297.324,42.59L289.514,42.59L289.514,38.828L287.13800000000003,38.828ZM281.65999999999997,49.872L281.65999999999997,44.834L287.13800000000003,44.834L287.13800000000003,49.872L281.65999999999997,49.872ZM289.514,49.872L289.514,44.834L295.014,44.834L295.014,49.872L289.514,49.872ZM303.594,53.678C303.044,53.678,302.60400000000004,53.832,302.274,54.162C301.922,54.47,301.746,54.888000000000005,301.746,55.416C301.746,55.9,301.9,56.318,302.23,56.647999999999996C302.56,56.978,302.956,57.153999999999996,303.44,57.153999999999996C303.682,57.153999999999996,303.858,57.11,303.99,57.066C303.99,57.594,303.81399999999996,58.1,303.418,58.628C303,59.111999999999995,302.494,59.464,301.9,59.684L301.9,61.135999999999996C303.044,60.806,303.96799999999996,60.212,304.65,59.354C305.31,58.474000000000004,305.66200000000003,57.462,305.66200000000003,56.296C305.66200000000003,55.525999999999996,305.464,54.888000000000005,305.09000000000003,54.403999999999996C304.69399999999996,53.92,304.188,53.678,303.594,53.678ZM330.06,41.182L328.124,42.391999999999996C329.928,44.68,331.358,46.769999999999996,332.414,48.64L334.372,47.298C333.36,45.56,331.93,43.513999999999996,330.06,41.182ZM337.254,52.754000000000005C338.728,54.866,339.916,56.89,340.818,58.804L342.622,57.022C341.41200000000003,54.866,339.96000000000004,52.688,338.288,50.532C338.376,50.268,338.442,50.025999999999996,338.53,49.762C339.454,46.836,339.916,43.272,339.916,39.092L337.53999999999996,39.092C337.496,43.272,337.05600000000004,46.66,336.198,49.3C335.098,52.402,332.722,55.019999999999996,329.07,57.176L330.632,59.068C333.624,57.286,335.846,55.174,337.254,52.754000000000005ZM323.94399999999996,57.153999999999996C326.628,56.186,329.13599999999997,55.042,331.49,53.722L330.83000000000004,51.478C329.312,52.402,327.794,53.172,326.254,53.81L326.254,39.312L323.878,39.312L323.878,53.304C323.878,54.007999999999996,323.63599999999997,54.58,323.174,54.976L323.94399999999996,57.153999999999996ZM344.448,39.884L344.448,42.128L352.58799999999997,42.128L352.58799999999997,59.288L354.898,59.288L354.898,47.275999999999996C356.702,48.2,358.946,49.542,361.652,51.257999999999996L363.038,49.19C360.288,47.562,357.582,46.088,354.898,44.812L354.898,42.128L364.182,42.128L364.182,39.884L344.448,39.884ZM372.08000000000004,40.588L366.8,40.588L366.8,57.506L368.824,57.506L368.824,55.702L372.08000000000004,55.702L372.08000000000004,40.588ZM368.824,53.766L368.824,42.568L370.1,42.568L370.1,53.766L368.824,53.766ZM372.762,44.68L372.762,46.704L373.972,46.704C373.95,47.76,373.906,48.75,373.84000000000003,49.696L372.71799999999996,49.696L372.71799999999996,51.72L373.598,51.72C373.202,54.25,372.454,56.251999999999995,371.398,57.704L373.004,59.09C374.28,57.33,375.116,54.866,375.55600000000004,51.72L377.16200000000003,51.72C377.14,53.436,377.118,54.58,377.096,55.129999999999995C377.00800000000004,56.406,376.76599999999996,57.044,376.326,57.044C375.88599999999997,57.044,375.38,57,374.786,56.956L375.27,58.914C375.93,59.001999999999995,376.414,59.046,376.7,59.046C378.04200000000003,59.046,378.78999999999996,58.012,378.966,55.966C379.098,53.942,379.18600000000004,48.53,379.18600000000004,39.730000000000004L372.74,39.730000000000004L372.74,41.754L373.972,41.754L373.972,44.68L372.762,44.68ZM377.18399999999997,49.696L375.754,49.696C375.82,48.75,375.86400000000003,47.76,375.88599999999997,46.704L377.18399999999997,46.704L377.18399999999997,49.696ZM377.18399999999997,44.68L375.88599999999997,44.68L375.88599999999997,41.754L377.206,41.754C377.18399999999997,42.766,377.18399999999997,43.756,377.18399999999997,44.68ZM380.154,39.708L380.154,59.244L382.178,59.244L382.178,41.644L384.13599999999997,41.644C383.85,43.403999999999996,383.432,45.384,382.86,47.584C383.872,49.476,384.378,51.192,384.378,52.732C384.378,53.348,384.334,53.788,384.28999999999996,54.052C384.224,54.272,384.11400000000003,54.403999999999996,383.98199999999997,54.47C383.56399999999996,54.47,383.058,54.426,382.442,54.36L383.14599999999996,56.472C384.422,56.45,385.346,56.098,385.874,55.416C386.226,54.888000000000005,386.402,54.007999999999996,386.402,52.732C386.31399999999996,51.192,385.786,49.388,384.86199999999997,47.275999999999996C385.346,45.208,385.786,43.25,386.13800000000003,41.358L386.13800000000003,39.708L380.154,39.708ZM401.296,39.004L401.296,42.656L397.15999999999997,42.656L397.15999999999997,53.04L399.36,53.04L399.36,52.116L401.296,52.116L401.296,59.31L403.606,59.31L403.606,52.116L405.608,52.116L405.608,53.04L407.852,53.04L407.852,42.656L403.606,42.656L403.606,39.004L401.296,39.004ZM399.36,50.004000000000005L399.36,44.812L401.296,44.812L401.296,50.004000000000005L399.36,50.004000000000005ZM403.606,50.004000000000005L403.606,44.812L405.608,44.812L405.608,50.004000000000005L403.606,50.004000000000005ZM388.932,42.391999999999996C389.812,42.304,390.66999999999996,42.194,391.506,42.084L391.506,44.702L388.36,44.702L388.36,46.924L391.24199999999996,46.924C390.538,49.058,389.416,50.972,387.91999999999996,52.666L388.88800000000003,55.086C389.94399999999996,53.611999999999995,390.802,52.006,391.506,50.245999999999995L391.506,59.288L393.75,59.288L393.75,49.828C394.256,50.576,394.85,51.5,395.554,52.622L396.852,50.664C395.796,49.586,394.762,48.596000000000004,393.75,47.716L393.75,46.924L396.346,46.924L396.346,44.702L393.75,44.702L393.75,41.71C394.674,41.534,395.554,41.314,396.39,41.094L395.576,38.982C393.486,39.642,391.11,40.06,388.47,40.28L388.932,42.391999999999996ZM413,59.134C414.496,59.134,415.26599999999996,58.298,415.26599999999996,56.647999999999996L415.26599999999996,50.620000000000005C415.75,50.4,416.234,50.18,416.718,49.938L417.29,50.861999999999995C418.17,50.422,418.984,49.938,419.754,49.366L419.754,50.18L426.97,50.18L426.97,49.344C427.718,49.85,428.532,50.334,429.456,50.796L430.688,48.948C427.674,47.496,425.54,45.78,424.308,43.844L422.372,43.844C421.074,45.757999999999996,419.27,47.364000000000004,416.96,48.64L416.96,47.628C416.41,47.914,415.83799999999997,48.178,415.26599999999996,48.442L415.26599999999996,44.944L417.026,44.944L417.026,42.722L415.26599999999996,42.722L415.26599999999996,39.07L413.022,39.07L413.022,42.722L410.426,42.722L410.426,44.944L413.022,44.944L413.022,49.322C412.03200000000004,49.652,411.02,49.916,410.00800000000004,50.135999999999996L410.58000000000004,52.336C411.394,52.072,412.20799999999997,51.808,413.022,51.522L413.022,56.076C413.022,56.757999999999996,412.736,57.11,412.20799999999997,57.11C411.68,57.11,411.108,57.044,410.514,56.956L410.998,59.134L413,59.134ZM417.07,40.478L417.07,42.59L419.6,42.59L419.6,44.196L421.822,44.196L421.822,42.59L424.748,42.59L424.748,44.108000000000004L426.992,44.108000000000004L426.992,42.59L429.742,42.59L429.742,40.478L426.992,40.478L426.992,39.004L424.748,39.004L424.748,40.478L421.822,40.478L421.822,39.004L419.6,39.004L419.6,40.478L417.07,40.478ZM425.606,48.288L421.052,48.288C421.888,47.54,422.636,46.704,423.34,45.757999999999996C423.934,46.638,424.682,47.496,425.606,48.288ZM428.268,51.522L418.302,51.522L418.302,59.2L420.524,59.2L420.524,58.232L426.09,58.232L426.09,59.2L428.268,59.2L428.268,51.522ZM420.524,56.164L420.524,53.568L426.09,53.568L426.09,56.164L420.524,56.164ZM452.468,53.370000000000005L450.18,52.644C450.136,54.25,450.048,55.35,449.938,55.944C449.828,56.516,449.564,56.824,449.124,56.824L445.89,56.824C445.604,56.78,445.472,56.428,445.472,55.768L445.472,49.146L451.258,49.146L451.258,39.642L443.074,39.642L443.074,41.798L449.058,41.798L449.058,46.946L443.228,46.946L443.228,56.692C443.228,58.188,443.778,58.958,444.878,58.958L449.498,58.958C450.62,58.958,451.346,58.606,451.676,57.924C452.006,57.22,452.27,55.702,452.468,53.370000000000005ZM432.294,39.62L432.294,41.775999999999996L435.022,41.775999999999996L435.022,43.69L432.734,43.69L432.734,59.2L434.758,59.2L434.758,58.21L440.236,58.21L440.236,59.2L442.26,59.2L442.26,43.69L439.95,43.69L439.95,41.775999999999996L442.524,41.775999999999996L442.524,39.62L432.294,39.62ZM434.758,56.054L434.758,54.47L440.236,54.47L440.236,56.054L434.758,56.054ZM435.528,45.757999999999996L435.528,46.88C435.506,48.464,435.242,49.718,434.758,50.598L434.758,45.757999999999996L435.528,45.757999999999996ZM434.758,51.236000000000004L435.682,52.05C436.54,50.95,436.98,49.234,437.002,46.88L437.002,45.757999999999996L437.926,45.757999999999996L437.926,49.432C437.926,50.532,438.454,51.082,439.532,51.082L440.236,51.082L440.236,52.402L434.758,52.402L434.758,51.236000000000004ZM436.958,43.69L436.958,41.775999999999996L438.014,41.775999999999996L438.014,43.69L436.958,43.69ZM440.236,49.344L439.994,49.344C439.598,49.344,439.422,49.212,439.422,48.948L439.422,45.757999999999996L440.236,45.757999999999996L440.236,49.344ZM454.536,41.952L454.536,44.174L460.52,44.174C460.498,44.856,460.454,45.736000000000004,460.41,46.836C460.3,48.903999999999996,459.882,50.774,459.156,52.424C458.408,54.074,456.868,55.878,454.536,57.814L456.208,59.442C458.166,57.858000000000004,459.684,56.098,460.762,54.184C461.532,52.798,462.06,51.28,462.368,49.608000000000004L469.364,49.608000000000004C469.32,52.644,469.254,54.492000000000004,469.122,55.174C468.858,56.406,468.308,57.044,467.45,57.088C466.636,57.088,465.646,57.044,464.48,56.978L465.162,59.068C466.13,59.134,466.966,59.178,467.692,59.178C469.408,59.134,470.53,58.275999999999996,471.036,56.56C471.388,55.372,471.608,52.314,471.696,47.43L462.632,47.43C462.72,46.088,462.764,45.01,462.808,44.174L474.204,44.174L474.204,41.952L466.086,41.952C465.602,40.742,465.052,39.686,464.48,38.806L462.302,39.62C462.852,40.368,463.314,41.138,463.71,41.952L454.536,41.952ZM476.69,42.612L476.69,44.856L487.272,44.856C487.448,47.452,487.756,49.762,488.218,51.742000000000004C489.538,56.626000000000005,491.276,59.156,493.454,59.288C494.752,59.288,495.72,57.616,496.38,54.294L494.312,53.238C493.938,55.525999999999996,493.608,56.692,493.3,56.692C492.728,56.692,492.002,55.46,491.078,52.995999999999995C490.374,50.796,489.89,48.068,489.648,44.856L496.028,44.856L496.028,42.612L493.278,42.612L494.686,41.908C494.07,40.852000000000004,493.454,39.884,492.794,39.004L490.902,39.928C491.518,40.72,492.112,41.622,492.662,42.612L489.516,42.612C489.45,41.468,489.428,40.236,489.428,38.96L487.052,38.96C487.052,40.214,487.074,41.424,487.14,42.612L476.69,42.612ZM476.998,47.87L476.998,50.025999999999996L480.606,50.025999999999996L480.606,55.262C479.242,55.482,477.856,55.68,476.47,55.834L476.998,58.012C480.672,57.462,484.126,56.802,487.36,56.032L487.36,53.788C485.886,54.184,484.39,54.536,482.894,54.844L482.894,50.025999999999996L486.502,50.025999999999996L486.502,47.87L476.998,47.87ZM507.16,50.576L507.16,51.808L500.274,51.808L500.274,58.342L502.54,58.342L502.54,53.876000000000005L507.16,53.876000000000005L507.16,59.288L509.492,59.288L509.492,53.876000000000005L514.178,53.876000000000005L514.178,55.35C514.178,55.834,513.87,56.098,513.298,56.098L511.78,56.010000000000005L512.396,58.188L514.024,58.188C515.63,58.188,516.444,57.418,516.444,55.878L516.444,51.808L509.492,51.808L509.492,50.576L514.354,50.576L514.354,45.318L502.386,45.318L502.386,50.576L507.16,50.576ZM507.16,38.828L507.16,41.952L504.542,41.952C504.102,40.918,503.64,40.016,503.156,39.246L500.978,40.06C501.462,40.653999999999996,501.88,41.292,502.232,41.952L498.822,41.952L498.822,46.836L501.154,46.836L501.154,44.13L515.498,44.13L515.498,46.814L517.8299999999999,46.814L517.8299999999999,41.952L514.244,41.952C514.662,41.358,515.0799999999999,40.676,515.498,39.906L513.3199999999999,39.092C512.88,40.104,512.352,41.05,511.758,41.952L509.492,41.952L509.492,38.828L507.16,38.828ZM512.1320000000001,48.684L504.63,48.684L504.63,47.232L512.1320000000001,47.232L512.1320000000001,48.684ZM529.1600000000001,50.576L529.1600000000001,51.808L522.274,51.808L522.274,58.342L524.54,58.342L524.54,53.876000000000005L529.1600000000001,53.876000000000005L529.1600000000001,59.288L531.492,59.288L531.492,53.876000000000005L536.178,53.876000000000005L536.178,55.35C536.178,55.834,535.87,56.098,535.298,56.098L533.78,56.010000000000005L534.396,58.188L536.024,58.188C537.63,58.188,538.444,57.418,538.444,55.878L538.444,51.808L531.492,51.808L531.492,50.576L536.354,50.576L536.354,45.318L524.386,45.318L524.386,50.576L529.1600000000001,50.576ZM529.1600000000001,38.828L529.1600000000001,41.952L526.5419999999999,41.952C526.102,40.918,525.64,40.016,525.156,39.246L522.9780000000001,40.06C523.462,40.653999999999996,523.88,41.292,524.232,41.952L520.822,41.952L520.822,46.836L523.154,46.836L523.154,44.13L537.498,44.13L537.498,46.814L539.8299999999999,46.814L539.8299999999999,41.952L536.244,41.952C536.662,41.358,537.0799999999999,40.676,537.498,39.906L535.3199999999999,39.092C534.88,40.104,534.352,41.05,533.758,41.952L531.492,41.952L531.492,38.828L529.1600000000001,38.828ZM534.1320000000001,48.684L526.63,48.684L526.63,47.232L534.1320000000001,47.232L534.1320000000001,48.684ZM544.582,51.478L544.582,59.31L546.7819999999999,59.31L546.7819999999999,51.104C547.354,51.852000000000004,547.904,52.71,548.476,53.678L549.73,51.763999999999996C549.3340000000001,51.236000000000004,548.9159999999999,50.751999999999995,548.498,50.29C549.0260000000001,49.828,549.51,49.234,549.95,48.507999999999996L548.652,47.232C548.2339999999999,48.002,547.794,48.618,547.332,49.102000000000004C547.156,48.926,546.9580000000001,48.772,546.7819999999999,48.618L546.7819999999999,48.552C547.75,47.056,548.454,45.538,548.894,43.998L548.894,42.128L547.0899999999999,42.128C546.848,41.138,546.518,40.06,546.078,38.872L543.9,39.466C544.252,40.324,544.56,41.204,544.8679999999999,42.128L542.5799999999999,42.128L542.5799999999999,44.218L546.716,44.218C545.902,46.418,544.3620000000001,48.684,542.1179999999999,51.016L542.822,53.348C543.438,52.732,544.01,52.094,544.582,51.478ZM554.922,38.938L554.922,41.336L550.082,41.336L550.082,49.234C550.038,52.578,549.29,55.372,547.838,57.594L549.7080000000001,59.222C551.38,56.516,552.238,53.260000000000005,552.2819999999999,49.454L552.832,49.454C553.294,51.434,554.196,53.216,555.56,54.822C554.4159999999999,55.834,552.986,56.647999999999996,551.2919999999999,57.286L552.4359999999999,59.332C554.306,58.606,555.89,57.66,557.188,56.472C558.354,57.528,559.784,58.474000000000004,561.456,59.332L562.71,57.286C561.148,56.582,559.784,55.79,558.64,54.866C559.828,53.326,560.62,51.478,561.0160000000001,49.322L561.0160000000001,47.342L557.21,47.342L557.21,43.448L559.674,43.448C559.498,44.284,559.3,45.032,559.058,45.692L561.148,46.286C561.5219999999999,45.01,561.7860000000001,43.712,561.94,42.436L561.94,41.336L557.21,41.336L557.21,38.938L554.922,38.938ZM554.922,43.448L554.922,47.342L552.2819999999999,47.342L552.2819999999999,43.448L554.922,43.448ZM556.99,53.304C556,52.16,555.296,50.884,554.9,49.454L558.8820000000001,49.454C558.486,50.884,557.848,52.16,556.99,53.304ZM576.768,39.092C576.746,43.316,576.438,46.726,575.844,49.366C575.096,52.489999999999995,573.4680000000001,55.129999999999995,570.96,57.286L572.5219999999999,59.2C575.47,56.714,577.3399999999999,53.59,578.11,49.828C578.154,49.652,578.1759999999999,49.454,578.22,49.256C579.408,53.106,581.0360000000001,56.406,583.126,59.134L584.798,57.22C581.982,54.03,580.002,49.762,578.902,44.416C579.034,42.788,579.1,41.006,579.1,39.092L576.768,39.092ZM567.242,39.07L565.614,40.653999999999996C567.1759999999999,41.798,568.386,42.876,569.222,43.888L570.806,42.282C569.816,41.226,568.6279999999999,40.147999999999996,567.242,39.07ZM564.184,45.428L564.184,47.628L567.198,47.628L567.198,55.218C567.198,55.702,567,56.120000000000005,566.604,56.428L567.4839999999999,58.474000000000004C569.1120000000001,57.418,570.63,56.251999999999995,572.06,54.932L571.444,52.578C570.74,53.260000000000005,570.058,53.876000000000005,569.4200000000001,54.403999999999996L569.4200000000001,45.428L564.184,45.428ZM589.682,39.422L587.944,40.676C589.1320000000001,41.908,590.1,43.052,590.826,44.064L592.63,42.832C591.9259999999999,41.842,590.9580000000001,40.698,589.682,39.422ZM597.646,48.662L595.798,49.828C597.162,51.5,598.262,53.018,599.076,54.382000000000005L601.1,52.974000000000004C600.2860000000001,51.742000000000004,599.142,50.312,597.646,48.662ZM594.0160000000001,38.916L594.0160000000001,42.238C593.994,42.876,593.95,43.513999999999996,593.906,44.152L587.086,44.152L587.086,46.396L593.664,46.396C593.3779999999999,48.376,592.9159999999999,50.092,592.3,51.566C591.2660000000001,53.81,589.2860000000001,55.68,586.338,57.176L587.636,59.222C590.606,57.836,592.74,55.856,594.038,53.304C594.962,51.456,595.6,49.146,595.9739999999999,46.396L602.794,46.396C602.794,48.992000000000004,602.7280000000001,51.412,602.596,53.611999999999995C602.4639999999999,55.812,601.9359999999999,56.956,601.034,57.044C600,57.044,598.856,56.956,597.624,56.824L598.24,59.046C599.0319999999999,59.134,600,59.178,601.144,59.178C602.64,59.178,603.696,58.275999999999996,604.29,56.516C604.8620000000001,54.756,605.148,50.620000000000005,605.148,44.152L596.194,44.152C596.238,43.536,596.26,42.897999999999996,596.2819999999999,42.238L596.2819999999999,38.916L594.0160000000001,38.916ZM611.4839999999999,39.576L611.4839999999999,47.606L625.256,47.606L625.256,39.576L611.4839999999999,39.576ZM622.99,45.67L613.7719999999999,45.67L613.7719999999999,44.482L622.99,44.482L622.99,45.67ZM613.7719999999999,42.678L613.7719999999999,41.512L622.99,41.512L622.99,42.678L613.7719999999999,42.678ZM617.424,50.84L617.424,56.494C617.1600000000001,56.428,616.918,56.361999999999995,616.698,56.296C615.62,55.944,614.652,55.129999999999995,613.816,53.832C614.0799999999999,53.15,614.322,52.424,614.52,51.653999999999996L612.342,51.28C611.6379999999999,53.832,610.318,55.856,608.338,57.396L609.8340000000001,59.31C611.088,58.32,612.144,57.088,612.98,55.614000000000004C613.816,56.846000000000004,614.74,57.704,615.796,58.144C617.1600000000001,58.672,619.646,58.958,623.298,58.980000000000004C624.53,59.001999999999995,625.9159999999999,59.024,627.456,59.024L628.094,56.867999999999995C626.752,56.912,625.102,56.956,623.144,56.956C621.8679999999999,56.956,620.7239999999999,56.912,619.7339999999999,56.824L619.7339999999999,54.712L625.806,54.712L625.806,52.688L619.7339999999999,52.688L619.7339999999999,50.84L628.1600000000001,50.84L628.1600000000001,48.772L608.514,48.772L608.514,50.84L617.424,50.84ZM640.9639999999999,38.586C639.798,38.894,638.874,39.488,638.2139999999999,40.368C637.5319999999999,41.226,637.202,42.238,637.202,43.426C637.202,44.174,637.3779999999999,44.812,637.774,45.296C638.1700000000001,45.78,638.654,46.044,639.27,46.044C639.798,46.044,640.238,45.868,640.5899999999999,45.56C640.942,45.230000000000004,641.1179999999999,44.812,641.1179999999999,44.306C641.1179999999999,43.8,640.942,43.382,640.634,43.052C640.2819999999999,42.722,639.886,42.568,639.424,42.568C639.1600000000001,42.568,638.9839999999999,42.59,638.874,42.656C638.852,42.128,639.05,41.6,639.446,41.116C639.842,40.588,640.348,40.236,640.9639999999999,40.038L640.9639999999999,38.586ZM635.6179999999999,38.586C634.452,38.894,633.528,39.488,632.8679999999999,40.368C632.1859999999999,41.226,631.856,42.238,631.856,43.426C631.856,44.174,632.054,44.812,632.45,45.296C632.8240000000001,45.78,633.308,46.044,633.924,46.044C634.452,46.044,634.914,45.868,635.2660000000001,45.56C635.596,45.230000000000004,635.7719999999999,44.812,635.7719999999999,44.306C635.7719999999999,43.8,635.596,43.382,635.2660000000001,43.052C634.9359999999999,42.722,634.54,42.568,634.078,42.568C633.8140000000001,42.568,633.6379999999999,42.59,633.528,42.656C633.506,42.128,633.704,41.6,634.1220000000001,41.116C634.518,40.588,635.002,40.236,635.6179999999999,40.038L635.6179999999999,38.586ZM663.316,40.874L655.066,40.874C654.758,40.082,654.472,39.378,654.164,38.74L651.568,39.18C651.898,39.708,652.206,40.258,652.47,40.874L644.3299999999999,40.874L644.3299999999999,45.934L646.662,45.934L646.662,43.096000000000004L660.9839999999999,43.096000000000004L660.9839999999999,45.956L663.316,45.956L663.316,40.874ZM644.066,46.968L644.066,49.168L648.906,49.168C648.246,50.356,647.5419999999999,51.522,646.794,52.71C648.752,53.326,650.71,54.052,652.646,54.866C650.446,56.406,647.5640000000001,57.176,644,57.176L645.342,59.31C649.3240000000001,59.2,652.558,58.078,655.044,55.922C657.288,56.934,659.51,58.1,661.732,59.42L663.294,57.396C661.028,56.164,658.828,55.108000000000004,656.694,54.206C657.684,52.93,658.608,51.257999999999996,659.466,49.168L663.646,49.168L663.646,46.968L652.844,46.968L654.23,44.328L651.854,43.602000000000004C651.304,44.702,650.732,45.824,650.116,46.968L644.066,46.968ZM651.6120000000001,49.168L656.9359999999999,49.168C656.2760000000001,50.751999999999995,655.44,52.138000000000005,654.428,53.282C652.932,52.71,651.4580000000001,52.204,650.028,51.808C650.512,51.038,651.04,50.158,651.6120000000001,49.168ZM675.02,38.872C672.468,41.556,669.278,43.778,665.45,45.582L666.572,47.628C667.672,47.1,668.706,46.528,669.696,45.912L669.696,47.914L674.668,47.914L674.668,50.994L668.53,50.994L668.53,53.216L674.668,53.216L674.668,56.472L666.572,56.472L666.572,58.716L685.118,58.716L685.118,56.472L677,56.472L677,53.216L683.116,53.216L683.116,50.994L677,50.994L677,47.914L681.972,47.914L681.972,45.934C682.94,46.528,683.952,47.078,685.008,47.584L686.152,45.538C682.566,43.91,679.398,41.688,676.648,38.872L675.02,38.872ZM670.048,45.692C672.292,44.284,674.228,42.7,675.834,40.962C677.506,42.744,679.42,44.328,681.598,45.692L670.048,45.692ZM695.678,38.586C695.128,38.586,694.688,38.74,694.358,39.07C694.006,39.378,693.83,39.796,693.83,40.324C693.83,40.808,693.984,41.226,694.314,41.556C694.644,41.886,695.04,42.062,695.524,42.062C695.766,42.062,695.942,42.018,696.074,41.974000000000004C696.074,42.502,695.898,43.007999999999996,695.502,43.536C695.084,44.019999999999996,694.578,44.372,693.984,44.592L693.984,46.044C695.128,45.714,696.052,45.12,696.734,44.262C697.394,43.382,697.746,42.37,697.746,41.204C697.746,40.434,697.548,39.796,697.174,39.312C696.778,38.828,696.272,38.586,695.678,38.586ZM690.332,38.586C689.782,38.586,689.342,38.74,688.99,39.07C688.638,39.378,688.484,39.796,688.484,40.324C688.484,40.808,688.638,41.226,688.99,41.556C689.298,41.886,689.694,42.062,690.178,42.062C690.42,42.062,690.596,42.018,690.728,41.974000000000004C690.728,42.502,690.53,43.007999999999996,690.134,43.536C689.738,44.019999999999996,689.232,44.372,688.638,44.592L688.638,46.044C689.782,45.714,690.706,45.12,691.388,44.262C692.048,43.382,692.4,42.37,692.4,41.204C692.4,40.434,692.202,39.796,691.806,39.312C691.41,38.828,690.926,38.586,690.332,38.586ZM709.516,42.502L706.172,42.502C706.568,41.49,706.898,40.368,707.14,39.18L704.83,38.872C704.654,40.126,704.368,41.336,703.972,42.502L701.86,42.502L701.86,58.562L704.06,58.562L704.06,56.824L707.316,56.824L707.316,57.924L709.516,57.924L709.516,42.502ZM704.06,54.712L704.06,50.554L707.316,50.554L707.316,54.712L704.06,54.712ZM704.06,48.507999999999996L704.06,44.658L707.316,44.658L707.316,48.507999999999996L704.06,48.507999999999996ZM713.52,47.848L711.65,49.013999999999996C713.014,50.774,714.114,52.379999999999995,714.928,53.832L716.776,52.556C716.006,51.192,714.928,49.63,713.52,47.848ZM720.846,42.502L714.158,42.502C714.488,41.446,714.774,40.324,714.994,39.136L712.728,38.85C712.2,41.864,711.232,44.416,709.78,46.484L711.166,48.31C711.98,47.254,712.684,46.066,713.278,44.746L718.602,44.746C718.558,50.972,718.492,54.602000000000004,718.36,55.658C718.228,56.516,717.766,56.956,716.974,56.956C716.248,56.956,715.39,56.912,714.422,56.846000000000004L714.972,58.936C716.116,59.024,716.908,59.068,717.348,59.068C719.24,59.068,720.296,58.298,720.516,56.757999999999996C720.736,54.954,720.846,50.202,720.846,42.502ZM725.4,39.114L723.838,40.588C725.378,41.864,726.566,43.074,727.402,44.174L729.008,42.59C728.018,41.446,726.808,40.28,725.4,39.114ZM737.94,58.936L742.978,58.936L743.55,56.67C742.934,56.714,742.076,56.757999999999996,740.954,56.802C739.81,56.802,738.71,56.824,737.61,56.824C735.894,56.824,734.42,56.802,733.144,56.78C731.846,56.736000000000004,730.878,56.56,730.218,56.230000000000004C729.712,55.944,729.206,55.504000000000005,728.7,54.932L728.458,54.69L728.458,46.33L723.42,46.33L723.42,48.442L726.324,48.442L726.324,54.47C725.444,54.954,724.476,56.076,723.376,57.836L725.07,59.42C726.17,57.44,726.918,56.45,727.358,56.45C727.6,56.45,727.864,56.626000000000005,728.172,57C728.832,57.748000000000005,729.602,58.254000000000005,730.482,58.518C731.406,58.738,732.572,58.870000000000005,734.002,58.891999999999996C735.41,58.914,736.73,58.936,737.94,58.936ZM735.718,38.872L735.718,41.424L733.65,41.424C733.826,40.874,734.024,40.302,734.2,39.686L732,39.224000000000004C731.516,41.072,730.68,42.81,729.492,44.438L731.472,45.692C731.912,45.054,732.308,44.372,732.704,43.624L735.718,43.624L735.718,46.198L730.086,46.198L730.086,48.397999999999996L733.342,48.397999999999996C733.254,49.542,733.056,50.510000000000005,732.748,51.302C732.22,52.512,731.12,53.546,729.404,54.382000000000005L730.878,56.186C732.968,55.086,734.288,53.7,734.838,52.05C735.19,51.016,735.432,49.806,735.52,48.397999999999996L737.214,48.397999999999996L737.214,54.052C737.214,54.623999999999995,737.39,55.108000000000004,737.742,55.504000000000005C738.094,55.856,738.6,56.032,739.282,56.032L740.844,56.032C741.636,56.032,742.164,55.856,742.472,55.548C742.78,55.196,743.022,54.074,743.198,52.16L741.196,51.478C741.152,52.93,741.042,53.722,740.866,53.854C740.734,53.986000000000004,740.558,54.074,740.36,54.074L739.986,54.074C739.568,54.074,739.37,53.897999999999996,739.37,53.568L739.37,48.397999999999996L742.868,48.397999999999996L742.868,46.198L737.962,46.198L737.962,43.624L742.12,43.624L742.12,41.424L737.962,41.424L737.962,38.872L735.718,38.872ZM753.252,39.62L753.252,41.688L754.528,41.688C755.056,43.162,755.87,44.416,756.97,45.45C755.694,45.978,754.198,46.44,752.46,46.814L753.56,48.75C755.672,48.266,757.476,47.628,758.972,46.88C760.556,47.76,762.492,48.332,764.824,48.596000000000004L765.66,46.55C763.9,46.374,762.404,46.022,761.128,45.516C762.514,44.416,763.46,43.096000000000004,763.944,41.556L763.944,39.62L753.252,39.62ZM756.75,41.688L761.568,41.688C761.018,42.678,760.16,43.58,758.972,44.372C757.982,43.624,757.234,42.744,756.75,41.688ZM747.95,59.09C749.446,59.09,750.216,58.342,750.216,56.846000000000004L750.216,50.994C750.964,50.686,751.712,50.378,752.46,50.025999999999996L752.46,47.694C751.712,48.068,750.964,48.397999999999996,750.216,48.706L750.216,45.12L752.438,45.12L752.438,42.897999999999996L750.216,42.897999999999996L750.216,39.004L747.884,39.004L747.884,42.897999999999996L745.442,42.897999999999996L745.442,45.12L747.884,45.12L747.884,49.542C746.938,49.85,745.97,50.092,745.002,50.29L745.574,52.6C746.344,52.379999999999995,747.114,52.138000000000005,747.884,51.873999999999995L747.884,56.251999999999995C747.884,56.736000000000004,747.642,57,747.158,57C746.63,57,746.08,56.956,745.508,56.867999999999995L746.014,59.09L747.95,59.09ZM753.692,49.85L753.692,51.918L757.872,51.918L757.872,53.788L752.548,53.788L752.548,55.922L757.872,55.922L757.872,59.001999999999995L760.072,59.001999999999995L760.072,55.922L765.264,55.922L765.264,53.788L760.072,53.788L760.072,51.918L764.142,51.918L764.142,49.85L760.072,49.85L760.072,48.266L757.872,48.266L757.872,49.85L753.692,49.85ZM772.084,40.984C770.456,40.984,769.18,41.446,768.234,42.37C767.266,43.294,766.804,44.57,766.804,46.198L769.312,46.198C769.312,45.274,769.488,44.548,769.862,44.042C770.28,43.426,770.962,43.14,771.93,43.14C772.678,43.14,773.272,43.338,773.69,43.756C774.086,44.174,774.306,44.746,774.306,45.472C774.306,46.022,774.108,46.55,773.712,47.034L773.448,47.342C772.018,48.618,771.16,49.542,770.874,50.135999999999996C770.566,50.730000000000004,770.434,51.456,770.434,52.292L770.434,52.6L772.964,52.6L772.964,52.292C772.964,51.763999999999996,773.074,51.302,773.294,50.861999999999995C773.492,50.466,773.778,50.092,774.174,49.762C775.23,48.838,775.868,48.244,776.066,48.024C776.594,47.32,776.88,46.418,776.88,45.318C776.88,43.976,776.44,42.92,775.56,42.15C774.68,41.358,773.514,40.984,772.084,40.984ZM771.688,53.678C771.204,53.678,770.808,53.832,770.478,54.14C770.148,54.448,769.994,54.844,769.994,55.328C769.994,55.812,770.148,56.208,770.478,56.516C770.808,56.824,771.204,57,771.688,57C772.172,57,772.568,56.846000000000004,772.898,56.538C773.228,56.230000000000004,773.404,55.812,773.404,55.328C773.404,54.844,773.228,54.448,772.92,54.14C772.59,53.832,772.172,53.678,771.688,53.678Z" fill="#111111" fill-opacity="1"/></g></g><g><g transform="matrix(0.4999999701976776,0.866025447845459,-0.866025447845459,0.4999999701976776,31.698728543444076,-54.903807893413614)"><rect x="63.39745330810547" y="0" width="73.205078125" height="73.205078125" rx="9.999998092651367" fill="#ED8456" fill-opacity="1"/></g><g><g><ellipse cx="46.49977684020996" cy="37.49977684020996" rx="12.499776840209961" ry="12.499776840209961" fill="#FFFFFF" fill-opacity="1"/></g><g><ellipse cx="52.74966526031494" cy="34.7824342250824" rx="5.706419944763184" ry="5.978154182434082" fill="#000000" fill-opacity="1"/></g></g><g><g><ellipse cx="71.49977684020996" cy="37.49977684020996" rx="12.499776840209961" ry="12.499776840209961" fill="#FFFFFF" fill-opacity="1"/></g><g><ellipse cx="77.74966526031494" cy="34.7824342250824" rx="5.706419944763184" ry="5.978154182434082" fill="#000000" fill-opacity="1"/></g></g></g></g></svg>