<svg xmlns="http://www.w3.org/2000/svg" xmlns:xlink="http://www.w3.org/1999/xlink" fill="none" version="1.1" width="515.5" height="100" viewBox="0 0 515.5 100"><g><g><g><path d="M120,49.7198L129.04297,59L129.04297,78C129.04297,84.6274,134.4156,90,141.043,90L503.5,90C510.127,90,515.5,84.6274,515.5,78L515.5,22C515.5,15.37258,510.127,10,503.5,10L141.0427,10C134.4152,10,129.04263,15.372679999999999,129.04272,22.0002L129.04297,40.439800000000005L120,49.7198Z" fill="#FFFFFF" fill-opacity="1"/><path d="M120,49.7198L129.04297,40.439800000000005L129.04272,22.0002C129.04263,15.372679999999999,134.4152,10,141.0427,10L503.5,10C510.127,10,515.5,15.37258,515.5,22L515.5,78C515.5,84.6274,510.127,90,503.5,90L141.043,90C134.4156,90,129.04297,84.6274,129.04297,78L129.04297,59L120,49.7198ZM130.043,58.5933L121.39626,49.7199L130.043,40.8465L130.0427,22.0002Q130.0427,17.44376,133.2645,14.221879999999999Q136.4863,11,141.0427,11L503.5,10.999999Q508.056,11,511.278,14.22183Q514.5,17.443640000000002,514.5,22L514.5,78Q514.5,82.5564,511.278,85.7782Q508.056,89,503.5,89L141.043,89Q136.4866,89,133.2648,85.7782Q130.043,82.5564,130.043,78L130.043,58.5933Z" fill-rule="evenodd" fill="#C2C2C2" fill-opacity="1"/></g><g><path d="M172.518,55.932C171.11,56.239999999999995,169.702,56.548,168.25,56.812L168.25,53.775999999999996L171.88,53.775999999999996L171.88,51.576L168.25,51.576L168.25,49.354L165.94,49.354L165.94,51.576L161.958,51.576L161.958,53.775999999999996L165.94,53.775999999999996L165.94,57.208C164.312,57.45,162.64,57.647999999999996,160.946,57.824L161.496,60.024C165.412,59.54,169.086,58.924,172.518,58.22L172.518,55.932ZM161.32,40.664L161.32,42.82L164.488,42.82C163.344,45.086,162.442,46.472,161.826,46.978C161.606,47.066,161.32,47.153999999999996,160.924,47.198L161.43,49.244C164.642,48.914,167.63400000000001,48.518,170.38400000000001,48.034C170.692,48.562,170.978,49.09,171.242,49.618L173.156,48.298C172.386,46.89,171.286,45.218,169.834,43.304L168.074,44.426C168.514,45.064,168.932,45.702,169.328,46.318C167.744,46.582,166.16,46.78,164.576,46.956C165.28,45.988,166.072,44.602000000000004,166.952,42.82L172.43,42.82L172.43,40.664L161.32,40.664ZM178.128,60.09C179.668,60.09,180.438,59.32,180.438,57.78L180.438,40.004L178.106,40.004L178.106,57.186C178.106,57.714,177.84199999999998,58,177.336,58C176.39,58,175.4,57.956,174.344,57.867999999999995L174.85,60.09L178.128,60.09ZM173.882,41.984L173.882,55.426L176.10399999999998,55.426L176.10399999999998,41.984L173.882,41.984ZM187.764,39.872L187.764,42.996L186.796,42.996C186.972,42.644,187.126,42.292,187.258,41.896L185.278,41.676C184.816,42.952,183.958,44.03,182.682,44.91L183.848,46.384C184.2,46.12,184.552,45.834,184.904,45.525999999999996C185.432,45.878,185.894,46.252,186.334,46.604C185.322,47,184.178,47.33,182.924,47.572L183.87,49.222C187.764,48.342,190.64600000000002,46.67,192.538,44.228L192.538,42.996L189.7,42.996L189.7,42.226L192.538,42.226L192.538,40.576L189.7,40.576L189.7,39.872L187.764,39.872ZM187.94,45.834C187.324,45.372,186.642,44.91,185.894,44.448L189.92000000000002,44.448C189.326,44.976,188.666,45.438,187.94,45.834ZM194.496,42.38L193.594,43.722C194.32,44.03,195.06799999999998,44.382,195.816,44.778C195.31,44.998,194.76,45.196,194.166,45.394L195.376,46.978C196.256,46.67,197.048,46.296,197.796,45.9C199.072,46.692,200.326,47.572,201.602,48.584L202.724,46.846000000000004C201.668,46.12,200.59,45.438,199.446,44.8C200.458,43.986000000000004,201.20600000000002,43.04,201.69,41.94L201.69,40.466L193.61599999999999,40.466L193.61599999999999,42.248L199.248,42.248C198.808,42.82,198.258,43.326,197.598,43.788C196.586,43.282,195.552,42.82,194.496,42.38ZM188.754,53.864000000000004L196.96,53.864000000000004L196.96,54.81L188.754,54.81L188.754,53.864000000000004ZM196.96,52.566L188.754,52.566L188.754,51.708L196.96,51.708L196.96,52.566ZM199.886,54.766C199.644,55.096000000000004,199.38,55.426,199.094,55.778L199.094,51.092C199.974,51.444,200.942,51.796,202.02,52.17L203.23,50.322C198.962,49.354,195.838,47.946,193.814,46.098L192.186,46.098C190.008,48.122,186.906,49.618,182.902,50.608000000000004L184.13400000000001,52.456C184.97,52.126000000000005,185.762,51.796,186.51,51.488L186.51,57.67C186.51,58.11,186.224,58.396,185.652,58.506L186.246,60.332C189.062,60.068,191.438,59.760000000000005,193.32999999999998,59.43L192.934,57.714C191.59199999999998,57.934,190.206,58.132000000000005,188.754,58.308L188.754,56.174L193.22,56.174L192.38400000000001,57.384C195.398,58.132000000000005,198.346,59.166,201.20600000000002,60.486000000000004L202.30599999999998,58.792C201.426,58.44,200.546,58.132000000000005,199.622,57.846000000000004C200.348,57.186,201.03,56.46,201.69,55.712L199.886,54.766ZM198.764,56.174C198.434,56.525999999999996,198.082,56.9,197.73,57.251999999999995C196.388,56.856,195.002,56.504000000000005,193.55,56.174L198.764,56.174ZM193.55,48.936L191.46,49.266C191.724,49.596000000000004,191.966,49.97,192.208,50.366L188.90800000000002,50.366C190.57999999999998,49.486000000000004,191.944,48.606,193,47.726C193.946,48.584,195.42000000000002,49.464,197.4,50.366L194.254,50.366C194.034,49.838,193.814,49.376,193.55,48.936ZM221.864,48.408C222.7,48.408,223.338,48.254,223.756,47.99C224.196,47.726,224.50400000000002,46.868,224.65800000000002,45.372L222.59,44.712C222.524,45.548,222.392,46.054,222.19400000000002,46.230000000000004C222.018,46.384,221.776,46.472,221.424,46.472L217.596,46.472C217.13400000000001,46.472,216.914,46.252,216.914,45.856L216.914,45.262C219.576,44.25,221.90800000000002,43.084,223.888,41.742L222.436,40.224000000000004C220.984,41.258,219.15800000000002,42.204,216.914,43.084L216.914,40.048L214.67000000000002,40.048L214.67000000000002,43.876C213.59199999999998,44.228,212.448,44.558,211.216,44.866L212.426,46.692L214.67000000000002,46.032L214.67000000000002,46.296C214.67000000000002,47.704,215.44,48.408,217.002,48.408L221.864,48.408ZM222.502,49.2L207.982,49.2L207.982,56.416L210.292,56.416L210.292,51.268L220.17000000000002,51.268L220.17000000000002,56.129999999999995L222.502,56.129999999999995L222.502,49.2ZM216.826,55.888000000000005L215.66,57.604C218.256,58.33,220.764,59.32,223.20600000000002,60.574L224.50400000000002,58.594C222.19400000000002,57.516,219.642,56.614000000000004,216.826,55.888000000000005ZM214.12,51.906C213.966,54.15,213.416,55.712,212.448,56.635999999999996C211.348,57.56,209.082,58.11,205.606,58.263999999999996L206.508,60.354C210.666,59.980000000000004,213.284,59.188,214.362,57.956C215.374,57.010000000000005,216.034,55.052,216.34199999999998,52.104L214.12,51.906ZM208.312,45.019999999999996L208.312,48.606L210.55599999999998,48.606L210.55599999999998,43.304C211.436,42.512,212.184,41.653999999999996,212.756,40.774L210.864,39.872C209.61,41.544,207.696,43.018,205.1,44.25L205.804,46.494C206.70600000000002,46.01,207.542,45.525999999999996,208.312,45.019999999999996ZM238.364,41.214L238.364,49.42L245.976,49.42L245.976,41.214L238.364,41.214ZM243.798,47.352000000000004L240.542,47.352000000000004L240.542,43.26L243.798,43.26L243.798,47.352000000000004ZM230.312,40.004L230.312,41.764L227.452,41.764L227.452,43.744L230.136,43.744C229.74,46.076,228.64,47.836,226.814,49.024L228.50799999999998,50.542C230.686,49.002,231.98399999999998,46.736000000000004,232.402,43.744L234.756,43.744C234.73399999999998,45.68,234.64600000000002,46.89,234.47,47.33C234.29399999999998,47.769999999999996,233.85399999999998,48.012,233.15,48.034C232.82,48.012,232.402,47.968,231.874,47.902L232.446,49.97C232.93,50.058,233.326,50.102000000000004,233.678,50.102000000000004C234.888,50.102000000000004,235.74599999999998,49.706,236.23000000000002,48.914C236.714,48.122,236.95600000000002,45.746,237,41.764L232.55599999999998,41.764L232.55599999999998,40.004L230.312,40.004ZM227.276,51.664L227.276,53.82L233.876,53.82C232.292,55.36,230.00400000000002,56.658,226.99,57.714L228.31,59.848C231.74200000000002,58.263999999999996,234.272,56.262,235.856,53.864000000000004L235.856,60.266L238.144,60.266L238.144,53.864000000000004C239.64,56.042,242.082,58.044,245.47,59.848L247.054,57.846000000000004C243.93,56.658,241.598,55.316,240.102,53.82L246.74599999999998,53.82L246.74599999999998,51.664L238.144,51.664L238.144,50.102000000000004L235.856,50.102000000000004L235.856,51.664L227.276,51.664ZM251.784,40.224000000000004L250.22199999999998,41.72C251.74,42.864,252.928,43.964,253.786,44.976L255.348,43.391999999999996C254.38,42.336,253.192,41.28,251.784,40.224000000000004ZM248.858,46.472L248.858,48.672L251.696,48.672L251.696,56.394C251.696,56.878,251.498,57.296,251.124,57.626000000000005L252.00400000000002,59.694C253.632,58.638000000000005,255.172,57.472,256.624,56.152L255.986,53.732C255.26,54.414,254.578,55.03,253.94,55.602000000000004L253.94,46.472L248.858,46.472ZM256.734,49.112L256.734,51.312L257.988,51.312C258.516,53.028,259.506,54.568,260.914,55.976C259.33,56.988,257.416,57.824,255.15,58.484L256.426,60.42C258.93399999999997,59.694,261.024,58.726,262.74,57.516C264.192,58.594,266.01800000000003,59.562,268.174,60.442L269.406,58.462C267.448,57.78,265.798,57.010000000000005,264.43399999999997,56.129999999999995C265.842,54.744,266.854,53.094,267.47,51.202L267.47,49.112L256.734,49.112ZM260.144,51.312L265.15999999999997,51.312C264.544,52.588,263.68600000000004,53.71,262.56399999999996,54.722C261.42,53.71,260.628,52.566,260.144,51.312ZM258.23,40.598L258.23,43.59C258.23,45.019999999999996,257.284,46.12,255.436,46.89L256.976,48.65C259.308,47.418,260.496,45.635999999999996,260.496,43.348L260.496,42.754L263.884,42.754L263.884,45.68C263.884,47.22,264.698,47.99,266.348,47.99L268.856,47.99L268.856,45.9L266.964,45.9C266.414,45.9,266.15,45.635999999999996,266.15,45.152L266.15,40.598L258.23,40.598ZM277.788,46.274L277.788,48.562L283.464,48.562L283.464,60.354L285.84000000000003,60.354L285.84000000000003,48.562L291.23,48.562L291.23,46.274L285.84000000000003,46.274L285.84000000000003,39.894L283.464,39.894L283.464,46.274L277.788,46.274ZM273.916,40.07L272.288,41.653999999999996C273.85,42.798,275.06,43.876,275.896,44.888L277.48,43.282C276.49,42.226,275.302,41.147999999999996,273.916,40.07ZM270.858,46.428L270.858,48.628L273.872,48.628L273.872,56.438C273.872,56.9,273.674,57.296,273.278,57.626000000000005L274.158,59.694C275.786,58.638000000000005,277.304,57.45,278.734,56.129999999999995L278.14,53.775999999999996C277.414,54.458,276.73199999999997,55.074,276.094,55.623999999999995L276.094,46.428L270.858,46.428ZM293.21000000000004,42.952L293.21000000000004,45.174L299.19399999999996,45.174C299.172,45.856,299.128,46.736000000000004,299.084,47.836C298.974,49.903999999999996,298.55600000000004,51.774,297.83000000000004,53.424C297.082,55.074,295.54200000000003,56.878,293.21000000000004,58.814L294.882,60.442C296.84000000000003,58.858000000000004,298.358,57.098,299.43600000000004,55.184C300.206,53.798,300.73400000000004,52.28,301.04200000000003,50.608000000000004L308.038,50.608000000000004C307.994,53.644,307.928,55.492000000000004,307.796,56.174C307.53200000000004,57.406,306.98199999999997,58.044,306.124,58.088C305.31,58.088,304.32,58.044,303.154,57.978L303.836,60.068C304.804,60.134,305.64,60.178,306.366,60.178C308.082,60.134,309.204,59.275999999999996,309.71000000000004,57.56C310.062,56.372,310.28200000000004,53.314,310.37,48.43L301.30600000000004,48.43C301.394,47.088,301.438,46.01,301.48199999999997,45.174L312.878,45.174L312.878,42.952L304.76,42.952C304.276,41.742,303.726,40.686,303.154,39.806L300.976,40.62C301.526,41.368,301.988,42.138,302.384,42.952L293.21000000000004,42.952ZM323.372,43.502C322.954,44.03,322.514,44.602000000000004,322.052,45.174L316.2,45.174L316.2,46.978L320.512,46.978C320.006,47.55,319.478,48.122,318.928,48.694C320.226,48.936,321.546,49.222,322.866,49.53C321.15,49.903999999999996,318.818,50.102000000000004,315.87,50.102000000000004L317.102,51.994C320.754,51.928,323.724,51.378,326.034,50.344C328.168,50.916,330.302,51.576,332.414,52.324L333.712,50.564C331.86400000000003,49.992000000000004,330.038,49.464,328.256,49.024C328.96000000000004,48.474000000000004,329.62,47.792,330.28,46.978L333.844,46.978L333.844,45.174L324.60400000000004,45.174C324.868,44.844,325.132,44.492000000000004,325.44,44.14L323.372,43.502ZM325.704,48.43C324.538,48.166,323.394,47.946,322.272,47.769999999999996C322.49199999999996,47.528,322.756,47.263999999999996,323.02,46.978L327.706,46.978C327.156,47.506,326.496,47.99,325.704,48.43ZM334.02,41.478L326.078,41.478C325.836,40.862,325.594,40.29,325.352,39.784L322.976,40.18C323.262,40.576,323.526,41.016,323.78999999999996,41.478L315.98,41.478L315.98,44.866L318.13599999999997,44.866L318.13599999999997,43.37L331.86400000000003,43.37L331.86400000000003,44.866L334.02,44.866L334.02,41.478ZM315.496,52.83L315.496,54.81L321.942,54.81C320.55600000000004,55.954,318.26800000000003,56.988,315.1,57.934L316.332,59.958C319.852,58.594,322.382,56.988,323.878,55.14L323.878,60.222L326.21000000000004,60.222L326.21000000000004,55.184C327.86,57.076,330.41200000000003,58.616,333.88800000000003,59.826L334.9,57.802C331.93,57.054,329.68600000000004,56.042,328.14599999999996,54.81L334.526,54.81L334.526,52.83L326.21000000000004,52.83L326.21000000000004,51.312L323.878,51.312L323.878,52.83L315.496,52.83ZM339.278,48.936L339.278,60.288L341.56600000000003,60.288L341.56600000000003,45.68C342.49,44.14,343.238,42.512,343.81,40.796L341.676,39.784C340.576,43.15,338.904,46.076,336.63800000000003,48.562L337.408,51.025999999999996C338.068,50.344,338.68399999999997,49.64,339.278,48.936ZM354.348,48.694L352.324,49.376C353.31399999999996,51.818,354.216,54.634,355.00800000000004,57.802L357.03200000000004,56.9C356.284,53.995999999999995,355.382,51.245999999999995,354.348,48.694ZM346.494,44.58L354.106,44.58C353.798,45.548,353.446,46.406,353.006,47.153999999999996L355.206,47.792C355.712,46.494,356.13,45.196,356.46000000000004,43.876L356.46000000000004,42.38L347.286,42.38C347.48400000000004,41.742,347.682,41.082,347.858,40.422L345.702,39.96C345.04200000000003,42.71,343.898,45.306,342.27,47.748L344.25,48.980000000000004C345.086,47.66,345.834,46.186,346.494,44.58ZM348.93600000000004,60.134C350.432,60.134,351.18,59.364000000000004,351.18,57.846000000000004L351.18,46.098L348.95799999999997,46.098L348.95799999999997,57.296C348.95799999999997,57.846000000000004,348.69399999999996,58.132000000000005,348.166,58.132000000000005C347.374,58.132000000000005,346.51599999999996,58.066,345.63599999999997,57.978L346.142,60.134L348.93600000000004,60.134ZM345.35,48.936C344.47,52.06,343.45799999999997,54.634,342.31399999999996,56.658L344.47,57.428C345.658,55.162,346.648,52.522,347.418,49.507999999999996L345.35,48.936ZM361.058,40.114L359.496,41.588C361.036,42.864,362.224,44.074,363.06,45.174L364.666,43.59C363.676,42.446,362.466,41.28,361.058,40.114ZM373.598,59.936L378.63599999999997,59.936L379.20799999999997,57.67C378.592,57.714,377.73400000000004,57.757999999999996,376.61199999999997,57.802C375.46799999999996,57.802,374.368,57.824,373.26800000000003,57.824C371.552,57.824,370.078,57.802,368.802,57.78C367.504,57.736000000000004,366.536,57.56,365.876,57.230000000000004C365.37,56.944,364.86400000000003,56.504000000000005,364.358,55.932L364.116,55.69L364.116,47.33L359.078,47.33L359.078,49.442L361.98199999999997,49.442L361.98199999999997,55.47C361.102,55.954,360.134,57.076,359.034,58.836L360.728,60.42C361.828,58.44,362.576,57.45,363.01599999999996,57.45C363.25800000000004,57.45,363.522,57.626000000000005,363.83000000000004,58C364.49,58.748000000000005,365.26,59.254000000000005,366.14,59.518C367.06399999999996,59.738,368.23,59.870000000000005,369.65999999999997,59.891999999999996C371.068,59.914,372.38800000000003,59.936,373.598,59.936ZM371.376,39.872L371.376,42.424L369.308,42.424C369.48400000000004,41.874,369.682,41.302,369.858,40.686L367.658,40.224000000000004C367.174,42.072,366.33799999999997,43.81,365.15,45.438L367.13,46.692C367.57,46.054,367.966,45.372,368.36199999999997,44.624L371.376,44.624L371.376,47.198L365.744,47.198L365.744,49.397999999999996L369,49.397999999999996C368.91200000000003,50.542,368.714,51.510000000000005,368.406,52.302C367.878,53.512,366.778,54.546,365.062,55.382000000000005L366.536,57.186C368.626,56.086,369.946,54.7,370.496,53.05C370.848,52.016,371.09000000000003,50.806,371.178,49.397999999999996L372.872,49.397999999999996L372.872,55.052C372.872,55.623999999999995,373.048,56.108000000000004,373.4,56.504000000000005C373.752,56.856,374.25800000000004,57.032,374.94,57.032L376.502,57.032C377.294,57.032,377.822,56.856,378.13,56.548C378.438,56.196,378.68,55.074,378.856,53.16L376.85400000000004,52.478C376.81,53.93,376.7,54.722,376.524,54.854C376.392,54.986000000000004,376.216,55.074,376.01800000000003,55.074L375.644,55.074C375.226,55.074,375.028,54.897999999999996,375.028,54.568L375.028,49.397999999999996L378.526,49.397999999999996L378.526,47.198L373.62,47.198L373.62,44.624L377.778,44.624L377.778,42.424L373.62,42.424L373.62,39.872L371.376,39.872ZM388.90999999999997,40.62L388.90999999999997,42.688L390.18600000000004,42.688C390.714,44.162,391.528,45.416,392.628,46.45C391.352,46.978,389.856,47.44,388.118,47.814L389.21799999999996,49.75C391.33000000000004,49.266,393.134,48.628,394.63,47.88C396.214,48.76,398.15,49.332,400.48199999999997,49.596000000000004L401.318,47.55C399.558,47.374,398.062,47.022,396.786,46.516C398.172,45.416,399.118,44.096000000000004,399.602,42.556L399.602,40.62L388.90999999999997,40.62ZM392.408,42.688L397.226,42.688C396.676,43.678,395.818,44.58,394.63,45.372C393.64,44.624,392.892,43.744,392.408,42.688ZM383.608,60.09C385.10400000000004,60.09,385.874,59.342,385.874,57.846000000000004L385.874,51.994C386.622,51.686,387.37,51.378,388.118,51.025999999999996L388.118,48.694C387.37,49.068,386.622,49.397999999999996,385.874,49.706L385.874,46.12L388.096,46.12L388.096,43.897999999999996L385.874,43.897999999999996L385.874,40.004L383.54200000000003,40.004L383.54200000000003,43.897999999999996L381.1,43.897999999999996L381.1,46.12L383.54200000000003,46.12L383.54200000000003,50.542C382.596,50.85,381.628,51.092,380.65999999999997,51.29L381.23199999999997,53.6C382.002,53.379999999999995,382.772,53.138000000000005,383.54200000000003,52.873999999999995L383.54200000000003,57.251999999999995C383.54200000000003,57.736000000000004,383.3,58,382.81600000000003,58C382.288,58,381.738,57.956,381.166,57.867999999999995L381.672,60.09L383.608,60.09ZM389.35,50.85L389.35,52.918L393.53,52.918L393.53,54.788L388.206,54.788L388.206,56.922L393.53,56.922L393.53,60.001999999999995L395.73,60.001999999999995L395.73,56.922L400.922,56.922L400.922,54.788L395.73,54.788L395.73,52.918L399.8,52.918L399.8,50.85L395.73,50.85L395.73,49.266L393.53,49.266L393.53,50.85L389.35,50.85ZM408.754,41.588L403.474,41.588L403.474,58.506L405.498,58.506L405.498,56.702L408.754,56.702L408.754,41.588ZM405.498,54.766L405.498,43.568L406.774,43.568L406.774,54.766L405.498,54.766ZM409.43600000000004,45.68L409.43600000000004,47.704L410.64599999999996,47.704C410.624,48.76,410.58000000000004,49.75,410.514,50.696L409.392,50.696L409.392,52.72L410.272,52.72C409.876,55.25,409.128,57.251999999999995,408.072,58.704L409.678,60.09C410.954,58.33,411.78999999999996,55.866,412.23,52.72L413.836,52.72C413.81399999999996,54.436,413.79200000000003,55.58,413.77,56.129999999999995C413.682,57.406,413.44,58.044,413,58.044C412.56,58.044,412.054,58,411.46000000000004,57.956L411.94399999999996,59.914C412.60400000000004,60.001999999999995,413.08799999999997,60.046,413.374,60.046C414.716,60.046,415.464,59.012,415.64,56.966C415.772,54.942,415.86,49.53,415.86,40.730000000000004L409.414,40.730000000000004L409.414,42.754L410.64599999999996,42.754L410.64599999999996,45.68L409.43600000000004,45.68ZM413.858,50.696L412.428,50.696C412.494,49.75,412.538,48.76,412.56,47.704L413.858,47.704L413.858,50.696ZM413.858,45.68L412.56,45.68L412.56,42.754L413.88,42.754C413.858,43.766,413.858,44.756,413.858,45.68ZM416.828,40.708L416.828,60.244L418.852,60.244L418.852,42.644L420.81,42.644C420.524,44.403999999999996,420.106,46.384,419.534,48.584C420.546,50.476,421.052,52.192,421.052,53.732C421.052,54.348,421.008,54.788,420.964,55.052C420.898,55.272,420.788,55.403999999999996,420.656,55.47C420.238,55.47,419.732,55.426,419.116,55.36L419.82,57.472C421.096,57.45,422.02,57.098,422.548,56.416C422.9,55.888000000000005,423.076,55.007999999999996,423.076,53.732C422.988,52.192,422.46,50.388,421.536,48.275999999999996C422.02,46.208,422.46,44.25,422.812,42.358L422.812,40.708L416.828,40.708ZM424.99,48.782L424.99,51.07L444.988,51.07L444.988,48.782L424.99,48.782ZM446.99,41.742L446.99,43.722L451.412,43.722L451.412,45.019999999999996L447.76,45.019999999999996L447.76,46.934L456.868,46.934L456.868,45.019999999999996L453.568,45.019999999999996L453.568,43.722L457.374,43.722L457.374,41.742L453.568,41.742L453.568,39.938L451.412,39.938L451.412,41.742L446.99,41.742ZM448.486,48.122L448.486,50.102000000000004L456.186,50.102000000000004L456.186,48.122L448.486,48.122ZM447.144,51.202L447.144,53.182L451.39,53.182L451.39,57.626000000000005C451.39,58.066,451.104,58.308,450.576,58.308C450.092,58.308,449.586,58.263999999999996,449.058,58.176L449.52,60.244L451.302,60.244C452.798,60.244,453.546,59.54,453.546,58.176L453.546,53.182L457.616,53.182L457.616,51.202L447.144,51.202ZM448.552,53.885999999999996C448.2,55.162,447.562,56.372,446.66,57.516L448.354,58.594C449.212,57.384,449.872,55.932,450.356,54.260000000000005L448.552,53.885999999999996ZM456.054,53.666L454.272,54.260000000000005C454.756,55.228,455.196,56.35,455.614,57.626000000000005L457.374,56.834C456.978,55.712,456.538,54.656,456.054,53.666ZM459.156,40.025999999999996C458.782,43.546,457.968,46.296,456.714,48.275999999999996L458.452,49.53C459.2,48.474000000000004,459.838,47.022,460.344,45.218L464.282,45.218C464.018,46.846000000000004,463.688,48.275999999999996,463.292,49.486000000000004L465.404,50.08C465.844,48.232,466.196,46.406,466.482,44.558L466.482,43.172L460.806,43.172C460.982,42.314,461.114,41.39,461.246,40.378L459.156,40.025999999999996ZM460.696,46.692C460.674,49.464,460.432,51.730000000000004,459.948,53.468C459.332,55.536,458.012,57.274,455.988,58.726L457.374,60.397999999999996C459.684,58.769999999999996,461.18,56.768,461.884,54.348C462.808,56.635999999999996,464.106,58.616,465.756,60.288L467.274,58.528C465.03,56.57,463.468,53.974000000000004,462.566,50.74C462.698,49.507999999999996,462.764,48.144,462.764,46.692L460.696,46.692ZM473.742,41.984C472.114,41.984,470.838,42.446,469.892,43.37C468.924,44.294,468.462,45.57,468.462,47.198L470.97,47.198C470.97,46.274,471.146,45.548,471.52,45.042C471.938,44.426,472.62,44.14,473.588,44.14C474.336,44.14,474.93,44.338,475.348,44.756C475.744,45.174,475.964,45.746,475.964,46.472C475.964,47.022,475.766,47.55,475.37,48.034L475.106,48.342C473.676,49.618,472.818,50.542,472.532,51.135999999999996C472.224,51.730000000000004,472.092,52.456,472.092,53.292L472.092,53.6L474.622,53.6L474.622,53.292C474.622,52.763999999999996,474.732,52.302,474.952,51.861999999999995C475.15,51.466,475.436,51.092,475.832,50.762C476.888,49.838,477.526,49.244,477.724,49.024C478.252,48.32,478.538,47.418,478.538,46.318C478.538,44.976,478.098,43.92,477.218,43.15C476.338,42.358,475.172,41.984,473.742,41.984ZM473.346,54.678C472.862,54.678,472.466,54.832,472.136,55.14C471.806,55.448,471.652,55.844,471.652,56.328C471.652,56.812,471.806,57.208,472.136,57.516C472.466,57.824,472.862,58,473.346,58C473.83,58,474.226,57.846000000000004,474.556,57.538C474.886,57.230000000000004,475.062,56.812,475.062,56.328C475.062,55.844,474.886,55.448,474.578,55.14C474.248,54.832,473.83,54.678,473.346,54.678Z" fill="#111111" fill-opacity="1"/></g></g><g><g transform="matrix(0.4999999701976776,0.866025447845459,-0.866025447845459,0.4999999701976776,31.698728543444076,-54.903807893413614)"><rect x="63.39745330810547" y="0" width="73.205078125" height="73.205078125" rx="9.999998092651367" fill="#ED8456" fill-opacity="1"/></g><g><g><ellipse cx="46.49977684020996" cy="37.49977684020996" rx="12.499776840209961" ry="12.499776840209961" fill="#FFFFFF" fill-opacity="1"/></g><g><ellipse cx="52.74966526031494" cy="34.7824342250824" rx="5.706419944763184" ry="5.978154182434082" fill="#000000" fill-opacity="1"/></g></g><g><g><ellipse cx="71.49977684020996" cy="37.49977684020996" rx="12.499776840209961" ry="12.499776840209961" fill="#FFFFFF" fill-opacity="1"/></g><g><ellipse cx="77.74966526031494" cy="34.7824342250824" rx="5.706419944763184" ry="5.978154182434082" fill="#000000" fill-opacity="1"/></g></g></g></g></svg>