<svg xmlns="http://www.w3.org/2000/svg" xmlns:xlink="http://www.w3.org/1999/xlink" fill="none" version="1.1" width="734" height="60" viewBox="0 0 734 60"><g><g><g><path d="M80,29.7899L94.9535,36.75L94.9535,48C94.9535,54.6274,100.3261,60,106.95349999999999,60L722,60C728.627,60,734,54.6274,734,48L734,12C734,5.37258,728.627,0,722,0L106.9532,0C100.32560000000001,0,94.953,5.3728,94.9532,12.0004L94.9535,22.8299L80,29.7899Z" fill="#FFFFFF" fill-opacity="1"/><path d="M81.1849,29.2384L94.9535,22.8299L94.9532,12.0004C94.953,5.3728,100.32560000000001,0,106.9532,0L722,0C728.627,0,734,5.37258,734,12L734,48C734,54.6274,728.627,60,722,60L106.95349999999999,60C100.3261,60,94.9535,54.6274,94.9535,48L94.9535,36.75L81.18489,30.3414L80,29.7899L81.1849,29.2384ZM95.9535,36.1124L82.36979,29.7899L95.9535,23.4674L95.9532,12.0003Q95.953,7.44388,99.17490000000001,4.22194Q102.3967,1,106.9532,1L722,0.999999Q726.556,0.999999,729.778,4.22182Q733,7.44364,733,12L733,48Q733,52.5564,729.778,55.7782Q726.557,59,722,59L106.95349999999999,59Q102.3971,59,99.1753,55.7782Q95.9535,52.5563,95.9535,48L95.9535,36.1124Z" fill-rule="evenodd" fill="#C2C2C2" fill-opacity="1"/></g><g><path d="M127.81,29.926000000000002L127.81,32.17L132.54,32.17L132.54,37.318L127.018,37.318L127.018,39.562L140.856,39.562L140.856,37.318L134.872,37.318L134.872,32.17L139.91,32.17L139.91,29.926000000000002L134.872,29.926000000000002L134.872,26.142L132.54,26.142L132.54,29.926000000000002L127.81,29.926000000000002ZM123.96,32.126000000000005L123.96,40.354L126.226,40.354L126.226,29.596C127.37,28.144,128.36,26.582,129.196,24.91L140.856,24.91L140.856,22.666L130.208,22.666C130.538,21.786,130.846,20.906,131.11,19.982L128.734,19.695999999999998C128.426,20.708,128.074,21.698,127.656,22.666L121.43,22.666L121.43,24.91L126.556,24.91C125.082,27.506,123.102,29.838,120.638,31.884L122.112,33.798C122.75,33.248000000000005,123.366,32.698,123.96,32.126000000000005ZM143.65,23.392C144.508,23.304000000000002,145.344,23.216,146.18,23.106L146.18,25.701999999999998L143.078,25.701999999999998L143.078,27.924L145.916,27.924C145.212,30.036,144.112,31.906,142.61599999999999,33.578L143.606,36.086C144.64,34.634,145.498,33.072,146.18,31.356L146.18,40.2L148.424,40.2L148.424,30.872C148.90800000000002,31.488,149.502,32.302,150.184,33.269999999999996L150.558,32.698L151.9,34.656C154.012,34.084,155.772,33.292,157.202,32.324L160.678,32.324C160.018,33.468,159.028,34.480000000000004,157.708,35.36C157.136,34.766,156.542,34.216,155.882,33.71L154.276,34.854L155.816,36.394C154.254,37.098,152.362,37.67,150.14,38.11L151.35,40.288C157.906,38.66,161.844,35.976,163.208,32.192L163.208,30.278L159.446,30.278C159.71,29.926000000000002,159.974,29.573999999999998,160.19400000000002,29.2L158.10399999999998,28.298000000000002C156.74,30.234,154.254,31.642,150.69,32.522L151.46,31.356C150.448,30.41,149.436,29.552,148.424,28.782L148.424,27.924L151.086,27.924L151.086,25.701999999999998L148.424,25.701999999999998L148.424,22.732C149.348,22.556,150.228,22.336,151.064,22.094L150.25,19.938C148.182,20.598,145.828,21.016,143.188,21.236L143.65,23.392ZM157.928,20.334L155.662,19.828C154.254,21.698,152.626,23.128,150.778,24.14L152.34,26.009999999999998C153.572,25.305999999999997,154.672,24.448,155.64,23.458L159.38,23.458C158.676,24.558,157.752,25.503999999999998,156.608,26.317999999999998C156.322,25.79,155.904,25.218,155.376,24.624000000000002L153.77,25.79C154.122,26.119999999999997,154.54,26.625999999999998,154.98,27.286C153.836,27.858,152.494,28.342,150.954,28.738L152.12,30.432000000000002C157.268,29.024,160.458,26.67,161.712,23.326L161.712,21.434L157.268,21.434C157.488,21.082,157.708,20.73,157.928,20.334ZM165.826,21.236L165.826,23.414L174.098,23.414L174.098,21.236L165.826,21.236ZM165.012,27.154L165.012,29.398L167.74,29.398C166.79399999999998,32.962,166.024,35.162,165.452,35.998000000000005C165.364,36.064,165.21,36.129999999999995,164.99,36.196L165.518,38.352000000000004C168.15800000000002,37.867999999999995,170.644,37.251999999999995,172.954,36.46C173.13,36.878,173.30599999999998,37.318,173.482,37.802L175.374,36.834C174.89,37.604,174.34,38.308,173.702,38.924L175.44,40.442C178.43200000000002,37.516,179.95,32.896,180.016,26.582L180.016,26.406L182.524,26.406C182.48,32.236000000000004,182.414,35.646,182.28199999999998,36.635999999999996C182.106,37.604,181.578,38.088,180.654,38.088C180.082,38.088,179.422,38.044,178.652,38L179.18,40.001999999999995C180.06,40.068,180.654,40.111999999999995,181.006,40.111999999999995C183.03,40.111999999999995,184.174,39.298,184.438,37.67C184.636,35.954,184.74599999999998,31.466,184.74599999999998,24.206L180.016,24.206L180.016,19.982L177.728,19.982L177.728,24.206L175.022,24.206L175.022,26.406L177.728,26.406L177.728,26.582C177.684,30.762,176.936,34.15,175.462,36.702C174.538,34.501999999999995,173.57,32.5,172.602,30.695999999999998L170.688,31.62C171.172,32.544,171.656,33.512,172.14,34.568C170.798,35.052,169.434,35.47,168.048,35.778C168.598,34.370000000000005,169.236,32.257999999999996,169.962,29.398L174.89,29.398L174.89,27.154L165.012,27.154ZM186.858,23.369999999999997L186.858,25.526L193.986,25.526L193.986,23.369999999999997L191.632,23.369999999999997C191.368,22.182000000000002,191.10399999999998,21.126,190.84,20.201999999999998L188.55200000000002,20.576C188.882,21.434,189.19,22.358,189.454,23.369999999999997L186.858,23.369999999999997ZM189.19,26.428L187.298,27.044C187.69400000000002,29.728,188.046,32.5,188.31,35.403999999999996L190.136,34.964C189.85,31.752,189.542,28.892,189.19,26.428ZM193.876,34.986000000000004L192.446,35.448C192.886,32.72,193.238,29.75,193.48000000000002,26.538L191.434,26.252000000000002C191.236,29.683999999999997,190.928,32.918,190.53199999999998,35.998000000000005C189.3,36.306,188.046,36.57,186.76999999999998,36.768L187.364,39.012C189.674,38.506,191.852,37.89,193.876,37.186L193.876,34.986000000000004ZM203.886,23.942L201.686,23.942L201.686,19.982L199.442,19.982L199.442,23.942L197.308,23.942L197.308,20.84L195.108,20.84L195.108,25.944000000000003L206.064,25.944000000000003L206.064,20.84L203.886,20.84L203.886,23.942ZM194.404,27.198L194.404,29.310000000000002L199.156,29.310000000000002C199.046,29.816000000000003,198.914,30.322,198.738,30.828L194.822,30.828L194.822,40.2L196.89,40.2L196.89,32.852000000000004L198.166,32.852000000000004L198.166,39.826L200.058,39.826L200.058,32.852000000000004L201.224,32.852000000000004L201.224,39.804L203.11599999999999,39.804L203.11599999999999,32.852000000000004L204.458,32.852000000000004L204.458,37.867999999999995C204.458,38.11,204.348,38.242000000000004,204.172,38.242000000000004L203.292,38.176L203.84199999999998,40.2L204.832,40.2C205.93200000000002,40.2,206.482,39.562,206.482,38.286L206.482,30.828L200.982,30.828C201.15800000000002,30.344,201.29000000000002,29.838,201.422,29.310000000000002L206.922,29.310000000000002L206.922,27.198L194.404,27.198ZM211.784,20.224L210.22199999999998,21.72C211.74,22.864,212.928,23.964,213.786,24.976L215.348,23.392C214.38,22.336,213.192,21.28,211.784,20.224ZM208.858,26.472L208.858,28.672L211.696,28.672L211.696,36.394C211.696,36.878,211.498,37.296,211.124,37.626000000000005L212.00400000000002,39.694C213.632,38.638000000000005,215.172,37.472,216.624,36.152L215.986,33.732C215.26,34.414,214.578,35.03,213.94,35.602000000000004L213.94,26.472L208.858,26.472ZM216.73399999999998,29.112000000000002L216.73399999999998,31.312L217.988,31.312C218.51600000000002,33.028,219.506,34.568,220.914,35.976C219.32999999999998,36.988,217.416,37.824,215.15,38.484L216.426,40.42C218.934,39.694,221.024,38.726,222.74,37.516C224.192,38.594,226.018,39.562,228.174,40.442L229.406,38.462C227.44799999999998,37.78,225.798,37.010000000000005,224.434,36.129999999999995C225.84199999999998,34.744,226.85399999999998,33.094,227.47,31.202L227.47,29.112000000000002L216.73399999999998,29.112000000000002ZM220.144,31.312L225.16,31.312C224.54399999999998,32.588,223.686,33.71,222.564,34.722C221.42000000000002,33.71,220.628,32.566,220.144,31.312ZM218.23000000000002,20.598L218.23000000000002,23.59C218.23000000000002,25.02,217.284,26.119999999999997,215.436,26.89L216.976,28.65C219.308,27.418,220.49599999999998,25.636,220.49599999999998,23.348L220.49599999999998,22.753999999999998L223.88400000000001,22.753999999999998L223.88400000000001,25.68C223.88400000000001,27.22,224.69799999999998,27.990000000000002,226.348,27.990000000000002L228.856,27.990000000000002L228.856,25.9L226.964,25.9C226.414,25.9,226.15,25.636,226.15,25.152L226.15,20.598L218.23000000000002,20.598ZM237.788,26.274L237.788,28.561999999999998L243.464,28.561999999999998L243.464,40.354L245.84,40.354L245.84,28.561999999999998L251.23,28.561999999999998L251.23,26.274L245.84,26.274L245.84,19.894L243.464,19.894L243.464,26.274L237.788,26.274ZM233.916,20.07L232.288,21.654C233.85,22.798000000000002,235.06,23.875999999999998,235.89600000000002,24.887999999999998L237.48000000000002,23.282C236.49,22.226,235.30200000000002,21.148,233.916,20.07ZM230.858,26.428L230.858,28.628L233.872,28.628L233.872,36.438C233.872,36.9,233.674,37.296,233.27800000000002,37.626000000000005L234.15800000000002,39.694C235.786,38.638000000000005,237.304,37.45,238.73399999999998,36.129999999999995L238.14,33.775999999999996C237.414,34.458,236.732,35.074,236.094,35.623999999999995L236.094,26.428L230.858,26.428ZM261.812,19.828L261.812,23.59L254.024,23.59L254.024,34.326L256.334,34.326L256.334,33.116L261.812,33.116L261.812,40.464L264.188,40.464L264.188,33.116L269.688,33.116L269.688,34.326L271.998,34.326L271.998,23.59L264.188,23.59L264.188,19.828L261.812,19.828ZM256.334,30.872L256.334,25.834L261.812,25.834L261.812,30.872L256.334,30.872ZM264.188,30.872L264.188,25.834L269.688,25.834L269.688,30.872L264.188,30.872ZM278.26800000000003,34.678C277.71799999999996,34.678,277.278,34.832,276.948,35.162C276.596,35.47,276.41999999999996,35.888000000000005,276.41999999999996,36.416C276.41999999999996,36.9,276.574,37.318,276.904,37.647999999999996C277.23400000000004,37.978,277.63,38.153999999999996,278.11400000000003,38.153999999999996C278.356,38.153999999999996,278.53200000000004,38.11,278.664,38.066C278.664,38.594,278.488,39.1,278.092,39.628C277.674,40.111999999999995,277.168,40.464,276.574,40.684L276.574,42.135999999999996C277.71799999999996,41.806,278.642,41.212,279.324,40.354C279.98400000000004,39.474000000000004,280.336,38.462,280.336,37.296C280.336,36.525999999999996,280.13800000000003,35.888000000000005,279.764,35.403999999999996C279.368,34.92,278.86199999999997,34.678,278.26800000000003,34.678ZM303.19399999999996,20.026L301.082,21.038C301.852,21.984,302.578,23.061999999999998,303.28200000000004,24.25L298.706,24.25L298.706,26.494L305.834,26.494L305.834,27.022C305.78999999999996,28.034,305.68,29.002000000000002,305.504,29.881999999999998L297.452,29.881999999999998L297.452,32.126000000000005L304.844,32.126000000000005C304.58000000000004,32.786,304.25,33.402,303.876,33.974000000000004C302.688,35.623999999999995,300.422,37.010000000000005,297.034,38.11L298.288,40.111999999999995C301.676,39.056,304.118,37.538,305.61400000000003,35.558C306.142,34.81,306.60400000000004,33.952,307,33.028C308.298,36.042,311.202,38.484,315.73400000000004,40.332L317.098,38.153999999999996C312.74199999999996,36.658,310.014,34.656,308.95799999999997,32.126000000000005L316.548,32.126000000000005L316.548,29.881999999999998L307.858,29.881999999999998C308.012,29.002000000000002,308.122,28.034,308.166,27.022L308.166,26.494L315.272,26.494L315.272,24.25L311.202,24.25C311.884,23.128,312.456,21.874,312.94,20.488L310.696,19.872C310.102,21.544,309.41999999999996,23.018,308.628,24.25L304.294,24.25L305.57,23.612000000000002C304.8,22.314,304.00800000000004,21.126,303.19399999999996,20.026ZM320.552,20.62L320.552,22.864L328.03200000000004,22.864L328.03200000000004,27.968L319.188,27.968L319.188,30.256L328.03200000000004,30.256L328.03200000000004,37.054C328.03200000000004,37.647999999999996,327.702,37.956,327.04200000000003,37.956C326.03,37.956,324.952,37.912,323.83000000000004,37.824L324.31399999999996,40.046L327.834,40.046C329.506,40.046,330.342,39.232,330.342,37.647999999999996L330.342,30.256L338.812,30.256L338.812,27.968L330.342,27.968L330.342,22.864L337.294,22.864L337.294,20.62L320.552,20.62ZM360.526,22.204L355.53200000000004,22.204C355.26800000000003,21.28,355.004,20.444,354.74,19.695999999999998L352.38599999999997,20.092C352.69399999999996,20.73,352.98,21.434,353.222,22.204L348.49199999999996,22.204L348.49199999999996,26.956L350.66999999999996,26.956L350.66999999999996,24.294L358.326,24.294L358.326,26.868000000000002L360.526,26.868000000000002L360.526,22.204ZM352.32,25.305999999999997C352.05600000000004,26.406,351.77,27.506,351.44,28.561999999999998L348.074,28.561999999999998L348.074,30.740000000000002L350.66999999999996,30.740000000000002C350.23,31.884,349.724,32.984,349.196,34.04C350.51599999999996,34.744,351.77,35.448,352.93600000000004,36.108000000000004C351.506,37.010000000000005,349.57,37.736000000000004,347.106,38.286L348.03,40.464C351.198,39.694,353.574,38.682,355.158,37.406C356.962,38.506,358.48,39.495999999999995,359.69,40.376000000000005L361.252,38.572C360.06399999999996,37.736000000000004,358.546,36.812,356.654,35.8C357.666,34.414,358.348,32.72,358.7,30.740000000000002L361.12,30.740000000000002L361.12,28.561999999999998L353.772,28.561999999999998C354.036,27.637999999999998,354.322,26.625999999999998,354.586,25.526L352.32,25.305999999999997ZM356.5,30.740000000000002C356.148,32.324,355.51,33.644,354.608,34.7C353.772,34.238,352.848,33.775999999999996,351.88,33.292C352.276,32.566,352.65,31.708,353.024,30.740000000000002L356.5,30.740000000000002ZM343.52,40.09C344.994,40.09,345.74199999999996,39.342,345.74199999999996,37.846000000000004L345.74199999999996,31.862C346.31399999999996,31.598,346.908,31.312,347.48,31.026L347.48,28.694000000000003C346.908,29.002000000000002,346.31399999999996,29.310000000000002,345.74199999999996,29.573999999999998L345.74199999999996,26.119999999999997L347.568,26.119999999999997L347.568,23.898L345.74199999999996,23.898L345.74199999999996,20.003999999999998L343.40999999999997,20.003999999999998L343.40999999999997,23.898L341.078,23.898L341.078,26.119999999999997L343.40999999999997,26.119999999999997L343.40999999999997,30.52C342.486,30.828,341.562,31.07,340.616,31.29L341.21000000000004,33.6C341.93600000000004,33.358000000000004,342.66200000000003,33.094,343.40999999999997,32.83L343.40999999999997,37.251999999999995C343.40999999999997,37.736000000000004,343.168,38,342.728,38C342.222,38,341.69399999999996,37.956,341.144,37.867999999999995L341.65,40.09L343.52,40.09ZM379.886,22.82L379.622,28.65L376.3,28.65L376.828,22.82L379.886,22.82ZM374.05600000000004,28.65L371.592,28.65L371.592,30.872L373.858,30.872L373.286,37.494L371.152,37.494L370.822,35.844C370.052,36.35,369.26,36.768,368.46799999999996,37.120000000000005L368.46799999999996,32.873999999999995L371.24,32.873999999999995L371.24,30.762L368.46799999999996,30.762L368.46799999999996,28.694000000000003L370.49199999999996,28.694000000000003L370.49199999999996,26.648L365.432,26.648C365.784,25.944000000000003,366.13599999999997,25.174,366.466,24.338L370.866,24.338L370.866,22.204L367.214,22.204C367.39,21.631999999999998,367.544,21.06,367.698,20.444L365.498,19.982C364.948,22.490000000000002,364.002,24.866,362.63800000000003,27.088L364.50800000000004,28.253999999999998C364.728,27.902,364.948,27.528,365.168,27.131999999999998L365.168,28.694000000000003L366.224,28.694000000000003L366.224,30.762L363.452,30.762L363.452,32.873999999999995L366.224,32.873999999999995L366.224,36.856C366.224,37.296,365.938,37.626000000000005,365.38800000000003,37.867999999999995L366.334,39.826C368.006,39.342,369.502,38.769999999999996,370.822,38.066L370.822,39.716L383.23,39.716L383.23,37.494L381.492,37.494L382.24,20.664L372.054,20.664L372.054,22.82L374.584,22.82L374.05600000000004,28.65ZM375.50800000000004,37.494L376.102,30.872L379.512,30.872L379.204,37.494L375.50800000000004,37.494ZM393.174,23.502000000000002L389.83,23.502000000000002C390.226,22.490000000000002,390.556,21.368000000000002,390.798,20.18L388.488,19.872C388.312,21.126,388.026,22.336,387.63,23.502000000000002L385.518,23.502000000000002L385.518,39.562L387.718,39.562L387.718,37.824L390.974,37.824L390.974,38.924L393.174,38.924L393.174,23.502000000000002ZM387.718,35.712L387.718,31.554L390.974,31.554L390.974,35.712L387.718,35.712ZM387.718,29.508L387.718,25.658L390.974,25.658L390.974,29.508L387.718,29.508ZM397.178,28.848L395.308,30.014C396.672,31.774,397.772,33.379999999999995,398.586,34.832L400.434,33.556C399.664,32.192,398.586,30.630000000000003,397.178,28.848ZM404.504,23.502000000000002L397.816,23.502000000000002C398.146,22.445999999999998,398.432,21.323999999999998,398.652,20.136L396.386,19.85C395.858,22.864,394.89,25.416,393.438,27.484L394.824,29.310000000000002C395.638,28.253999999999998,396.342,27.066000000000003,396.936,25.746000000000002L402.26,25.746000000000002C402.216,31.972,402.15,35.602000000000004,402.018,36.658C401.886,37.516,401.424,37.956,400.632,37.956C399.906,37.956,399.048,37.912,398.08,37.846000000000004L398.63,39.936C399.774,40.024,400.566,40.068,401.006,40.068C402.898,40.068,403.954,39.298,404.174,37.757999999999996C404.394,35.954,404.504,31.202,404.504,23.502000000000002ZM407.254,25.46L407.254,27.704L415.196,27.704C414.008,32.742000000000004,411.192,36.35,406.748,38.506L408.222,40.442C412.622,38.132000000000005,415.57,34.524,417.066,29.618000000000002C418.738,34.15,421.664,37.692,425.8,40.244L427.252,38.352000000000004C422.962,35.844,420.036,32.302,418.452,27.704L426.746,27.704L426.746,25.46L417.924,25.46C418.078,24.183999999999997,418.166,22.82,418.166,21.39L418.166,19.938L415.834,19.938L415.834,21.918C415.812,23.15,415.724,24.316000000000003,415.592,25.46L407.254,25.46ZM437.724,40.046C439.594,40.046,440.54,39.056,440.54,37.120000000000005L440.54,20.268L438.142,20.268L438.142,36.504000000000005C438.142,37.384,437.702,37.824,436.844,37.824C435.964,37.824,435.018,37.757999999999996,434.006,37.647999999999996L434.556,40.046L437.724,40.046ZM432.202,25.372C431.432,29.134,430.222,32.147999999999996,428.572,34.414L430.596,36.196C432.224,33.908,433.522,30.586,434.512,26.274L432.202,25.372ZM445.776,24.8L443.664,26.119999999999997C445.16,29.86,446.348,33.269999999999996,447.228,36.328L449.318,34.876000000000005C448.482,32.016,447.294,28.65,445.776,24.8ZM454.268,34.678C453.718,34.678,453.278,34.832,452.948,35.162C452.596,35.47,452.42,35.888000000000005,452.42,36.416C452.42,36.9,452.574,37.318,452.904,37.647999999999996C453.234,37.978,453.63,38.153999999999996,454.114,38.153999999999996C454.356,38.153999999999996,454.532,38.11,454.664,38.066C454.664,38.594,454.488,39.1,454.092,39.628C453.674,40.111999999999995,453.168,40.464,452.574,40.684L452.574,42.135999999999996C453.718,41.806,454.642,41.212,455.324,40.354C455.984,39.474000000000004,456.336,38.462,456.336,37.296C456.336,36.525999999999996,456.138,35.888000000000005,455.764,35.403999999999996C455.368,34.92,454.862,34.678,454.268,34.678ZM480.734,22.182000000000002L478.798,23.392C480.602,25.68,482.032,27.77,483.088,29.64L485.046,28.298000000000002C484.034,26.560000000000002,482.604,24.514,480.734,22.182000000000002ZM487.928,33.754000000000005C489.402,35.866,490.59,37.89,491.492,39.804L493.296,38.022C492.086,35.866,490.634,33.688,488.962,31.532C489.05,31.268,489.116,31.026,489.204,30.762C490.128,27.836,490.59,24.272,490.59,20.092L488.214,20.092C488.17,24.272,487.73,27.66,486.872,30.3C485.772,33.402,483.396,36.019999999999996,479.744,38.176L481.306,40.068C484.298,38.286,486.52,36.174,487.928,33.754000000000005ZM474.618,38.153999999999996C477.302,37.186,479.81,36.042,482.164,34.722L481.504,32.478C479.986,33.402,478.468,34.172,476.928,34.81L476.928,20.312L474.552,20.312L474.552,34.304C474.552,35.007999999999996,474.31,35.58,473.848,35.976L474.618,38.153999999999996ZM495.122,20.884L495.122,23.128L503.262,23.128L503.262,40.288L505.572,40.288L505.572,28.276C507.376,29.2,509.62,30.542,512.326,32.257999999999996L513.712,30.189999999999998C510.962,28.561999999999998,508.256,27.088,505.572,25.811999999999998L505.572,23.128L514.856,23.128L514.856,20.884L495.122,20.884ZM522.754,21.588L517.4739999999999,21.588L517.4739999999999,38.506L519.498,38.506L519.498,36.702L522.754,36.702L522.754,21.588ZM519.498,34.766L519.498,23.567999999999998L520.774,23.567999999999998L520.774,34.766L519.498,34.766ZM523.4359999999999,25.68L523.4359999999999,27.704L524.646,27.704C524.624,28.759999999999998,524.5799999999999,29.75,524.514,30.695999999999998L523.392,30.695999999999998L523.392,32.72L524.2719999999999,32.72C523.876,35.25,523.1279999999999,37.251999999999995,522.072,38.704L523.678,40.09C524.954,38.33,525.79,35.866,526.23,32.72L527.836,32.72C527.8140000000001,34.436,527.7919999999999,35.58,527.77,36.129999999999995C527.682,37.406,527.44,38.044,527,38.044C526.56,38.044,526.054,38,525.46,37.956L525.944,39.914C526.604,40.001999999999995,527.088,40.046,527.374,40.046C528.716,40.046,529.4639999999999,39.012,529.64,36.966C529.7719999999999,34.942,529.86,29.53,529.86,20.73L523.414,20.73L523.414,22.753999999999998L524.646,22.753999999999998L524.646,25.68L523.4359999999999,25.68ZM527.858,30.695999999999998L526.428,30.695999999999998C526.494,29.75,526.538,28.759999999999998,526.56,27.704L527.858,27.704L527.858,30.695999999999998ZM527.858,25.68L526.56,25.68L526.56,22.753999999999998L527.88,22.753999999999998C527.858,23.766,527.858,24.756,527.858,25.68ZM530.828,20.708L530.828,40.244L532.852,40.244L532.852,22.644L534.81,22.644C534.524,24.404,534.106,26.384,533.534,28.584C534.546,30.476,535.052,32.192,535.052,33.732C535.052,34.348,535.008,34.788,534.9639999999999,35.052C534.898,35.272,534.788,35.403999999999996,534.656,35.47C534.238,35.47,533.732,35.426,533.116,35.36L533.8199999999999,37.472C535.096,37.45,536.02,37.098,536.548,36.416C536.9,35.888000000000005,537.076,35.007999999999996,537.076,33.732C536.988,32.192,536.46,30.387999999999998,535.5360000000001,28.276C536.02,26.208,536.46,24.25,536.812,22.358L536.812,20.708L530.828,20.708ZM551.97,20.003999999999998L551.97,23.656L547.8340000000001,23.656L547.8340000000001,34.04L550.034,34.04L550.034,33.116L551.97,33.116L551.97,40.31L554.28,40.31L554.28,33.116L556.2819999999999,33.116L556.2819999999999,34.04L558.5260000000001,34.04L558.5260000000001,23.656L554.28,23.656L554.28,20.003999999999998L551.97,20.003999999999998ZM550.034,31.004L550.034,25.811999999999998L551.97,25.811999999999998L551.97,31.004L550.034,31.004ZM554.28,31.004L554.28,25.811999999999998L556.2819999999999,25.811999999999998L556.2819999999999,31.004L554.28,31.004ZM539.606,23.392C540.486,23.304000000000002,541.344,23.194000000000003,542.1800000000001,23.084L542.1800000000001,25.701999999999998L539.034,25.701999999999998L539.034,27.924L541.9159999999999,27.924C541.212,30.058,540.0899999999999,31.972,538.594,33.666L539.562,36.086C540.6179999999999,34.611999999999995,541.476,33.006,542.1800000000001,31.246L542.1800000000001,40.288L544.424,40.288L544.424,30.828C544.9300000000001,31.576,545.524,32.5,546.2280000000001,33.622L547.5260000000001,31.664C546.47,30.586,545.4359999999999,29.596,544.424,28.716L544.424,27.924L547.02,27.924L547.02,25.701999999999998L544.424,25.701999999999998L544.424,22.71C545.348,22.534,546.2280000000001,22.314,547.0640000000001,22.094L546.25,19.982C544.1600000000001,20.642,541.784,21.06,539.144,21.28L539.606,23.392ZM574.476,28.869999999999997C574.784,30.982,575.312,32.918,576.082,34.678C575.202,36.306,574.058,37.626000000000005,572.606,38.594L573.948,40.354C575.2239999999999,39.43,576.3240000000001,38.286,577.226,36.9C577.9300000000001,38.088,578.788,39.188,579.8,40.2L581.384,38.682C580.174,37.538,579.162,36.239999999999995,578.348,34.766C579.448,32.214,580.0419999999999,29.024,580.13,25.240000000000002L580.988,25.240000000000002L580.988,23.106L576.456,23.106C576.6320000000001,22.314,576.764,21.478,576.896,20.598L574.762,20.224C574.366,23.656,573.5740000000001,26.406,572.408,28.451999999999998L573.75,30.08C573.992,29.706,574.2339999999999,29.310000000000002,574.476,28.869999999999997ZM577.1379999999999,32.082C576.434,30.102,576.0160000000001,27.858,575.884,25.394L575.928,25.240000000000002L578.1279999999999,25.240000000000002C578.0840000000001,27.836,577.754,30.102,577.1379999999999,32.082ZM564.8620000000001,20.003999999999998C563.938,23.282,562.508,26.119999999999997,560.594,28.54L561.364,31.004C561.9359999999999,30.344,562.4639999999999,29.662,562.992,28.958L562.992,40.376000000000005L565.2139999999999,40.376000000000005L565.2139999999999,25.328C565.918,23.964,566.49,22.512,566.9300000000001,20.972L564.8620000000001,20.003999999999998ZM573.024,29.86L570.736,29.86L570.736,26.186L573.354,26.186L573.354,24.096L570.736,24.096L570.736,20.246000000000002L568.558,20.246000000000002L568.558,24.096L565.962,24.096L565.962,26.186L568.558,26.186L568.558,29.86L566.3140000000001,29.86L566.3140000000001,39.166L568.47,39.166L568.47,37.912L573.024,37.912L573.024,29.86ZM568.47,35.91L568.47,31.906L570.8679999999999,31.906L570.8679999999999,35.91L568.47,35.91ZM594.452,19.982L594.452,23.238L589.48,23.238L589.48,25.46L594.452,25.46L594.452,28.869999999999997L588.424,28.869999999999997L588.424,31.114L593.1759999999999,31.114C591.6800000000001,34.634,590.448,36.79,589.524,37.626000000000005C589.414,37.692,589.26,37.757999999999996,589.04,37.824L589.546,39.826C593.374,39.452,596.9159999999999,38.946,600.194,38.286C600.4580000000001,38.946,600.744,39.65,601.03,40.397999999999996L603.2080000000001,39.43C602.24,36.922,601.1179999999999,34.59,599.842,32.39L597.62,33.138000000000005C598.192,34.106,598.742,35.14,599.2919999999999,36.284C597.0260000000001,36.745999999999995,594.738,37.120000000000005,592.45,37.384C593.374,36.019999999999996,594.452,33.93,595.64,31.114L602.768,31.114L602.768,28.869999999999997L596.784,28.869999999999997L596.784,25.46L602.196,25.46L602.196,23.238L596.784,23.238L596.784,19.982L594.452,19.982ZM585.0799999999999,20.114L583.4300000000001,21.698C584.992,22.886,586.202,23.986,587.038,25.02L588.6659999999999,23.369999999999997C587.6759999999999,22.292,586.488,21.214,585.0799999999999,20.114ZM584.53,25.262L582.902,26.846C584.332,28.055999999999997,585.432,29.178,586.202,30.189999999999998L587.852,28.561999999999998C586.928,27.462,585.828,26.362000000000002,584.53,25.262ZM586.51,31.488C585.5640000000001,34.084,584.442,36.635999999999996,583.144,39.1L585.454,40.111999999999995C586.598,37.692,587.654,35.096000000000004,588.6,32.346000000000004L586.51,31.488ZM605.4300000000001,20.62L605.4300000000001,22.776L613.856,22.776L613.856,24.118000000000002L607.2339999999999,24.118000000000002L607.2339999999999,33.314L613.46,33.314C613.284,34.084,612.998,34.766,612.624,35.338C611.546,34.788,610.556,34.172,609.6759999999999,33.489999999999995L607.9159999999999,34.7C608.8620000000001,35.492000000000004,609.896,36.196,611.018,36.812C609.61,37.626000000000005,607.5419999999999,38.11,604.8140000000001,38.242000000000004L605.826,40.354C609.2139999999999,39.980000000000004,611.722,39.188,613.306,37.956C616.54,39.364000000000004,620.346,40.178,624.7239999999999,40.376000000000005L625.318,38.153999999999996C621.27,38.022,617.7719999999999,37.406,614.78,36.262C615.242,35.47,615.594,34.480000000000004,615.8140000000001,33.314L622.81,33.314L622.81,24.118000000000002L616.144,24.118000000000002L616.144,22.776L624.592,22.776L624.592,20.62L605.4300000000001,20.62ZM620.544,31.312L616.078,31.312L616.144,30.058L616.144,29.64L620.544,29.64L620.544,31.312ZM613.79,31.312L609.5219999999999,31.312L609.5219999999999,29.64L613.856,29.64L613.856,30.058C613.856,30.476,613.8340000000001,30.894,613.79,31.312ZM609.5219999999999,27.77L609.5219999999999,26.098L613.856,26.098L613.856,27.77L609.5219999999999,27.77ZM616.144,26.098L620.544,26.098L620.544,27.77L616.144,27.77L616.144,26.098ZM630.356,20.422L628.6179999999999,21.676000000000002C629.806,22.908,630.774,24.052,631.5,25.064L633.304,23.832C632.6,22.842,631.6320000000001,21.698,630.356,20.422ZM638.32,29.662L636.472,30.828C637.836,32.5,638.936,34.018,639.75,35.382000000000005L641.774,33.974000000000004C640.96,32.742000000000004,639.816,31.312,638.32,29.662ZM634.69,19.916L634.69,23.238C634.668,23.875999999999998,634.624,24.514,634.58,25.152L627.76,25.152L627.76,27.396L634.338,27.396C634.052,29.375999999999998,633.59,31.092,632.974,32.566C631.94,34.81,629.96,36.68,627.012,38.176L628.31,40.222C631.28,38.836,633.414,36.856,634.712,34.304C635.636,32.456,636.274,30.146,636.648,27.396L643.468,27.396C643.468,29.992,643.402,32.412,643.27,34.611999999999995C643.138,36.812,642.61,37.956,641.708,38.044C640.674,38.044,639.53,37.956,638.298,37.824L638.914,40.046C639.706,40.134,640.674,40.178,641.818,40.178C643.314,40.178,644.37,39.275999999999996,644.964,37.516C645.536,35.756,645.822,31.62,645.822,25.152L636.868,25.152C636.912,24.536,636.934,23.898,636.956,23.238L636.956,19.916L634.69,19.916ZM658.164,19.872C655.612,22.776,652.422,25.218,648.572,27.176000000000002L649.804,29.42C650.992,28.759999999999998,652.114,28.055999999999997,653.17,27.33L653.17,28.869999999999997L664.83,28.869999999999997L664.83,27.352C665.842,28.078,666.942,28.759999999999998,668.108,29.375999999999998L669.362,27.154C665.754,25.394,662.586,22.951999999999998,659.836,19.872L658.164,19.872ZM654.116,26.648C655.986,25.240000000000002,657.614,23.678,659,21.962C660.43,23.7,662.058,25.262,663.862,26.648L654.116,26.648ZM666.26,31.026L651.74,31.026L651.74,40.266L653.962,40.266L653.962,39.144L664.038,39.144L664.038,40.266L666.26,40.266L666.26,31.026ZM653.962,36.966L653.962,33.182L664.038,33.182L664.038,36.966L653.962,36.966ZM673.08,20.092L671.496,21.61C673.08,22.886,674.312,24.073999999999998,675.192,25.174L676.776,23.59C675.764,22.424,674.532,21.258,673.08,20.092ZM685.598,39.826L690.68,39.826L691.186,37.757999999999996C690.57,37.802,689.712,37.824,688.612,37.846000000000004C687.49,37.867999999999995,686.39,37.89,685.29,37.89C683.574,37.89,682.078,37.867999999999995,680.802,37.846000000000004C679.504,37.802,678.536,37.604,677.898,37.274C677.37,36.988,676.864,36.548,676.358,35.932L676.116,35.69L676.116,27.33L671.078,27.33L671.078,29.442L673.982,29.442L673.982,35.47C673.102,35.954,672.134,37.076,671.034,38.836L672.728,40.42C673.828,38.44,674.576,37.45,675.016,37.45C675.258,37.45,675.522,37.626000000000005,675.83,37.978C676.49,38.682,677.26,39.166,678.14,39.43C679.064,39.65,680.23,39.760000000000005,681.66,39.782C683.068,39.804,684.388,39.826,685.598,39.826ZM677.436,25.724L677.436,27.814L682.914,27.814L682.914,29.904L678.734,29.904L678.734,36.635999999999996L689.294,36.635999999999996L689.294,29.904L685.114,29.904L685.114,27.814L690.636,27.814L690.636,25.724L685.114,25.724L685.114,23.106C686.918,22.798000000000002,688.524,22.336,689.932,21.742L688.876,19.938C685.752,21.038,681.924,21.61,677.392,21.61L678.052,23.656C679.768,23.656,681.396,23.567999999999998,682.914,23.414L682.914,25.724L677.436,25.724ZM687.138,34.656L680.868,34.656L680.868,31.884L687.138,31.884L687.138,34.656ZM697.742,21.984C696.114,21.984,694.838,22.445999999999998,693.892,23.369999999999997C692.924,24.294,692.462,25.57,692.462,27.198L694.97,27.198C694.97,26.274,695.146,25.548000000000002,695.52,25.042C695.938,24.426000000000002,696.62,24.14,697.588,24.14C698.336,24.14,698.93,24.338,699.348,24.756C699.744,25.174,699.964,25.746000000000002,699.964,26.472C699.964,27.022,699.766,27.55,699.37,28.034L699.106,28.342C697.676,29.618000000000002,696.818,30.542,696.532,31.136C696.224,31.73,696.092,32.456,696.092,33.292L696.092,33.6L698.622,33.6L698.622,33.292C698.622,32.763999999999996,698.732,32.302,698.952,31.862C699.15,31.466,699.436,31.092,699.832,30.762C700.888,29.838,701.526,29.244,701.724,29.024C702.252,28.32,702.538,27.418,702.538,26.317999999999998C702.538,24.976,702.098,23.92,701.218,23.15C700.338,22.358,699.172,21.984,697.742,21.984ZM697.346,34.678C696.862,34.678,696.466,34.832,696.136,35.14C695.806,35.448,695.652,35.844,695.652,36.328C695.652,36.812,695.806,37.208,696.136,37.516C696.466,37.824,696.862,38,697.346,38C697.83,38,698.226,37.846000000000004,698.556,37.538C698.886,37.230000000000004,699.062,36.812,699.062,36.328C699.062,35.844,698.886,35.448,698.578,35.14C698.248,34.832,697.83,34.678,697.346,34.678Z" fill="#111111" fill-opacity="1"/></g></g><g><g transform="matrix(0.4999999701976776,0.866025447845459,-0.866025447845459,0.4999999701976776,19.019238651945443,-32.942287378948095)"><rect x="38.038475036621094" y="0" width="43.92304992675781" height="43.92304992675781" rx="5.999999046325684" fill="#ED8456" fill-opacity="1"/></g><g><g><ellipse cx="27.89986801147461" cy="22.49986743927002" rx="7.499866485595703" ry="7.499866485595703" fill="#FFFFFF" fill-opacity="1"/></g><g><ellipse cx="31.649801015853882" cy="20.86946177482605" rx="3.4238522052764893" ry="3.586892604827881" fill="#000000" fill-opacity="1"/></g></g><g><g><ellipse cx="42.89986801147461" cy="22.49986743927002" rx="7.499866485595703" ry="7.499866485595703" fill="#FFFFFF" fill-opacity="1"/></g><g><ellipse cx="46.64980101585388" cy="20.86946177482605" rx="3.4238522052764893" ry="3.586892604827881" fill="#000000" fill-opacity="1"/></g></g></g></g></svg>