<svg xmlns="http://www.w3.org/2000/svg" xmlns:xlink="http://www.w3.org/1999/xlink" fill="none" version="1.1" width="335.5" height="60" viewBox="0 0 335.5 60"><g><g><g><path d="M90,29.7899L99.0544,36.75L99.0544,48C99.0544,54.6274,104.42699999999999,60,111.0544,60L323.5,60C330.127,60,335.5,54.6274,335.5,48L335.5,12C335.5,5.37258,330.127,0,323.5,0L111.05420000000001,0C104.4267,0,99.05408,5.37272,99.0542,12.0002L99.0544,22.8299L90,29.7899Z" fill="#FFFFFF" fill-opacity="1"/><path d="M90.820421,29.1592L99.0544,22.8299L99.0542,12.0002C99.05408,5.37272,104.4267,0,111.05420000000001,0L323.5,0C330.127,0,335.5,5.37258,335.5,12L335.5,48C335.5,54.6274,330.127,60,323.5,60L111.0544,60C104.42699999999999,60,99.0544,54.6274,99.0544,48L99.0544,36.75L90.820418,30.4205L90,29.7899L90.820421,29.1592ZM100.0544,36.2574L91.64084,29.7899L100.0544,23.3225L100.0542,12.0002Q100.0541,7.44379,103.276,4.2219Q106.4978,1,111.05420000000001,1L323.5,0.999999Q328.05600000000004,1,331.278,4.22183Q334.5,7.44364,334.5,12L334.5,48Q334.5,52.5564,331.278,55.7782Q328.05600000000004,59,323.5,59L111.0544,59Q106.498,59,103.2762,55.7782Q100.0544,52.5564,100.0544,48L100.0544,36.2574Z" fill-rule="evenodd" fill="#C2C2C2" fill-opacity="1"/></g><g><path d="M136.04,20.16L136.04,34.4C135.44,34.519999999999996,134.8,34.66,134.16,34.8L134.16,23.52L132.1,23.52L132.1,35.16L130.58,35.4L130.88,37.519999999999996C134.62,36.94,137.96,36.16,140.88,35.2L140.88,33.1C140,33.379999999999995,139.06,33.64,138.1,33.9L138.1,27.82L140.86,27.82L140.86,25.8L138.1,25.8L138.1,20.16L136.04,20.16ZM148,23.18C146.68,24.32,145.24,25.28,143.66,26.08L143.66,19.82L141.54,19.82L141.54,35C141.54,36.6,142.32,37.42,143.88,37.42L146.18,37.42C147.1,37.42,147.8,37.18,148.26,36.72C148.74,36.22,149.06,34.66,149.26,32.06L147.28,31.44C147.2,33.36,147.02,34.5,146.78,34.879999999999995C146.56,35.239999999999995,146.22,35.42,145.78,35.42L144.56,35.42C143.96,35.42,143.66,35.120000000000005,143.66,34.54L143.66,28.16C145.76,27.259999999999998,147.62,26.18,149.22,24.9L148,23.18ZM164.28,35.84C160.36,35.84,157.88,35.66,156.82,35.34L156.82,33.760000000000005L159.34,33.760000000000005L159.34,31.92L156.82,31.92L156.82,30.36L159.84,30.36L159.84,28.48L151.24,28.48L151.24,30.36L155.02,30.36L155.02,34.4C154.6,34.06,154.2,33.620000000000005,153.8,33.1C153.9,32.5,153.96,31.86,154,31.2L152.16,30.96C152.06,33.1,151.52,35.04,150.52,36.8L152.04,38.14C152.57999999999998,37.18,153.02,36.16,153.36,35.08C154.07999999999998,35.980000000000004,154.88,36.620000000000005,155.8,37.019999999999996C157,37.519999999999996,159.98,37.78,164.76,37.78L168.86,37.78L169.22,35.7C168.14,35.78,166.48,35.84,164.28,35.84ZM151.98,20.18L151.98,27.58L159.2,27.58L159.2,20.18L151.98,20.18ZM157.16,25.86L154,25.86L154,24.66L157.16,24.66L157.16,25.86ZM154,23.1L154,21.9L157.16,21.9L157.16,23.1L154,23.1ZM159.96,20.18L159.96,22.06L163.46,22.06C163.42000000000002,22.44,163.36,22.82,163.3,23.2L160.46,23.2L160.46,31.46L162.3,31.46L162.3,24.96L166.42000000000002,24.96L166.42000000000002,31.46L168.34,31.46L168.34,23.2L165.14,23.2C165.22,22.84,165.28,22.46,165.34,22.06L168.76,22.06L168.76,20.18L159.96,20.18ZM166.06,31.32L164.66,32.64C165.92000000000002,33.66,166.9,34.6,167.57999999999998,35.46L169.04,34C168.22,33.1,167.22,32.2,166.06,31.32ZM163.4,25.64L163.4,28.54C163.34,29.86,163.06,30.92,162.57999999999998,31.74C162.07999999999998,32.5,161.1,33.14,159.66,33.66L160.8,35.42C162.34,34.86,163.46,34.08,164.16,33.04C164.86,31.92,165.24,30.42,165.32,28.54L165.32,25.64L163.4,25.64ZM174.78,19.4C173.86,22.48,172.46,25.18,170.56,27.46L171.24,29.64C171.84,28.98,172.42000000000002,28.3,172.96,27.6L172.96,38.120000000000005L175.07999999999998,38.120000000000005L175.07999999999998,24.32C175.76,23.04,176.3,21.72,176.74,20.32L174.78,19.4ZM187.94,38.14L189.4,36.480000000000004C187.4,35.16,185.7,33.68,184.34,32.08C186.07999999999998,29.42,187.26,26.22,187.9,22.5L187.9,20.64L177.22,20.64L177.22,22.66L178.36,22.66C178.7,26.08,179.84,29.2,181.76,32C180.32,33.8,178.54,35.28,176.38,36.44L177.8,38.18C179.86,37,181.62,35.519999999999996,183.1,33.739999999999995C184.42000000000002,35.3,186.02,36.78,187.94,38.14ZM182.98,30.259999999999998C181.5,27.98,180.62,25.46,180.36,22.66L185.76,22.66C185.24,25.560000000000002,184.3,28.1,182.98,30.259999999999998ZM193.96,20.02L192.38,21.16C193.46,22.28,194.34,23.32,195,24.240000000000002L196.64,23.119999999999997C196,22.22,195.12,21.18,193.96,20.02ZM201.2,28.42L199.51999999999998,29.48C200.76,31,201.76,32.379999999999995,202.5,33.620000000000005L204.34,32.34C203.6,31.22,202.56,29.92,201.2,28.42ZM197.9,19.56L197.9,22.58C197.88,23.16,197.84,23.740000000000002,197.8,24.32L191.6,24.32L191.6,26.36L197.57999999999998,26.36C197.32,28.16,196.9,29.72,196.34,31.06C195.4,33.1,193.6,34.8,190.92000000000002,36.16L192.1,38.019999999999996C194.8,36.760000000000005,196.74,34.96,197.92000000000002,32.64C198.76,30.96,199.34,28.86,199.68,26.36L205.88,26.36C205.88,28.72,205.82,30.92,205.7,32.92C205.57999999999998,34.92,205.1,35.96,204.28,36.04C203.34,36.04,202.3,35.96,201.18,35.84L201.74,37.86C202.45999999999998,37.94,203.34,37.980000000000004,204.38,37.980000000000004C205.74,37.980000000000004,206.7,37.16,207.24,35.56C207.76,33.96,208.01999999999998,30.2,208.01999999999998,24.32L199.88,24.32C199.92000000000002,23.759999999999998,199.94,23.18,199.95999999999998,22.58L199.95999999999998,19.56L197.9,19.56ZM212.8,19.740000000000002L211.36,21.1C212.8,22.259999999999998,213.9,23.34,214.66,24.34L216.16,22.86C215.24,21.82,214.12,20.78,212.8,19.740000000000002ZM224.18,37.760000000000005L228.76,37.760000000000005L229.26,35.7C228.72,35.739999999999995,227.94,35.78,226.92000000000002,35.82C225.88,35.82,224.88,35.84,223.88,35.84C222.36,35.84,221.01999999999998,35.82,219.88,35.8C218.72,35.760000000000005,217.86,35.6,217.28,35.3C216.82,35.04,216.36,34.64,215.92000000000002,34.120000000000005L215.72,33.92L215.72,26.3L211.14,26.3L211.14,28.22L213.78,28.22L213.78,33.7C212.98000000000002,34.14,212.1,35.16,211.1,36.760000000000005L212.64,38.18C213.64,36.379999999999995,214.32,35.5,214.7,35.5C214.94,35.5,215.18,35.66,215.44,36C216.01999999999998,36.68,216.7,37.14,217.5,37.379999999999995C218.34,37.58,219.38,37.7,220.66,37.72C221.92000000000002,37.739999999999995,223.1,37.760000000000005,224.18,37.760000000000005ZM216.72,21.42L216.72,23.36L218.94,23.36C218.38,24.54,217.76,25.54,217.1,26.34L217.56,28.240000000000002L221.86,28.240000000000002L221.86,30.02L216.51999999999998,30.02L216.51999999999998,31.96L221.86,31.96L221.86,35.260000000000005L223.88,35.260000000000005L223.88,31.96L228.84,31.96L228.84,30.02L223.88,30.02L223.88,28.240000000000002L227.98000000000002,28.240000000000002L227.98000000000002,26.36L223.88,26.36L223.88,24.32L221.86,24.32L221.86,26.36L219.51999999999998,26.36C220.07999999999998,25.46,220.62,24.46,221.14,23.36L228.62,23.36L228.62,21.42L221.92000000000002,21.42C222.07999999999998,20.92,222.26,20.4,222.45999999999998,19.84L220.48000000000002,19.36C220.24,20.08,220.01999999999998,20.759999999999998,219.78,21.42L216.72,21.42ZM237.94,33.7C235.95999999999998,34.42,233.64,34.980000000000004,231,35.42L231.26,37.46C233.76,37,235.98000000000002,36.4,237.94,35.66L237.94,33.7ZM233.95999999999998,19.44C233.3,21.58,232.51999999999998,23.54,231.62,25.34C231.36,25.7,231.07999999999998,25.96,230.76,26.1L231.26,28L234.1,27.619999999999997C233.24,29.14,232.51999999999998,30.22,231.95999999999998,30.82C231.7,31.06,231.38,31.26,231.01999999999998,31.42L231.56,33.3C233.5,33.06,235.56,32.56,237.74,31.82L237.74,29.96C236.48000000000002,30.4,235.24,30.740000000000002,234.01999999999998,31C235.1,29.560000000000002,236.44,27.34,238,24.32L236.14,23.6C235.78,24.36,235.42000000000002,25.060000000000002,235.1,25.740000000000002L233.18,25.98C234.12,24.5,235.04000000000002,22.58,235.95999999999998,20.240000000000002L233.95999999999998,19.44ZM247.68,22.9L243,23.560000000000002L243,19.56L240.9,19.56L240.9,23.84L238.06,24.240000000000002L238.36,26.16L240.94,25.8C240.98000000000002,26.52,241.01999999999998,27.240000000000002,241.1,27.92L237.72,28.46L238.01999999999998,30.42L241.38,29.9C241.44,30.3,241.51999999999998,30.7,241.62,31.1C241.84,32.06,242.12,32.96,242.48000000000002,33.78C241.07999999999998,34.8,239.5,35.58,237.74,36.14L238.95999999999998,37.82C240.54000000000002,37.34,242.04000000000002,36.6,243.44,35.6C243.51999999999998,35.739999999999995,243.64,35.879999999999995,243.76,36.04C244.66,37.239999999999995,245.62,37.86,246.66,37.879999999999995C247.82,37.879999999999995,248.68,36.6,249.28,34.04L247.5,32.879999999999995C247.22,34.68,246.86,35.58,246.42000000000002,35.58C245.98000000000002,35.58,245.5,35.16,244.95999999999998,34.36C246.06,33.34,247.1,32.120000000000005,248.07999999999998,30.7L246.42000000000002,29.58C245.72,30.619999999999997,244.94,31.58,244.07999999999998,32.42C243.84,31.7,243.64,30.9,243.48000000000002,30C243.44,29.86,243.42000000000002,29.72,243.42000000000002,29.58L248.54000000000002,28.78L248.22,26.82L243.18,27.6C243.1,26.939999999999998,243.06,26.240000000000002,243.04000000000002,25.5L247.98000000000002,24.82L247.68,22.9ZM245.24,19.48L243.66,20.48C244.56,21.38,245.28,22.2,245.8,22.94L247.44,21.8C246.92000000000002,21.16,246.18,20.38,245.24,19.48ZM264.28,35.84C260.36,35.84,257.88,35.66,256.82,35.34L256.82,33.760000000000005L259.34000000000003,33.760000000000005L259.34000000000003,31.92L256.82,31.92L256.82,30.36L259.84000000000003,30.36L259.84000000000003,28.48L251.24,28.48L251.24,30.36L255.01999999999998,30.36L255.01999999999998,34.4C254.6,34.06,254.2,33.620000000000005,253.8,33.1C253.9,32.5,253.95999999999998,31.86,254,31.2L252.16,30.96C252.06,33.1,251.51999999999998,35.04,250.51999999999998,36.8L252.04000000000002,38.14C252.57999999999998,37.18,253.01999999999998,36.16,253.36,35.08C254.07999999999998,35.980000000000004,254.88,36.620000000000005,255.8,37.019999999999996C257,37.519999999999996,259.98,37.78,264.76,37.78L268.86,37.78L269.22,35.7C268.14,35.78,266.48,35.84,264.28,35.84ZM251.98000000000002,20.18L251.98000000000002,27.58L259.2,27.58L259.2,20.18L251.98000000000002,20.18ZM257.15999999999997,25.86L254,25.86L254,24.66L257.15999999999997,24.66L257.15999999999997,25.86ZM254,23.1L254,21.9L257.15999999999997,21.9L257.15999999999997,23.1L254,23.1ZM259.96000000000004,20.18L259.96000000000004,22.06L263.46000000000004,22.06C263.41999999999996,22.44,263.36,22.82,263.3,23.2L260.46000000000004,23.2L260.46000000000004,31.46L262.3,31.46L262.3,24.96L266.41999999999996,24.96L266.41999999999996,31.46L268.34000000000003,31.46L268.34000000000003,23.2L265.14,23.2C265.22,22.84,265.28,22.46,265.34000000000003,22.06L268.76,22.06L268.76,20.18L259.96000000000004,20.18ZM266.06,31.32L264.65999999999997,32.64C265.91999999999996,33.66,266.9,34.6,267.58000000000004,35.46L269.03999999999996,34C268.22,33.1,267.22,32.2,266.06,31.32ZM263.4,25.64L263.4,28.54C263.34000000000003,29.86,263.06,30.92,262.58000000000004,31.74C262.08000000000004,32.5,261.1,33.14,259.65999999999997,33.66L260.8,35.42C262.34000000000003,34.86,263.46000000000004,34.08,264.15999999999997,33.04C264.86,31.92,265.24,30.42,265.32,28.54L265.32,25.64L263.4,25.64ZM278.88,37.84C280.36,37.84,281.1,37.120000000000005,281.1,35.72L281.1,27.54L288.62,27.54L288.62,25.48L271.38,25.48L271.38,27.54L278.98,27.54L278.98,35.18C278.98,35.68,278.7,35.94,278.15999999999997,35.94C277.44,35.94,276.65999999999997,35.9,275.86,35.82L276.3,37.84L278.88,37.84ZM274.2,29.380000000000003C273.58000000000004,31.66,272.52,33.82,271,35.86L272.82,37C274.3,35,275.46000000000004,32.6,276.26,29.84L274.2,29.380000000000003ZM285.46000000000004,29.119999999999997L283.58000000000004,29.759999999999998C284.82,31.8,285.98,34.16,287.02,36.84L288.91999999999996,35.980000000000004C287.96000000000004,33.54,286.8,31.26,285.46000000000004,29.119999999999997ZM273.22,20.44L273.22,22.48L286.84000000000003,22.48L286.84000000000003,20.44L273.22,20.44ZM295.24,22.38L295.65999999999997,23.42L291.24,23.42L291.24,25.22L308.76,25.22L308.76,23.42L304.18,23.42L304.7,22.38L307.82,22.38L307.82,20.62L300.96000000000004,20.62C300.8,20.18,300.65999999999997,19.78,300.5,19.42L298.24,19.78C298.38,20.04,298.52,20.32,298.65999999999997,20.62L292.18,20.62L292.18,22.38L295.24,22.38ZM297.84000000000003,23.42L297.41999999999996,22.38L302.52,22.38L302,23.42L297.84000000000003,23.42ZM293.24,25.92L293.24,32.28L300.56,32.28L298.82,33.36C299.58000000000004,34.16,300.18,34.879999999999995,300.62,35.519999999999996L302.36,34.3C301.96000000000004,33.72,301.38,33.04,300.62,32.28L306.76,32.28L306.76,25.92L293.24,25.92ZM304.72,30.72L295.28,30.72L295.28,29.84L304.72,29.84L304.72,30.72ZM295.28,28.36L295.28,27.5L304.72,27.5L304.72,28.36L295.28,28.36ZM292.48,33C292.15999999999997,34.2,291.6,35.32,290.8,36.379999999999995L292.6,37.519999999999996C293.41999999999996,36.36,294.06,35,294.52,33.42L292.48,33ZM302.82,37.760000000000005C303.62,37.760000000000005,304.22,37.620000000000005,304.6,37.379999999999995C305.03999999999996,37.1,305.34000000000003,36.260000000000005,305.5,34.86L303.52,34.2C303.46000000000004,35.019999999999996,303.34000000000003,35.519999999999996,303.14,35.68C303,35.84,302.76,35.92,302.41999999999996,35.92L298.53999999999996,35.92C297.94,35.92,297.64,35.66,297.64,35.18L297.64,33.1L295.52,33.1L295.52,35.64C295.52,37.04,296.32,37.760000000000005,297.94,37.760000000000005L302.82,37.760000000000005ZM306.8,32.66L305.12,33.72C306.14,35.019999999999996,306.96000000000004,36.2,307.56,37.260000000000005L309.3,36.04C308.72,35.08,307.88,33.96,306.8,32.66Z" fill="#111111" fill-opacity="1"/></g></g><g><g transform="matrix(0.4999999701976776,0.866025447845459,-0.866025447845459,0.4999999701976776,19.019238651945443,-32.942287378948095)"><rect x="38.038475036621094" y="0" width="43.92304992675781" height="43.92304992675781" rx="5.999999046325684" fill="#ED8456" fill-opacity="1"/></g><g><g><ellipse cx="27.899868488311768" cy="22.499868869781494" rx="7.499866962432861" ry="7.499866962432861" fill="#FFFFFF" fill-opacity="1"/></g><g><ellipse cx="31.64980173110962" cy="20.869462728500366" rx="3.4238524436950684" ry="3.586892604827881" fill="#000000" fill-opacity="1"/></g></g><g><g><ellipse cx="42.89986848831177" cy="22.499868869781494" rx="7.499866962432861" ry="7.499866962432861" fill="#FFFFFF" fill-opacity="1"/></g><g><ellipse cx="46.64980173110962" cy="20.869462728500366" rx="3.4238524436950684" ry="3.586892604827881" fill="#000000" fill-opacity="1"/></g></g><g><g><path d="M60,30Q60,30.7365,59.9639,31.472Q59.9277,32.2076,59.8555,32.9405Q59.7833,33.6734,59.6753,34.4019Q59.5672,35.1304,59.4235,35.8527Q59.2799,36.575,59.1009,37.2894Q58.922,38.0038,58.7082,38.7085Q58.4944,39.4133,58.2463,40.1067Q57.9982,40.8001,57.7164,41.4805Q57.4345,42.1609,57.1197,42.8266Q56.8048,43.4924,56.4576,44.1419Q56.1105,44.7914,55.7318,45.4231Q55.3532,46.0548,54.9441,46.6671Q54.5349,47.2794,54.0962,47.871Q53.6575,48.4625,53.1903,49.0318Q52.7231,49.6011,52.2285,50.1468Q51.734,50.6924,51.2132,51.2132Q50.6924,51.734,50.1468,52.2285Q49.6011,52.7231,49.0318,53.1903Q48.4625,53.6575,47.871,54.0962Q47.2794,54.5349,46.6671,54.9441Q46.0548,55.3532,45.4231,55.7319Q44.7914,56.1105,44.1419,56.4576Q43.4924,56.8048,42.8266,57.1197Q42.1609,57.4345,41.4805,57.7164Q40.8001,57.9982,40.1067,58.2463Q39.4133,58.4944,38.7085,58.7082Q38.0038,58.922,37.2894,59.1009Q36.575,59.2799,35.8527,59.4236Q35.1304,59.5672,34.4019,59.6753Q33.6734,59.7833,32.9405,59.8555Q32.2076,59.9277,31.472,59.9639Q30.7365,60,30,60Q29.2635,60,28.528,59.9639Q27.7924,59.9277,27.0595,59.8555Q26.3266,59.7833,25.5981,59.6753Q24.8696,59.5672,24.1473,59.4235Q23.425,59.2799,22.7106,59.1009Q21.9962,58.922,21.2915,58.7082Q20.5867,58.4944,19.8933,58.2463Q19.1999,57.9982,18.5195,57.7164Q17.8391,57.4345,17.1733,57.1197Q16.5076,56.8048,15.8581,56.4576Q15.2086,56.1105,14.5769,55.7318Q13.9452,55.3532,13.3329,54.9441Q12.7205,54.5349,12.129,54.0962Q11.5375,53.6575,10.9682,53.1903Q10.3989,52.7231,9.85323,52.2285Q9.30755,51.734,8.7868,51.2132Q8.26604,50.6924,7.77146,50.1468Q7.27689,49.6011,6.80969,49.0318Q6.34248,48.4625,5.90377,47.871Q5.46507,47.2794,5.05591,46.6671Q4.64676,46.0548,4.26814,45.4231Q3.88953,44.7914,3.54236,44.1419Q3.1952,43.4924,2.88032,42.8266Q2.56544,42.1609,2.28361,41.4805Q2.00178,40.8001,1.75368,40.1067Q1.50557,39.4133,1.29179,38.7085Q1.07801,38.0038,0.899062,37.2894Q0.720117,36.575,0.576441,35.8527Q0.432766,35.1304,0.324705,34.4019Q0.216644,33.6734,0.144458,32.9405Q0.0722726,32.2076,0.0361363,31.472Q0,30.7365,0,30Q0,29.2635,0.0361363,28.528Q0.0722726,27.7924,0.144458,27.0595Q0.216644,26.3266,0.324705,25.5981Q0.432766,24.8696,0.576441,24.1473Q0.720117,23.425,0.899062,22.7106Q1.07801,21.9962,1.29179,21.2915Q1.50557,20.5867,1.75368,19.8933Q2.00178,19.1999,2.28361,18.5195Q2.56544,17.8391,2.88032,17.1733Q3.1952,16.5076,3.54236,15.8581Q3.88953,15.2086,4.26814,14.5769Q4.64676,13.9452,5.05591,13.3329Q5.46507,12.7205,5.90377,12.129Q6.34248,11.5375,6.80969,10.9682Q7.27689,10.3989,7.77146,9.85323Q8.26604,9.30755,8.7868,8.7868Q9.30755,8.26604,9.85323,7.77146Q10.3989,7.27689,10.9682,6.80969Q11.5375,6.34248,12.129,5.90377Q12.7205,5.46507,13.3329,5.05591Q13.9452,4.64676,14.5769,4.26814Q15.2086,3.88953,15.8581,3.54236Q16.5076,3.1952,17.1733,2.88032Q17.8391,2.56544,18.5195,2.28361Q19.1999,2.00178,19.8933,1.75368Q20.5867,1.50557,21.2915,1.29179Q21.9962,1.07801,22.7106,0.899062Q23.425,0.720117,24.1473,0.576441Q24.8696,0.432766,25.5981,0.324705Q26.3266,0.216644,27.0595,0.144458Q27.7924,0.0722726,28.528,0.0361363Q29.2635,0,30,0Q30.7365,0,31.472,0.0361363Q32.2076,0.0722726,32.9405,0.144458Q33.6734,0.216644,34.4019,0.324705Q35.1304,0.432766,35.8527,0.576441Q36.575,0.720117,37.2894,0.899062Q38.0038,1.07801,38.7085,1.29179Q39.4133,1.50557,40.1067,1.75368Q40.8001,2.00178,41.4805,2.28361Q42.1609,2.56544,42.8266,2.88032Q43.4924,3.1952,44.1419,3.54236Q44.7914,3.88953,45.4231,4.26814Q46.0548,4.64676,46.6671,5.05591Q47.2794,5.46507,47.871,5.90377Q48.4625,6.34248,49.0318,6.80969Q49.6011,7.27689,50.1468,7.77146Q50.6924,8.26604,51.2132,8.7868Q51.734,9.30755,52.2285,9.85323Q52.7231,10.3989,53.1903,10.9682Q53.6575,11.5375,54.0962,12.129Q54.5349,12.7205,54.9441,13.3329Q55.3532,13.9452,55.7319,14.5769Q56.1105,15.2086,56.4576,15.8581Q56.8048,16.5076,57.1197,17.1733Q57.4345,17.8391,57.7164,18.5195Q57.9982,19.1999,58.2463,19.8933Q58.4944,20.5867,58.7082,21.2915Q58.922,21.9962,59.1009,22.7106Q59.2799,23.425,59.4236,24.1473Q59.5672,24.8696,59.6753,25.5981Q59.7833,26.3266,59.8555,27.0595Q59.9277,27.7924,59.9639,28.528Q60,29.2635,60,30Z" fill="#FFDD00" fill-opacity="1"/></g><g><g><path d="M14.390030461395263,15.21129396911621Q17.220257461395263,16.83333396911621,20.166667461395264,16.83333396911621Q23.199667461395265,16.83333396911621,26.090067461395265,15.62928596911621Q26.363467461395263,15.49833396911621,26.666667461395264,15.49833396911621Q26.732267461395264,15.49833396911621,26.797567461395264,15.504761969116212Q26.862767461395265,15.51119096911621,26.927067461395264,15.523985969116211Q26.991467461395263,15.536780969116212,27.054167461395263,15.555818969116212Q27.116967461395262,15.574856969116212,27.177567461395263,15.599954969116212Q27.238167461395264,15.625052969116211,27.295967461395264,15.655968969116211Q27.353867461395264,15.68688496911621,27.408367461395265,15.723321969116212Q27.462867461395263,15.759758969116211,27.51356746139526,15.80136496911621Q27.564267461395264,15.84297096911621,27.610667461395266,15.889345969116212Q27.657067461395265,15.93572196911621,27.698667461395264,15.986418969116212Q27.740267461395263,16.03711596911621,27.776667461395263,16.09164796911621Q27.813067461395264,16.14617896911621,27.844067461395262,16.204018969116213Q27.874967461395265,16.26185956911621,27.900067461395263,16.32245156911621Q27.92516746139526,16.38304356911621,27.944167461395264,16.44580396911621Q27.96326746139526,16.50856396911621,27.975967461395264,16.57288796911621Q27.988767461395263,16.63721296911621,27.995267461395265,16.702480969116213Q28.001667461395265,16.76774996911621,28.001667461395265,16.83333396911621Q28.001667461395265,16.93566496911621,27.986067461395265,17.03679996911621Q27.970467461395266,17.137934969116213,27.939667461395263,17.235510969116213Q27.908867461395264,17.33308796911621,27.863467461395263,17.42482396911621Q27.818167461395262,17.516563969116213,27.759367461395264,17.60032396911621Q27.700567461395263,17.684073969116213,27.629667461395265,17.75789396911621Q27.558867461395266,17.831713969116212,27.477567461395264,17.89386396911621Q27.39626746139526,17.95602396911621,27.306467461395265,18.00506396911621Q27.216567461395265,18.05409396911621,27.12036746139526,18.08887396911621Q23.735667461395266,19.50000396911621,20.166667461395264,19.50000396911621Q16.507127461395264,19.50000396911621,13.058746461395264,17.52188396911621Q12.977053461395263,17.48010396911621,12.901845461395263,17.42753396911621Q12.826637461395263,17.374963969116212,12.759329461395264,17.31259996911621Q12.692021461395264,17.25023596911621,12.633877461395263,17.179248969116212Q12.575737461395263,17.10826196911621,12.527857461395264,17.029986969116212Q12.479967461395264,16.95171196911621,12.443247461395263,16.867622969116212Q12.406517461395264,16.783532969116212,12.381647461395264,16.695208969116212Q12.356777461395264,16.606884969116212,12.344217461395264,16.51598896911621Q12.331667461395263,16.425093069116212,12.331667461395263,16.33333396911621Q12.331667461395263,16.26774966911621,12.338097461395265,16.202480969116213Q12.344527461395263,16.13721296911621,12.357317461395263,16.07288796911621Q12.370117461395264,16.00856396911621,12.389147461395265,15.945803969116211Q12.408187461395263,15.88304396911621,12.433287461395263,15.82245196911621Q12.458387461395263,15.76185996911621,12.489307461395263,15.70401896911621Q12.520217461395264,15.64617896911621,12.556657461395265,15.591647969116211Q12.593087461395264,15.537115969116211,12.634697461395264,15.486418969116212Q12.676304461395263,15.43572196911621,12.722679461395263,15.38934596911621Q12.769055461395263,15.34297096911621,12.819752461395264,15.301363969116212Q12.870449461395264,15.259753969116211,12.924981461395264,15.223323969116212Q12.979512461395263,15.186883969116211,13.037352461395264,15.15597396911621Q13.095193461395263,15.12505396911621,13.155785461395263,15.09995396911621Q13.216377461395263,15.07485396911621,13.279137461395264,15.055813969116212Q13.341897461395263,15.036783969116211,13.406221461395264,15.02398396911621Q13.470546461395264,15.01119396911621,13.535814461395264,15.004763969116212Q13.601083161395264,14.99833396911621,13.666667461395264,14.99833396911621Q13.859099461395264,14.99833396911621,14.043697461395263,15.052683969116211Q14.228295461395264,15.107023969116211,14.390030461395263,15.21129396911621Z" fill-rule="evenodd" fill="#000000" fill-opacity="1"/></g><g><path d="M36.05669696911621,15.21129396911621Q38.88692396911621,16.83333396911621,41.83333396911621,16.83333396911621Q44.86633396911621,16.83333396911621,47.75673396911621,15.62928596911621Q48.03013396911621,15.49833396911621,48.33333396911621,15.49833396911621Q48.398933969116214,15.49833396911621,48.46423396911621,15.504761969116212Q48.52943396911621,15.51119096911621,48.593733969116215,15.523985969116211Q48.65813396911621,15.536780969116212,48.720833969116214,15.555818969116212Q48.78363396911621,15.574856969116212,48.84423396911621,15.599954969116212Q48.90483396911621,15.625052969116211,48.96263396911621,15.655968969116211Q49.020533969116215,15.68688496911621,49.07503396911621,15.723321969116212Q49.12953396911621,15.759758969116211,49.18023396911621,15.80136496911621Q49.23093396911621,15.84297096911621,49.27733396911621,15.889345969116212Q49.32373396911621,15.93572196911621,49.36533396911621,15.986418969116212Q49.40693396911621,16.03711596911621,49.44333396911621,16.09164796911621Q49.47973396911621,16.14617896911621,49.51073396911621,16.204018969116213Q49.54163396911621,16.26185956911621,49.566733969116214,16.32245156911621Q49.59183396911621,16.38304356911621,49.610833969116214,16.44580396911621Q49.62993396911621,16.50856396911621,49.64263396911621,16.57288796911621Q49.65543396911621,16.63721296911621,49.66193396911621,16.702480969116213Q49.66833396911621,16.76774996911621,49.66833396911621,16.83333396911621Q49.66833396911621,16.93566496911621,49.65273396911621,17.03679996911621Q49.63713396911621,17.137934969116213,49.60633396911621,17.235510969116213Q49.57553396911621,17.33308796911621,49.53013396911621,17.42482396911621Q49.48483396911621,17.516563969116213,49.42603396911621,17.60032396911621Q49.367233969116214,17.684073969116213,49.29633396911621,17.75789396911621Q49.22553396911621,17.831713969116212,49.144233969116215,17.89386396911621Q49.06293396911621,17.95602396911621,48.97313396911621,18.00506396911621Q48.88323396911621,18.05409396911621,48.78703396911621,18.08887396911621Q45.40233396911621,19.50000396911621,41.83333396911621,19.50000396911621Q38.17379396911621,19.50000396911621,34.72541296911621,17.52188396911621Q34.64371996911621,17.48010396911621,34.56851196911621,17.42753396911621Q34.49330396911621,17.374963969116212,34.42599596911621,17.31259996911621Q34.35868796911621,17.25023596911621,34.30054396911621,17.179248969116212Q34.24240396911621,17.10826196911621,34.19452396911621,17.029986969116212Q34.14663396911621,16.95171196911621,34.109913969116214,16.867622969116212Q34.07318396911621,16.783532969116212,34.04831396911621,16.695208969116212Q34.02344396911621,16.606884969116212,34.01088396911621,16.51598896911621Q33.99833396911621,16.425093069116212,33.99833396911621,16.33333396911621Q33.99833396911621,16.26774966911621,34.00476396911621,16.202480969116213Q34.01119396911621,16.13721296911621,34.02398396911621,16.07288796911621Q34.03678396911621,16.00856396911621,34.05581396911621,15.945803969116211Q34.07485396911621,15.88304396911621,34.099953969116214,15.82245196911621Q34.12505396911621,15.76185996911621,34.15597396911621,15.70401896911621Q34.18688396911621,15.64617896911621,34.22332396911621,15.591647969116211Q34.25975396911621,15.537115969116211,34.30136396911621,15.486418969116212Q34.34297096911621,15.43572196911621,34.389345969116214,15.38934596911621Q34.43572196911621,15.34297096911621,34.48641896911621,15.301363969116212Q34.53711596911621,15.259753969116211,34.59164796911621,15.223323969116212Q34.646178969116214,15.186883969116211,34.70401896911621,15.15597396911621Q34.76185996911621,15.12505396911621,34.82245196911621,15.09995396911621Q34.88304396911621,15.07485396911621,34.94580396911621,15.055813969116212Q35.00856396911621,15.036783969116211,35.07288796911621,15.02398396911621Q35.13721296911621,15.01119396911621,35.20248096911621,15.004763969116212Q35.26774966911621,14.99833396911621,35.33333396911621,14.99833396911621Q35.52576596911621,14.99833396911621,35.71036396911621,15.052683969116211Q35.89496196911621,15.107023969116211,36.05669696911621,15.21129396911621Z" fill-rule="evenodd" fill="#000000" fill-opacity="1"/></g><g transform="matrix(1,0,0,-1,0,58.66666793823242)"><path d="M11.34511396911621,37.87093396911621Q11.251120969116212,37.98013396911621,11.135990969116211,38.06675396911621Q11.020861969116211,38.15338396911621,10.889899969116211,38.21345396911621Q10.75893796911621,38.27351396911621,10.61817596911621,38.30426396911621Q10.477413969116212,38.335003969116215,10.333333969116211,38.335003969116215Q10.267749669116212,38.335003969116215,10.20248096911621,38.32857396911621Q10.137212969116211,38.32214396911621,10.072887969116211,38.30935396911621Q10.00856396911621,38.29655396911621,9.945803969116211,38.277513969116214Q9.88304396911621,38.25847396911621,9.82245196911621,38.23338396911621Q9.76185996911621,38.20828396911621,9.70401896911621,38.177363969116215Q9.64617896911621,38.14644396911621,9.591647969116211,38.11001396911621Q9.537115969116211,38.07357396911621,9.486418969116212,38.03197396911621Q9.43572196911621,37.99036396911621,9.38934596911621,37.94398396911621Q9.34297096911621,37.89761396911621,9.301363969116212,37.84691396911621Q9.259753969116211,37.79621396911621,9.223323969116212,37.74168396911621Q9.186883969116211,37.68715396911621,9.15597396911621,37.62931396911621Q9.12505396911621,37.57147396911621,9.09995396911621,37.51088396911621Q9.07485396911621,37.45029396911621,9.055813969116212,37.38753396911621Q9.036783969116211,37.32477396911621,9.02398396911621,37.26044396911621Q9.01119396911621,37.196123969116215,9.004763969116212,37.13085396911621Q8.99833396911621,37.06558396911621,8.99833396911621,37.00000396911621Q8.99833396911621,36.86426396911621,9.025653969116211,36.73130396911621Q9.052973969116211,36.598343969116215,9.106493969116212,36.47361396911621Q9.16001396911621,36.34887396911621,9.23754396911621,36.23745396911621Q9.315073969116211,36.12604396911621,9.413447969116211,36.03251396911621Q17.07970396911621,28.00000396911621,31.480833969116212,28.00000396911621Q45.89733396911621,28.00000396911621,53.27293396911621,36.05163396911621Q53.36693396911621,36.144723969116214,53.44073396911621,36.25444396911621Q53.51463396911621,36.36416396911621,53.56553396911621,36.48625396911621Q53.61643396911621,36.60833396911621,53.64233396911621,36.73803396911621Q53.66833396911621,36.86773396911621,53.66833396911621,37.00000396911621Q53.66833396911621,37.06558396911621,53.66193396911621,37.13085396911621Q53.65543396911621,37.196123969116215,53.64263396911621,37.26044396911621Q53.62993396911621,37.32477396911621,53.610833969116214,37.38753396911621Q53.59183396911621,37.45029396911621,53.566733969116214,37.51088396911621Q53.54163396911621,37.57147396911621,53.51073396911621,37.62931396911621Q53.47973396911621,37.68715396911621,53.44333396911621,37.74168396911621Q53.40693396911621,37.79621396911621,53.36533396911621,37.84691396911621Q53.32373396911621,37.89761396911621,53.27733396911621,37.94398396911621Q53.23093396911621,37.99036396911621,53.18023396911621,38.03197396911621Q53.12953396911621,38.07357396911621,53.07503396911621,38.11001396911621Q53.02043396911621,38.14645396911621,52.96263396911621,38.177363969116215Q52.90483396911621,38.20828396911621,52.84423396911621,38.23338396911621Q52.78363396911621,38.25847396911621,52.720833969116214,38.277513969116214Q52.658133969116214,38.29655396911621,52.59373396911621,38.30935396911621Q52.52943396911621,38.32214396911621,52.46423396911621,38.32857396911621Q52.398933969116214,38.335003969116215,52.33333396911621,38.335003969116215Q52.18583396911621,38.335003969116215,52.04183396911621,38.30278396911621Q51.89783396911621,38.27056396911621,51.76433396911621,38.207673969116215Q51.63083396911621,38.14478396911621,51.51433396911621,38.05427396911621Q51.39783396911621,37.96375396911621,51.30393396911621,37.84998396911621Q44.72043396911621,30.66666396911621,31.480833969116212,30.66666396911621Q18.223973969116212,30.66666396911621,11.34511396911621,37.87093396911621Z" fill-rule="evenodd" fill="#000000" fill-opacity="1"/></g></g></g></g></g></svg>