<svg xmlns="http://www.w3.org/2000/svg" xmlns:xlink="http://www.w3.org/1999/xlink" fill="none" version="1.1" width="400" height="380" viewBox="0 0 400 380"><defs><clipPath id="master_svg0_2_10505"><rect x="0" y="200" width="400" height="180" rx="12"/></clipPath></defs><g><g><g><g transform="matrix(0.4999999701976776,0.866025447845459,-0.866025447845459,0.4999999701976776,109.4630103451982,-87.68240313480783)"><rect x="130.66668701171875" y="50.95654296875" width="82.75357055664062" height="82.75357055664062" rx="11.30434513092041" fill="#ED8456" fill-opacity="1"/></g></g><g><g><g><ellipse cx="142.19031715393066" cy="87.06659889221191" rx="15.762399673461914" ry="15.762399673461914" fill="#FFFFFF" fill-opacity="1"/></g><g><ellipse cx="142.19031763076782" cy="87.06659936904907" rx="6.20943021774292" ry="6.20943021774292" fill="#000000" fill-opacity="1"/></g></g><g><path d="M89.4864421875,92.9527656677246Q89.4211221875,93.1196656677246,89.3316321875,93.2750656677246Q89.2421421875,93.43036566772462,89.1304821875,93.57056566772461Q89.0188321875,93.7108656677246,88.8875021875,93.8328656677246Q88.7561721875,93.9548656677246,88.6081121875,94.0558656677246Q88.4600521875,94.1569656677246,88.2985721875,94.2348656677246Q88.1370881875,94.31266566772462,87.9658031875,94.36556566772461Q87.7945191875,94.4184656677246,87.6172621875,94.44516566772461Q87.4400051875,94.47186566772461,87.2607421875,94.47186566772461Q87.1433291875,94.47186566772461,87.0264811875,94.4603656677246Q86.9096331875,94.4488656677246,86.7944761875,94.42596566772461Q86.6793191875,94.4030656677246,86.5669621875,94.36896566772461Q86.4546041875,94.33486566772461,86.3461291875,94.2899656677246Q86.2376521875,94.24506566772462,86.1341021875,94.18966566772461Q86.0305521875,94.13436566772461,85.9329321875,94.0691656677246Q85.8353021875,94.00386566772461,85.7445421875,93.92936566772461Q85.6537821875,93.85496566772461,85.5707521875,93.77186566772461Q85.4877321875,93.68886566772461,85.4132521875,93.59806566772461Q85.3387621875,93.50736566772461,85.2735321875,93.40976566772461Q85.2083021875,93.31206566772461,85.1529521875,93.20856566772461Q85.0976021875,93.10496566772461,85.0526721875,92.99656566772461Q85.0077421875,92.8880656677246,84.9736521875,92.77566566772461Q84.9395721875,92.6633656677246,84.9166621875,92.5481656677246Q84.8937621875,92.4330656677246,84.8822521875,92.3161656677246Q84.8707421875,92.1993656677246,84.8707421875,92.08186566772461Q84.8707421875,91.5354956677246,85.1081821875,91.04336566772461Q90.1935421875,79.42422566772461,100.6349421875,79.42422566772461Q111.0437421875,79.42422566772461,116.3799421875,91.00194566772461Q116.6378421875,91.51112566772461,116.6378421875,92.08186566772461Q116.6378421875,92.1993656677246,116.6263421875,92.3161656677246Q116.6148421875,92.4330656677246,116.5919421875,92.5481656677246Q116.5690421875,92.6633656677246,116.53494218750001,92.77566566772461Q116.5008421875,92.8880656677246,116.4559421875,92.99656566772461Q116.4110421875,93.10496566772461,116.3556421875,93.20856566772461Q116.30034218750001,93.31206566772461,116.2350421875,93.40976566772461Q116.1698421875,93.50736566772461,116.0953421875,93.59806566772461Q116.0208421875,93.68886566772461,115.9378421875,93.77186566772461Q115.8548421875,93.85496566772461,115.7640421875,93.92936566772461Q115.6733421875,94.00386566772461,115.5756421875,94.0691656677246Q115.4780421875,94.13436566772461,115.3745421875,94.18966566772461Q115.2709421875,94.24506566772462,115.1624421875,94.2899656677246Q115.0540421875,94.33486566772461,114.94164218750001,94.36896566772461Q114.8293421875,94.4030656677246,114.7141421875,94.42596566772461Q114.5989421875,94.4488656677246,114.4821421875,94.4603656677246Q114.3653421875,94.47186566772461,114.2478421875,94.47186566772461Q114.0715421875,94.47186566772461,113.8970421875,94.44606566772461Q113.7226421875,94.4201656677246,113.5538421875,94.36896566772461Q113.38514218750001,94.31776566772461,113.2257421875,94.24226566772461Q113.0662421875,94.16686566772461,112.9196421875,94.06886566772461Q112.7730421875,93.97086566772461,112.6424421875,93.85236566772461Q112.5117421875,93.73386566772461,112.3999421875,93.59756566772461Q112.2881421875,93.46116566772461,112.1974421875,93.30986566772461Q112.1068421875,93.15856566772462,112.0394421875,92.99566566772461Q107.9819421875,84.2007056677246,100.6349421875,84.2007056677246Q93.3210621875,84.2007056677246,89.4864421875,92.9527656677246Z" fill-rule="evenodd" fill="#000000" fill-opacity="1"/></g><g transform="matrix(1,0,0,-1,0,228.58512115478516)"><path d="M96.24205813354492,122.48172057739258Q95.94555813354492,122.68226057739258,95.60331213354492,122.78712057739259Q95.26106813354492,122.89199057739258,94.90311813354492,122.89199057739258Q94.78570513354492,122.89199057739258,94.66885713354492,122.88048057739258Q94.55200913354493,122.86897057739257,94.43685213354492,122.84606057739258Q94.32169513354492,122.82316057739257,94.20933813354492,122.78908057739258Q94.09698013354492,122.75499057739258,93.98850513354492,122.71006057739258Q93.88002813354493,122.66513057739257,93.77647813354493,122.60978057739258Q93.67292813354493,122.55443057739258,93.57530813354492,122.48920057739258Q93.47767813354493,122.42397057739258,93.38691813354492,122.34948057739258Q93.29615813354492,122.27500057739257,93.21312813354493,122.19198057739258Q93.13010813354492,122.10895057739258,93.05562813354493,122.01819057739257Q92.98113813354492,121.92743057739258,92.91590813354492,121.82980057739258Q92.85067813354492,121.73218057739258,92.79532813354493,121.62863057739258Q92.73997813354492,121.52508057739257,92.69504813354492,121.41660057739257Q92.65011813354492,121.30813057739257,92.61602813354492,121.19577057739258Q92.58194813354493,121.08341057739258,92.55903813354492,120.96826057739258Q92.53613813354492,120.85310057739258,92.52462813354492,120.73625057739258Q92.51311813354492,120.61940057739258,92.51311813354492,120.50199057739258Q92.51311813354492,120.34450057739258,92.53378813354492,120.18837057739258Q92.55444813354492,120.03224057739257,92.59542813354493,119.88018057739258Q92.63639813354492,119.72811057739258,92.69697813354492,119.58274057739258Q92.75754813354492,119.43736057739258,92.83667813354492,119.30119057739257Q92.91579813354493,119.16502057739258,93.01211813354492,119.04042057739258Q93.10842813354492,118.91581057739258,93.22025813354492,118.80491057739258Q93.33208813354493,118.69402057739258,93.45749813354492,118.59876057739258Q93.58290813354492,118.50350057739257,93.71973813354492,118.42552057739258Q104.24484813354492,111.90432057739258,124.72871813354493,111.90432057739258Q145.18581813354493,111.90432057739258,156.2222181335449,118.39890057739258Q156.36381813354492,118.47536057739258,156.49391813354492,118.57011057739258Q156.62401813354492,118.66486057739257,156.74021813354491,118.77619057739258Q156.85641813354493,118.88752057739258,156.9566181335449,119.01343057739258Q157.0569181335449,119.13934057739257,157.13931813354492,119.27755057739257Q157.22181813354493,119.41576057739258,157.28501813354492,119.56378057739258Q157.34811813354492,119.71179057739258,157.39091813354491,119.86694057739258Q157.43371813354491,120.02209057739258,157.45521813354492,120.18157057739258Q157.47681813354492,120.34106057739258,157.47681813354492,120.50199057739258Q157.47681813354492,120.61940057739258,157.4653181335449,120.73625057739258Q157.45381813354493,120.85310057739258,157.43091813354494,120.96825057739258Q157.4080181335449,121.08341057739258,157.37391813354492,121.19577057739258Q157.33981813354492,121.30813057739257,157.2949181335449,121.41660057739257Q157.24991813354492,121.52508057739257,157.1946181335449,121.62863057739258Q157.13921813354492,121.73218057739258,157.07401813354494,121.82980057739258Q157.00881813354493,121.92743057739258,156.93431813354493,122.01819057739257Q156.85981813354493,122.10895057739258,156.7768181335449,122.19198057739258Q156.69381813354494,122.27500057739257,156.60301813354494,122.34948057739258Q156.51221813354493,122.42397057739258,156.41461813354493,122.48920057739258Q156.31701813354493,122.55443057739258,156.2134181335449,122.60978057739258Q156.1099181335449,122.66513057739257,156.00141813354492,122.71006057739258Q155.89291813354492,122.75499057739258,155.78061813354492,122.78908057739258Q155.6682181335449,122.82316057739257,155.55311813354493,122.84606057739258Q155.4379181335449,122.86897057739257,155.32111813354493,122.88048057739258Q155.2042181335449,122.89199057739258,155.0868181335449,122.89199057739258Q154.74291813354492,122.89199057739258,154.4129181335449,122.79502057739258Q154.08301813354493,122.69804057739258,153.79371813354493,122.51197057739257Q143.87991813354492,116.68080057739257,124.72871813354493,116.68080057739257Q105.61001813354493,116.68080057739257,96.24205813354492,122.48172057739258Z" fill-rule="evenodd" fill="#000000" fill-opacity="1"/></g></g><g transform="matrix(0.7071067690849304,0.7071067690849304,-0.7071067690849304,0.7071067690849304,76.39429297513561,-116.43213138513966)"><path d="M182.6096840625,35.76194C181.3876140625,35.29201,180.0337040625,36.64718,180.5028240625,37.86956Q182.5103740625,43.10051,182.5103740625,48.330799999999996Q182.5103740625,53.561,180.5028240625,58.7906C180.0336940625,60.0126,181.3901340625,61.3675,182.6121140625,60.8982Q187.8423640625,58.889399999999995,193.0726640625,58.889399999999995Q198.3028640625,58.889399999999995,203.5331640625,60.8982C204.7553640625,61.367599999999996,206.1102640625,60.0129,205.6405640625,58.7907Q203.6309640625,53.5613,203.6309640625,48.3311Q203.6309640625,43.10083,205.6405640625,37.86971C206.1100640625,36.64761,204.7527640625,35.2925,203.5306640625,35.76194Q198.2976640625,37.77209,193.0673640625,37.77209Q187.8371640625,37.77209,182.6096840625,35.76194Z" fill="#FFDD00" fill-opacity="1"/></g></g><g><path d="M248.36,136.488L246.632,138.12C248.36,139.512,249.68,140.808,250.592,142.008L252.392,140.232C251.288,138.984,249.944,137.736,248.36,136.488ZM262.016,158.112L267.512,158.112L268.112,155.64C267.464,155.688,266.528,155.736,265.304,155.784C264.056,155.784,262.856,155.808,261.656,155.808C259.832,155.808,258.224,155.784,256.856,155.76C255.464,155.712,254.432,155.52,253.736,155.16C253.184,154.848,252.632,154.368,252.104,153.744L251.864,153.504L251.864,144.36L246.368,144.36L246.368,146.664L249.536,146.664L249.536,153.24C248.576,153.768,247.52,154.992,246.32,156.912L248.168,158.61599999999999C249.368,156.456,250.184,155.4,250.64,155.4C250.928,155.4,251.216,155.59199999999998,251.528,156C252.224,156.816,253.04,157.368,254,157.656C255.008,157.89600000000002,256.256,158.04,257.792,158.064C259.304,158.088,260.72,158.112,262.016,158.112ZM253.064,138.504L253.064,140.832L255.728,140.832C255.056,142.248,254.312,143.448,253.52,144.408L254.072,146.688L259.23199999999997,146.688L259.23199999999997,148.824L252.824,148.824L252.824,151.152L259.23199999999997,151.152L259.23199999999997,155.112L261.656,155.112L261.656,151.152L267.608,151.152L267.608,148.824L261.656,148.824L261.656,146.688L266.576,146.688L266.576,144.432L261.656,144.432L261.656,141.984L259.23199999999997,141.984L259.23199999999997,144.432L256.424,144.432C257.096,143.352,257.744,142.152,258.368,140.832L267.344,140.832L267.344,138.504L259.304,138.504C259.496,137.904,259.712,137.28,259.952,136.608L257.576,136.032C257.288,136.896,257.024,137.712,256.736,138.504L253.064,138.504ZM277.592,152.976C275.528,153.792,273.08,154.416,270.296,154.89600000000002L270.608,157.344C273.2,156.84,275.528,156.168,277.592,155.328L277.592,152.976ZM273.464,136.2C272.744,138.696,271.928,140.976,270.968,143.04C270.656,143.496,270.32,143.808,269.936,143.952L270.536,146.232C271.592,146.064,272.624,145.89600000000002,273.632,145.752C272.624,147.456,271.808,148.656,271.16,149.328C270.848,149.64,270.464,149.88,270.032,150.048L270.68,152.304C272.744,152.04,274.952,151.512,277.304,150.72L277.304,148.464C276.08,148.89600000000002,274.88,149.256,273.704,149.52C274.952,147.912,276.512,145.392,278.384,141.984L276.08,141.12L274.856,143.52L272.79200000000003,143.808C273.824,142.08,274.832,139.848,275.84,137.16L273.464,136.2ZM279.248,137.592L279.248,139.848L283.784,139.848L283.784,141.312L278.48,141.312L278.48,143.61599999999999L288.992,143.61599999999999C288.656,144.768,288.272,145.8,287.81600000000003,146.712L290.216,147.40800000000002C290.744,145.89600000000002,291.2,144.38400000000001,291.536,142.872L291.536,141.312L286.23199999999997,141.312L286.23199999999997,139.848L291.104,139.848L291.104,137.592L286.23199999999997,137.592L286.23199999999997,136.248L283.784,136.248L283.784,137.592L279.248,137.592ZM277.976,149.952L277.976,152.256L283.76,152.256C283.568,152.712,283.328,153.144,283.04,153.552C282.176,154.704,280.472,155.664,277.976,156.432L279.368,158.64C281.96,157.824,283.832,156.672,284.984,155.184L285.248,154.776C287.168,155.76,289.04,157.056,290.912,158.664L292.328,156.48C290.456,155.088,288.392,153.912,286.15999999999997,152.904L286.376,152.256L292.112,152.256L292.112,149.952L286.832,149.952C286.88,149.568,286.904,149.16,286.928,148.728L286.928,144.144L284.504,144.144L284.504,148.728C284.48,149.136,284.432,149.544,284.384,149.952L281.672,149.952L282.656,148.416C281.624,147.528,280.472,146.784,279.2,146.184L278.048,147.888C279.104,148.416,280.136,149.088,281.144,149.952L277.976,149.952ZM281.072,143.736L279.968,145.368C281.048,145.89600000000002,282.104,146.61599999999999,283.15999999999997,147.552L284.312,145.8C283.328,144.984,282.248,144.312,281.072,143.736ZM298.064,140.328L299.6,140.328C300.008,141.144,300.368,141.984,300.704,142.848L302.96,142.008C302.72,141.48,302.456,140.904,302.144,140.328L304.976,140.328L304.976,138.072L299.072,138.072C299.24,137.61599999999999,299.408,137.136,299.576,136.632L297.2,136.104C296.576,138.144,295.52,140.064,294.032,141.888L296.144,143.256C296.84000000000003,142.368,297.488,141.38400000000001,298.064,140.328ZM308.048,140.328L309.944,140.328C310.472,141.288,310.952,142.272,311.384,143.28L313.616,142.44C313.328,141.768,312.944,141.072,312.512,140.328L315.896,140.328L315.896,138.072L309.128,138.072C309.296,137.64,309.464,137.16,309.632,136.656L307.256,136.128C306.728,137.856,305.864,139.464,304.664,140.952L306.752,142.272C307.20799999999997,141.672,307.64,141.024,308.048,140.328ZM312.56,150.504L297.44,150.504L297.44,158.472L299.864,158.472L299.864,157.632L310.13599999999997,157.632L310.13599999999997,158.472L312.56,158.472L312.56,150.504ZM299.864,155.376L299.864,152.76L310.13599999999997,152.76L310.13599999999997,155.376L299.864,155.376ZM299.336,147.768L299.336,148.824L310.712,148.824L310.712,147.888C312.032,148.56,313.448,149.208,314.96,149.784L316.18399999999997,147.6C312.248,146.256,308.79200000000003,144.432,305.79200000000003,142.128L304.15999999999997,142.128C301.448,144.24,298.04,145.992,293.96,147.432L295.18399999999997,149.61599999999999C296.672,149.04,298.04,148.416,299.336,147.768ZM308.36,146.52L301.568,146.52C302.81600000000003,145.752,303.968,144.912,304.976,144.048C305.984,144.912,307.112,145.752,308.36,146.52ZM334.13599999999997,155.808C329.432,155.808,326.456,155.59199999999998,325.18399999999997,155.208L325.18399999999997,153.312L328.20799999999997,153.312L328.20799999999997,151.10399999999998L325.18399999999997,151.10399999999998L325.18399999999997,149.232L328.808,149.232L328.808,146.976L318.488,146.976L318.488,149.232L323.024,149.232L323.024,154.07999999999998C322.52,153.672,322.04,153.144,321.56,152.52C321.68,151.8,321.752,151.032,321.8,150.24L319.592,149.952C319.472,152.52,318.824,154.848,317.624,156.96L319.448,158.568C320.096,157.416,320.624,156.192,321.032,154.89600000000002C321.896,155.976,322.856,156.744,323.96,157.224C325.4,157.824,328.976,158.136,334.712,158.136L339.632,158.136L340.06399999999996,155.64C338.76800000000003,155.736,336.776,155.808,334.13599999999997,155.808ZM319.376,137.016L319.376,145.89600000000002L328.04,145.89600000000002L328.04,137.016L319.376,137.016ZM325.592,143.832L321.8,143.832L321.8,142.392L325.592,142.392L325.592,143.832ZM321.8,140.52L321.8,139.08L325.592,139.08L325.592,140.52L321.8,140.52ZM328.952,137.016L328.952,139.272L333.152,139.272C333.104,139.728,333.032,140.184,332.96,140.64L329.552,140.64L329.552,150.552L331.76,150.552L331.76,142.752L336.704,142.752L336.704,150.552L339.008,150.552L339.008,140.64L335.168,140.64C335.264,140.208,335.336,139.752,335.408,139.272L339.512,139.272L339.512,137.016L328.952,137.016ZM336.272,150.38400000000001L334.592,151.968C336.104,153.192,337.28,154.32,338.096,155.352L339.848,153.6C338.86400000000003,152.52,337.664,151.44,336.272,150.38400000000001ZM333.08,143.568L333.08,147.048C333.008,148.632,332.672,149.904,332.096,150.888C331.496,151.8,330.32,152.568,328.592,153.192L329.96,155.304C331.808,154.632,333.152,153.696,333.992,152.448C334.832,151.10399999999998,335.288,149.304,335.384,147.048L335.384,143.568L333.08,143.568Z" fill="#111111" fill-opacity="1"/></g><g><g><path d="M289.94,112.8L267.14,112.8L274.7,59.04L265.34,60.36L267.14,47.88L299.65999999999997,43.32L289.94,112.8Z" fill="#DB5D26" fill-opacity="1"/></g><g><path d="M303.776,98.504L303.776,100.928L311.696,100.928C311.336,102.224,310.904,103.328,310.376,104.21600000000001C308.912,106.664,306.44,108.8,302.936,110.6L304.544,112.664C308.384,110.55199999999999,311.12,108.08,312.728,105.224C313.208,104.36,313.616,103.328,314,102.128C315.776,106.64,318.944,110.144,323.528,112.664L325.112,110.6C320.648,108.32,317.576,105.104,315.896,100.928L324.296,100.928L324.296,98.504L314.792,98.504C315.008,97.112,315.176,95.528,315.32,93.776L323.576,93.776L323.576,91.376L304.424,91.376L304.424,93.776L312.776,93.776C312.656,95.504,312.488,97.064,312.248,98.504L303.776,98.504Z" fill="#DB5D26" fill-opacity="1"/></g></g><g clip-path="url(#master_svg0_2_10505)"><rect x="0" y="200" width="400" height="180" rx="12" fill="#FFFFFF" fill-opacity="1"/><g><g><g><g><ellipse cx="96" cy="282" rx="16" ry="16" fill="#DB5D26" fill-opacity="1"/></g><g><g><path d="M102.80000004768371,278.40000014305116C102.80000004768371,278.59835714305115,102.72630004768372,278.78964014305114,102.59320004768372,278.93673014305114L94.99323004768371,287.33673014305117C94.69680004768372,287.6644001430511,94.19090004768371,287.68970014305114,93.86327004768371,287.39323014305114C93.85339004768372,287.38429014305115,93.84374004768371,287.37511014305113,93.83432004768372,287.36569014305115L89.43461504768372,282.96599014305116L89.43461504768372,282.96599014305116C89.28428554768371,282.81566014305116,89.20000004768372,282.6121701430512,89.20000004768372,282.40000014305116C89.20000004768372,281.9581701430511,89.55817204768371,281.60000014305115,90.00000004768371,281.60000014305115C90.21217004768371,281.60000014305115,90.41566004768372,281.68429014305116,90.56569004768372,281.83431014305114L90.56569004768372,281.83431014305114L94.37101004768371,285.63964014305117L101.40680004768372,277.8632691430511C101.55840004768372,277.69563964305115,101.77390004768371,277.60000014305115,102.00000004768371,277.60000014305115C102.44180004768371,277.60000014305115,102.80000004768371,277.9581721430512,102.80000004768371,278.40000014305116Z" fill-rule="evenodd" fill="#FFFFFF" fill-opacity="1"/></g></g></g><g><path d="M88.36,235.9L88.36,237.94L103.68,237.94L103.68,235.9L88.36,235.9ZM89.72,242.74L89.72,244.78L102.3,244.78L102.3,242.74L89.72,242.74ZM86.92,250.1L86.92,252.18L105.08,252.18L105.08,250.1L86.92,250.1Z" fill="#DB5D26" fill-opacity="1"/></g></g><g><g><g><ellipse cx="148" cy="282" rx="16" ry="16" fill="#C2C2C2" fill-opacity="1"/></g><g><g><path d="M154.8000000476837,278.40000014305116C154.8000000476837,278.59835714305115,154.7263000476837,278.78964014305114,154.59320004768372,278.93673014305114L146.9932300476837,287.33673014305117C146.69680004768372,287.6644001430511,146.19090004768373,287.68970014305114,145.86327004768373,287.39323014305114C145.85339004768372,287.38429014305115,145.84374004768372,287.37511014305113,145.83432004768372,287.36569014305115L141.4346150476837,282.96599014305116L141.4346150476837,282.96599014305116C141.2842855476837,282.81566014305116,141.20000004768372,282.6121701430512,141.20000004768372,282.40000014305116C141.20000004768372,281.9581701430511,141.5581720476837,281.60000014305115,142.00000004768373,281.60000014305115C142.2121700476837,281.60000014305115,142.41566004768373,281.68429014305116,142.56569004768372,281.83431014305114L142.56569004768372,281.83431014305114L146.3710100476837,285.63964014305117L153.4068000476837,277.8632691430511C153.5584000476837,277.69563964305115,153.77390004768372,277.60000014305115,154.00000004768373,277.60000014305115C154.44180004768373,277.60000014305115,154.8000000476837,277.9581721430512,154.8000000476837,278.40000014305116Z" fill-rule="evenodd" fill="#FFFFFF" fill-opacity="1"/></g></g></g><g><path d="M156.48,235.66L139.52,235.66L139.52,252.78L141.64,252.78L141.64,251.82L154.36,251.82L154.36,252.78L156.48,252.78L156.48,235.66ZM141.64,249.96L141.64,237.54L144.78,237.54L144.78,241.54C144.74,243.76,143.74,245.38,141.78,246.38L143.4,247.8C145.62,246.48,146.76,244.4,146.8,241.54L146.8,237.54L149.12,237.54L149.12,245.08C149.12,246.34,149.8,246.98,151.2,246.98L153.9,246.98L153.9,245.06L151.82,245.06C151.36,245.06,151.14,244.9,151.14,244.58L151.14,237.54L154.36,237.54L154.36,249.96L141.64,249.96Z" fill="#C2C2C2" fill-opacity="1"/></g></g><g><g><g><ellipse cx="200" cy="282" rx="16" ry="16" fill="#C2C2C2" fill-opacity="1"/></g><g><g><path d="M206.8000000476837,278.40000014305116C206.8000000476837,278.59835714305115,206.7263000476837,278.78964014305114,206.59320004768372,278.93673014305114L198.9932300476837,287.33673014305117C198.69680004768372,287.6644001430511,198.19090004768373,287.68970014305114,197.86327004768373,287.39323014305114C197.85339004768372,287.38429014305115,197.84374004768372,287.37511014305113,197.83432004768372,287.36569014305115L193.4346150476837,282.96599014305116L193.4346150476837,282.96599014305116C193.2842855476837,282.81566014305116,193.20000004768372,282.6121701430512,193.20000004768372,282.40000014305116C193.20000004768372,281.9581701430511,193.5581720476837,281.60000014305115,194.00000004768373,281.60000014305115C194.2121700476837,281.60000014305115,194.41566004768373,281.68429014305116,194.56569004768372,281.83431014305114L194.56569004768372,281.83431014305114L198.3710100476837,285.63964014305117L205.4068000476837,277.8632691430511C205.5584000476837,277.69563964305115,205.77390004768372,277.60000014305115,206.00000004768373,277.60000014305115C206.44180004768373,277.60000014305115,206.8000000476837,277.9581721430512,206.8000000476837,278.40000014305116Z" fill-rule="evenodd" fill="#FFFFFF" fill-opacity="1"/></g></g></g><g><path d="M192.82,241.72L192.82,243.74L196.8,243.74L195.42,250.28L191.04,250.28L191.04,252.32L209,252.32L209,250.28L205.92,250.28L205.92,241.72L199.32,241.72L200.2,237.56L208.24,237.56L208.24,235.54L191.78,235.54L191.78,237.56L198.1,237.56L197.22,241.72L192.82,241.72ZM197.52,250.28L198.9,243.74L203.8,243.74L203.8,250.28L197.52,250.28Z" fill="#C2C2C2" fill-opacity="1"/></g></g><g><g><g><ellipse cx="252" cy="282" rx="16" ry="16" fill="#C2C2C2" fill-opacity="1"/></g><g><g><path d="M258.80000004768374,278.40000014305116C258.80000004768374,278.59835714305115,258.7263000476837,278.78964014305114,258.5932000476837,278.93673014305114L250.9932300476837,287.33673014305117C250.69680004768372,287.6644001430511,250.19090004768373,287.68970014305114,249.86327004768373,287.39323014305114C249.85339004768372,287.38429014305115,249.84374004768372,287.37511014305113,249.83432004768372,287.36569014305115L245.4346150476837,282.96599014305116L245.4346150476837,282.96599014305116C245.2842855476837,282.81566014305116,245.20000004768372,282.6121701430512,245.20000004768372,282.40000014305116C245.20000004768372,281.9581701430511,245.5581720476837,281.60000014305115,246.00000004768373,281.60000014305115C246.2121700476837,281.60000014305115,246.41566004768373,281.68429014305116,246.56569004768372,281.83431014305114L246.56569004768372,281.83431014305114L250.3710100476837,285.63964014305117L257.4068000476837,277.8632691430511C257.55840004768373,277.69563964305115,257.7739000476837,277.60000014305115,258.0000000476837,277.60000014305115C258.4418000476837,277.60000014305115,258.80000004768374,277.9581721430512,258.80000004768374,278.40000014305116Z" fill-rule="evenodd" fill="#FFFFFF" fill-opacity="1"/></g></g></g><g><path d="M242.9,242.62L242.9,244.7L261.08,244.7L261.08,242.62L242.9,242.62Z" fill="#C2C2C2" fill-opacity="1"/></g></g><g><g><g><ellipse cx="304" cy="282" rx="16" ry="16" fill="#C2C2C2" fill-opacity="1"/></g><g><g><path d="M310.80000004768374,278.40000014305116C310.80000004768374,278.59835714305115,310.7263000476837,278.78964014305114,310.5932000476837,278.93673014305114L302.9932300476837,287.33673014305117C302.6968000476837,287.6644001430511,302.1909000476837,287.68970014305114,301.8632700476837,287.39323014305114C301.8533900476837,287.38429014305115,301.8437400476837,287.37511014305113,301.8343200476837,287.36569014305115L297.43461504768374,282.96599014305116L297.43461504768374,282.96599014305116C297.28428554768374,282.81566014305116,297.2000000476837,282.6121701430512,297.2000000476837,282.40000014305116C297.2000000476837,281.9581701430511,297.55817204768374,281.60000014305115,298.0000000476837,281.60000014305115C298.21217004768374,281.60000014305115,298.41566004768373,281.68429014305116,298.5656900476837,281.83431014305114L298.5656900476837,281.83431014305114L302.37101004768374,285.63964014305117L309.4068000476837,277.8632691430511C309.55840004768373,277.69563964305115,309.7739000476837,277.60000014305115,310.0000000476837,277.60000014305115C310.4418000476837,277.60000014305115,310.80000004768374,277.9581721430512,310.80000004768374,278.40000014305116Z" fill-rule="evenodd" fill="#FFFFFF" fill-opacity="1"/></g></g></g><g><path d="M296.82,236.56L296.82,238.62L311.18,238.62L311.18,236.56L296.82,236.56ZM294.96,249.14L294.96,251.24L313.02,251.24L313.02,249.14L294.96,249.14Z" fill="#C2C2C2" fill-opacity="1"/></g></g></g><g><path d="M54.32,332.584L49.136,332.584L49.136,345.256L50.8,345.256L50.8,344.088L54.32,344.088L54.32,332.584ZM50.8,342.456L50.8,339.016L52.704,339.016L52.704,342.456L50.8,342.456ZM50.8,337.4L50.8,334.216L52.704,334.216L52.704,337.4L50.8,337.4ZM57.408,337.688L60.976,337.688L60.976,339.96L57.408,339.96L57.408,337.688ZM60.976,336.136L57.408,336.136L57.408,333.864L60.976,333.864L60.976,336.136ZM57.296,341.528L60.976,341.528L60.976,344.2C60.976,344.712,60.768,344.968,60.384,344.968C59.808,344.968,59.152,344.936,58.448,344.888L58.912,346.52L60.928,346.52C62.08,346.52,62.672,345.944,62.672,344.79200000000003L62.672,332.248L55.712,332.248L55.712,340.056C55.68,342.296,55.104,344.152,53.952,345.592L55.28,346.808C56.4,345.4,57.072,343.64,57.296,341.528ZM65.184,337.336L65.184,338.952L70.464,338.952C70.224,339.816,69.936,340.552,69.584,341.144C68.608,342.776,66.96000000000001,344.2,64.624,345.4L65.696,346.776C68.256,345.368,70.08,343.72,71.152,341.816C71.47200000000001,341.24,71.744,340.552,72,339.752C73.184,342.76,75.29599999999999,345.096,78.352,346.776L79.408,345.4C76.432,343.88,74.384,341.736,73.264,338.952L78.864,338.952L78.864,337.336L72.52799999999999,337.336C72.672,336.408,72.78399999999999,335.352,72.88,334.184L78.384,334.184L78.384,332.584L65.616,332.584L65.616,334.184L71.184,334.184C71.104,335.336,70.992,336.376,70.832,337.336L65.184,337.336ZM87.488,331.784L87.488,335.72L84.576,336.36L84.576,333.064L82.928,333.064L82.928,336.728L80.576,337.256L80.576,338.856L82.928,338.36L82.928,343.736C82.928,345.352,83.696,346.168,85.232,346.168L92.72,346.168C93.72800000000001,346.168,94.416,345.992,94.78399999999999,345.64C95.152,345.272,95.408,344.248,95.536,342.552L94,342.024C93.936,343.288,93.792,344.04,93.568,344.264C93.328,344.456,92.944,344.568,92.432,344.568L85.632,344.568C84.928,344.568,84.576,344.216,84.576,343.512L84.576,338.008L87.488,337.384L87.488,342.808L89.136,342.808L89.136,337.032L92.336,336.36C92.32,338.376,92.288,339.544,92.22399999999999,339.864C92.16,340.344,91.98400000000001,340.6,91.712,340.6C91.29599999999999,340.6,90.8,340.584,90.256,340.568L90.70400000000001,342.104L91.408,342.104C92.72,342.104,93.47200000000001,341.672,93.648,340.824C93.824,340.056,93.92,337.864,93.92,334.28L89.136,335.352L89.136,331.784L87.488,331.784ZM96.864,332.36L96.864,333.864L101.408,333.864L101.408,334.92L97.80799999999999,334.92L97.80799999999999,339.24L101.792,339.24C101.6,339.56,101.392,339.896,101.2,340.248L96.656,340.248L96.656,341.784L100.24000000000001,341.784C99.92,342.28,99.584,342.776,99.232,343.288C100.416,343.56,101.6,343.864,102.8,344.216C101.392,344.648,99.488,345,97.056,345.256L97.68,346.76C101.104,346.296,103.55199999999999,345.688,105.056,344.92C106.73599999999999,345.464,108.416,346.104,110.096,346.808L111.136,345.432C109.568,344.84,108.048,344.328,106.544,343.88C107.21600000000001,343.272,107.712,342.584,108.01599999999999,341.784L111.328,341.784L111.328,340.248L103.104,340.248L103.68,339.24L110.19200000000001,339.24L110.19200000000001,334.92L106.592,334.92L106.592,333.864L111.136,333.864L111.136,332.36L96.864,332.36ZM104.75200000000001,343.368C103.68,343.08,102.624,342.824,101.6,342.616C101.75999999999999,342.36,101.952,342.088,102.16,341.784L106.288,341.784C105.968,342.392,105.456,342.92,104.75200000000001,343.368ZM105.00800000000001,334.92L102.99199999999999,334.92L102.99199999999999,333.864L105.00800000000001,333.864L105.00800000000001,334.92ZM108.592,337.832L106.592,337.832L106.592,336.328L108.592,336.328L108.592,337.832ZM105.00800000000001,337.832L102.99199999999999,337.832L102.99199999999999,336.328L105.00800000000001,336.328L105.00800000000001,337.832ZM101.408,337.832L99.408,337.832L99.408,336.328L101.408,336.328L101.408,337.832ZM120.512,334.632L119.328,335.208C119.616,335.672,119.904,336.184,120.16,336.76L117.968,336.76L117.968,338.344L127.04,338.344L127.04,336.76L124.784,336.76C125.104,336.2,125.392,335.592,125.648,334.92L124.848,334.632L126.752,334.632L126.752,333.128L123.28,333.128C123.12,332.616,122.976,332.136,122.816,331.72L121.088,332.008C121.28,332.36,121.44,332.728,121.6,333.128L118.352,333.128L118.352,334.632L120.512,334.632ZM121.744,336.76C121.424,335.992,121.088,335.288,120.72,334.632L123.984,334.632C123.712,335.368,123.392,336.088,123.024,336.76L121.744,336.76ZM114.624,346.52C115.712,346.52,116.272,345.976,116.272,344.888L116.272,340.472C116.64,340.296,117.008,340.12,117.392,339.928L117.392,338.23199999999997C117.024,338.424,116.656,338.616,116.272,338.808L116.272,336.36L117.424,336.36L117.424,334.744L116.272,334.744L116.272,331.912L114.576,331.912L114.576,334.744L112.8,334.744L112.8,336.36L114.576,336.36L114.576,339.512C113.888,339.76800000000003,113.184,339.96,112.464,340.12L112.896,341.8C113.456,341.608,114.016,341.416,114.576,341.208L114.576,344.456C114.576,344.808,114.4,345,114.048,345C113.664,345,113.264,344.968,112.848,344.904L113.216,346.52L114.624,346.52ZM120.864,338.52C120.736,338.888,120.576,339.272,120.384,339.688L117.76,339.688L117.76,341.288L119.584,341.288C119.264,341.832,118.928,342.408,118.544,343C119.568,343.4,120.512,343.8,121.408,344.184C120.464,344.616,119.2,344.968,117.632,345.256L118.272,346.76C120.496,346.312,122.144,345.736,123.216,345C124.464,345.576,125.488,346.136,126.32,346.648L127.232,345.32C126.32,344.808,125.376,344.344,124.4,343.912C125.008,343.176,125.44,342.312,125.68,341.288L127.312,341.288L127.312,339.688L122.08,339.688C122.208,339.368,122.352,339.048,122.48,338.712L120.864,338.52ZM124.112,341.288C123.856,342.056,123.44,342.696,122.88,343.24C122.128,342.92,121.36,342.616,120.592,342.344C120.816,342.008,121.04,341.656,121.264,341.288L124.112,341.288ZM129.61599999999999,332.936L129.61599999999999,334.312L134.848,334.312L134.656,334.984L130.49599999999998,334.984L130.49599999999998,336.328L134.112,336.328C133.98399999999998,336.552,133.872,336.792,133.744,337.016L128.752,337.016L128.752,338.392L132.752,338.392C131.664,339.656,130.24,340.68,128.44799999999998,341.464L129.216,342.936C130.112,342.472,130.94400000000002,341.96,131.712,341.384L131.712,346.696L133.344,346.696L133.344,346.184L139.936,346.184L139.936,346.696L141.56799999999998,346.696L141.56799999999998,339.112L134.07999999999998,339.112C134.256,338.888,134.43200000000002,338.648,134.624,338.392L143.248,338.392L143.248,337.016L135.44,337.016C135.55200000000002,336.792,135.664,336.568,135.776,336.328L141.55200000000002,336.328L141.55200000000002,334.984L136.272,334.984L136.464,334.312L142.4,334.312L142.4,332.936L139.392,332.936C139.61599999999999,332.616,139.792,332.264,139.92000000000002,331.896L138.288,331.672C138.16,332.104,137.96800000000002,332.52,137.744,332.936L134.38400000000001,332.936C134.208,332.472,134.01600000000002,332.056,133.824,331.672L132.176,331.96C132.38400000000001,332.264,132.576,332.584,132.768,332.936L129.61599999999999,332.936ZM133.344,342.23199999999997L139.936,342.23199999999997L139.936,342.936L133.344,342.936L133.344,342.23199999999997ZM139.936,341.048L133.344,341.048L133.344,340.392L139.936,340.392L139.936,341.048ZM139.936,344.904L133.344,344.904L133.344,344.136L139.936,344.136L139.936,344.904ZM147.376,334.552L148.4,334.552C148.672,335.096,148.912,335.656,149.136,336.23199999999997L150.64,335.672C150.48000000000002,335.32,150.304,334.936,150.096,334.552L151.98399999999998,334.552L151.98399999999998,333.048L148.048,333.048C148.16,332.744,148.272,332.424,148.38400000000001,332.088L146.8,331.736C146.38400000000001,333.096,145.68,334.376,144.688,335.592L146.096,336.504C146.56,335.912,146.99200000000002,335.256,147.376,334.552ZM154.03199999999998,334.552L155.296,334.552C155.648,335.192,155.96800000000002,335.848,156.256,336.52L157.744,335.96C157.55200000000002,335.512,157.296,335.048,157.00799999999998,334.552L159.264,334.552L159.264,333.048L154.752,333.048C154.864,332.76,154.976,332.44,155.088,332.104L153.50400000000002,331.752C153.152,332.904,152.576,333.976,151.776,334.968L153.168,335.848C153.47199999999998,335.448,153.76,335.016,154.03199999999998,334.552ZM157.04000000000002,341.336L146.95999999999998,341.336L146.95999999999998,346.648L148.576,346.648L148.576,346.088L155.424,346.088L155.424,346.648L157.04000000000002,346.648L157.04000000000002,341.336ZM148.576,344.584L148.576,342.84L155.424,342.84L155.424,344.584L148.576,344.584ZM148.224,339.512L148.224,340.216L155.808,340.216L155.808,339.592C156.688,340.04,157.632,340.472,158.64,340.856L159.45600000000002,339.4C156.832,338.504,154.52800000000002,337.288,152.52800000000002,335.752L151.44,335.752C149.632,337.16,147.36,338.328,144.64,339.288L145.45600000000002,340.744C146.44799999999998,340.36,147.36,339.944,148.224,339.512ZM154.24,338.68L149.712,338.68C150.54399999999998,338.168,151.312,337.608,151.98399999999998,337.032C152.656,337.608,153.40800000000002,338.168,154.24,338.68ZM163.10399999999998,342.584C162.704,342.584,162.38400000000001,342.696,162.144,342.936C161.888,343.16,161.76,343.464,161.76,343.848C161.76,344.2,161.872,344.504,162.112,344.744C162.352,344.984,162.64,345.112,162.99200000000002,345.112C163.168,345.112,163.296,345.08,163.392,345.048C163.392,345.432,163.264,345.8,162.976,346.184C162.672,346.536,162.304,346.79200000000003,161.872,346.952L161.872,348.008C162.704,347.76800000000003,163.376,347.336,163.872,346.712C164.352,346.072,164.608,345.336,164.608,344.488C164.608,343.928,164.464,343.464,164.192,343.112C163.904,342.76,163.536,342.584,163.10399999999998,342.584ZM177.088,332.552L177.088,334.184L183.872,334.184C182.464,336.936,180.032,339.272,176.576,341.224L177.68,342.68C179.856,341.368,181.68,339.896,183.136,338.264L183.136,346.696L184.864,346.696L184.864,335.912C185.2,335.352,185.504,334.776,185.776,334.184L190.912,334.184L190.912,332.552L177.088,332.552ZM186.88,336.936L185.68,338.088C187.568,339.64,189.04,341.096,190.064,342.44L191.376,341.112C190.16,339.72,188.656,338.328,186.88,336.936ZM205.312,332.008L204.144,332.728C204.8,333.528,205.312,334.264,205.696,334.936L206.928,334.088C206.544,333.48,206,332.792,205.312,332.008ZM202.176,331.928L202.176,334.072C202.16,334.408,202.144,334.744,202.112,335.08L200.272,335.08C200.368,334.76,200.448,334.44,200.544,334.104L200.544,332.728L197.424,332.728C197.488,332.488,197.568,332.248,197.648,331.992L196.032,331.784C195.408,334.024,194.224,335.928,192.464,337.48L193.472,338.792C193.696,338.568,193.936,338.344,194.192,338.104C194.8,338.376,195.408,338.712,196.016,339.096C195.168,339.864,194.16,340.472,192.992,340.936L193.792,342.424C196.816,340.984,198.896,338.776,200.016,335.816L200.016,336.712L201.856,336.712C201.728,337.304,201.552,337.848,201.328,338.328C200.816,339.352,199.824,340.2,198.368,340.888L199.216,342.2C200.768,341.528,201.888,340.584,202.576,339.368C202.768,338.984,202.944,338.568,203.104,338.12C203.776,339.76800000000003,204.944,341.144,206.608,342.23199999999997L207.504,340.776C205.728,339.76800000000003,204.592,338.408,204.096,336.712L206.96,336.712L206.96,335.08L203.68,335.08L203.728,334.072L203.728,331.928L202.176,331.928ZM194.704,342.36C194.304,343.912,193.824,345.192,193.28,346.2L194.912,346.79200000000003C195.424,345.64,195.84,344.296,196.176,342.776L194.704,342.36ZM198.976,342.616L197.424,342.936C197.584,344.008,197.712,345.256,197.808,346.664L199.44,346.264C199.296,344.952,199.136,343.736,198.976,342.616ZM202.272,342.44L200.688,342.776C201.04,343.896,201.344,345.20799999999997,201.6,346.696L203.248,346.296C202.96,344.92,202.64,343.624,202.272,342.44ZM205.328,342.12L203.936,342.792C204.576,343.928,205.184,345.224,205.728,346.664L207.232,345.912C206.624,344.52,205.984,343.256,205.328,342.12ZM195.792,336.136C196.448,336.36,197.088,336.648,197.728,337C197.504,337.352,197.28,337.704,197.024,338.024C196.432,337.672,195.792,337.368,195.104,337.08C195.344,336.776,195.568,336.456,195.792,336.136ZM198.352,335.736C197.744,335.448,197.12,335.192,196.496,334.968C196.624,334.712,196.736,334.456,196.864,334.2L198.88,334.2C198.736,334.728,198.56,335.24,198.352,335.736ZM210.24,331.992L209.088,333.08C210.24,334.008,211.12,334.872,211.728,335.672L212.928,334.488C212.192,333.656,211.296,332.824,210.24,331.992ZM219.344,346.408L223.008,346.408L223.408,344.76C222.976,344.79200000000003,222.352,344.824,221.536,344.856C220.704,344.856,219.904,344.872,219.104,344.872C217.888,344.872,216.816,344.856,215.904,344.84C214.976,344.808,214.288,344.68,213.824,344.44C213.456,344.23199999999997,213.088,343.912,212.736,343.496L212.576,343.336L212.576,337.24L208.912,337.24L208.912,338.776L211.024,338.776L211.024,343.16C210.384,343.512,209.68,344.328,208.88,345.608L210.112,346.744C210.912,345.304,211.456,344.6,211.76,344.6C211.952,344.6,212.144,344.728,212.352,345C212.816,345.544,213.36,345.912,214,346.104C214.672,346.264,215.504,346.36,216.528,346.376C217.536,346.392,218.48,346.408,219.344,346.408ZM213.376,333.336L213.376,334.888L215.152,334.888C214.704,335.832,214.208,336.632,213.68,337.272L214.048,338.792L217.488,338.792L217.488,340.216L213.216,340.216L213.216,341.76800000000003L217.488,341.76800000000003L217.488,344.408L219.104,344.408L219.104,341.76800000000003L223.072,341.76800000000003L223.072,340.216L219.104,340.216L219.104,338.792L222.384,338.792L222.384,337.288L219.104,337.288L219.104,335.656L217.488,335.656L217.488,337.288L215.616,337.288C216.064,336.568,216.496,335.768,216.912,334.888L222.896,334.888L222.896,333.336L217.536,333.336C217.664,332.936,217.808,332.52,217.968,332.072L216.384,331.688C216.192,332.264,216.016,332.808,215.824,333.336L213.376,333.336ZM229.728,342.984C228.352,343.528,226.72,343.944,224.864,344.264L225.072,345.896C226.8,345.56,228.352,345.112,229.728,344.552L229.728,342.984ZM226.976,331.8C226.496,333.464,225.952,334.984,225.312,336.36C225.104,336.664,224.88,336.872,224.624,336.968L225.024,338.488C225.728,338.376,226.416,338.264,227.088,338.168C226.416,339.304,225.872,340.104,225.44,340.552C225.232,340.76,224.976,340.92,224.688,341.032L225.12,342.536C226.496,342.36,227.968,342.008,229.536,341.48L229.536,339.976C228.72,340.264,227.92,340.504,227.136,340.68C227.968,339.608,229.008,337.928,230.256,335.656L228.72,335.08L227.904,336.68L226.528,336.872C227.216,335.72,227.888,334.232,228.56,332.44L226.976,331.8ZM230.832,332.728L230.832,334.232L233.856,334.232L233.856,335.208L230.32,335.208L230.32,336.744L237.328,336.744C237.104,337.512,236.848,338.2,236.544,338.808L238.144,339.272C238.496,338.264,238.8,337.256,239.024,336.248L239.024,335.208L235.488,335.208L235.488,334.232L238.736,334.232L238.736,332.728L235.488,332.728L235.488,331.832L233.856,331.832L233.856,332.728L230.832,332.728ZM229.984,340.968L229.984,342.504L233.84,342.504C233.712,342.808,233.552,343.096,233.36,343.368C232.784,344.136,231.648,344.776,229.984,345.288L230.912,346.76C232.64,346.216,233.888,345.448,234.656,344.456L234.832,344.184C236.112,344.84,237.36,345.704,238.608,346.776L239.552,345.32C238.304,344.392,236.928,343.608,235.44,342.936L235.584,342.504L239.408,342.504L239.408,340.968L235.888,340.968C235.92,340.712,235.936,340.44,235.952,340.152L235.952,337.096L234.336,337.096L234.336,340.152C234.32,340.424,234.288,340.696,234.256,340.968L232.448,340.968L233.104,339.944C232.416,339.352,231.648,338.856,230.8,338.456L230.032,339.592C230.736,339.944,231.424,340.392,232.096,340.968L229.984,340.968ZM232.048,336.824L231.312,337.912C232.032,338.264,232.736,338.744,233.44,339.368L234.208,338.2C233.552,337.656,232.832,337.208,232.048,336.824ZM255.6,342.168L253.936,341.624C253.872,342.76,253.776,343.528,253.648,343.944C253.52,344.36,253.168,344.584,252.624,344.584L249.456,344.584C249.008,344.552,248.784,344.312,248.784,343.864L248.784,338.872L254.368,338.872L254.368,332.472L246.496,332.472L246.496,334.072L252.768,334.072L252.768,337.272L247.152,337.272L247.152,344.536C247.152,345.608,247.664,346.152,248.72,346.152L252.896,346.152C253.92,346.152,254.576,345.896,254.88,345.416C255.2,344.904,255.44,343.816,255.6,342.168ZM242.848,331.96L241.664,333.112C242.8,333.944,243.68,334.728,244.288,335.464L245.44,334.296C244.72,333.528,243.856,332.744,242.848,331.96ZM240.624,336.584L240.624,338.184L242.816,338.184L242.816,343.864C242.816,344.2,242.672,344.488,242.384,344.728L243.024,346.23199999999997C244.256,345.48,245.424,344.632,246.512,343.672L246.064,341.928C245.488,342.456,244.944,342.92,244.432,343.336L244.432,336.584L240.624,336.584ZM258.688,332.328L258.688,333.832L266.528,333.832L266.528,334.952L259.23199999999997,334.952L259.23199999999997,336.392L266.528,336.392L266.528,337.496L257.08799999999997,337.496L257.08799999999997,339.016L263.072,339.016L263.072,340.776C261.312,342.28,259.248,343.56,256.848,344.648L257.52,346.2C259.648,345.096,261.504,343.864,263.072,342.488L263.072,344.584C263.072,345,262.94399999999996,345.224,262.704,345.224C262.15999999999997,345.224,261.6,345.176,261.024,345.112L261.392,346.68L263.264,346.68C264.24,346.68,264.736,346.104,264.736,344.984L264.736,342.424C266.11199999999997,343.912,267.91999999999996,345.176,270.15999999999997,346.23199999999997L271.00800000000004,344.76C269.44,344.088,268.06399999999996,343.336,266.88,342.472C267.93600000000004,341.896,268.88,341.08,269.712,340.056L268.448,339.016L270.928,339.016L270.928,337.496L268.224,337.496L268.224,332.328L258.688,332.328ZM259.08799999999997,339.256L257.98400000000004,340.312C259.00800000000004,341.016,259.79200000000003,341.656,260.352,342.264L261.44,341.176C260.8,340.536,260.01599999999996,339.896,259.08799999999997,339.256ZM268.416,339.016C267.664,340.104,266.76800000000003,340.952,265.744,341.56C265.376,341.24,265.03999999999996,340.92,264.736,340.584L264.736,339.016L268.416,339.016ZM279.392,331.816C277.536,333.896,275.216,335.624,272.416,337L273.312,338.632C274.272,338.104,275.18399999999997,337.544,276.03200000000004,336.952L276.03200000000004,338.168L284.01599999999996,338.168L284.01599999999996,337.016C284.832,337.592,285.696,338.136,286.624,338.616L287.536,336.984C284.91200000000003,335.736,282.608,334.008,280.608,331.816L279.392,331.816ZM276.512,336.6C277.856,335.608,279.00800000000004,334.504,280,333.32C281.00800000000004,334.536,282.15999999999997,335.624,283.472,336.6L276.512,336.6ZM273.52,339.8L273.52,341.432L277.13599999999997,341.432C276.576,342.456,275.904,343.448,275.10400000000004,344.392C274.928,344.584,274.64,344.744,274.24,344.84L274.688,346.296C278.4,346.072,281.488,345.76800000000003,283.96799999999996,345.384C284.272,345.8,284.56,346.23199999999997,284.832,346.648L286.224,345.672C285.424,344.52,284.304,343.144,282.848,341.576L281.552,342.392C282.08000000000004,343,282.576,343.592,283.03999999999996,344.168C280.99199999999996,344.408,278.88,344.584,276.72,344.712C277.616,343.784,278.4,342.68,279.072,341.432L286.512,341.432L286.512,339.8L273.52,339.8ZM292.4,331.864L292.4,338.888C292.368,341.96,291.248,344.184,289.072,345.576L290.336,346.68C292.76800000000003,345.048,294,342.44,294.06399999999996,338.888L294.06399999999996,331.864L292.4,331.864ZM289.10400000000004,333.416L289.10400000000004,341.288L290.76800000000003,341.288L290.76800000000003,333.416L289.10400000000004,333.416ZM294.81600000000003,332.952L294.81600000000003,334.584L301.072,334.584L301.072,338.312L295.248,338.312L295.248,339.912L301.072,339.912L301.072,343.864L294.528,343.864L294.528,345.496L301.072,345.496L301.072,346.28L302.76800000000003,346.28L302.76800000000003,332.952L294.81600000000003,332.952ZM311.472,339.752L310.512,340.632C310.928,340.872,311.344,341.144,311.728,341.464L307.408,341.464L307.408,342.84L314.128,342.84C313.472,343.336,312.768,343.784,312,344.184C311.088,343.88,310.144,343.608,309.168,343.352L308.352,344.568C310.496,345.128,312.592,345.896,314.64,346.872L315.504,345.544C314.896,345.256,314.272,345,313.632,344.76C314.592,344.152,315.504,343.432,316.352,342.616L316.352,341.464L312.96,341.464L313.312,341.064C312.736,340.552,312.112,340.104,311.472,339.752ZM311.216,338.04C311.056,338.136,310.88,338.248,310.704,338.344L310.704,337.56L307.296,337.56L307.296,338.6L310.256,338.6C308.704,339.432,306.8,340.152,304.56,340.76L305.488,342.104C308.016,341.304,310.176,340.28,311.968,339C313.584,340.28,315.744,341.304,318.448,342.104L319.376,340.744C317.008,340.152,315.088,339.432,313.584,338.6L316.704,338.6L316.704,337.56L313.328,337.56L313.328,338.456C313.136,338.344,312.96,338.23199999999997,312.784,338.12L312.784,335.448L317.168,335.448L317.168,337.464L318.768,337.464L318.768,334.2L312.784,334.2L312.784,333.56L317.92,333.56L317.92,332.248L306.064,332.248L306.064,333.56L311.216,333.56L311.216,334.2L305.232,334.2L305.232,337.464L306.832,337.464L306.832,335.448L311.216,335.448L311.216,338.04ZM307.328,335.976L307.328,337.016L310.688,337.016L310.688,335.976L307.328,335.976ZM313.344,335.976L313.344,337.016L316.656,337.016L316.656,335.976L313.344,335.976ZM325.408,333L321.024,333L321.024,345.128L322.624,345.128L322.624,344.104L323.808,344.104L323.808,344.79200000000003L325.408,344.79200000000003L325.408,333ZM322.624,342.504L322.624,334.6L323.808,334.6L323.808,342.504L322.624,342.504ZM327.408,346.552C328.56,346.552,329.152,345.992,329.152,344.888L329.152,341.288L330.304,340.904L330.304,339.24C329.92,339.384,329.536,339.512,329.152,339.64L329.152,337.688L330.864,337.688C330.928,339.08,331.024,340.296,331.152,341.336C331.216,341.816,331.28,342.264,331.376,342.712C330.768,343.416,330.096,343.992,329.328,344.408L330.224,345.76800000000003C330.784,345.432,331.328,345,331.856,344.488C331.952,344.776,332.048,345.048,332.176,345.304C332.592,346.136,333.072,346.568,333.616,346.568C334.336,346.568,334.976,345.56,335.52,343.544L334.32,342.552C334.064,343.976,333.824,344.696,333.616,344.728C333.36,344.664,333.12,344.168,332.896,343.24C333.68,342.104,334.352,340.696,334.896,339.032L333.632,338.36C333.312,339.336,332.96,340.216,332.544,340.984C332.448,340.04,332.368,338.936,332.32,337.688L334.896,337.688L334.896,336.104L332.256,336.104C332.224,335.176,332.208,334.2,332.208,333.144C332.784,333.784,333.376,334.552,333.984,335.432L335.2,334.488C334.624,333.704,333.984,332.968,333.312,332.28L332.208,333.112L332.208,331.912L330.736,331.912C330.736,333.432,330.752,334.824,330.8,336.104L329.152,336.104L329.152,334.04C329.616,333.72,330.032,333.368,330.384,332.968L329.184,331.992C328.416,332.824,327.232,333.432,325.664,333.8L326.32,335.24C326.736,335.128,327.136,335,327.536,334.84L327.536,336.104L325.664,336.104L325.664,337.688L327.536,337.688L327.536,340.104C326.864,340.264,326.176,340.408,325.504,340.504L325.92,342.168C326.464,342.04,326.992,341.896,327.536,341.76800000000003L327.536,344.472C327.536,344.888,327.296,345.096,326.848,345.096C326.512,345.096,326.16,345.048,325.776,344.984L326.144,346.552L327.408,346.552ZM341.168,337.432C340.016,337.432,338.88,338.216,337.76,339.816L338.944,340.808C339.824,339.608,340.56,339.016,341.168,339.016C341.76,339.016,342.384,339.192,343.024,339.544C343.568,339.864,344.128,340.2,344.672,340.536C345.36,340.888,346.08,341.064,346.848,341.064C347.984,341.064,349.12,340.264,350.256,338.68L349.072,337.688C348.176,338.872,347.44,339.48,346.848,339.48C346.272,339.48,345.648,339.304,345.008,338.952C344.448,338.616,343.888,338.28,343.328,337.96C342.624,337.608,341.904,337.432,341.168,337.432Z" fill="#3D3D3D" fill-opacity="1"/></g><rect x="0.5" y="200.5" width="399" height="179" rx="11.5" fill-opacity="0" stroke-opacity="1" stroke="#C2C2C2" fill="none" stroke-width="1"/></g><g><path d="M88.4118,47.14710827636719Q71.9265,16.23726827636719,47.042474,21.092558276367185L42.13499,22.05005827636719L44.05005,31.865028276367187L48.957526,30.907468276367187Q66.5831,27.468428276367188,79.5882,51.85290827636719L81.94120000000001,56.26470827636719L90.7647,51.55880827636719L88.4118,47.14710827636719L88.4118,47.14710827636719Z" fill-rule="evenodd" fill="#0061EE" fill-opacity="1"/></g><g transform="matrix(-1,0,0,1,408,0)"><path d="M219.4688,90.287571Q212.13835,83.58096,203.043373,85.35381L198.13571,86.31042L200.04898,96.12573L204.956627,95.16908Q211.95693,93.80454,217.5892,104.3547L219.94389999999999,108.7656L228.7656,104.0561L226.4108,99.64527Q223.2734,93.76836,219.4688,90.287571Z" fill-rule="evenodd" fill="#4AB832" fill-opacity="1"/></g><g><ellipse cx="119.5" cy="14.5" rx="5.5" ry="5.5" fill="#DB5D26" fill-opacity="1"/></g></g></svg>