<svg xmlns="http://www.w3.org/2000/svg" xmlns:xlink="http://www.w3.org/1999/xlink" fill="none" version="1.1" width="480" height="600" viewBox="0 0 480 600"><defs><linearGradient x1="0" y1="0.16720843315124512" x2="1.0571787532775343" y2="0.3145698626213793" id="master_svg0_2_5795"><stop offset="0%" stop-color="#BEE0FB" stop-opacity="1"/><stop offset="100%" stop-color="#94CCFF" stop-opacity="1"/></linearGradient></defs><g><g><path d="M0,528.0000305175781C0,567.7650305175781,32.2355,600.0000305175781,72,600.0000305175781C111.765,600.0000305175781,144,567.7650305175781,144,528.0000305175781L144,456.0000305175781L72,456.0000305175781C32.2355,456.0000305175781,0,488.2355305175781,0,528.0000305175781Z" fill="#5BC279" fill-opacity="1"/></g><g transform="matrix(1,0,0,-1,0,288)"><path d="M0,216C0,255.765,32.2355,288,72,288C111.765,288,144,255.765,144,216L144,144L72,144C32.2355,144,0,176.2355,0,216Z" fill="#536EF1" fill-opacity="1"/></g><g transform="matrix(-1,0,0,-1,960.0000610351562,288)"><path d="M480.0000305175781,216C480.0000305175781,255.765,512.2355305175781,288,552.0000305175781,288C591.7650305175781,288,624.0000305175781,255.765,624.0000305175781,216L624.0000305175781,144L552.0000305175781,144C512.2355305175781,144,480.0000305175781,176.2355,480.0000305175781,216Z" fill="#ED8456" fill-opacity="1"/></g><g transform="matrix(-1,0,0,1,576,0)"><path d="M288,528.0000305175781C288,567.7650305175781,320.2355,600.0000305175781,360,600.0000305175781C399.765,600.0000305175781,432,567.7650305175781,432,528.0000305175781L432,456.0000305175781L360,456.0000305175781C320.2355,456.0000305175781,288,488.2355305175781,288,528.0000305175781Z" fill="#46B66E" fill-opacity="1"/></g><g><path d="M144,456L212.4,456C254.15300000000002,456,288,422.153,288,380.4L288,312L219.6,312C177.8473,312,144,345.8473,144,387.6L144,456Z" fill="#FFDD00" fill-opacity="1"/></g><g><path d="M0,456L48,456C101.019,456,144,413.019,144,360L144,240C144,186.9807,101.019,144,48,144L0,144L0,456Z" fill="#ED8456" fill-opacity="1"/></g><g><path d="M144,216C144,269.019,186.9807,312,240,312L396,312C442.392,312,480,274.392,480,228C480,181.6081,442.392,144,396,144L144,144L144,216Z" fill="url(#master_svg0_2_5795)" fill-opacity="1"/></g><g><path d="M145.20001220703125,144L336.00001220703126,144L336.00001220703126,95.4C336.00001220703126,42.712,293.2880122070312,0,240.60001220703126,0C187.91201220703124,0,145.20001220703125,42.712,145.20001220703125,95.4L145.20001220703125,144Z" fill="#FFDD00" fill-opacity="1"/></g><g><path d="M288,504C288,557.019,330.9807,600,384,600C437.019,600,480,557.019,480,504L480,408C480,354.9807,437.019,312,384,312L288,312L288,504Z" fill="#536EF1" fill-opacity="1"/></g></g></svg>