<svg xmlns="http://www.w3.org/2000/svg" xmlns:xlink="http://www.w3.org/1999/xlink" fill="none" version="1.1" width="486" height="60" viewBox="0 0 486 60"><defs><clipPath id="master_svg0_2_12157"><rect x="0" y="0" width="60" height="60" rx="0"/></clipPath></defs><g><g><g><g><path d="M90,29.7899L99.0544,36.75L99.0544,48C99.0544,54.6274,104.42699999999999,60,111.0544,60L474,60C480.627,60,486,54.6274,486,48L486,12C486,5.37258,480.627,0,474,0L111.05420000000001,0C104.4267,0,99.05408,5.37272,99.0542,12.0002L99.0544,22.8299L90,29.7899Z" fill="#FFFFFF" fill-opacity="1"/><path d="M90.820421,29.1592L99.0544,22.8299L99.0542,12.0002C99.05408,5.37272,104.4267,0,111.05420000000001,0L474,0C480.627,0,486,5.37258,486,12L486,48C486,54.6274,480.627,60,474,60L111.0544,60C104.42699999999999,60,99.0544,54.6274,99.0544,48L99.0544,36.75L90.820418,30.4205L90,29.7899L90.820421,29.1592ZM100.0544,36.2574L91.64084,29.7899L100.0544,23.3225L100.0542,12.0002Q100.0541,7.44379,103.276,4.2219Q106.4978,1,111.05420000000001,1L474,0.999999Q478.556,1,481.778,4.22183Q485,7.44364,485,12L485,48Q485,52.5564,481.778,55.7782Q478.556,59,474,59L111.0544,59Q106.498,59,103.2762,55.7782Q100.0544,52.5563,100.0544,48L100.0544,36.2574Z" fill-rule="evenodd" fill="#C2C2C2" fill-opacity="1"/></g><g><path d="M142.518,35.932C141.11,36.239999999999995,139.702,36.548,138.25,36.812L138.25,33.775999999999996L141.88,33.775999999999996L141.88,31.576L138.25,31.576L138.25,29.354L135.94,29.354L135.94,31.576L131.958,31.576L131.958,33.775999999999996L135.94,33.775999999999996L135.94,37.208C134.312,37.45,132.64,37.647999999999996,130.946,37.824L131.496,40.024C135.412,39.54,139.086,38.924,142.518,38.22L142.518,35.932ZM131.32,20.664L131.32,22.82L134.488,22.82C133.344,25.086,132.442,26.472,131.826,26.978C131.606,27.066000000000003,131.32,27.154,130.924,27.198L131.43,29.244C134.642,28.914,137.63400000000001,28.518,140.38400000000001,28.034C140.692,28.561999999999998,140.978,29.09,141.242,29.618000000000002L143.156,28.298000000000002C142.386,26.89,141.286,25.218,139.834,23.304000000000002L138.074,24.426000000000002C138.514,25.064,138.932,25.701999999999998,139.328,26.317999999999998C137.744,26.582,136.16,26.78,134.576,26.956C135.28,25.988,136.072,24.602,136.952,22.82L142.43,22.82L142.43,20.664L131.32,20.664ZM148.128,40.09C149.668,40.09,150.438,39.32,150.438,37.78L150.438,20.003999999999998L148.106,20.003999999999998L148.106,37.186C148.106,37.714,147.84199999999998,38,147.336,38C146.39,38,145.4,37.956,144.344,37.867999999999995L144.85,40.09L148.128,40.09ZM143.882,21.984L143.882,35.426L146.10399999999998,35.426L146.10399999999998,21.984L143.882,21.984ZM157.764,19.872L157.764,22.996000000000002L156.796,22.996000000000002C156.972,22.644,157.126,22.292,157.258,21.896L155.278,21.676000000000002C154.816,22.951999999999998,153.958,24.03,152.682,24.91L153.848,26.384C154.2,26.119999999999997,154.552,25.834,154.904,25.526C155.432,25.878,155.894,26.252000000000002,156.334,26.604C155.322,27,154.178,27.33,152.924,27.572L153.87,29.222C157.764,28.342,160.64600000000002,26.67,162.538,24.228L162.538,22.996000000000002L159.7,22.996000000000002L159.7,22.226L162.538,22.226L162.538,20.576L159.7,20.576L159.7,19.872L157.764,19.872ZM157.94,25.834C157.324,25.372,156.642,24.91,155.894,24.448L159.92000000000002,24.448C159.326,24.976,158.666,25.438000000000002,157.94,25.834ZM164.496,22.38L163.594,23.722C164.32,24.03,165.06799999999998,24.381999999999998,165.816,24.778C165.31,24.997999999999998,164.76,25.195999999999998,164.166,25.394L165.376,26.978C166.256,26.67,167.048,26.296,167.796,25.9C169.072,26.692,170.326,27.572,171.602,28.584L172.724,26.846C171.668,26.119999999999997,170.59,25.438000000000002,169.446,24.8C170.458,23.986,171.20600000000002,23.04,171.69,21.94L171.69,20.466L163.61599999999999,20.466L163.61599999999999,22.248L169.248,22.248C168.808,22.82,168.258,23.326,167.598,23.788C166.586,23.282,165.552,22.82,164.496,22.38ZM158.754,33.864000000000004L166.96,33.864000000000004L166.96,34.81L158.754,34.81L158.754,33.864000000000004ZM166.96,32.566L158.754,32.566L158.754,31.708L166.96,31.708L166.96,32.566ZM169.886,34.766C169.644,35.096000000000004,169.38,35.426,169.094,35.778L169.094,31.092C169.974,31.444,170.942,31.796,172.02,32.17L173.23,30.322C168.962,29.354,165.838,27.945999999999998,163.814,26.098L162.186,26.098C160.008,28.122,156.906,29.618000000000002,152.902,30.608L154.13400000000001,32.456C154.97,32.126000000000005,155.762,31.796,156.51,31.488L156.51,37.67C156.51,38.11,156.224,38.396,155.652,38.506L156.246,40.332C159.062,40.068,161.438,39.760000000000005,163.32999999999998,39.43L162.934,37.714C161.59199999999998,37.934,160.206,38.132000000000005,158.754,38.308L158.754,36.174L163.22,36.174L162.38400000000001,37.384C165.398,38.132000000000005,168.346,39.166,171.20600000000002,40.486000000000004L172.30599999999998,38.792C171.426,38.44,170.546,38.132000000000005,169.622,37.846000000000004C170.348,37.186,171.03,36.46,171.69,35.712L169.886,34.766ZM168.764,36.174C168.434,36.525999999999996,168.082,36.9,167.73,37.251999999999995C166.388,36.856,165.002,36.504000000000005,163.55,36.174L168.764,36.174ZM163.55,28.936L161.46,29.266C161.724,29.596,161.966,29.97,162.208,30.366L158.90800000000002,30.366C160.57999999999998,29.486,161.944,28.606,163,27.726C163.946,28.584,165.42000000000002,29.464,167.4,30.366L164.254,30.366C164.034,29.838,163.814,29.375999999999998,163.55,28.936ZM191.864,28.408C192.7,28.408,193.338,28.253999999999998,193.756,27.990000000000002C194.196,27.726,194.50400000000002,26.868000000000002,194.65800000000002,25.372L192.59,24.712C192.524,25.548000000000002,192.392,26.054000000000002,192.19400000000002,26.23C192.018,26.384,191.776,26.472,191.424,26.472L187.596,26.472C187.13400000000001,26.472,186.914,26.252000000000002,186.914,25.856L186.914,25.262C189.576,24.25,191.90800000000002,23.084,193.888,21.742L192.436,20.224C190.984,21.258,189.15800000000002,22.204,186.914,23.084L186.914,20.048000000000002L184.67000000000002,20.048000000000002L184.67000000000002,23.875999999999998C183.59199999999998,24.228,182.448,24.558,181.216,24.866L182.426,26.692L184.67000000000002,26.032L184.67000000000002,26.296C184.67000000000002,27.704,185.44,28.408,187.002,28.408L191.864,28.408ZM192.502,29.2L177.982,29.2L177.982,36.416L180.292,36.416L180.292,31.268L190.17000000000002,31.268L190.17000000000002,36.129999999999995L192.502,36.129999999999995L192.502,29.2ZM186.826,35.888000000000005L185.66,37.604C188.256,38.33,190.764,39.32,193.20600000000002,40.574L194.50400000000002,38.594C192.19400000000002,37.516,189.642,36.614000000000004,186.826,35.888000000000005ZM184.12,31.906C183.966,34.15,183.416,35.712,182.448,36.635999999999996C181.348,37.56,179.082,38.11,175.606,38.263999999999996L176.508,40.354C180.666,39.980000000000004,183.284,39.188,184.362,37.956C185.374,37.010000000000005,186.034,35.052,186.34199999999998,32.104L184.12,31.906ZM178.312,25.02L178.312,28.606L180.55599999999998,28.606L180.55599999999998,23.304000000000002C181.436,22.512,182.184,21.654,182.756,20.774L180.864,19.872C179.61,21.544,177.696,23.018,175.1,24.25L175.804,26.494C176.70600000000002,26.009999999999998,177.542,25.526,178.312,25.02ZM208.364,21.214L208.364,29.42L215.976,29.42L215.976,21.214L208.364,21.214ZM213.798,27.352L210.542,27.352L210.542,23.259999999999998L213.798,23.259999999999998L213.798,27.352ZM200.312,20.003999999999998L200.312,21.764L197.452,21.764L197.452,23.744L200.136,23.744C199.74,26.076,198.64,27.836,196.814,29.024L198.50799999999998,30.542C200.686,29.002000000000002,201.98399999999998,26.736,202.402,23.744L204.756,23.744C204.73399999999998,25.68,204.64600000000002,26.89,204.47,27.33C204.29399999999998,27.77,203.85399999999998,28.012,203.15,28.034C202.82,28.012,202.402,27.968,201.874,27.902L202.446,29.97C202.93,30.058,203.326,30.102,203.678,30.102C204.888,30.102,205.74599999999998,29.706,206.23000000000002,28.914C206.714,28.122,206.95600000000002,25.746000000000002,207,21.764L202.55599999999998,21.764L202.55599999999998,20.003999999999998L200.312,20.003999999999998ZM197.276,31.664L197.276,33.82L203.876,33.82C202.292,35.36,200.00400000000002,36.658,196.99,37.714L198.31,39.848C201.74200000000002,38.263999999999996,204.272,36.262,205.856,33.864000000000004L205.856,40.266L208.144,40.266L208.144,33.864000000000004C209.64,36.042,212.082,38.044,215.47,39.848L217.054,37.846000000000004C213.93,36.658,211.598,35.316,210.102,33.82L216.74599999999998,33.82L216.74599999999998,31.664L208.144,31.664L208.144,30.102L205.856,30.102L205.856,31.664L197.276,31.664ZM221.784,20.224L220.22199999999998,21.72C221.74,22.864,222.928,23.964,223.786,24.976L225.348,23.392C224.38,22.336,223.192,21.28,221.784,20.224ZM218.858,26.472L218.858,28.672L221.696,28.672L221.696,36.394C221.696,36.878,221.498,37.296,221.124,37.626000000000005L222.00400000000002,39.694C223.632,38.638000000000005,225.172,37.472,226.624,36.152L225.986,33.732C225.26,34.414,224.578,35.03,223.94,35.602000000000004L223.94,26.472L218.858,26.472ZM226.73399999999998,29.112000000000002L226.73399999999998,31.312L227.988,31.312C228.51600000000002,33.028,229.506,34.568,230.914,35.976C229.32999999999998,36.988,227.416,37.824,225.15,38.484L226.426,40.42C228.934,39.694,231.024,38.726,232.74,37.516C234.192,38.594,236.018,39.562,238.174,40.442L239.406,38.462C237.44799999999998,37.78,235.798,37.010000000000005,234.434,36.129999999999995C235.84199999999998,34.744,236.85399999999998,33.094,237.47,31.202L237.47,29.112000000000002L226.73399999999998,29.112000000000002ZM230.144,31.312L235.16,31.312C234.54399999999998,32.588,233.686,33.71,232.564,34.722C231.42000000000002,33.71,230.628,32.566,230.144,31.312ZM228.23000000000002,20.598L228.23000000000002,23.59C228.23000000000002,25.02,227.284,26.119999999999997,225.436,26.89L226.976,28.65C229.308,27.418,230.49599999999998,25.636,230.49599999999998,23.348L230.49599999999998,22.753999999999998L233.88400000000001,22.753999999999998L233.88400000000001,25.68C233.88400000000001,27.22,234.69799999999998,27.990000000000002,236.348,27.990000000000002L238.856,27.990000000000002L238.856,25.9L236.964,25.9C236.414,25.9,236.15,25.636,236.15,25.152L236.15,20.598L228.23000000000002,20.598ZM247.788,26.274L247.788,28.561999999999998L253.464,28.561999999999998L253.464,40.354L255.84,40.354L255.84,28.561999999999998L261.23,28.561999999999998L261.23,26.274L255.84,26.274L255.84,19.894L253.464,19.894L253.464,26.274L247.788,26.274ZM243.916,20.07L242.288,21.654C243.85,22.798000000000002,245.06,23.875999999999998,245.89600000000002,24.887999999999998L247.48000000000002,23.282C246.49,22.226,245.30200000000002,21.148,243.916,20.07ZM240.858,26.428L240.858,28.628L243.872,28.628L243.872,36.438C243.872,36.9,243.674,37.296,243.27800000000002,37.626000000000005L244.15800000000002,39.694C245.786,38.638000000000005,247.304,37.45,248.73399999999998,36.129999999999995L248.14,33.775999999999996C247.414,34.458,246.732,35.074,246.094,35.623999999999995L246.094,26.428L240.858,26.428ZM263.21000000000004,22.951999999999998L263.21000000000004,25.174L269.19399999999996,25.174C269.172,25.856,269.128,26.736,269.084,27.836C268.974,29.904,268.55600000000004,31.774,267.83000000000004,33.424C267.082,35.074,265.54200000000003,36.878,263.21000000000004,38.814L264.882,40.442C266.84000000000003,38.858000000000004,268.358,37.098,269.43600000000004,35.184C270.206,33.798,270.73400000000004,32.28,271.04200000000003,30.608L278.038,30.608C277.994,33.644,277.928,35.492000000000004,277.796,36.174C277.53200000000004,37.406,276.98199999999997,38.044,276.124,38.088C275.31,38.088,274.32,38.044,273.154,37.978L273.836,40.068C274.804,40.134,275.64,40.178,276.366,40.178C278.082,40.134,279.204,39.275999999999996,279.71000000000004,37.56C280.062,36.372,280.28200000000004,33.314,280.37,28.43L271.30600000000004,28.43C271.394,27.088,271.438,26.009999999999998,271.48199999999997,25.174L282.878,25.174L282.878,22.951999999999998L274.76,22.951999999999998C274.276,21.742,273.726,20.686,273.154,19.806L270.976,20.62C271.526,21.368000000000002,271.988,22.137999999999998,272.384,22.951999999999998L263.21000000000004,22.951999999999998ZM293.372,23.502000000000002C292.954,24.03,292.514,24.602,292.052,25.174L286.2,25.174L286.2,26.978L290.512,26.978C290.006,27.55,289.478,28.122,288.928,28.694000000000003C290.226,28.936,291.546,29.222,292.866,29.53C291.15,29.904,288.818,30.102,285.87,30.102L287.102,31.994C290.754,31.928,293.724,31.378,296.034,30.344C298.168,30.916,300.302,31.576,302.414,32.324L303.712,30.564C301.86400000000003,29.992,300.038,29.464,298.256,29.024C298.96000000000004,28.474,299.62,27.792,300.28,26.978L303.844,26.978L303.844,25.174L294.60400000000004,25.174C294.868,24.844,295.132,24.492,295.44,24.14L293.372,23.502000000000002ZM295.704,28.43C294.538,28.166,293.394,27.945999999999998,292.272,27.77C292.49199999999996,27.528,292.756,27.264,293.02,26.978L297.706,26.978C297.156,27.506,296.496,27.990000000000002,295.704,28.43ZM304.02,21.478L296.078,21.478C295.836,20.862000000000002,295.594,20.29,295.352,19.784L292.976,20.18C293.262,20.576,293.526,21.016,293.78999999999996,21.478L285.98,21.478L285.98,24.866L288.13599999999997,24.866L288.13599999999997,23.369999999999997L301.86400000000003,23.369999999999997L301.86400000000003,24.866L304.02,24.866L304.02,21.478ZM285.496,32.83L285.496,34.81L291.942,34.81C290.55600000000004,35.954,288.26800000000003,36.988,285.1,37.934L286.332,39.958C289.852,38.594,292.382,36.988,293.878,35.14L293.878,40.222L296.21000000000004,40.222L296.21000000000004,35.184C297.86,37.076,300.41200000000003,38.616,303.88800000000003,39.826L304.9,37.802C301.93,37.054,299.68600000000004,36.042,298.14599999999996,34.81L304.526,34.81L304.526,32.83L296.21000000000004,32.83L296.21000000000004,31.312L293.878,31.312L293.878,32.83L285.496,32.83ZM309.278,28.936L309.278,40.288L311.56600000000003,40.288L311.56600000000003,25.68C312.49,24.14,313.238,22.512,313.81,20.796L311.676,19.784C310.576,23.15,308.904,26.076,306.63800000000003,28.561999999999998L307.408,31.026C308.068,30.344,308.68399999999997,29.64,309.278,28.936ZM324.348,28.694000000000003L322.324,29.375999999999998C323.31399999999996,31.818,324.216,34.634,325.00800000000004,37.802L327.03200000000004,36.9C326.284,33.995999999999995,325.382,31.246,324.348,28.694000000000003ZM316.494,24.58L324.106,24.58C323.798,25.548000000000002,323.446,26.406,323.006,27.154L325.206,27.792C325.712,26.494,326.13,25.195999999999998,326.46000000000004,23.875999999999998L326.46000000000004,22.38L317.286,22.38C317.48400000000004,21.742,317.682,21.082,317.858,20.422L315.702,19.96C315.04200000000003,22.71,313.898,25.305999999999997,312.27,27.747999999999998L314.25,28.98C315.086,27.66,315.834,26.186,316.494,24.58ZM318.93600000000004,40.134C320.432,40.134,321.18,39.364000000000004,321.18,37.846000000000004L321.18,26.098L318.95799999999997,26.098L318.95799999999997,37.296C318.95799999999997,37.846000000000004,318.69399999999996,38.132000000000005,318.166,38.132000000000005C317.374,38.132000000000005,316.51599999999996,38.066,315.63599999999997,37.978L316.142,40.134L318.93600000000004,40.134ZM315.35,28.936C314.47,32.06,313.45799999999997,34.634,312.31399999999996,36.658L314.47,37.428C315.658,35.162,316.648,32.522,317.418,29.508L315.35,28.936ZM331.058,20.114L329.496,21.588C331.036,22.864,332.224,24.073999999999998,333.06,25.174L334.666,23.59C333.676,22.445999999999998,332.466,21.28,331.058,20.114ZM343.598,39.936L348.63599999999997,39.936L349.20799999999997,37.67C348.592,37.714,347.73400000000004,37.757999999999996,346.61199999999997,37.802C345.46799999999996,37.802,344.368,37.824,343.26800000000003,37.824C341.552,37.824,340.078,37.802,338.802,37.78C337.504,37.736000000000004,336.536,37.56,335.876,37.230000000000004C335.37,36.944,334.86400000000003,36.504000000000005,334.358,35.932L334.116,35.69L334.116,27.33L329.078,27.33L329.078,29.442L331.98199999999997,29.442L331.98199999999997,35.47C331.102,35.954,330.134,37.076,329.034,38.836L330.728,40.42C331.828,38.44,332.576,37.45,333.01599999999996,37.45C333.25800000000004,37.45,333.522,37.626000000000005,333.83000000000004,38C334.49,38.748000000000005,335.26,39.254000000000005,336.14,39.518C337.06399999999996,39.738,338.23,39.870000000000005,339.65999999999997,39.891999999999996C341.068,39.914,342.38800000000003,39.936,343.598,39.936ZM341.376,19.872L341.376,22.424L339.308,22.424C339.48400000000004,21.874,339.682,21.302,339.858,20.686L337.658,20.224C337.174,22.072,336.33799999999997,23.810000000000002,335.15,25.438000000000002L337.13,26.692C337.57,26.054000000000002,337.966,25.372,338.36199999999997,24.624000000000002L341.376,24.624000000000002L341.376,27.198L335.744,27.198L335.744,29.398L339,29.398C338.91200000000003,30.542,338.714,31.51,338.406,32.302C337.878,33.512,336.778,34.546,335.062,35.382000000000005L336.536,37.186C338.626,36.086,339.946,34.7,340.496,33.05C340.848,32.016,341.09000000000003,30.805999999999997,341.178,29.398L342.872,29.398L342.872,35.052C342.872,35.623999999999995,343.048,36.108000000000004,343.4,36.504000000000005C343.752,36.856,344.25800000000004,37.032,344.94,37.032L346.502,37.032C347.294,37.032,347.822,36.856,348.13,36.548C348.438,36.196,348.68,35.074,348.856,33.16L346.85400000000004,32.478C346.81,33.93,346.7,34.722,346.524,34.854C346.392,34.986000000000004,346.216,35.074,346.01800000000003,35.074L345.644,35.074C345.226,35.074,345.028,34.897999999999996,345.028,34.568L345.028,29.398L348.526,29.398L348.526,27.198L343.62,27.198L343.62,24.624000000000002L347.778,24.624000000000002L347.778,22.424L343.62,22.424L343.62,19.872L341.376,19.872ZM358.90999999999997,20.62L358.90999999999997,22.688L360.18600000000004,22.688C360.714,24.162,361.528,25.416,362.628,26.45C361.352,26.978,359.856,27.439999999999998,358.118,27.814L359.21799999999996,29.75C361.33000000000004,29.266,363.134,28.628,364.63,27.880000000000003C366.214,28.759999999999998,368.15,29.332,370.48199999999997,29.596L371.318,27.55C369.558,27.374000000000002,368.062,27.022,366.786,26.516C368.172,25.416,369.118,24.096,369.602,22.556L369.602,20.62L358.90999999999997,20.62ZM362.408,22.688L367.226,22.688C366.676,23.678,365.818,24.58,364.63,25.372C363.64,24.624000000000002,362.892,23.744,362.408,22.688ZM353.608,40.09C355.10400000000004,40.09,355.874,39.342,355.874,37.846000000000004L355.874,31.994C356.622,31.686,357.37,31.378,358.118,31.026L358.118,28.694000000000003C357.37,29.067999999999998,356.622,29.398,355.874,29.706L355.874,26.119999999999997L358.096,26.119999999999997L358.096,23.898L355.874,23.898L355.874,20.003999999999998L353.54200000000003,20.003999999999998L353.54200000000003,23.898L351.1,23.898L351.1,26.119999999999997L353.54200000000003,26.119999999999997L353.54200000000003,30.542C352.596,30.85,351.628,31.092,350.65999999999997,31.29L351.23199999999997,33.6C352.002,33.379999999999995,352.772,33.138000000000005,353.54200000000003,32.873999999999995L353.54200000000003,37.251999999999995C353.54200000000003,37.736000000000004,353.3,38,352.81600000000003,38C352.288,38,351.738,37.956,351.166,37.867999999999995L351.672,40.09L353.608,40.09ZM359.35,30.85L359.35,32.918L363.53,32.918L363.53,34.788L358.206,34.788L358.206,36.922L363.53,36.922L363.53,40.001999999999995L365.73,40.001999999999995L365.73,36.922L370.922,36.922L370.922,34.788L365.73,34.788L365.73,32.918L369.8,32.918L369.8,30.85L365.73,30.85L365.73,29.266L363.53,29.266L363.53,30.85L359.35,30.85ZM378.754,21.588L373.474,21.588L373.474,38.506L375.498,38.506L375.498,36.702L378.754,36.702L378.754,21.588ZM375.498,34.766L375.498,23.567999999999998L376.774,23.567999999999998L376.774,34.766L375.498,34.766ZM379.43600000000004,25.68L379.43600000000004,27.704L380.64599999999996,27.704C380.624,28.759999999999998,380.58000000000004,29.75,380.514,30.695999999999998L379.392,30.695999999999998L379.392,32.72L380.272,32.72C379.876,35.25,379.128,37.251999999999995,378.072,38.704L379.678,40.09C380.954,38.33,381.78999999999996,35.866,382.23,32.72L383.836,32.72C383.81399999999996,34.436,383.79200000000003,35.58,383.77,36.129999999999995C383.682,37.406,383.44,38.044,383,38.044C382.56,38.044,382.054,38,381.46000000000004,37.956L381.94399999999996,39.914C382.60400000000004,40.001999999999995,383.08799999999997,40.046,383.374,40.046C384.716,40.046,385.464,39.012,385.64,36.966C385.772,34.942,385.86,29.53,385.86,20.73L379.414,20.73L379.414,22.753999999999998L380.64599999999996,22.753999999999998L380.64599999999996,25.68L379.43600000000004,25.68ZM383.858,30.695999999999998L382.428,30.695999999999998C382.494,29.75,382.538,28.759999999999998,382.56,27.704L383.858,27.704L383.858,30.695999999999998ZM383.858,25.68L382.56,25.68L382.56,22.753999999999998L383.88,22.753999999999998C383.858,23.766,383.858,24.756,383.858,25.68ZM386.828,20.708L386.828,40.244L388.852,40.244L388.852,22.644L390.81,22.644C390.524,24.404,390.106,26.384,389.534,28.584C390.546,30.476,391.052,32.192,391.052,33.732C391.052,34.348,391.008,34.788,390.964,35.052C390.898,35.272,390.788,35.403999999999996,390.656,35.47C390.238,35.47,389.732,35.426,389.116,35.36L389.82,37.472C391.096,37.45,392.02,37.098,392.548,36.416C392.9,35.888000000000005,393.076,35.007999999999996,393.076,33.732C392.988,32.192,392.46,30.387999999999998,391.536,28.276C392.02,26.208,392.46,24.25,392.812,22.358L392.812,20.708L386.828,20.708ZM394.99,28.782L394.99,31.07L414.988,31.07L414.988,28.782L394.99,28.782ZM416.99,21.742L416.99,23.722L421.412,23.722L421.412,25.02L417.76,25.02L417.76,26.933999999999997L426.868,26.933999999999997L426.868,25.02L423.568,25.02L423.568,23.722L427.374,23.722L427.374,21.742L423.568,21.742L423.568,19.938L421.412,19.938L421.412,21.742L416.99,21.742ZM418.486,28.122L418.486,30.102L426.186,30.102L426.186,28.122L418.486,28.122ZM417.144,31.202L417.144,33.182L421.39,33.182L421.39,37.626000000000005C421.39,38.066,421.104,38.308,420.576,38.308C420.092,38.308,419.586,38.263999999999996,419.058,38.176L419.52,40.244L421.302,40.244C422.798,40.244,423.546,39.54,423.546,38.176L423.546,33.182L427.616,33.182L427.616,31.202L417.144,31.202ZM418.552,33.885999999999996C418.2,35.162,417.562,36.372,416.66,37.516L418.354,38.594C419.212,37.384,419.872,35.932,420.356,34.260000000000005L418.552,33.885999999999996ZM426.054,33.666L424.272,34.260000000000005C424.756,35.228,425.196,36.35,425.614,37.626000000000005L427.374,36.834C426.978,35.712,426.538,34.656,426.054,33.666ZM429.156,20.026C428.782,23.546,427.968,26.296,426.714,28.276L428.452,29.53C429.2,28.474,429.838,27.022,430.344,25.218L434.282,25.218C434.018,26.846,433.688,28.276,433.292,29.486L435.404,30.08C435.844,28.232,436.196,26.406,436.482,24.558L436.482,23.172L430.806,23.172C430.982,22.314,431.114,21.39,431.246,20.378L429.156,20.026ZM430.696,26.692C430.674,29.464,430.432,31.73,429.948,33.468C429.332,35.536,428.012,37.274,425.988,38.726L427.374,40.397999999999996C429.684,38.769999999999996,431.18,36.768,431.884,34.348C432.808,36.635999999999996,434.106,38.616,435.756,40.288L437.274,38.528C435.03,36.57,433.468,33.974000000000004,432.566,30.740000000000002C432.698,29.508,432.764,28.144,432.764,26.692L430.696,26.692ZM443.742,21.984C442.114,21.984,440.838,22.445999999999998,439.892,23.369999999999997C438.924,24.294,438.462,25.57,438.462,27.198L440.97,27.198C440.97,26.274,441.146,25.548000000000002,441.52,25.042C441.938,24.426000000000002,442.62,24.14,443.588,24.14C444.336,24.14,444.93,24.338,445.348,24.756C445.744,25.174,445.964,25.746000000000002,445.964,26.472C445.964,27.022,445.766,27.55,445.37,28.034L445.106,28.342C443.676,29.618000000000002,442.818,30.542,442.532,31.136C442.224,31.73,442.092,32.456,442.092,33.292L442.092,33.6L444.622,33.6L444.622,33.292C444.622,32.763999999999996,444.732,32.302,444.952,31.862C445.15,31.466,445.436,31.092,445.832,30.762C446.888,29.838,447.526,29.244,447.724,29.024C448.252,28.32,448.538,27.418,448.538,26.317999999999998C448.538,24.976,448.098,23.92,447.218,23.15C446.338,22.358,445.172,21.984,443.742,21.984ZM443.346,34.678C442.862,34.678,442.466,34.832,442.136,35.14C441.806,35.448,441.652,35.844,441.652,36.328C441.652,36.812,441.806,37.208,442.136,37.516C442.466,37.824,442.862,38,443.346,38C443.83,38,444.226,37.846000000000004,444.556,37.538C444.886,37.230000000000004,445.062,36.812,445.062,36.328C445.062,35.844,444.886,35.448,444.578,35.14C444.248,34.832,443.83,34.678,443.346,34.678Z" fill="#111111" fill-opacity="1"/></g></g></g><g clip-path="url(#master_svg0_2_12157)"><g><g><path d="M17.037,3Q16.6679,3,16.2992,3.0181128Q15.9305,3.0362255,15.5632,3.0724074Q15.1958,3.108589,14.8306,3.162753Q14.4655,3.216917,14.1035,3.288932Q13.7414,3.360948,13.3833,3.450641Q13.0253,3.540334,12.672,3.64749Q12.3188,3.754645,11.97121,3.879004Q11.62365,4.00336,11.28261,4.14463Q10.94157,4.28589,10.60787,4.44372Q10.27418,4.60154,9.94863,4.77555Q9.62307,4.94956,9.30645,5.13934Q8.989830000000001,5.32911,8.68291,5.5342Q8.37598,5.73928,8.07948,5.95918Q7.78299,6.179069999999999,7.49764,6.41325Q7.21229,6.64743,6.93878,6.8953299999999995Q6.66527,7.14323,6.40425,7.40425Q6.14323,7.66527,5.8953299999999995,7.93878Q5.64743,8.21229,5.41325,8.49764Q5.179069999999999,8.78299,4.95918,9.07948Q4.73928,9.37598,4.5342,9.68291Q4.32911,9.989830000000001,4.13934,10.30645Q3.94956,10.62308,3.77555,10.94863Q3.60154,11.27418,3.44372,11.60787Q3.28589,11.94157,3.1446300000000003,12.28261Q3.00336,12.62365,2.879004,12.97121Q2.754645,13.3188,2.64749,13.672Q2.540334,14.0253,2.450641,14.3833Q2.360948,14.7414,2.288932,15.1035Q2.216917,15.4655,2.162753,15.8306Q2.108589,16.1958,2.0724074,16.5631Q2.0362255,16.930500000000002,2.0181128,17.2992Q2,17.6679,2,18.037Q2,18.4545,2.0231573,18.8712Q2.0463145,19.288,2.0925578,19.7029Q2.138801,20.1177,2.207988,20.5294Q2.277174,20.941,2.369092,21.3482Q2.461009,21.7554,2.575373,22.1568Q2.689738,22.5583,2.826197,22.9528Q2.962657,23.3473,3.12079,23.7336Q3.27893,24.1199,3.45825,24.4968Q3.63757,24.8738,3.83753,25.2402Q4.03748,25.6066,4.25746,25.9614Q4.47744,26.3161,4.71676,26.6581Q4.95608,27.0001,5.214,27.3283Q5.47192,27.6565,5.74766,27.9699Q6.02339,28.2833,6.31609,28.5809Q6.60878,28.8785,6.91754,29.1595Q7.22629,29.4404,7.55016,29.7037Q7.22629,29.9671,6.91754,30.248Q6.60878,30.5289,6.31609,30.8265Q6.02339,31.1241,5.74766,31.4375Q5.47192,31.7509,5.214,32.0791Q4.95608,32.4073,4.71676,32.749300000000005Q4.47744,33.091300000000004,4.25746,33.4461Q4.03748,33.800799999999995,3.83753,34.1673Q3.63757,34.533699999999996,3.45825,34.9106Q3.27893,35.2876,3.12079,35.6739Q2.962657,36.0602,2.826197,36.4547Q2.689738,36.8492,2.575373,37.2506Q2.461009,37.6521,2.369092,38.0592Q2.277174,38.4664,2.207988,38.8781Q2.138801,39.2897,2.0925578,39.7046Q2.0463145,40.1194,2.0231573,40.5362Q2,40.953,2,41.3704Q2,41.7395,2.0181128,42.1082Q2.0362255,42.4769,2.0724074,42.8443Q2.108589,43.2117,2.162753,43.5768Q2.216917,43.9419,2.288932,44.304Q2.360948,44.666,2.450641,45.0241Q2.540334,45.3822,2.64749,45.7354Q2.754645,46.0887,2.879004,46.4362Q3.00336,46.7838,3.1446300000000003,47.1248Q3.28589,47.4659,3.44372,47.7996Q3.60154,48.1333,3.77555,48.4588Q3.94956,48.7844,4.13934,49.101Q4.32911,49.4176,4.5342,49.7245Q4.73928,50.0315,4.95918,50.328Q5.179069999999999,50.6245,5.41325,50.9098Q5.64743,51.1952,5.8953299999999995,51.4687Q6.14323,51.7422,6.40425,52.0032Q6.66527,52.2642,6.93878,52.5121Q7.21229,52.76,7.49764,52.9942Q7.78299,53.2284,8.07948,53.4483Q8.37598,53.6682,8.68291,53.8732Q8.989830000000001,54.0783,9.30645,54.2681Q9.62308,54.4579,9.94863,54.6319Q10.27418,54.8059,10.60787,54.9637Q10.94157,55.1215,11.28261,55.2628Q11.62365,55.4041,11.97121,55.5284Q12.3188,55.6528,12.672,55.76Q13.0253,55.8671,13.3833,55.9568Q13.7414,56.0465,14.1035,56.1185Q14.4655,56.1905,14.8306,56.2447Q15.1958,56.2989,15.5631,56.335Q15.9305,56.3712,16.2992,56.3893Q16.6679,56.4074,17.037,56.4074L42.963,56.4074Q43.3321,56.4074,43.7008,56.3893Q44.0695,56.3712,44.4368,56.335Q44.8042,56.2989,45.1694,56.2447Q45.5345,56.1905,45.8965,56.1185Q46.2586,56.0465,46.6167,55.9568Q46.9747,55.8671,47.328,55.76Q47.6812,55.6528,48.0288,55.5284Q48.3763,55.4041,48.7174,55.2628Q49.0584,55.1215,49.3921,54.9637Q49.7258,54.8059,50.0514,54.6319Q50.3769,54.4579,50.6935,54.2681Q51.0102,54.0783,51.3171,53.8732Q51.624,53.6682,51.9205,53.4483Q52.217,53.2284,52.5024,52.9942Q52.7877,52.76,53.0612,52.5121Q53.3347,52.2642,53.5957,52.0032Q53.8568,51.7422,54.1047,51.4687Q54.3526,51.1951,54.5867,50.9098Q54.8209,50.6245,55.0408,50.328Q55.2607,50.0315,55.4658,49.7245Q55.6709,49.4176,55.8607,49.101Q56.0504,48.7844,56.2244,48.4588Q56.3984,48.1333,56.5563,47.7996Q56.7141,47.4659,56.8554,47.1248Q56.9966,46.7838,57.121,46.4362Q57.2453,46.0887,57.3525,45.7354Q57.4597,45.3822,57.5494,45.0241Q57.639,44.666,57.7111,44.304Q57.7831,43.9419,57.8372,43.5768Q57.8914,43.2117,57.9276,42.8443Q57.9638,42.4769,57.9819,42.1082Q58,41.7395,58,41.3704Q58,40.953,57.9768,40.5362Q57.9537,40.1194,57.9074,39.7046Q57.8612,39.2897,57.792,38.8781Q57.7228,38.4664,57.6309,38.0592Q57.539,37.6521,57.4246,37.2506Q57.3103,36.8492,57.1738,36.4547Q57.0373,36.0602,56.8792,35.6739Q56.7211,35.2876,56.5418,34.9106Q56.3624,34.533699999999996,56.1625,34.1673Q55.9625,33.800799999999995,55.7425,33.4461Q55.5226,33.091300000000004,55.2832,32.749300000000005Q55.0439,32.4073,54.786,32.0791Q54.5281,31.7509,54.2523,31.4375Q53.9766,31.1241,53.6839,30.8265Q53.3912,30.5289,53.0825,30.248Q52.7737,29.9671,52.4498,29.7037Q52.7737,29.4404,53.0825,29.1595Q53.3912,28.8785,53.6839,28.5809Q53.9766,28.2833,54.2523,27.9699Q54.5281,27.6565,54.786,27.3283Q55.0439,27.0001,55.2832,26.6581Q55.5226,26.3161,55.7425,25.9614Q55.9625,25.6066,56.1625,25.2402Q56.3624,24.8738,56.5418,24.4968Q56.7211,24.1199,56.8792,23.7336Q57.0373,23.3473,57.1738,22.9528Q57.3103,22.5583,57.4246,22.1568Q57.539,21.7554,57.6309,21.3482Q57.7228,20.941,57.792,20.5294Q57.8612,20.1177,57.9074,19.7029Q57.9537,19.288,57.9768,18.8712Q58,18.4545,58,18.037Q58,17.6679,57.9819,17.2992Q57.9638,16.930500000000002,57.9276,16.563200000000002Q57.8914,16.1958,57.8372,15.8306Q57.7831,15.4655,57.7111,15.1035Q57.639,14.7414,57.5494,14.3833Q57.4597,14.0253,57.3525,13.672Q57.2453,13.3188,57.121,12.97121Q56.9966,12.62365,56.8554,12.28261Q56.7141,11.94157,56.5563,11.60787Q56.3984,11.27418,56.2244,10.94863Q56.0504,10.62307,55.8607,10.30645Q55.6709,9.989830000000001,55.4658,9.68291Q55.2607,9.37598,55.0408,9.07948Q54.8209,8.78299,54.5867,8.49764Q54.3526,8.21229,54.1047,7.93878Q53.8568,7.66527,53.5957,7.40425Q53.3347,7.14323,53.0612,6.8953299999999995Q52.7877,6.64743,52.5024,6.41325Q52.217,6.179069999999999,51.9205,5.95918Q51.624,5.73928,51.3171,5.5342Q51.0102,5.32911,50.6935,5.13934Q50.3769,4.94956,50.0514,4.77555Q49.7258,4.60154,49.3921,4.44372Q49.0584,4.28589,48.7174,4.14463Q48.3763,4.00336,48.0288,3.879004Q47.6812,3.754645,47.328,3.64749Q46.9747,3.540334,46.6167,3.450641Q46.2586,3.360948,45.8965,3.288932Q45.5345,3.216917,45.1694,3.162753Q44.8042,3.108589,44.4369,3.0724074Q44.0695,3.0362255,43.7008,3.0181128Q43.3321,3,42.963,3L17.037,3Z" fill-rule="evenodd" fill="#FEA1CD" fill-opacity="1"/></g><g><g><g><ellipse cx="37.18218231201172" cy="19.669669151306152" rx="5.780780792236328" ry="5.780780792236328" fill="#FFFFFF" fill-opacity="1"/></g><g><ellipse cx="37.18218231201172" cy="19.669669151306152" rx="2.2772772312164307" ry="2.2772772312164307" fill="#000000" fill-opacity="1"/></g></g><g><path d="M21.941946895751954,16.866866300033568Q18.098296895751954,16.86686730003357,16.233661895751954,21.16008230003357L16.23446489575195,21.16043230003357Q16.162036895751953,21.32719230003357,16.162036895751953,21.509012300033568Q16.162036895751953,21.59519230003357,16.178849895751952,21.679712300033568Q16.195662895751955,21.76423230003357,16.228642895751953,21.843852300033568Q16.261621895751954,21.92347230003357,16.309500895751952,21.995132300033568Q16.357379895751954,22.06679230003357,16.418318895751952,22.127722300033568Q16.479256895751952,22.18866230003357,16.550912895751953,22.23654230003357Q16.622568895751954,22.28442230003357,16.702188895751952,22.31740230003357Q16.781808895751954,22.35038230003357,16.866332895751952,22.36719230003357Q16.950856895751954,22.384012300033568,17.037036895751953,22.384012300033568Q17.164926895751954,22.384012300033568,17.287466895751955,22.34740230003357Q17.410006895751952,22.31080230003357,17.516944895751955,22.24066230003357Q17.623882895751954,22.170512300033568,17.706271895751954,22.07270230003357Q17.788660895751953,21.97488230003357,17.839608895751955,21.85758230003357L17.840411895751952,21.857932300033568Q19.247316895751954,18.61861830003357,21.941946895751954,18.61861830003357Q24.648646895751952,18.61861830003357,26.137976895751954,21.87345230003357L26.138776895751953,21.87308230003357Q26.19108689575195,21.98740230003357,26.27346689575195,22.08237230003357Q26.355856895751955,22.17734230003357,26.461646895751954,22.24528230003357Q26.567436895751953,22.31321230003357,26.688076895751955,22.34861230003357Q26.808706895751953,22.384012300033568,26.93443689575195,22.384012300033568Q27.020616895751953,22.384012300033568,27.105136895751954,22.36719230003357Q27.189636895751953,22.35038230003357,27.269236895751952,22.31740230003357Q27.348936895751955,22.28442230003357,27.42053689575195,22.23654230003357Q27.49223689575195,22.18866230003357,27.553136895751955,22.127722300033568Q27.614136895751955,22.06679230003357,27.661936895751953,21.995132300033568Q27.709836895751955,21.92347230003357,27.742836895751953,21.843852300033568Q27.77583689575195,21.76423230003357,27.792636895751954,21.679712300033568Q27.80943689575195,21.59519230003357,27.80943689575195,21.509012300033568Q27.80943689575195,21.318322300033568,27.730136895751954,21.14493230003357L27.730936895751952,21.14457230003357Q25.773516895751953,16.866866300033568,21.941946895751954,16.866866300033568Z" fill-rule="evenodd" fill="#000000" fill-opacity="1"/></g><g transform="matrix(1,0,0,-1,0,59.309309005737305)"><path d="M30.778239696884157,28.77877850286865Q23.236789696884156,28.77877850286865,19.376016696884154,31.18894450286865L19.376480696884155,31.18969450286865Q19.282014696884154,31.248664502868653,19.205331696884155,31.32941450286865Q19.128648696884156,31.410174502868653,19.074638696884154,31.50755450286865Q19.020628696884156,31.60494450286865,18.992733696884155,31.712754502868652Q18.964839696884155,31.820574502868652,18.964839696884155,31.931934502868653Q18.964839696884155,32.018114502868656,18.981652696884154,32.10263450286865Q18.998465696884157,32.18715450286865,19.031445696884155,32.26677450286865Q19.064424696884156,32.346394502868655,19.112303696884155,32.41805450286865Q19.160182696884156,32.48971450286865,19.221121696884154,32.55065450286865Q19.282059696884154,32.61158450286865,19.353715696884155,32.65946450286865Q19.425371696884156,32.70734450286865,19.504991696884154,32.74032450286865Q19.584611696884156,32.773304502868655,19.669135696884155,32.790114502868654Q19.753659696884156,32.80693450286865,19.839839696884155,32.80693450286865Q20.090537696884155,32.80693450286865,20.303198696884156,32.67417450286865L20.303662696884157,32.67491450286865Q23.738689696884155,30.530530502868654,30.778239696884157,30.530530502868654Q37.82863969688415,30.530530502868654,41.465439696884154,32.68545450286865L41.46583969688416,32.684704502868655Q41.67213969688416,32.80693450286865,41.911939696884154,32.80693450286865Q41.99813969688415,32.80693450286865,42.08263969688416,32.790114502868654Q42.167139696884156,32.773304502868655,42.246739696884156,32.74032450286865Q42.326339696884155,32.70734450286865,42.398039696884155,32.65946450286865Q42.469739696884155,32.61158450286865,42.53063969688415,32.55065450286865Q42.591539696884155,32.48971450286865,42.63943969688415,32.41805450286865Q42.68733969688415,32.346394502868655,42.72033969688415,32.26677450286865Q42.75323969688415,32.18715450286865,42.77013969688416,32.10263450286865Q42.786939696884154,32.018114502868656,42.786939696884154,31.931934502868653Q42.786939696884154,31.81799450286865,42.75773969688416,31.707854502868653Q42.728539696884155,31.59771450286865,42.67213969688416,31.49872450286865Q42.615739696884155,31.399734502868654,42.53583969688415,31.318484502868653Q42.45593969688416,31.237244502868652,42.35793969688416,31.17916450286865L42.358439696884155,31.178404502868652Q38.30863969688416,28.77877850286865,30.778239696884157,28.77877850286865Z" fill-rule="evenodd" fill="#000000" fill-opacity="1"/></g></g></g></g></g></svg>