<svg xmlns="http://www.w3.org/2000/svg" xmlns:xlink="http://www.w3.org/1999/xlink" fill="none" version="1.1" width="100" height="100" viewBox="0 0 100 100"><g><g><ellipse cx="50" cy="50.000003814697266" rx="50" ry="50.000003814697266" fill="#FFFFFF" fill-opacity="1"/></g><g><g><path d="M78.33336603088378,34.999997938232426C78.33336603088378,35.82648793823242,78.02626603088379,36.62350793823242,77.4717660308838,37.23637793823242L45.80516603088379,72.23636793823242C44.56996603088379,73.60146793823242,42.46206603088379,73.70686793823242,41.09696603088379,72.47176793823243C41.05576603088379,72.43456793823242,41.01556603088379,72.39626793823243,40.97626603088379,72.35706793823242L22.64422703088379,54.02496793823242L22.64422703088379,54.02496793823242C22.01785503088379,53.39856793823242,21.66666603088379,52.550767938232426,21.66666603088379,51.66666793823242C21.66666603088379,49.82566793823242,23.15904603088379,48.33336793823242,24.99999603088379,48.33336793823242C25.88405603088379,48.33336793823242,26.73189603088379,48.68456793823242,27.357026030883787,49.30966793823242L27.357026030883787,49.30966793823242L43.21256603088379,65.16516793823243L72.5281660308838,32.763627938232425C73.16016603088379,32.065165938232425,74.0580660308838,31.666667938232422,74.9999660308838,31.666667938232422C76.84096603088379,31.666667938232422,78.33336603088378,33.15904793823242,78.33336603088378,34.999997938232426Z" fill-rule="evenodd" fill="#6EC25B" fill-opacity="1"/></g></g></g></svg>