<svg xmlns="http://www.w3.org/2000/svg" xmlns:xlink="http://www.w3.org/1999/xlink" fill="none" version="1.1" width="160" height="56" viewBox="0 0 160 56"><g><path d="M20.68,8.68L16.28,9.4C16.88,10.44,17.44,11.6,17.96,12.88L4.08,12.88L4.08,16.84L11.12,16.84L12.44,21.72L4.4,21.72L4.4,30.96C4.32,36.2,3.24,40.28,1.2,43.24L4.36,46.08C7.08,42.28,8.48,37.24,8.64,30.96L8.64,25.76L36.88,25.76L36.88,21.72L27.84,21.72C28.48,20.12,29,18.52,29.4,16.84L36.04,16.84L36.04,12.88L22.24,12.88C21.76,11.32,21.24,9.92,20.68,8.68ZM16.56,21.72L15.24,16.84L25.4,16.84C25,18.52,24.48,20.12,23.8,21.72L16.56,21.72ZM48.52,10.4L48.52,24.68L71.52,24.68L71.52,10.4L48.52,10.4ZM67.32,20.76L52.72,20.76L52.72,14.32L67.32,14.32L67.32,20.76ZM58.2,27.32L43.12,27.32L43.12,45.56L47.2,45.56L47.2,43.68L54.16,43.68L54.16,45.56L58.2,45.56L58.2,27.32ZM47.2,39.8L47.2,31.24L54.16,31.24L54.16,39.8L47.2,39.8ZM76.88,27.32L61.32,27.32L61.32,45.56L65.4,45.56L65.4,43.68L72.72,43.68L72.72,45.56L76.88,45.56L76.88,27.32ZM65.4,39.8L65.4,31.24L72.72,31.24L72.72,39.8L65.4,39.8ZM83.68,12.8L83.68,16.56L97.88,16.56L97.88,19.28L85.92,19.28L85.92,22.88L97.88,22.88L97.88,25.64L82.36,25.64L82.36,29.48L117.64,29.48L117.64,25.64L102.12,25.64L102.12,22.88L114.2,22.88L114.2,19.28L102.12,19.28L102.12,16.56L116.32,16.56L116.32,12.8L108.24,12.8C108.8,11.76,109.28,10.64,109.6,9.44L105.12,8.84C104.8,10.2,104.36,11.52,103.8,12.8L96.36,12.8C95.88,11.4,95.36,10.12,94.84,8.96L90.4,9.68C91,10.64,91.56,11.68,92.04,12.8L83.68,12.8ZM98.16,30.16C98,30.96,97.84,31.76,97.6,32.56L83.28,32.56L83.28,36.48L95.4,36.48C94.88,37.04,94.28,37.6,93.6,38.16C91.12,40,87.04,41.4,81.36,42.4L83.08,46.48C89.72,45.12,94.4,43.28,97.04,40.96C98.16,39.96,99.16,38.8,99.96,37.48C102.64,41.76,108.2,44.72,116.64,46.36L118.84,42.4C111.6,41.36,106.6,39.36,103.88,36.48L116.76,36.48L116.76,32.56L102,32.56C102.16,31.92,102.28,31.24,102.4,30.56L98.16,30.16ZM130.04,18.28L130.04,21.64L143.36,21.64L143.36,18.28L130.04,18.28ZM130.72,23.44L130.72,32.2L142.64,32.2L142.64,23.44L130.72,23.44ZM138.76,29.08L134.6,29.08L134.6,26.6L138.76,26.6L138.76,29.08ZM156.8,12.28L154.44,12.28C154.2,11.08,154,10,153.76,9.04L150.08,9.68C150.36,10.48,150.64,11.36,150.88,12.28L148,12.28C147.96,11.24,147.96,10.12,147.96,9L144,9C144,10.12,144,11.24,144.04,12.28L124.76,12.28L124.76,20.48C124.68,24.92,123.56,28.4,121.48,30.88L124.6,33.68C127.28,30.36,128.68,25.96,128.84,20.48L128.84,16.04L144.24,16.04C144.44,19.16,144.84,21.76,145.4,23.84C145.8,25.32,146.32,26.68,146.88,27.88C145.72,29.16,144.44,30.24,143.04,31.04L145.16,34.28C146.44,33.48,147.68,32.48,148.88,31.28C148.92,31.36,149,31.44,149.12,31.56C150.56,33.2,152.08,34.04,153.68,34.04C155.64,34.04,157.28,31.88,158.6,27.64L155.28,25.68C154.56,28.64,153.88,30.16,153.28,30.16C152.64,30.16,151.96,29.52,151.2,28.32C152.88,25.84,154.28,22.8,155.44,19.12L152.28,17.44C151.48,19.92,150.56,22.12,149.52,24.08C149.32,23.4,149.12,22.64,148.96,21.76C148.6,20.24,148.32,18.36,148.16,16.04L156.8,16.04L156.8,12.28ZM125.68,34.12C124.88,37.12,123.6,39.96,121.76,42.64L125.28,44.92C127.08,42.12,128.48,38.8,129.48,34.96L125.68,34.12ZM145.52,45.52C147,45.52,148.12,45.2,148.88,44.64C149.64,44,150.2,42,150.52,38.64L146.52,37.36C146.4,39.4,146.2,40.64,145.92,41.04C145.68,41.44,145.28,41.64,144.72,41.64L136.68,41.64C135.88,41.64,135.52,41.12,135.52,40.08L135.52,33.76L131.28,33.76L131.28,40.96C131.28,44,132.64,45.52,135.44,45.52L145.52,45.52ZM153.56,34.76L150.16,36.84C152.32,39.48,154,41.88,155.24,44.04L158.56,41.72C157.4,39.72,155.72,37.4,153.56,34.76ZM140.68,32.96L137.56,34.88C139.24,36.88,140.6,38.72,141.56,40.32L144.68,38.16C143.72,36.68,142.4,34.96,140.68,32.96Z" fill="#111111" fill-opacity="1"/></g></svg>