<svg xmlns="http://www.w3.org/2000/svg" xmlns:xlink="http://www.w3.org/1999/xlink" fill="none" version="1.1" width="308" height="128" viewBox="0 0 308 128"><g><path d="M21.12,43.64L73.36,43.64L73.36,35.64L25.68,35.64C26.48,33.96,27.36,32.2,28.16,30.44L19.68,28.52C15.04,38.76,9.6,46.6,3.44,52.12L8.8,58.6C11.6,56.04,14.24,53.08,16.8,49.8C16.64,55.16,16.32,60.68,15.84,66.28L2.88,66.28L2.88,74.12L15.04,74.12C14.24,80.12,13.36,86.2,12.24,92.28L58.32,92.28C58.32,92.36,58.24,92.44,58.24,92.6C57.68,94.04,56.8,95,55.68,95.48C54.64,95.8,53.36,96.04,51.92,96.04C48.48,96.04,44.64,95.88,40.4,95.72L42.88,103.32C46.72,103.32,50.16,103.24,53.04,103.24C56.88,103.24,59.84,102.6,61.84,101.4C63.84,100.28,65.2,98.44,65.92,95.88C66.08,95.32,66.24,94.12,66.48,92.28L75.04,92.28L75.04,84.6L66.96,84.6C67.12,81.72,67.28,78.2,67.44,74.12L77.28,74.12L77.28,66.28L67.76,66.28L68.32,48.36L17.92,48.36C18.96,46.84,20,45.24,21.12,43.64ZM34.16,74.12L30.56,79.32C34.8,80.6,39.04,82.36,43.28,84.6L21.92,84.6C22.48,81.4,22.96,77.88,23.44,74.12L34.16,74.12ZM24.16,66.28C24.32,63.08,24.56,59.64,24.72,56.04L34.64,56.04L31.12,61.24C35.04,62.52,38.96,64.2,42.88,66.28L24.16,66.28ZM48.64,66.28L51.04,62.6C46.32,60.04,41.12,57.8,35.52,56.04L59.92,56.04L59.6,66.28L48.64,66.28ZM59.36,74.12C59.2,78.28,59.04,81.72,58.88,84.6L47.84,84.6L50.56,80.52C45.84,77.96,40.64,75.88,35.04,74.12L59.36,74.12ZM146.8,31.8L94.72,31.8L94.72,103.08L103.12,103.08L103.12,97.48L138.4,97.48L138.4,103L146.8,103L146.8,31.8ZM103.12,89.32L103.12,67.8L138.4,67.8L138.4,89.32L103.12,89.32ZM103.12,59.64L103.12,39.96L138.4,39.96L138.4,59.64L103.12,59.64ZM207.9,97L205.5,99.5L186.2,99.5L191,44.8L186.1,48.1Q181.9,50.8,179.6,52.6L176.9,52.6L170.7,40.9L170.2,35.6Q172.6,36.8,174.7,36.8Q176.6,36.8,178.5,35.8L180.7,34.5Q181.7,33.9,186.95,30.85Q192.2,27.8,196.2,25L211.8,28.1L206.1,92.6Q205.8,95.7,207.9,97ZM285.12,94.36C269.44,94.36,259.52,93.64,255.28,92.36L255.28,86.04L265.36,86.04L265.36,78.68L255.28,78.68L255.28,72.44L267.36,72.44L267.36,64.92L232.96,64.92L232.96,72.44L248.08,72.44L248.08,88.6C246.4,87.24,244.8,85.48,243.2,83.4C243.6,81,243.84,78.44,244,75.8L236.64,74.84C236.24,83.4,234.08,91.16,230.08,98.2L236.16,103.56C238.32,99.72,240.08,95.64,241.44,91.32C244.32,94.92,247.52,97.48,251.2,99.08C256,101.08,267.92,102.12,287.04,102.12L303.44,102.12L304.88,93.8C300.56,94.12,293.92,94.36,285.12,94.36ZM235.92,31.72L235.92,61.32L264.8,61.32L264.8,31.72L235.92,31.72ZM256.64,54.44L244,54.44L244,49.64L256.64,49.64L256.64,54.44ZM244,43.4L244,38.6L256.64,38.6L256.64,43.4L244,43.4ZM267.84,31.72L267.84,39.24L281.84,39.24C281.68,40.76,281.44,42.28,281.2,43.8L269.84,43.8L269.84,76.84L277.2,76.84L277.2,50.84L293.68,50.84L293.68,76.84L301.36,76.84L301.36,43.8L288.56,43.8C288.88,42.36,289.12,40.84,289.36,39.24L303.04,39.24L303.04,31.72L267.84,31.72ZM292.24,76.28L286.64,81.56C291.68,85.64,295.6,89.4,298.32,92.84L304.16,87C300.88,83.4,296.88,79.8,292.24,76.28ZM281.6,53.56L281.6,65.16C281.36,70.44,280.24,74.68,278.32,77.96C276.32,81,272.4,83.56,266.64,85.64L271.2,92.68C277.36,90.44,281.84,87.32,284.64,83.16C287.44,78.68,288.96,72.68,289.28,65.16L289.28,53.56L281.6,53.56Z" fill="#111111" fill-opacity="1"/></g></svg>