<svg xmlns="http://www.w3.org/2000/svg" xmlns:xlink="http://www.w3.org/1999/xlink" fill="none" version="1.1" width="100" height="100" viewBox="0 0 100 100"><g><g><ellipse cx="50" cy="50.000003814697266" rx="50" ry="50.000003814697266" fill="#FFFFFF" fill-opacity="1"/></g><g><g><path d="M55.303366030883794,49.99996793823242L73.4836660308838,68.18036793823242C74.18816603088379,68.88496793823242,74.58336603088378,69.83886793823243,74.58336603088378,70.83336793823241C74.58336603088378,72.90436793823241,72.90436603088378,74.58336793823241,70.83336603088378,74.58336793823241C69.83886603088379,74.58336793823241,68.88496603088379,74.18816793823243,68.18036603088379,73.48366793823243L49.99996603088379,55.30336793823243L31.81831603088379,73.48496793823242C31.11504603088379,74.18816793823243,30.16122603088379,74.58336793823241,29.16666603088379,74.58336793823241C27.09559603088379,74.58336793823241,25.416661262513788,72.90436793823241,25.416661262513788,70.83336793823241C25.416661262513788,69.83886793823243,25.811745030883788,68.88496793823242,26.51501603088379,68.18166793823242L44.69666603088379,49.99996793823242L26.51501603088379,31.818317938232422C25.81174403088379,31.115047938232422,25.41666116317379,30.16123793823242,25.41666116317379,29.166667938232422C25.41666116317379,27.095597938232423,27.09559603088379,25.416667938232422,29.16666603088379,25.416667938232422C30.16122603088379,25.416667938232422,31.11504603088379,25.81175093823242,31.81907603088379,26.51578793823242L49.99996603088379,44.69666793823242L68.1806660308838,26.51608793823242C68.88496603088379,25.81176793823242,69.83886603088379,25.416684329532423,70.83336603088378,25.416684329532423C72.90436603088378,25.416684329532423,74.58336603088378,27.095617938232422,74.58336603088378,29.16668793823242C74.58336603088378,30.16124793823242,74.18816603088379,31.11506793823242,73.48496603088378,31.81833793823242L55.303366030883794,49.99996793823242Z" fill="#DB5D26" fill-opacity="1"/></g></g></g></svg>